<?xml version="1.0" encoding="utf-8" standalone="no"?>
<!DOCTYPE svg PUBLIC "-//W3C//DTD SVG 1.1//EN"
  "http://www.w3.org/Graphics/SVG/1.1/DTD/svg11.dtd">
<svg xmlns:xlink="http://www.w3.org/1999/xlink" width="288pt" height="288pt" viewBox="0 0 288 288" xmlns="http://www.w3.org/2000/svg" version="1.1">
 <metadata>
  <rdf:RDF xmlns:dc="http://purl.org/dc/elements/1.1/" xmlns:cc="http://creativecommons.org/ns#" xmlns:rdf="http://www.w3.org/1999/02/22-rdf-syntax-ns#">
   <cc:Work>
    <dc:type rdf:resource="http://purl.org/dc/dcmitype/StillImage"/>
    <dc:date>2025-12-22T20:45:40.649288</dc:date>
    <dc:format>image/svg+xml</dc:format>
    <dc:creator>
     <cc:Agent>
      <dc:title>Matplotlib v3.10.5, https://matplotlib.org/</dc:title>
     </cc:Agent>
    </dc:creator>
   </cc:Work>
  </rdf:RDF>
 </metadata>
 <defs>
  <style type="text/css">*{stroke-linejoin: round; stroke-linecap: butt}</style>
 </defs>
 <g id="figure_1">
  <g id="patch_1">
   <path d="M 0 288 
L 288 288 
L 288 0 
L 0 0 
z
" style="fill: #ffffff"/>
  </g>
  <g id="axes_1">
   <g id="patch_2">
    <path d="M 277.2 144 
C 277.2 126.508336 273.754524 109.186757 267.060754 93.026567 
C 260.366984 76.866377 250.555097 62.181851 238.186623 49.813377 
C 225.818149 37.444903 211.133623 27.633016 194.973433 20.939246 
C 178.813243 14.245476 161.491664 10.8 144 10.8 
C 126.508336 10.8 109.186757 14.245476 93.026567 20.939246 
C 76.866377 27.633016 62.181851 37.444903 49.813377 49.813377 
C 37.444903 62.181851 27.633016 76.866377 20.939246 93.026567 
C 14.245476 109.186757 10.8 126.508336 10.8 144 
C 10.8 161.491664 14.245476 178.813243 20.939246 194.973433 
C 27.633016 211.133623 37.444903 225.818149 49.813377 238.186623 
C 62.181851 250.555097 76.866377 260.366984 93.026567 267.060754 
C 109.186757 273.754524 126.508336 277.2 144 277.2 
C 161.491664 277.2 178.813243 273.754524 194.973433 267.060754 
C 211.133623 260.366984 225.818149 250.555097 238.186623 238.186623 
C 250.555097 225.818149 260.366984 211.133623 267.060754 194.973433 
C 273.754524 178.813243 277.2 161.491664 277.2 144 
M 144 144 
C 144 144 144 144 144 144 
C 144 144 144 144 144 144 
C 144 144 144 144 144 144 
C 144 144 144 144 144 144 
C 144 144 144 144 144 144 
C 144 144 144 144 144 144 
C 144 144 144 144 144 144 
C 144 144 144 144 144 144 
C 144 144 144 144 144 144 
C 144 144 144 144 144 144 
C 144 144 144 144 144 144 
C 144 144 144 144 144 144 
C 144 144 144 144 144 144 
C 144 144 144 144 144 144 
C 144 144 144 144 144 144 
C 144 144 144 144 144 144 
z
" style="fill: #ffffff"/>
   </g>
   <g id="matplotlib.axis_1">
    <g id="xtick_1">
     <g id="line2d_1">
      <path d="M 144 144 
L 144 10.8 
" clip-path="url(#p85f56373ee)" style="fill: none; stroke-dasharray: 2.96,1.28; stroke-dashoffset: 0; stroke: #9aa5b1; stroke-opacity: 0.8; stroke-width: 0.8"/>
     </g>
    </g>
    <g id="xtick_2">
     <g id="line2d_2">
      <path d="M 144 144 
L 177.125493 14.984723 
" clip-path="url(#p85f56373ee)" style="fill: none; stroke-dasharray: 2.96,1.28; stroke-dashoffset: 0; stroke: #9aa5b1; stroke-opacity: 0.8; stroke-width: 0.8"/>
     </g>
    </g>
    <g id="xtick_3">
     <g id="line2d_3">
      <path d="M 144 144 
L 208.169589 27.27595 
" clip-path="url(#p85f56373ee)" style="fill: none; stroke-dasharray: 2.96,1.28; stroke-dashoffset: 0; stroke: #9aa5b1; stroke-opacity: 0.8; stroke-width: 0.8"/>
     </g>
    </g>
    <g id="xtick_4">
     <g id="line2d_4">
      <path d="M 144 144 
L 235.181675 46.901379 
" clip-path="url(#p85f56373ee)" style="fill: none; stroke-dasharray: 2.96,1.28; stroke-dashoffset: 0; stroke: #9aa5b1; stroke-opacity: 0.8; stroke-width: 0.8"/>
     </g>
    </g>
    <g id="xtick_5">
     <g id="line2d_5">
      <path d="M 144 144 
L 256.46448 72.627871 
" clip-path="url(#p85f56373ee)" style="fill: none; stroke-dasharray: 2.96,1.28; stroke-dashoffset: 0; stroke: #9aa5b1; stroke-opacity: 0.8; stroke-width: 0.8"/>
     </g>
    </g>
    <g id="xtick_6">
     <g id="line2d_6">
      <path d="M 144 144 
L 270.680728 102.838936 
" clip-path="url(#p85f56373ee)" style="fill: none; stroke-dasharray: 2.96,1.28; stroke-dashoffset: 0; stroke: #9aa5b1; stroke-opacity: 0.8; stroke-width: 0.8"/>
     </g>
    </g>
    <g id="xtick_7">
     <g id="line2d_7">
      <path d="M 144 144 
L 276.93716 135.636303 
" clip-path="url(#p85f56373ee)" style="fill: none; stroke-dasharray: 2.96,1.28; stroke-dashoffset: 0; stroke: #9aa5b1; stroke-opacity: 0.8; stroke-width: 0.8"/>
     </g>
    </g>
    <g id="xtick_8">
     <g id="line2d_8">
      <path d="M 144 144 
L 274.840662 168.959191 
" clip-path="url(#p85f56373ee)" style="fill: none; stroke-dasharray: 2.96,1.28; stroke-dashoffset: 0; stroke: #9aa5b1; stroke-opacity: 0.8; stroke-width: 0.8"/>
     </g>
    </g>
    <g id="xtick_9">
     <g id="line2d_9">
      <path d="M 144 144 
L 264.522963 200.713802 
" clip-path="url(#p85f56373ee)" style="fill: none; stroke-dasharray: 2.96,1.28; stroke-dashoffset: 0; stroke: #9aa5b1; stroke-opacity: 0.8; stroke-width: 0.8"/>
     </g>
    </g>
    <g id="xtick_10">
     <g id="line2d_10">
      <path d="M 144 144 
L 246.632364 228.904875 
" clip-path="url(#p85f56373ee)" style="fill: none; stroke-dasharray: 2.96,1.28; stroke-dashoffset: 0; stroke: #9aa5b1; stroke-opacity: 0.8; stroke-width: 0.8"/>
     </g>
    </g>
    <g id="xtick_11">
     <g id="line2d_11">
      <path d="M 144 144 
L 222.292996 251.761064 
" clip-path="url(#p85f56373ee)" style="fill: none; stroke-dasharray: 2.96,1.28; stroke-dashoffset: 0; stroke: #9aa5b1; stroke-opacity: 0.8; stroke-width: 0.8"/>
     </g>
    </g>
    <g id="xtick_12">
     <g id="line2d_12">
      <path d="M 144 144 
L 193.03419 267.846228 
" clip-path="url(#p85f56373ee)" style="fill: none; stroke-dasharray: 2.96,1.28; stroke-dashoffset: 0; stroke: #9aa5b1; stroke-opacity: 0.8; stroke-width: 0.8"/>
     </g>
    </g>
    <g id="xtick_13">
     <g id="line2d_13">
      <path d="M 144 144 
L 160.694387 276.149678 
" clip-path="url(#p85f56373ee)" style="fill: none; stroke-dasharray: 2.96,1.28; stroke-dashoffset: 0; stroke: #9aa5b1; stroke-opacity: 0.8; stroke-width: 0.8"/>
     </g>
    </g>
    <g id="xtick_14">
     <g id="line2d_14">
      <path d="M 144 144 
L 127.305613 276.149678 
" clip-path="url(#p85f56373ee)" style="fill: none; stroke-dasharray: 2.96,1.28; stroke-dashoffset: 0; stroke: #9aa5b1; stroke-opacity: 0.8; stroke-width: 0.8"/>
     </g>
    </g>
    <g id="xtick_15">
     <g id="line2d_15">
      <path d="M 144 144 
L 94.96581 267.846228 
" clip-path="url(#p85f56373ee)" style="fill: none; stroke-dasharray: 2.96,1.28; stroke-dashoffset: 0; stroke: #9aa5b1; stroke-opacity: 0.8; stroke-width: 0.8"/>
     </g>
    </g>
    <g id="xtick_16">
     <g id="line2d_16">
      <path d="M 144 144 
L 65.707004 251.761064 
" clip-path="url(#p85f56373ee)" style="fill: none; stroke-dasharray: 2.96,1.28; stroke-dashoffset: 0; stroke: #9aa5b1; stroke-opacity: 0.8; stroke-width: 0.8"/>
     </g>
    </g>
    <g id="xtick_17">
     <g id="line2d_17">
      <path d="M 144 144 
L 41.367636 228.904875 
" clip-path="url(#p85f56373ee)" style="fill: none; stroke-dasharray: 2.96,1.28; stroke-dashoffset: 0; stroke: #9aa5b1; stroke-opacity: 0.8; stroke-width: 0.8"/>
     </g>
    </g>
    <g id="xtick_18">
     <g id="line2d_18">
      <path d="M 144 144 
L 23.477037 200.713802 
" clip-path="url(#p85f56373ee)" style="fill: none; stroke-dasharray: 2.96,1.28; stroke-dashoffset: 0; stroke: #9aa5b1; stroke-opacity: 0.8; stroke-width: 0.8"/>
     </g>
    </g>
    <g id="xtick_19">
     <g id="line2d_19">
      <path d="M 144 144 
L 13.159338 168.959191 
" clip-path="url(#p85f56373ee)" style="fill: none; stroke-dasharray: 2.96,1.28; stroke-dashoffset: 0; stroke: #9aa5b1; stroke-opacity: 0.8; stroke-width: 0.8"/>
     </g>
    </g>
    <g id="xtick_20">
     <g id="line2d_20">
      <path d="M 144 144 
L 11.06284 135.636303 
" clip-path="url(#p85f56373ee)" style="fill: none; stroke-dasharray: 2.96,1.28; stroke-dashoffset: 0; stroke: #9aa5b1; stroke-opacity: 0.8; stroke-width: 0.8"/>
     </g>
    </g>
    <g id="xtick_21">
     <g id="line2d_21">
      <path d="M 144 144 
L 17.319272 102.838936 
" clip-path="url(#p85f56373ee)" style="fill: none; stroke-dasharray: 2.96,1.28; stroke-dashoffset: 0; stroke: #9aa5b1; stroke-opacity: 0.8; stroke-width: 0.8"/>
     </g>
    </g>
    <g id="xtick_22">
     <g id="line2d_22">
      <path d="M 144 144 
L 31.53552 72.627871 
" clip-path="url(#p85f56373ee)" style="fill: none; stroke-dasharray: 2.96,1.28; stroke-dashoffset: 0; stroke: #9aa5b1; stroke-opacity: 0.8; stroke-width: 0.8"/>
     </g>
    </g>
    <g id="xtick_23">
     <g id="line2d_23">
      <path d="M 144 144 
L 52.818325 46.901379 
" clip-path="url(#p85f56373ee)" style="fill: none; stroke-dasharray: 2.96,1.28; stroke-dashoffset: 0; stroke: #9aa5b1; stroke-opacity: 0.8; stroke-width: 0.8"/>
     </g>
    </g>
    <g id="xtick_24">
     <g id="line2d_24">
      <path d="M 144 144 
L 79.830411 27.27595 
" clip-path="url(#p85f56373ee)" style="fill: none; stroke-dasharray: 2.96,1.28; stroke-dashoffset: 0; stroke: #9aa5b1; stroke-opacity: 0.8; stroke-width: 0.8"/>
     </g>
    </g>
    <g id="xtick_25">
     <g id="line2d_25">
      <path d="M 144 144 
L 110.874507 14.984723 
" clip-path="url(#p85f56373ee)" style="fill: none; stroke-dasharray: 2.96,1.28; stroke-dashoffset: 0; stroke: #9aa5b1; stroke-opacity: 0.8; stroke-width: 0.8"/>
     </g>
    </g>
   </g>
   <g id="matplotlib.axis_2">
    <g id="ytick_1">
     <g id="line2d_26">
      <path d="M 144 117.36 
C 147.498333 117.36 150.962649 118.049095 154.194687 119.387849 
C 157.426725 120.726603 160.36363 122.688981 162.837325 125.162675 
C 165.311019 127.63637 167.273397 130.573275 168.612151 133.805313 
C 169.950905 137.037351 170.64 140.501667 170.64 144 
C 170.64 147.498333 169.950905 150.962649 168.612151 154.194687 
C 167.273397 157.426725 165.311019 160.36363 162.837325 162.837325 
C 160.36363 165.311019 157.426725 167.273397 154.194687 168.612151 
C 150.962649 169.950905 147.498333 170.64 144 170.64 
C 140.501667 170.64 137.037351 169.950905 133.805313 168.612151 
C 130.573275 167.273397 127.63637 165.311019 125.162675 162.837325 
C 122.688981 160.36363 120.726603 157.426725 119.387849 154.194687 
C 118.049095 150.962649 117.36 147.498333 117.36 144 
C 117.36 140.501667 118.049095 137.037351 119.387849 133.805313 
C 120.726603 130.573275 122.688981 127.63637 125.162675 125.162675 
C 127.63637 122.688981 130.573275 120.726603 133.805313 119.387849 
C 137.037351 118.049095 140.501667 117.36 144 117.36 
" clip-path="url(#p85f56373ee)" style="fill: none; stroke-dasharray: 2.96,1.28; stroke-dashoffset: 0; stroke: #9aa5b1; stroke-opacity: 0.8; stroke-width: 0.8"/>
     </g>
    </g>
    <g id="ytick_2">
     <g id="line2d_27">
      <path d="M 144 90.72 
C 150.996665 90.72 157.925297 92.098191 164.389373 94.775699 
C 170.853449 97.453206 176.72726 101.377961 181.674649 106.325351 
C 186.622039 111.27274 190.546794 117.146551 193.224301 123.610627 
C 195.901809 130.074703 197.28 137.003335 197.28 144 
C 197.28 150.996665 195.901809 157.925297 193.224301 164.389373 
C 190.546794 170.853449 186.622039 176.72726 181.674649 181.674649 
C 176.72726 186.622039 170.853449 190.546794 164.389373 193.224301 
C 157.925297 195.901809 150.996665 197.28 144 197.28 
C 137.003335 197.28 130.074703 195.901809 123.610627 193.224301 
C 117.146551 190.546794 111.27274 186.622039 106.325351 181.674649 
C 101.377961 176.72726 97.453206 170.853449 94.775699 164.389373 
C 92.098191 157.925297 90.72 150.996665 90.72 144 
C 90.72 137.003335 92.098191 130.074703 94.775699 123.610627 
C 97.453206 117.146551 101.377961 111.27274 106.325351 106.325351 
C 111.27274 101.377961 117.146551 97.453206 123.610627 94.775699 
C 130.074703 92.098191 137.003335 90.72 144 90.72 
" clip-path="url(#p85f56373ee)" style="fill: none; stroke-dasharray: 2.96,1.28; stroke-dashoffset: 0; stroke: #9aa5b1; stroke-opacity: 0.8; stroke-width: 0.8"/>
     </g>
    </g>
    <g id="ytick_3">
     <g id="line2d_28">
      <path d="M 144 64.08 
C 154.494998 64.08 164.887946 66.147286 174.58406 70.163548 
C 184.280174 74.17981 193.09089 80.066942 200.511974 87.488026 
C 207.933058 94.90911 213.82019 103.719826 217.836452 113.41594 
C 221.852714 123.112054 223.92 133.505002 223.92 144 
C 223.92 154.494998 221.852714 164.887946 217.836452 174.58406 
C 213.82019 184.280174 207.933058 193.09089 200.511974 200.511974 
C 193.09089 207.933058 184.280174 213.82019 174.58406 217.836452 
C 164.887946 221.852714 154.494998 223.92 144 223.92 
C 133.505002 223.92 123.112054 221.852714 113.41594 217.836452 
C 103.719826 213.82019 94.90911 207.933058 87.488026 200.511974 
C 80.066942 193.09089 74.17981 184.280174 70.163548 174.58406 
C 66.147286 164.887946 64.08 154.494998 64.08 144 
C 64.08 133.505002 66.147286 123.112054 70.163548 113.41594 
C 74.17981 103.719826 80.066942 94.90911 87.488026 87.488026 
C 94.90911 80.066942 103.719826 74.17981 113.41594 70.163548 
C 123.112054 66.147286 133.505002 64.08 144 64.08 
" clip-path="url(#p85f56373ee)" style="fill: none; stroke-dasharray: 2.96,1.28; stroke-dashoffset: 0; stroke: #9aa5b1; stroke-opacity: 0.8; stroke-width: 0.8"/>
     </g>
    </g>
    <g id="ytick_4">
     <g id="line2d_29">
      <path d="M 144 37.44 
C 157.993331 37.44 171.850594 40.196381 184.778747 45.551397 
C 197.706899 50.906413 209.454519 58.755922 219.349299 68.650701 
C 229.244078 78.545481 237.093587 90.293101 242.448603 103.221253 
C 247.803619 116.149406 250.56 130.006669 250.56 144 
C 250.56 157.993331 247.803619 171.850594 242.448603 184.778747 
C 237.093587 197.706899 229.244078 209.454519 219.349299 219.349299 
C 209.454519 229.244078 197.706899 237.093587 184.778747 242.448603 
C 171.850594 247.803619 157.993331 250.56 144 250.56 
C 130.006669 250.56 116.149406 247.803619 103.221253 242.448603 
C 90.293101 237.093587 78.545481 229.244078 68.650701 219.349299 
C 58.755922 209.454519 50.906413 197.706899 45.551397 184.778747 
C 40.196381 171.850594 37.44 157.993331 37.44 144 
C 37.44 130.006669 40.196381 116.149406 45.551397 103.221253 
C 50.906413 90.293101 58.755922 78.545481 68.650701 68.650701 
C 78.545481 58.755922 90.293101 50.906413 103.221253 45.551397 
C 116.149406 40.196381 130.006669 37.44 144 37.44 
" clip-path="url(#p85f56373ee)" style="fill: none; stroke-dasharray: 2.96,1.28; stroke-dashoffset: 0; stroke: #9aa5b1; stroke-opacity: 0.8; stroke-width: 0.8"/>
     </g>
    </g>
    <g id="ytick_5">
     <g id="line2d_30">
      <path d="M 144 10.8 
C 161.491664 10.8 178.813243 14.245476 194.973433 20.939246 
C 211.133623 27.633016 225.818149 37.444903 238.186623 49.813377 
C 250.555097 62.181851 260.366984 76.866377 267.060754 93.026567 
C 273.754524 109.186757 277.2 126.508336 277.2 144 
C 277.2 161.491664 273.754524 178.813243 267.060754 194.973433 
C 260.366984 211.133623 250.555097 225.818149 238.186623 238.186623 
C 225.818149 250.555097 211.133623 260.366984 194.973433 267.060754 
C 178.813243 273.754524 161.491664 277.2 144 277.2 
C 126.508336 277.2 109.186757 273.754524 93.026567 267.060754 
C 76.866377 260.366984 62.181851 250.555097 49.813377 238.186623 
C 37.444903 225.818149 27.633016 211.133623 20.939246 194.973433 
C 14.245476 178.813243 10.8 161.491664 10.8 144 
C 10.8 126.508336 14.245476 109.186757 20.939246 93.026567 
C 27.633016 76.866377 37.444903 62.181851 49.813377 49.813377 
C 62.181851 37.444903 76.866377 27.633016 93.026567 20.939246 
C 109.186757 14.245476 126.508336 10.8 144 10.8 
" clip-path="url(#p85f56373ee)" style="fill: none; stroke-dasharray: 2.96,1.28; stroke-dashoffset: 0; stroke: #9aa5b1; stroke-opacity: 0.8; stroke-width: 0.8"/>
     </g>
    </g>
   </g>
   <g id="line2d_31">
    <path d="M 144 41.218697 
L 163.825199 66.785947 
L 194.408061 52.308078 
L 228.990163 53.494669 
L 228.393725 90.442113 
L 214.529018 121.083733 
L 217.815755 139.355906 
L 231.201397 160.634556 
L 225.949384 182.562453 
L 199.482764 189.899334 
L 186.135238 201.99418 
L 176.33337 225.664769 
L 153.993785 223.108954 
L 133.630568 226.08251 
L 119.506447 205.863654 
L 99.063517 205.849763 
L 105.708357 175.677602 
L 99.306509 165.03116 
L 58.711389 160.269673 
L 46.474469 137.864214 
L 80.228091 123.279251 
L 64.118934 93.305934 
L 77.692562 73.38975 
L 99.02527 62.19127 
L 126.056691 74.115426 
L 144 41.218697 
" clip-path="url(#p85f56373ee)" style="fill: none; stroke: #364f6b; stroke-width: 1.5; stroke-linecap: square"/>
   </g>
   <g id="patch_3">
    <path d="M 144 10.8 
C 126.508336 10.8 109.186757 14.245476 93.026567 20.939246 
C 76.866377 27.633016 62.181851 37.444903 49.813377 49.813377 
C 37.444903 62.181851 27.633016 76.866377 20.939246 93.026567 
C 14.245476 109.186757 10.8 126.508336 10.8 144 
C 10.8 161.491664 14.245476 178.813243 20.939246 194.973433 
C 27.633016 211.133623 37.444903 225.818149 49.813377 238.186623 
C 62.181851 250.555097 76.866377 260.366984 93.026567 267.060754 
C 109.186757 273.754524 126.508336 277.2 144 277.2 
C 161.491664 277.2 178.813243 273.754524 194.973433 267.060754 
C 211.133623 260.366984 225.818149 250.555097 238.186623 238.186623 
C 250.555097 225.818149 260.366984 211.133623 267.060754 194.973433 
C 273.754524 178.813243 277.2 161.491664 277.2 144 
C 277.2 126.508336 273.754524 109.186757 267.060754 93.026567 
C 260.366984 76.866377 250.555097 62.181851 238.186623 49.813377 
C 225.818149 37.444903 211.133623 27.633016 194.973433 20.939246 
C 178.813243 14.245476 161.491664 10.8 144 10.8 
" style="fill: none; stroke: #000000; stroke-linejoin: miter; stroke-linecap: square"/>
   </g>
   <g id="line2d_32">
    <path d="M 144 109.66773 
L 155.382618 99.66763 
L 159.193923 116.362357 
L 150.853051 136.702242 
L 175.623721 123.930976 
L 186.224425 130.280453 
L 196.573048 140.692384 
L 181.385976 151.131756 
L 171.011809 156.710793 
L 183.467589 176.650429 
L 170.030745 179.828247 
L 162.484286 190.685978 
L 150.284332 193.745609 
L 139.608436 178.762806 
L 133.105977 171.515161 
L 135.883333 155.171633 
L 129.584457 155.925574 
L 127.912544 151.570182 
L 105.946335 151.259125 
L 85.447809 140.316208 
L 111.387416 133.403529 
L 108.351846 121.376994 
L 126.363163 125.218676 
L 138.613351 134.201721 
L 137.581306 119.000836 
L 144 109.66773 
" clip-path="url(#p85f56373ee)" style="fill: none; stroke: #fc5185; stroke-width: 1.5; stroke-linecap: square"/>
   </g>
  </g>
 </g>
 <defs>
  <clipPath id="p85f56373ee">
   <path d="M 277.2 144 
C 277.2 126.508336 273.754524 109.186757 267.060754 93.026567 
C 260.366984 76.866377 250.555097 62.181851 238.186623 49.813377 
C 225.818149 37.444903 211.133623 27.633016 194.973433 20.939246 
C 178.813243 14.245476 161.491664 10.8 144 10.8 
C 126.508336 10.8 109.186757 14.245476 93.026567 20.939246 
C 76.866377 27.633016 62.181851 37.444903 49.813377 49.813377 
C 37.444903 62.181851 27.633016 76.866377 20.939246 93.026567 
C 14.245476 109.186757 10.8 126.508336 10.8 144 
C 10.8 161.491664 14.245476 178.813243 20.939246 194.973433 
C 27.633016 211.133623 37.444903 225.818149 49.813377 238.186623 
C 62.181851 250.555097 76.866377 260.366984 93.026567 267.060754 
C 109.186757 273.754524 126.508336 277.2 144 277.2 
C 161.491664 277.2 178.813243 273.754524 194.973433 267.060754 
C 211.133623 260.366984 225.818149 250.555097 238.186623 238.186623 
C 250.555097 225.818149 260.366984 211.133623 267.060754 194.973433 
C 273.754524 178.813243 277.2 161.491664 277.2 144 
M 144 144 
C 144 144 144 144 144 144 
C 144 144 144 144 144 144 
C 144 144 144 144 144 144 
C 144 144 144 144 144 144 
C 144 144 144 144 144 144 
C 144 144 144 144 144 144 
C 144 144 144 144 144 144 
C 144 144 144 144 144 144 
C 144 144 144 144 144 144 
C 144 144 144 144 144 144 
C 144 144 144 144 144 144 
C 144 144 144 144 144 144 
C 144 144 144 144 144 144 
C 144 144 144 144 144 144 
C 144 144 144 144 144 144 
C 144 144 144 144 144 144 
z
"/>
  </clipPath>
 </defs>
</svg>
