<?xml version="1.0" encoding="utf-8" standalone="no"?>
<!DOCTYPE svg PUBLIC "-//W3C//DTD SVG 1.1//EN"
  "http://www.w3.org/Graphics/SVG/1.1/DTD/svg11.dtd">
<svg xmlns:xlink="http://www.w3.org/1999/xlink" width="316.26696pt" height="316.89375pt" viewBox="0 0 316.26696 316.89375" xmlns="http://www.w3.org/2000/svg" version="1.1">
 <metadata>
  <rdf:RDF xmlns:dc="http://purl.org/dc/elements/1.1/" xmlns:cc="http://creativecommons.org/ns#" xmlns:rdf="http://www.w3.org/1999/02/22-rdf-syntax-ns#">
   <cc:Work>
    <dc:type rdf:resource="http://purl.org/dc/dcmitype/StillImage"/>
    <dc:date>2026-05-11T23:02:31.203039</dc:date>
    <dc:format>image/svg+xml</dc:format>
    <dc:creator>
     <cc:Agent>
      <dc:title>Matplotlib v3.10.5, https://matplotlib.org/</dc:title>
     </cc:Agent>
    </dc:creator>
   </cc:Work>
  </rdf:RDF>
 </metadata>
 <defs>
  <style type="text/css">*{stroke-linejoin: round; stroke-linecap: butt}</style>
 </defs>
 <g id="figure_1">
  <g id="patch_1">
   <path d="M 0 316.89375 
L 316.26696 316.89375 
L 316.26696 0 
L 0 0 
z
" style="fill: #ffffff"/>
  </g>
  <g id="axes_1">
   <g id="patch_2">
    <path d="M 29.97 290.58 
L 306.972 290.58 
L 306.972 7.2 
L 29.97 7.2 
z
" style="fill: #ffffff"/>
   </g>
   <g id="PathCollection_1">
    <defs>
     <path id="C0_0_31b54d0489" d="M 0 3.24037 
C 0.859356 3.24037 1.683631 2.898944 2.291288 2.291288 
C 2.898944 1.683631 3.24037 0.859356 3.24037 -0 
C 3.24037 -0.859356 2.898944 -1.683631 2.291288 -2.291288 
C 1.683631 -2.898944 0.859356 -3.24037 0 -3.24037 
C -0.859356 -3.24037 -1.683631 -2.898944 -2.291288 -2.291288 
C -2.898944 -1.683631 -3.24037 -0.859356 -3.24037 0 
C -3.24037 0.859356 -2.898944 1.683631 -2.291288 2.291288 
C -1.683631 2.898944 -0.859356 3.24037 0 3.24037 
z
"/>
    </defs>
    <g clip-path="url(#p75f0d3b6a8)">
     <use xlink:href="#C0_0_31b54d0489" x="212.79132" y="126.2196" style="fill: #ad2513; fill-opacity: 0.95"/>
    </g>
    <g clip-path="url(#p75f0d3b6a8)">
     <use xlink:href="#C0_0_31b54d0489" x="124.15068" y="194.2308" style="fill: #7abbef; fill-opacity: 0.95"/>
    </g>
    <g clip-path="url(#p75f0d3b6a8)">
     <use xlink:href="#C0_0_31b54d0489" x="168.471" y="137.5548" style="fill: #d2660d; fill-opacity: 0.95"/>
    </g>
    <g clip-path="url(#p75f0d3b6a8)">
     <use xlink:href="#C0_0_31b54d0489" x="268.19172" y="58.2084" style="fill: #dc6f71; fill-opacity: 0.95"/>
    </g>
    <g clip-path="url(#p75f0d3b6a8)">
     <use xlink:href="#C0_0_31b54d0489" x="257.11164" y="46.8732" style="fill: #8d6262; fill-opacity: 0.95"/>
    </g>
    <g clip-path="url(#p75f0d3b6a8)">
     <use xlink:href="#C0_0_31b54d0489" x="234.95148" y="80.8788" style="fill: #faaea0; fill-opacity: 0.95"/>
    </g>
    <g clip-path="url(#p75f0d3b6a8)">
     <use xlink:href="#C0_0_31b54d0489" x="101.99052" y="216.9012" style="fill: #c4d6a0; fill-opacity: 0.95"/>
    </g>
    <g clip-path="url(#p75f0d3b6a8)">
     <use xlink:href="#C0_0_31b54d0489" x="279.2718" y="35.538" style="fill: #006e54; fill-opacity: 0.95"/>
    </g>
    <g clip-path="url(#p75f0d3b6a8)">
     <use xlink:href="#C0_0_31b54d0489" x="79.83036" y="239.5716" style="fill: #a7e6d7; fill-opacity: 0.95"/>
    </g>
    <g clip-path="url(#p75f0d3b6a8)">
     <use xlink:href="#C0_0_31b54d0489" x="57.6702" y="262.242" style="fill: #4d5aaf; fill-opacity: 0.95"/>
    </g>
    <g clip-path="url(#p75f0d3b6a8)">
     <use xlink:href="#C0_0_31b54d0489" x="46.59012" y="273.5772" style="fill: #8491c3; fill-opacity: 0.95"/>
    </g>
    <g clip-path="url(#p75f0d3b6a8)">
     <use xlink:href="#C0_0_31b54d0489" x="35.51004" y="284.9124" style="fill: #bbc8e6; fill-opacity: 0.95"/>
    </g>
    <g clip-path="url(#p75f0d3b6a8)">
     <use xlink:href="#C0_0_31b54d0489" x="246.03156" y="69.5436" style="fill: #76b7b2; fill-opacity: 0.95"/>
    </g>
    <g clip-path="url(#p75f0d3b6a8)">
     <use xlink:href="#C0_0_31b54d0489" x="157.39092" y="160.2252" style="fill: #92cb8a; fill-opacity: 0.95"/>
    </g>
    <g clip-path="url(#p75f0d3b6a8)">
     <use xlink:href="#C0_0_31b54d0489" x="135.23076" y="182.8956" style="fill: #22808b; fill-opacity: 0.95"/>
    </g>
    <g clip-path="url(#p75f0d3b6a8)">
     <use xlink:href="#C0_0_31b54d0489" x="146.31084" y="171.5604" style="fill: #f6d55c; fill-opacity: 0.95"/>
    </g>
    <g clip-path="url(#p75f0d3b6a8)">
     <use xlink:href="#C0_0_31b54d0489" x="201.71124" y="103.5492" style="fill: #afb39f; fill-opacity: 0.95"/>
    </g>
    <g clip-path="url(#p75f0d3b6a8)">
     <use xlink:href="#C0_0_31b54d0489" x="223.8714" y="92.214" style="fill: #333631; fill-opacity: 0.95"/>
    </g>
    <g clip-path="url(#p75f0d3b6a8)">
     <use xlink:href="#C0_0_31b54d0489" x="113.0706" y="228.2364" style="fill: #e9b6da; fill-opacity: 0.95"/>
    </g>
    <g clip-path="url(#p75f0d3b6a8)">
     <use xlink:href="#C0_0_31b54d0489" x="190.63116" y="114.8844" style="fill: #aa4c8f; fill-opacity: 0.95"/>
    </g>
    <g clip-path="url(#p75f0d3b6a8)">
     <use xlink:href="#C0_0_31b54d0489" x="90.91044" y="205.566" style="fill: #f6a24f; fill-opacity: 0.95"/>
    </g>
    <g clip-path="url(#p75f0d3b6a8)">
     <use xlink:href="#C0_0_31b54d0489" x="179.55108" y="148.89" style="fill: #6587ab; fill-opacity: 0.95"/>
    </g>
    <g clip-path="url(#p75f0d3b6a8)">
     <use xlink:href="#C0_0_31b54d0489" x="301.43196" y="24.2028" style="fill: #fbebb2; fill-opacity: 0.95"/>
    </g>
    <g clip-path="url(#p75f0d3b6a8)">
     <use xlink:href="#C0_0_31b54d0489" x="290.35188" y="12.8676" style="fill: #c6a11b; fill-opacity: 0.95"/>
    </g>
    <g clip-path="url(#p75f0d3b6a8)">
     <use xlink:href="#C0_0_31b54d0489" x="68.75028" y="250.9068" style="fill: #a4ab47; fill-opacity: 0.95"/>
    </g>
   </g>
   <g id="matplotlib.axis_1">
    <g id="xtick_1">
     <g id="line2d_1">
      <defs>
       <path id="m78402d2e70" d="M 0 0 
L 0 4 
" style="stroke: #000000"/>
      </defs>
      <g>
       <use xlink:href="#m78402d2e70" x="35.51004" y="290.58" style="stroke: #000000"/>
      </g>
     </g>
     <g id="text_1">
      <!-- 1 -->
      <g transform="translate(31.69254 307.198125) scale(0.12 -0.12)">
       <defs>
        <path id="DejaVuSans-31" d="M 794 531 
L 1825 531 
L 1825 4091 
L 703 3866 
L 703 4441 
L 1819 4666 
L 2450 4666 
L 2450 531 
L 3481 531 
L 3481 0 
L 794 0 
L 794 531 
z
" transform="scale(0.015625)"/>
       </defs>
       <use xlink:href="#DejaVuSans-31"/>
      </g>
     </g>
    </g>
    <g id="xtick_2">
     <g id="line2d_2">
      <g>
       <use xlink:href="#m78402d2e70" x="79.83036" y="290.58" style="stroke: #000000"/>
      </g>
     </g>
     <g id="text_2">
      <!-- 5 -->
      <g transform="translate(76.01286 307.198125) scale(0.12 -0.12)">
       <defs>
        <path id="DejaVuSans-35" d="M 691 4666 
L 3169 4666 
L 3169 4134 
L 1269 4134 
L 1269 2991 
Q 1406 3038 1543 3061 
Q 1681 3084 1819 3084 
Q 2600 3084 3056 2656 
Q 3513 2228 3513 1497 
Q 3513 744 3044 326 
Q 2575 -91 1722 -91 
Q 1428 -91 1123 -41 
Q 819 9 494 109 
L 494 744 
Q 775 591 1075 516 
Q 1375 441 1709 441 
Q 2250 441 2565 725 
Q 2881 1009 2881 1497 
Q 2881 1984 2565 2268 
Q 2250 2553 1709 2553 
Q 1456 2553 1204 2497 
Q 953 2441 691 2322 
L 691 4666 
z
" transform="scale(0.015625)"/>
       </defs>
       <use xlink:href="#DejaVuSans-35"/>
      </g>
     </g>
    </g>
    <g id="xtick_3">
     <g id="line2d_3">
      <g>
       <use xlink:href="#m78402d2e70" x="135.23076" y="290.58" style="stroke: #000000"/>
      </g>
     </g>
     <g id="text_3">
      <!-- 10 -->
      <g transform="translate(127.59576 307.198125) scale(0.12 -0.12)">
       <defs>
        <path id="DejaVuSans-30" d="M 2034 4250 
Q 1547 4250 1301 3770 
Q 1056 3291 1056 2328 
Q 1056 1369 1301 889 
Q 1547 409 2034 409 
Q 2525 409 2770 889 
Q 3016 1369 3016 2328 
Q 3016 3291 2770 3770 
Q 2525 4250 2034 4250 
z
M 2034 4750 
Q 2819 4750 3233 4129 
Q 3647 3509 3647 2328 
Q 3647 1150 3233 529 
Q 2819 -91 2034 -91 
Q 1250 -91 836 529 
Q 422 1150 422 2328 
Q 422 3509 836 4129 
Q 1250 4750 2034 4750 
z
" transform="scale(0.015625)"/>
       </defs>
       <use xlink:href="#DejaVuSans-31"/>
       <use xlink:href="#DejaVuSans-30" transform="translate(63.623047 0)"/>
      </g>
     </g>
    </g>
    <g id="xtick_4">
     <g id="line2d_4">
      <g>
       <use xlink:href="#m78402d2e70" x="190.63116" y="290.58" style="stroke: #000000"/>
      </g>
     </g>
     <g id="text_4">
      <!-- 15 -->
      <g transform="translate(182.99616 307.198125) scale(0.12 -0.12)">
       <use xlink:href="#DejaVuSans-31"/>
       <use xlink:href="#DejaVuSans-35" transform="translate(63.623047 0)"/>
      </g>
     </g>
    </g>
    <g id="xtick_5">
     <g id="line2d_5">
      <g>
       <use xlink:href="#m78402d2e70" x="246.03156" y="290.58" style="stroke: #000000"/>
      </g>
     </g>
     <g id="text_5">
      <!-- 20 -->
      <g transform="translate(238.39656 307.198125) scale(0.12 -0.12)">
       <defs>
        <path id="DejaVuSans-32" d="M 1228 531 
L 3431 531 
L 3431 0 
L 469 0 
L 469 531 
Q 828 903 1448 1529 
Q 2069 2156 2228 2338 
Q 2531 2678 2651 2914 
Q 2772 3150 2772 3378 
Q 2772 3750 2511 3984 
Q 2250 4219 1831 4219 
Q 1534 4219 1204 4116 
Q 875 4013 500 3803 
L 500 4441 
Q 881 4594 1212 4672 
Q 1544 4750 1819 4750 
Q 2544 4750 2975 4387 
Q 3406 4025 3406 3419 
Q 3406 3131 3298 2873 
Q 3191 2616 2906 2266 
Q 2828 2175 2409 1742 
Q 1991 1309 1228 531 
z
" transform="scale(0.015625)"/>
       </defs>
       <use xlink:href="#DejaVuSans-32"/>
       <use xlink:href="#DejaVuSans-30" transform="translate(63.623047 0)"/>
      </g>
     </g>
    </g>
    <g id="xtick_6">
     <g id="line2d_6">
      <g>
       <use xlink:href="#m78402d2e70" x="301.43196" y="290.58" style="stroke: #000000"/>
      </g>
     </g>
     <g id="text_6">
      <!-- 25 -->
      <g transform="translate(293.79696 307.198125) scale(0.12 -0.12)">
       <use xlink:href="#DejaVuSans-32"/>
       <use xlink:href="#DejaVuSans-35" transform="translate(63.623047 0)"/>
      </g>
     </g>
    </g>
   </g>
   <g id="matplotlib.axis_2">
    <g id="ytick_1">
     <g id="line2d_7">
      <defs>
       <path id="m4080926604" d="M 0 0 
L -4 0 
" style="stroke: #000000"/>
      </defs>
      <g>
       <use xlink:href="#m4080926604" x="29.97" y="284.9124" style="stroke: #000000"/>
      </g>
     </g>
     <g id="text_7">
      <!-- 1 -->
      <g transform="translate(14.835 289.471462) scale(0.12 -0.12)">
       <use xlink:href="#DejaVuSans-31"/>
      </g>
     </g>
    </g>
    <g id="ytick_2">
     <g id="line2d_8">
      <g>
       <use xlink:href="#m4080926604" x="29.97" y="239.5716" style="stroke: #000000"/>
      </g>
     </g>
     <g id="text_8">
      <!-- 5 -->
      <g transform="translate(14.835 244.130662) scale(0.12 -0.12)">
       <use xlink:href="#DejaVuSans-35"/>
      </g>
     </g>
    </g>
    <g id="ytick_3">
     <g id="line2d_9">
      <g>
       <use xlink:href="#m4080926604" x="29.97" y="182.8956" style="stroke: #000000"/>
      </g>
     </g>
     <g id="text_9">
      <!-- 10 -->
      <g transform="translate(7.2 187.454662) scale(0.12 -0.12)">
       <use xlink:href="#DejaVuSans-31"/>
       <use xlink:href="#DejaVuSans-30" transform="translate(63.623047 0)"/>
      </g>
     </g>
    </g>
    <g id="ytick_4">
     <g id="line2d_10">
      <g>
       <use xlink:href="#m4080926604" x="29.97" y="126.2196" style="stroke: #000000"/>
      </g>
     </g>
     <g id="text_10">
      <!-- 15 -->
      <g transform="translate(7.2 130.778662) scale(0.12 -0.12)">
       <use xlink:href="#DejaVuSans-31"/>
       <use xlink:href="#DejaVuSans-35" transform="translate(63.623047 0)"/>
      </g>
     </g>
    </g>
    <g id="ytick_5">
     <g id="line2d_11">
      <g>
       <use xlink:href="#m4080926604" x="29.97" y="69.5436" style="stroke: #000000"/>
      </g>
     </g>
     <g id="text_11">
      <!-- 20 -->
      <g transform="translate(7.2 74.102662) scale(0.12 -0.12)">
       <use xlink:href="#DejaVuSans-32"/>
       <use xlink:href="#DejaVuSans-30" transform="translate(63.623047 0)"/>
      </g>
     </g>
    </g>
    <g id="ytick_6">
     <g id="line2d_12">
      <g>
       <use xlink:href="#m4080926604" x="29.97" y="12.8676" style="stroke: #000000"/>
      </g>
     </g>
     <g id="text_12">
      <!-- 25 -->
      <g transform="translate(7.2 17.426662) scale(0.12 -0.12)">
       <use xlink:href="#DejaVuSans-32"/>
       <use xlink:href="#DejaVuSans-35" transform="translate(63.623047 0)"/>
      </g>
     </g>
    </g>
   </g>
   <g id="line2d_13">
    <path d="M 35.51004 284.9124 
L 301.43196 12.8676 
" clip-path="url(#p75f0d3b6a8)" style="fill: none; stroke-dasharray: 3.7,1.6; stroke-dashoffset: 0; stroke: #ff0000"/>
   </g>
   <g id="patch_3">
    <path d="M 29.97 290.58 
L 29.97 7.2 
" style="fill: none; stroke: #000000; stroke-linejoin: miter; stroke-linecap: square"/>
   </g>
   <g id="patch_4">
    <path d="M 306.972 290.58 
L 306.972 7.2 
" style="fill: none; stroke: #000000; stroke-linejoin: miter; stroke-linecap: square"/>
   </g>
   <g id="patch_5">
    <path d="M 29.97 290.58 
L 306.972 290.58 
" style="fill: none; stroke: #000000; stroke-linejoin: miter; stroke-linecap: square"/>
   </g>
   <g id="patch_6">
    <path d="M 29.97 7.2 
L 306.972 7.2 
" style="fill: none; stroke: #000000; stroke-linejoin: miter; stroke-linecap: square"/>
   </g>
  </g>
 </g>
 <defs>
  <clipPath id="p75f0d3b6a8">
   <rect x="29.97" y="7.2" width="277.002" height="283.38"/>
  </clipPath>
 </defs>
</svg>
