<?xml version="1.0" encoding="utf-8" standalone="no"?>
<!DOCTYPE svg PUBLIC "-//W3C//DTD SVG 1.1//EN"
  "http://www.w3.org/Graphics/SVG/1.1/DTD/svg11.dtd">
<svg xmlns:xlink="http://www.w3.org/1999/xlink" width="326.344518pt" height="316.89375pt" viewBox="0 0 326.344518 316.89375" xmlns="http://www.w3.org/2000/svg" version="1.1">
 <metadata>
  <rdf:RDF xmlns:dc="http://purl.org/dc/elements/1.1/" xmlns:cc="http://creativecommons.org/ns#" xmlns:rdf="http://www.w3.org/1999/02/22-rdf-syntax-ns#">
   <cc:Work>
    <dc:type rdf:resource="http://purl.org/dc/dcmitype/StillImage"/>
    <dc:date>2026-05-11T23:02:31.556649</dc:date>
    <dc:format>image/svg+xml</dc:format>
    <dc:creator>
     <cc:Agent>
      <dc:title>Matplotlib v3.10.5, https://matplotlib.org/</dc:title>
     </cc:Agent>
    </dc:creator>
   </cc:Work>
  </rdf:RDF>
 </metadata>
 <defs>
  <style type="text/css">*{stroke-linejoin: round; stroke-linecap: butt}</style>
 </defs>
 <g id="figure_1">
  <g id="patch_1">
   <path d="M 0 316.89375 
L 326.344518 316.89375 
L 326.344518 0 
L 0 0 
z
" style="fill: #ffffff"/>
  </g>
  <g id="axes_1">
   <g id="patch_2">
    <path d="M 43.839375 290.58 
L 309.519375 290.58 
L 309.519375 7.2 
L 43.839375 7.2 
z
" style="fill: #ffffff"/>
   </g>
   <g id="PathCollection_1">
    <defs>
     <path id="C0_0_ff71af2690" d="M 0 3.24037 
C 0.859356 3.24037 1.683631 2.898944 2.291288 2.291288 
C 2.898944 1.683631 3.24037 0.859356 3.24037 -0 
C 3.24037 -0.859356 2.898944 -1.683631 2.291288 -2.291288 
C 1.683631 -2.898944 0.859356 -3.24037 0 -3.24037 
C -0.859356 -3.24037 -1.683631 -2.898944 -2.291288 -2.291288 
C -2.898944 -1.683631 -3.24037 -0.859356 -3.24037 0 
C -3.24037 0.859356 -2.898944 1.683631 -2.291288 2.291288 
C -1.683631 2.898944 -0.859356 3.24037 0 3.24037 
z
"/>
    </defs>
    <g clip-path="url(#p5c590093da)">
     <use xlink:href="#C0_0_ff71af2690" x="140.929381" y="142.959676" style="fill: #ad2513; fill-opacity: 0.95"/>
    </g>
    <g clip-path="url(#p5c590093da)">
     <use xlink:href="#C0_0_ff71af2690" x="265.500079" y="109.208767" style="fill: #7abbef; fill-opacity: 0.95"/>
    </g>
    <g clip-path="url(#p5c590093da)">
     <use xlink:href="#C0_0_ff71af2690" x="199.414161" y="139.15319" style="fill: #d2660d; fill-opacity: 0.95"/>
    </g>
    <g clip-path="url(#p5c590093da)">
     <use xlink:href="#C0_0_ff71af2690" x="73.03761" y="190.948494" style="fill: #dc6f71; fill-opacity: 0.95"/>
    </g>
    <g clip-path="url(#p5c590093da)">
     <use xlink:href="#C0_0_ff71af2690" x="80.381216" y="201.140284" style="fill: #8d6262; fill-opacity: 0.95"/>
    </g>
    <g clip-path="url(#p5c590093da)">
     <use xlink:href="#C0_0_ff71af2690" x="118.407994" y="177.648976" style="fill: #faaea0; fill-opacity: 0.95"/>
    </g>
    <g clip-path="url(#p5c590093da)">
     <use xlink:href="#C0_0_ff71af2690" x="288.799681" y="99.907217" style="fill: #c4d6a0; fill-opacity: 0.95"/>
    </g>
    <g clip-path="url(#p5c590093da)">
     <use xlink:href="#C0_0_ff71af2690" x="65.090843" y="206.140152" style="fill: #006e54; fill-opacity: 0.95"/>
    </g>
    <g clip-path="url(#p5c590093da)">
     <use xlink:href="#C0_0_ff71af2690" x="290.23113" y="93.496341" style="fill: #a7e6d7; fill-opacity: 0.95"/>
    </g>
    <g clip-path="url(#p5c590093da)">
     <use xlink:href="#C0_0_ff71af2690" x="295.959349" y="90.481824" style="fill: #4d5aaf; fill-opacity: 0.95"/>
    </g>
    <g clip-path="url(#p5c590093da)">
     <use xlink:href="#C0_0_ff71af2690" x="296.958079" y="90.214552" style="fill: #8491c3; fill-opacity: 0.95"/>
    </g>
    <g clip-path="url(#p5c590093da)">
     <use xlink:href="#C0_0_ff71af2690" x="297.443011" y="89.364178" style="fill: #bbc8e6; fill-opacity: 0.95"/>
    </g>
    <g clip-path="url(#p5c590093da)">
     <use xlink:href="#C0_0_ff71af2690" x="105.916548" y="187.708229" style="fill: #76b7b2; fill-opacity: 0.95"/>
    </g>
    <g clip-path="url(#p5c590093da)">
     <use xlink:href="#C0_0_ff71af2690" x="203.553431" y="131.237154" style="fill: #92cb8a; fill-opacity: 0.95"/>
    </g>
    <g clip-path="url(#p5c590093da)">
     <use xlink:href="#C0_0_ff71af2690" x="252.496448" y="116.540351" style="fill: #22808b; fill-opacity: 0.95"/>
    </g>
    <g clip-path="url(#p5c590093da)">
     <use xlink:href="#C0_0_ff71af2690" x="250.320857" y="127.262213" style="fill: #f6d55c; fill-opacity: 0.95"/>
    </g>
    <g clip-path="url(#p5c590093da)">
     <use xlink:href="#C0_0_ff71af2690" x="144.512552" y="154.545167" style="fill: #afb39f; fill-opacity: 0.95"/>
    </g>
    <g clip-path="url(#p5c590093da)">
     <use xlink:href="#C0_0_ff71af2690" x="140.922245" y="159.517263" style="fill: #333631; fill-opacity: 0.95"/>
    </g>
    <g clip-path="url(#p5c590093da)">
     <use xlink:href="#C0_0_ff71af2690" x="287.039173" y="94.299327" style="fill: #e9b6da; fill-opacity: 0.95"/>
    </g>
    <g clip-path="url(#p5c590093da)">
     <use xlink:href="#C0_0_ff71af2690" x="170.726194" y="152.832945" style="fill: #aa4c8f; fill-opacity: 0.95"/>
    </g>
    <g clip-path="url(#p5c590093da)">
     <use xlink:href="#C0_0_ff71af2690" x="289.395557" y="106.18004" style="fill: #f6a24f; fill-opacity: 0.95"/>
    </g>
    <g clip-path="url(#p5c590093da)">
     <use xlink:href="#C0_0_ff71af2690" x="194.592538" y="137.41427" style="fill: #6587ab; fill-opacity: 0.95"/>
    </g>
    <g clip-path="url(#p5c590093da)">
     <use xlink:href="#C0_0_ff71af2690" x="55.915739" y="208.9991" style="fill: #fbebb2; fill-opacity: 0.95"/>
    </g>
    <g clip-path="url(#p5c590093da)">
     <use xlink:href="#C0_0_ff71af2690" x="56.521138" y="209.32773" style="fill: #c6a11b; fill-opacity: 0.95"/>
    </g>
    <g clip-path="url(#p5c590093da)">
     <use xlink:href="#C0_0_ff71af2690" x="294.860909" y="93.403258" style="fill: #a4ab47; fill-opacity: 0.95"/>
    </g>
   </g>
   <g id="matplotlib.axis_1">
    <g id="xtick_1">
     <g id="line2d_1">
      <defs>
       <path id="m2e3b4ebd60" d="M 0 0 
L 0 4 
" style="stroke: #000000"/>
      </defs>
      <g>
       <use xlink:href="#m2e3b4ebd60" x="44.800652" y="290.58" style="stroke: #000000"/>
      </g>
     </g>
     <g id="text_1">
      <!-- −0.75 -->
      <g transform="translate(26.413465 307.198125) scale(0.12 -0.12)">
       <defs>
        <path id="DejaVuSans-2212" d="M 678 2272 
L 4684 2272 
L 4684 1741 
L 678 1741 
L 678 2272 
z
" transform="scale(0.015625)"/>
        <path id="DejaVuSans-30" d="M 2034 4250 
Q 1547 4250 1301 3770 
Q 1056 3291 1056 2328 
Q 1056 1369 1301 889 
Q 1547 409 2034 409 
Q 2525 409 2770 889 
Q 3016 1369 3016 2328 
Q 3016 3291 2770 3770 
Q 2525 4250 2034 4250 
z
M 2034 4750 
Q 2819 4750 3233 4129 
Q 3647 3509 3647 2328 
Q 3647 1150 3233 529 
Q 2819 -91 2034 -91 
Q 1250 -91 836 529 
Q 422 1150 422 2328 
Q 422 3509 836 4129 
Q 1250 4750 2034 4750 
z
" transform="scale(0.015625)"/>
        <path id="DejaVuSans-2e" d="M 684 794 
L 1344 794 
L 1344 0 
L 684 0 
L 684 794 
z
" transform="scale(0.015625)"/>
        <path id="DejaVuSans-37" d="M 525 4666 
L 3525 4666 
L 3525 4397 
L 1831 0 
L 1172 0 
L 2766 4134 
L 525 4134 
L 525 4666 
z
" transform="scale(0.015625)"/>
        <path id="DejaVuSans-35" d="M 691 4666 
L 3169 4666 
L 3169 4134 
L 1269 4134 
L 1269 2991 
Q 1406 3038 1543 3061 
Q 1681 3084 1819 3084 
Q 2600 3084 3056 2656 
Q 3513 2228 3513 1497 
Q 3513 744 3044 326 
Q 2575 -91 1722 -91 
Q 1428 -91 1123 -41 
Q 819 9 494 109 
L 494 744 
Q 775 591 1075 516 
Q 1375 441 1709 441 
Q 2250 441 2565 725 
Q 2881 1009 2881 1497 
Q 2881 1984 2565 2268 
Q 2250 2553 1709 2553 
Q 1456 2553 1204 2497 
Q 953 2441 691 2322 
L 691 4666 
z
" transform="scale(0.015625)"/>
       </defs>
       <use xlink:href="#DejaVuSans-2212"/>
       <use xlink:href="#DejaVuSans-30" transform="translate(83.789062 0)"/>
       <use xlink:href="#DejaVuSans-2e" transform="translate(147.412109 0)"/>
       <use xlink:href="#DejaVuSans-37" transform="translate(179.199219 0)"/>
       <use xlink:href="#DejaVuSans-35" transform="translate(242.822266 0)"/>
      </g>
     </g>
    </g>
    <g id="xtick_2">
     <g id="line2d_2">
      <g>
       <use xlink:href="#m2e3b4ebd60" x="88.298067" y="290.58" style="stroke: #000000"/>
      </g>
     </g>
     <g id="text_2">
      <!-- −0.50 -->
      <g transform="translate(69.91088 307.198125) scale(0.12 -0.12)">
       <use xlink:href="#DejaVuSans-2212"/>
       <use xlink:href="#DejaVuSans-30" transform="translate(83.789062 0)"/>
       <use xlink:href="#DejaVuSans-2e" transform="translate(147.412109 0)"/>
       <use xlink:href="#DejaVuSans-35" transform="translate(179.199219 0)"/>
       <use xlink:href="#DejaVuSans-30" transform="translate(242.822266 0)"/>
      </g>
     </g>
    </g>
    <g id="xtick_3">
     <g id="line2d_3">
      <g>
       <use xlink:href="#m2e3b4ebd60" x="131.795482" y="290.58" style="stroke: #000000"/>
      </g>
     </g>
     <g id="text_3">
      <!-- −0.25 -->
      <g transform="translate(113.408295 307.198125) scale(0.12 -0.12)">
       <defs>
        <path id="DejaVuSans-32" d="M 1228 531 
L 3431 531 
L 3431 0 
L 469 0 
L 469 531 
Q 828 903 1448 1529 
Q 2069 2156 2228 2338 
Q 2531 2678 2651 2914 
Q 2772 3150 2772 3378 
Q 2772 3750 2511 3984 
Q 2250 4219 1831 4219 
Q 1534 4219 1204 4116 
Q 875 4013 500 3803 
L 500 4441 
Q 881 4594 1212 4672 
Q 1544 4750 1819 4750 
Q 2544 4750 2975 4387 
Q 3406 4025 3406 3419 
Q 3406 3131 3298 2873 
Q 3191 2616 2906 2266 
Q 2828 2175 2409 1742 
Q 1991 1309 1228 531 
z
" transform="scale(0.015625)"/>
       </defs>
       <use xlink:href="#DejaVuSans-2212"/>
       <use xlink:href="#DejaVuSans-30" transform="translate(83.789062 0)"/>
       <use xlink:href="#DejaVuSans-2e" transform="translate(147.412109 0)"/>
       <use xlink:href="#DejaVuSans-32" transform="translate(179.199219 0)"/>
       <use xlink:href="#DejaVuSans-35" transform="translate(242.822266 0)"/>
      </g>
     </g>
    </g>
    <g id="xtick_4">
     <g id="line2d_4">
      <g>
       <use xlink:href="#m2e3b4ebd60" x="175.292898" y="290.58" style="stroke: #000000"/>
      </g>
     </g>
     <g id="text_4">
      <!-- 0.00 -->
      <g transform="translate(161.933523 307.198125) scale(0.12 -0.12)">
       <use xlink:href="#DejaVuSans-30"/>
       <use xlink:href="#DejaVuSans-2e" transform="translate(63.623047 0)"/>
       <use xlink:href="#DejaVuSans-30" transform="translate(95.410156 0)"/>
       <use xlink:href="#DejaVuSans-30" transform="translate(159.033203 0)"/>
      </g>
     </g>
    </g>
    <g id="xtick_5">
     <g id="line2d_5">
      <g>
       <use xlink:href="#m2e3b4ebd60" x="218.790313" y="290.58" style="stroke: #000000"/>
      </g>
     </g>
     <g id="text_5">
      <!-- 0.25 -->
      <g transform="translate(205.430938 307.198125) scale(0.12 -0.12)">
       <use xlink:href="#DejaVuSans-30"/>
       <use xlink:href="#DejaVuSans-2e" transform="translate(63.623047 0)"/>
       <use xlink:href="#DejaVuSans-32" transform="translate(95.410156 0)"/>
       <use xlink:href="#DejaVuSans-35" transform="translate(159.033203 0)"/>
      </g>
     </g>
    </g>
    <g id="xtick_6">
     <g id="line2d_6">
      <g>
       <use xlink:href="#m2e3b4ebd60" x="262.287728" y="290.58" style="stroke: #000000"/>
      </g>
     </g>
     <g id="text_6">
      <!-- 0.50 -->
      <g transform="translate(248.928353 307.198125) scale(0.12 -0.12)">
       <use xlink:href="#DejaVuSans-30"/>
       <use xlink:href="#DejaVuSans-2e" transform="translate(63.623047 0)"/>
       <use xlink:href="#DejaVuSans-35" transform="translate(95.410156 0)"/>
       <use xlink:href="#DejaVuSans-30" transform="translate(159.033203 0)"/>
      </g>
     </g>
    </g>
    <g id="xtick_7">
     <g id="line2d_7">
      <g>
       <use xlink:href="#m2e3b4ebd60" x="305.785143" y="290.58" style="stroke: #000000"/>
      </g>
     </g>
     <g id="text_7">
      <!-- 0.75 -->
      <g transform="translate(292.425768 307.198125) scale(0.12 -0.12)">
       <use xlink:href="#DejaVuSans-30"/>
       <use xlink:href="#DejaVuSans-2e" transform="translate(63.623047 0)"/>
       <use xlink:href="#DejaVuSans-37" transform="translate(95.410156 0)"/>
       <use xlink:href="#DejaVuSans-35" transform="translate(159.033203 0)"/>
      </g>
     </g>
    </g>
   </g>
   <g id="matplotlib.axis_2">
    <g id="ytick_1">
     <g id="line2d_8">
      <defs>
       <path id="mbe2069ef4c" d="M 0 0 
L -4 0 
" style="stroke: #000000"/>
      </defs>
      <g>
       <use xlink:href="#mbe2069ef4c" x="43.839375" y="261.717514" style="stroke: #000000"/>
      </g>
     </g>
     <g id="text_8">
      <!-- −0.6 -->
      <g transform="translate(7.2 266.276577) scale(0.12 -0.12)">
       <defs>
        <path id="DejaVuSans-36" d="M 2113 2584 
Q 1688 2584 1439 2293 
Q 1191 2003 1191 1497 
Q 1191 994 1439 701 
Q 1688 409 2113 409 
Q 2538 409 2786 701 
Q 3034 994 3034 1497 
Q 3034 2003 2786 2293 
Q 2538 2584 2113 2584 
z
M 3366 4563 
L 3366 3988 
Q 3128 4100 2886 4159 
Q 2644 4219 2406 4219 
Q 1781 4219 1451 3797 
Q 1122 3375 1075 2522 
Q 1259 2794 1537 2939 
Q 1816 3084 2150 3084 
Q 2853 3084 3261 2657 
Q 3669 2231 3669 1497 
Q 3669 778 3244 343 
Q 2819 -91 2113 -91 
Q 1303 -91 875 529 
Q 447 1150 447 2328 
Q 447 3434 972 4092 
Q 1497 4750 2381 4750 
Q 2619 4750 2861 4703 
Q 3103 4656 3366 4563 
z
" transform="scale(0.015625)"/>
       </defs>
       <use xlink:href="#DejaVuSans-2212"/>
       <use xlink:href="#DejaVuSans-30" transform="translate(83.789062 0)"/>
       <use xlink:href="#DejaVuSans-2e" transform="translate(147.412109 0)"/>
       <use xlink:href="#DejaVuSans-36" transform="translate(179.199219 0)"/>
      </g>
     </g>
    </g>
    <g id="ytick_2">
     <g id="line2d_9">
      <g>
       <use xlink:href="#mbe2069ef4c" x="43.839375" y="224.601292" style="stroke: #000000"/>
      </g>
     </g>
     <g id="text_9">
      <!-- −0.4 -->
      <g transform="translate(7.2 229.160354) scale(0.12 -0.12)">
       <defs>
        <path id="DejaVuSans-34" d="M 2419 4116 
L 825 1625 
L 2419 1625 
L 2419 4116 
z
M 2253 4666 
L 3047 4666 
L 3047 1625 
L 3713 1625 
L 3713 1100 
L 3047 1100 
L 3047 0 
L 2419 0 
L 2419 1100 
L 313 1100 
L 313 1709 
L 2253 4666 
z
" transform="scale(0.015625)"/>
       </defs>
       <use xlink:href="#DejaVuSans-2212"/>
       <use xlink:href="#DejaVuSans-30" transform="translate(83.789062 0)"/>
       <use xlink:href="#DejaVuSans-2e" transform="translate(147.412109 0)"/>
       <use xlink:href="#DejaVuSans-34" transform="translate(179.199219 0)"/>
      </g>
     </g>
    </g>
    <g id="ytick_3">
     <g id="line2d_10">
      <g>
       <use xlink:href="#mbe2069ef4c" x="43.839375" y="187.485069" style="stroke: #000000"/>
      </g>
     </g>
     <g id="text_10">
      <!-- −0.2 -->
      <g transform="translate(7.2 192.044132) scale(0.12 -0.12)">
       <use xlink:href="#DejaVuSans-2212"/>
       <use xlink:href="#DejaVuSans-30" transform="translate(83.789062 0)"/>
       <use xlink:href="#DejaVuSans-2e" transform="translate(147.412109 0)"/>
       <use xlink:href="#DejaVuSans-32" transform="translate(179.199219 0)"/>
      </g>
     </g>
    </g>
    <g id="ytick_4">
     <g id="line2d_11">
      <g>
       <use xlink:href="#mbe2069ef4c" x="43.839375" y="150.368847" style="stroke: #000000"/>
      </g>
     </g>
     <g id="text_11">
      <!-- 0.0 -->
      <g transform="translate(17.255625 154.927909) scale(0.12 -0.12)">
       <use xlink:href="#DejaVuSans-30"/>
       <use xlink:href="#DejaVuSans-2e" transform="translate(63.623047 0)"/>
       <use xlink:href="#DejaVuSans-30" transform="translate(95.410156 0)"/>
      </g>
     </g>
    </g>
    <g id="ytick_5">
     <g id="line2d_12">
      <g>
       <use xlink:href="#mbe2069ef4c" x="43.839375" y="113.252624" style="stroke: #000000"/>
      </g>
     </g>
     <g id="text_12">
      <!-- 0.2 -->
      <g transform="translate(17.255625 117.811687) scale(0.12 -0.12)">
       <use xlink:href="#DejaVuSans-30"/>
       <use xlink:href="#DejaVuSans-2e" transform="translate(63.623047 0)"/>
       <use xlink:href="#DejaVuSans-32" transform="translate(95.410156 0)"/>
      </g>
     </g>
    </g>
    <g id="ytick_6">
     <g id="line2d_13">
      <g>
       <use xlink:href="#mbe2069ef4c" x="43.839375" y="76.136402" style="stroke: #000000"/>
      </g>
     </g>
     <g id="text_13">
      <!-- 0.4 -->
      <g transform="translate(17.255625 80.695464) scale(0.12 -0.12)">
       <use xlink:href="#DejaVuSans-30"/>
       <use xlink:href="#DejaVuSans-2e" transform="translate(63.623047 0)"/>
       <use xlink:href="#DejaVuSans-34" transform="translate(95.410156 0)"/>
      </g>
     </g>
    </g>
    <g id="ytick_7">
     <g id="line2d_14">
      <g>
       <use xlink:href="#mbe2069ef4c" x="43.839375" y="39.020179" style="stroke: #000000"/>
      </g>
     </g>
     <g id="text_14">
      <!-- 0.6 -->
      <g transform="translate(17.255625 43.579242) scale(0.12 -0.12)">
       <use xlink:href="#DejaVuSans-30"/>
       <use xlink:href="#DejaVuSans-2e" transform="translate(63.623047 0)"/>
       <use xlink:href="#DejaVuSans-36" transform="translate(95.410156 0)"/>
      </g>
     </g>
    </g>
   </g>
   <g id="line2d_15">
    <path d="M 43.839375 290.58 
L 309.519375 7.2 
" clip-path="url(#p5c590093da)" style="fill: none; stroke-dasharray: 3.7,1.6; stroke-dashoffset: 0; stroke: #ff0000"/>
   </g>
   <g id="patch_3">
    <path d="M 43.839375 290.58 
L 43.839375 7.2 
" style="fill: none; stroke: #000000; stroke-linejoin: miter; stroke-linecap: square"/>
   </g>
   <g id="patch_4">
    <path d="M 309.519375 290.58 
L 309.519375 7.2 
" style="fill: none; stroke: #000000; stroke-linejoin: miter; stroke-linecap: square"/>
   </g>
   <g id="patch_5">
    <path d="M 43.839375 290.58 
L 309.519375 290.58 
" style="fill: none; stroke: #000000; stroke-linejoin: miter; stroke-linecap: square"/>
   </g>
   <g id="patch_6">
    <path d="M 43.839375 7.2 
L 309.519375 7.2 
" style="fill: none; stroke: #000000; stroke-linejoin: miter; stroke-linecap: square"/>
   </g>
  </g>
 </g>
 <defs>
  <clipPath id="p5c590093da">
   <rect x="43.839375" y="7.2" width="265.68" height="283.38"/>
  </clipPath>
 </defs>
</svg>
