<?xml version="1.0" encoding="utf-8" standalone="no"?>
<!DOCTYPE svg PUBLIC "-//W3C//DTD SVG 1.1//EN"
  "http://www.w3.org/Graphics/SVG/1.1/DTD/svg11.dtd">
<svg xmlns:xlink="http://www.w3.org/1999/xlink" width="424.880156pt" height="352.398125pt" viewBox="0 0 424.880156 352.398125" xmlns="http://www.w3.org/2000/svg" version="1.1">
 <metadata>
  <rdf:RDF xmlns:dc="http://purl.org/dc/elements/1.1/" xmlns:cc="http://creativecommons.org/ns#" xmlns:rdf="http://www.w3.org/1999/02/22-rdf-syntax-ns#">
   <cc:Work>
    <dc:type rdf:resource="http://purl.org/dc/dcmitype/StillImage"/>
    <dc:date>2026-05-11T23:25:56.986703</dc:date>
    <dc:format>image/svg+xml</dc:format>
    <dc:creator>
     <cc:Agent>
      <dc:title>Matplotlib v3.10.5, https://matplotlib.org/</dc:title>
     </cc:Agent>
    </dc:creator>
   </cc:Work>
  </rdf:RDF>
 </metadata>
 <defs>
  <style type="text/css">*{stroke-linejoin: round; stroke-linecap: butt}</style>
 </defs>
 <g id="figure_1">
  <g id="patch_1">
   <path d="M -0 352.398125 
L 424.880156 352.398125 
L 424.880156 0 
L -0 0 
z
" style="fill: #ffffff"/>
  </g>
  <g id="axes_1">
   <g id="patch_2">
    <path d="M 58.457656 328.02 
L 411.317656 328.02 
L 411.317656 7.2 
L 58.457656 7.2 
z
" style="fill: #ffffff"/>
   </g>
   <g id="line2d_1">
    <path d="M 234.887656 328.02 
L 234.887656 7.2 
" clip-path="url(#p7320268c4e)" style="fill: none; stroke-dasharray: 4.44,1.92; stroke-dashoffset: 0; stroke: #9ca3af; stroke-width: 1.2"/>
   </g>
   <g id="matplotlib.axis_1">
    <g id="xtick_1">
     <g id="line2d_2">
      <defs>
       <path id="mdf04d259af" d="M 0 0 
L 0 4 
" style="stroke: #000000"/>
      </defs>
      <g>
       <use xlink:href="#mdf04d259af" x="58.457656" y="328.02" style="stroke: #000000"/>
      </g>
     </g>
     <g id="text_1">
      <!-- 20 -->
      <g transform="translate(52.095156 343.118437) scale(0.1 -0.1)">
       <defs>
        <path id="DejaVuSans-32" d="M 1228 531 
L 3431 531 
L 3431 0 
L 469 0 
L 469 531 
Q 828 903 1448 1529 
Q 2069 2156 2228 2338 
Q 2531 2678 2651 2914 
Q 2772 3150 2772 3378 
Q 2772 3750 2511 3984 
Q 2250 4219 1831 4219 
Q 1534 4219 1204 4116 
Q 875 4013 500 3803 
L 500 4441 
Q 881 4594 1212 4672 
Q 1544 4750 1819 4750 
Q 2544 4750 2975 4387 
Q 3406 4025 3406 3419 
Q 3406 3131 3298 2873 
Q 3191 2616 2906 2266 
Q 2828 2175 2409 1742 
Q 1991 1309 1228 531 
z
" transform="scale(0.015625)"/>
        <path id="DejaVuSans-30" d="M 2034 4250 
Q 1547 4250 1301 3770 
Q 1056 3291 1056 2328 
Q 1056 1369 1301 889 
Q 1547 409 2034 409 
Q 2525 409 2770 889 
Q 3016 1369 3016 2328 
Q 3016 3291 2770 3770 
Q 2525 4250 2034 4250 
z
M 2034 4750 
Q 2819 4750 3233 4129 
Q 3647 3509 3647 2328 
Q 3647 1150 3233 529 
Q 2819 -91 2034 -91 
Q 1250 -91 836 529 
Q 422 1150 422 2328 
Q 422 3509 836 4129 
Q 1250 4750 2034 4750 
z
" transform="scale(0.015625)"/>
       </defs>
       <use xlink:href="#DejaVuSans-32"/>
       <use xlink:href="#DejaVuSans-30" transform="translate(63.623047 0)"/>
      </g>
     </g>
    </g>
    <g id="xtick_2">
     <g id="line2d_3">
      <g>
       <use xlink:href="#mdf04d259af" x="102.565156" y="328.02" style="stroke: #000000"/>
      </g>
     </g>
     <g id="text_2">
      <!-- 15 -->
      <g transform="translate(96.202656 343.118437) scale(0.1 -0.1)">
       <defs>
        <path id="DejaVuSans-31" d="M 794 531 
L 1825 531 
L 1825 4091 
L 703 3866 
L 703 4441 
L 1819 4666 
L 2450 4666 
L 2450 531 
L 3481 531 
L 3481 0 
L 794 0 
L 794 531 
z
" transform="scale(0.015625)"/>
        <path id="DejaVuSans-35" d="M 691 4666 
L 3169 4666 
L 3169 4134 
L 1269 4134 
L 1269 2991 
Q 1406 3038 1543 3061 
Q 1681 3084 1819 3084 
Q 2600 3084 3056 2656 
Q 3513 2228 3513 1497 
Q 3513 744 3044 326 
Q 2575 -91 1722 -91 
Q 1428 -91 1123 -41 
Q 819 9 494 109 
L 494 744 
Q 775 591 1075 516 
Q 1375 441 1709 441 
Q 2250 441 2565 725 
Q 2881 1009 2881 1497 
Q 2881 1984 2565 2268 
Q 2250 2553 1709 2553 
Q 1456 2553 1204 2497 
Q 953 2441 691 2322 
L 691 4666 
z
" transform="scale(0.015625)"/>
       </defs>
       <use xlink:href="#DejaVuSans-31"/>
       <use xlink:href="#DejaVuSans-35" transform="translate(63.623047 0)"/>
      </g>
     </g>
    </g>
    <g id="xtick_3">
     <g id="line2d_4">
      <g>
       <use xlink:href="#mdf04d259af" x="146.672656" y="328.02" style="stroke: #000000"/>
      </g>
     </g>
     <g id="text_3">
      <!-- 10 -->
      <g transform="translate(140.310156 343.118437) scale(0.1 -0.1)">
       <use xlink:href="#DejaVuSans-31"/>
       <use xlink:href="#DejaVuSans-30" transform="translate(63.623047 0)"/>
      </g>
     </g>
    </g>
    <g id="xtick_4">
     <g id="line2d_5">
      <g>
       <use xlink:href="#mdf04d259af" x="190.780156" y="328.02" style="stroke: #000000"/>
      </g>
     </g>
     <g id="text_4">
      <!-- 5 -->
      <g transform="translate(187.598906 343.118437) scale(0.1 -0.1)">
       <use xlink:href="#DejaVuSans-35"/>
      </g>
     </g>
    </g>
    <g id="xtick_5">
     <g id="line2d_6">
      <g>
       <use xlink:href="#mdf04d259af" x="234.887656" y="328.02" style="stroke: #000000"/>
      </g>
     </g>
     <g id="text_5">
      <!-- 0 -->
      <g transform="translate(231.706406 343.118437) scale(0.1 -0.1)">
       <use xlink:href="#DejaVuSans-30"/>
      </g>
     </g>
    </g>
    <g id="xtick_6">
     <g id="line2d_7">
      <g>
       <use xlink:href="#mdf04d259af" x="278.995156" y="328.02" style="stroke: #000000"/>
      </g>
     </g>
     <g id="text_6">
      <!-- 5 -->
      <g transform="translate(275.813906 343.118437) scale(0.1 -0.1)">
       <use xlink:href="#DejaVuSans-35"/>
      </g>
     </g>
    </g>
    <g id="xtick_7">
     <g id="line2d_8">
      <g>
       <use xlink:href="#mdf04d259af" x="323.102656" y="328.02" style="stroke: #000000"/>
      </g>
     </g>
     <g id="text_7">
      <!-- 10 -->
      <g transform="translate(316.740156 343.118437) scale(0.1 -0.1)">
       <use xlink:href="#DejaVuSans-31"/>
       <use xlink:href="#DejaVuSans-30" transform="translate(63.623047 0)"/>
      </g>
     </g>
    </g>
    <g id="xtick_8">
     <g id="line2d_9">
      <g>
       <use xlink:href="#mdf04d259af" x="367.210156" y="328.02" style="stroke: #000000"/>
      </g>
     </g>
     <g id="text_8">
      <!-- 15 -->
      <g transform="translate(360.847656 343.118437) scale(0.1 -0.1)">
       <use xlink:href="#DejaVuSans-31"/>
       <use xlink:href="#DejaVuSans-35" transform="translate(63.623047 0)"/>
      </g>
     </g>
    </g>
    <g id="xtick_9">
     <g id="line2d_10">
      <g>
       <use xlink:href="#mdf04d259af" x="411.317656" y="328.02" style="stroke: #000000"/>
      </g>
     </g>
     <g id="text_9">
      <!-- 20 -->
      <g transform="translate(404.955156 343.118437) scale(0.1 -0.1)">
       <use xlink:href="#DejaVuSans-32"/>
       <use xlink:href="#DejaVuSans-30" transform="translate(63.623047 0)"/>
      </g>
     </g>
    </g>
   </g>
   <g id="matplotlib.axis_2">
    <g id="ytick_1">
     <g id="line2d_11">
      <defs>
       <path id="m91a91e5a7c" d="M 0 0 
L -4 0 
" style="stroke: #000000"/>
      </defs>
      <g>
       <use xlink:href="#m91a91e5a7c" x="58.457656" y="41.352621" style="stroke: #000000"/>
      </g>
     </g>
     <g id="text_10">
      <!-- Data 17 -->
      <g transform="translate(7.2 45.531762) scale(0.11 -0.11)">
       <defs>
        <path id="DejaVuSans-44" d="M 1259 4147 
L 1259 519 
L 2022 519 
Q 2988 519 3436 956 
Q 3884 1394 3884 2338 
Q 3884 3275 3436 3711 
Q 2988 4147 2022 4147 
L 1259 4147 
z
M 628 4666 
L 1925 4666 
Q 3281 4666 3915 4102 
Q 4550 3538 4550 2338 
Q 4550 1131 3912 565 
Q 3275 0 1925 0 
L 628 0 
L 628 4666 
z
" transform="scale(0.015625)"/>
        <path id="DejaVuSans-61" d="M 2194 1759 
Q 1497 1759 1228 1600 
Q 959 1441 959 1056 
Q 959 750 1161 570 
Q 1363 391 1709 391 
Q 2188 391 2477 730 
Q 2766 1069 2766 1631 
L 2766 1759 
L 2194 1759 
z
M 3341 1997 
L 3341 0 
L 2766 0 
L 2766 531 
Q 2569 213 2275 61 
Q 1981 -91 1556 -91 
Q 1019 -91 701 211 
Q 384 513 384 1019 
Q 384 1609 779 1909 
Q 1175 2209 1959 2209 
L 2766 2209 
L 2766 2266 
Q 2766 2663 2505 2880 
Q 2244 3097 1772 3097 
Q 1472 3097 1187 3025 
Q 903 2953 641 2809 
L 641 3341 
Q 956 3463 1253 3523 
Q 1550 3584 1831 3584 
Q 2591 3584 2966 3190 
Q 3341 2797 3341 1997 
z
" transform="scale(0.015625)"/>
        <path id="DejaVuSans-74" d="M 1172 4494 
L 1172 3500 
L 2356 3500 
L 2356 3053 
L 1172 3053 
L 1172 1153 
Q 1172 725 1289 603 
Q 1406 481 1766 481 
L 2356 481 
L 2356 0 
L 1766 0 
Q 1100 0 847 248 
Q 594 497 594 1153 
L 594 3053 
L 172 3053 
L 172 3500 
L 594 3500 
L 594 4494 
L 1172 4494 
z
" transform="scale(0.015625)"/>
        <path id="DejaVuSans-20" transform="scale(0.015625)"/>
        <path id="DejaVuSans-37" d="M 525 4666 
L 3525 4666 
L 3525 4397 
L 1831 0 
L 1172 0 
L 2766 4134 
L 525 4134 
L 525 4666 
z
" transform="scale(0.015625)"/>
       </defs>
       <use xlink:href="#DejaVuSans-44"/>
       <use xlink:href="#DejaVuSans-61" transform="translate(77.001953 0)"/>
       <use xlink:href="#DejaVuSans-74" transform="translate(138.28125 0)"/>
       <use xlink:href="#DejaVuSans-61" transform="translate(177.490234 0)"/>
       <use xlink:href="#DejaVuSans-20" transform="translate(238.769531 0)"/>
       <use xlink:href="#DejaVuSans-31" transform="translate(270.556641 0)"/>
       <use xlink:href="#DejaVuSans-37" transform="translate(334.179688 0)"/>
      </g>
     </g>
    </g>
    <g id="ytick_2">
     <g id="line2d_12">
      <g>
       <use xlink:href="#m91a91e5a7c" x="58.457656" y="104.481311" style="stroke: #000000"/>
      </g>
     </g>
     <g id="text_11">
      <!-- Data 18 -->
      <g transform="translate(7.2 108.660451) scale(0.11 -0.11)">
       <defs>
        <path id="DejaVuSans-38" d="M 2034 2216 
Q 1584 2216 1326 1975 
Q 1069 1734 1069 1313 
Q 1069 891 1326 650 
Q 1584 409 2034 409 
Q 2484 409 2743 651 
Q 3003 894 3003 1313 
Q 3003 1734 2745 1975 
Q 2488 2216 2034 2216 
z
M 1403 2484 
Q 997 2584 770 2862 
Q 544 3141 544 3541 
Q 544 4100 942 4425 
Q 1341 4750 2034 4750 
Q 2731 4750 3128 4425 
Q 3525 4100 3525 3541 
Q 3525 3141 3298 2862 
Q 3072 2584 2669 2484 
Q 3125 2378 3379 2068 
Q 3634 1759 3634 1313 
Q 3634 634 3220 271 
Q 2806 -91 2034 -91 
Q 1263 -91 848 271 
Q 434 634 434 1313 
Q 434 1759 690 2068 
Q 947 2378 1403 2484 
z
M 1172 3481 
Q 1172 3119 1398 2916 
Q 1625 2713 2034 2713 
Q 2441 2713 2670 2916 
Q 2900 3119 2900 3481 
Q 2900 3844 2670 4047 
Q 2441 4250 2034 4250 
Q 1625 4250 1398 4047 
Q 1172 3844 1172 3481 
z
" transform="scale(0.015625)"/>
       </defs>
       <use xlink:href="#DejaVuSans-44"/>
       <use xlink:href="#DejaVuSans-61" transform="translate(77.001953 0)"/>
       <use xlink:href="#DejaVuSans-74" transform="translate(138.28125 0)"/>
       <use xlink:href="#DejaVuSans-61" transform="translate(177.490234 0)"/>
       <use xlink:href="#DejaVuSans-20" transform="translate(238.769531 0)"/>
       <use xlink:href="#DejaVuSans-31" transform="translate(270.556641 0)"/>
       <use xlink:href="#DejaVuSans-38" transform="translate(334.179688 0)"/>
      </g>
     </g>
    </g>
    <g id="ytick_3">
     <g id="line2d_13">
      <g>
       <use xlink:href="#m91a91e5a7c" x="58.457656" y="167.61" style="stroke: #000000"/>
      </g>
     </g>
     <g id="text_12">
      <!-- Data 19 -->
      <g transform="translate(7.2 171.789141) scale(0.11 -0.11)">
       <defs>
        <path id="DejaVuSans-39" d="M 703 97 
L 703 672 
Q 941 559 1184 500 
Q 1428 441 1663 441 
Q 2288 441 2617 861 
Q 2947 1281 2994 2138 
Q 2813 1869 2534 1725 
Q 2256 1581 1919 1581 
Q 1219 1581 811 2004 
Q 403 2428 403 3163 
Q 403 3881 828 4315 
Q 1253 4750 1959 4750 
Q 2769 4750 3195 4129 
Q 3622 3509 3622 2328 
Q 3622 1225 3098 567 
Q 2575 -91 1691 -91 
Q 1453 -91 1209 -44 
Q 966 3 703 97 
z
M 1959 2075 
Q 2384 2075 2632 2365 
Q 2881 2656 2881 3163 
Q 2881 3666 2632 3958 
Q 2384 4250 1959 4250 
Q 1534 4250 1286 3958 
Q 1038 3666 1038 3163 
Q 1038 2656 1286 2365 
Q 1534 2075 1959 2075 
z
" transform="scale(0.015625)"/>
       </defs>
       <use xlink:href="#DejaVuSans-44"/>
       <use xlink:href="#DejaVuSans-61" transform="translate(77.001953 0)"/>
       <use xlink:href="#DejaVuSans-74" transform="translate(138.28125 0)"/>
       <use xlink:href="#DejaVuSans-61" transform="translate(177.490234 0)"/>
       <use xlink:href="#DejaVuSans-20" transform="translate(238.769531 0)"/>
       <use xlink:href="#DejaVuSans-31" transform="translate(270.556641 0)"/>
       <use xlink:href="#DejaVuSans-39" transform="translate(334.179688 0)"/>
      </g>
     </g>
    </g>
    <g id="ytick_4">
     <g id="line2d_14">
      <g>
       <use xlink:href="#m91a91e5a7c" x="58.457656" y="230.738689" style="stroke: #000000"/>
      </g>
     </g>
     <g id="text_13">
      <!-- Data 20 -->
      <g transform="translate(7.2 234.91783) scale(0.11 -0.11)">
       <use xlink:href="#DejaVuSans-44"/>
       <use xlink:href="#DejaVuSans-61" transform="translate(77.001953 0)"/>
       <use xlink:href="#DejaVuSans-74" transform="translate(138.28125 0)"/>
       <use xlink:href="#DejaVuSans-61" transform="translate(177.490234 0)"/>
       <use xlink:href="#DejaVuSans-20" transform="translate(238.769531 0)"/>
       <use xlink:href="#DejaVuSans-32" transform="translate(270.556641 0)"/>
       <use xlink:href="#DejaVuSans-30" transform="translate(334.179688 0)"/>
      </g>
     </g>
    </g>
    <g id="ytick_5">
     <g id="line2d_15">
      <g>
       <use xlink:href="#m91a91e5a7c" x="58.457656" y="293.867379" style="stroke: #000000"/>
      </g>
     </g>
     <g id="text_14">
      <!-- Data 21 -->
      <g transform="translate(7.2 298.04652) scale(0.11 -0.11)">
       <use xlink:href="#DejaVuSans-44"/>
       <use xlink:href="#DejaVuSans-61" transform="translate(77.001953 0)"/>
       <use xlink:href="#DejaVuSans-74" transform="translate(138.28125 0)"/>
       <use xlink:href="#DejaVuSans-61" transform="translate(177.490234 0)"/>
       <use xlink:href="#DejaVuSans-20" transform="translate(238.769531 0)"/>
       <use xlink:href="#DejaVuSans-32" transform="translate(270.556641 0)"/>
       <use xlink:href="#DejaVuSans-31" transform="translate(334.179688 0)"/>
      </g>
     </g>
    </g>
   </g>
   <g id="patch_3">
    <path d="M 234.887656 21.782727 
L 173.137156 21.782727 
L 173.137156 60.922515 
L 234.887656 60.922515 
z
" clip-path="url(#p7320268c4e)" style="fill: #38b48b"/>
   </g>
   <g id="patch_4">
    <path d="M 234.887656 84.911417 
L 120.208156 84.911417 
L 120.208156 124.051204 
L 234.887656 124.051204 
z
" clip-path="url(#p7320268c4e)" style="fill: #38b48b"/>
   </g>
   <g id="patch_5">
    <path d="M 234.887656 148.040106 
L 164.315656 148.040106 
L 164.315656 187.179894 
L 234.887656 187.179894 
z
" clip-path="url(#p7320268c4e)" style="fill: #38b48b"/>
   </g>
   <g id="patch_6">
    <path d="M 234.887656 211.168796 
L 146.672656 211.168796 
L 146.672656 250.308583 
L 234.887656 250.308583 
z
" clip-path="url(#p7320268c4e)" style="fill: #38b48b"/>
   </g>
   <g id="patch_7">
    <path d="M 234.887656 274.297485 
L 111.386656 274.297485 
L 111.386656 313.437273 
L 234.887656 313.437273 
z
" clip-path="url(#p7320268c4e)" style="fill: #38b48b"/>
   </g>
   <g id="patch_8">
    <path d="M 234.887656 21.782727 
L 393.674656 21.782727 
L 393.674656 60.922515 
L 234.887656 60.922515 
z
" clip-path="url(#p7320268c4e)" style="fill: #d0af4c"/>
   </g>
   <g id="patch_9">
    <path d="M 234.887656 84.911417 
L 340.745656 84.911417 
L 340.745656 124.051204 
L 234.887656 124.051204 
z
" clip-path="url(#p7320268c4e)" style="fill: #d0af4c"/>
   </g>
   <g id="patch_10">
    <path d="M 234.887656 148.040106 
L 384.853156 148.040106 
L 384.853156 187.179894 
L 234.887656 187.179894 
z
" clip-path="url(#p7320268c4e)" style="fill: #d0af4c"/>
   </g>
   <g id="patch_11">
    <path d="M 234.887656 211.168796 
L 367.210156 211.168796 
L 367.210156 250.308583 
L 234.887656 250.308583 
z
" clip-path="url(#p7320268c4e)" style="fill: #d0af4c"/>
   </g>
   <g id="patch_12">
    <path d="M 234.887656 274.297485 
L 331.924156 274.297485 
L 331.924156 313.437273 
L 234.887656 313.437273 
z
" clip-path="url(#p7320268c4e)" style="fill: #d0af4c"/>
   </g>
   <g id="patch_13">
    <path d="M 58.457656 328.02 
L 58.457656 7.2 
" style="fill: none; stroke: #000000; stroke-linejoin: miter; stroke-linecap: square"/>
   </g>
   <g id="patch_14">
    <path d="M 411.317656 328.02 
L 411.317656 7.2 
" style="fill: none; stroke: #000000; stroke-linejoin: miter; stroke-linecap: square"/>
   </g>
   <g id="patch_15">
    <path d="M 58.457656 328.02 
L 411.317656 328.02 
" style="fill: none; stroke: #000000; stroke-linejoin: miter; stroke-linecap: square"/>
   </g>
   <g id="patch_16">
    <path d="M 58.457656 7.2 
L 411.317656 7.2 
" style="fill: none; stroke: #000000; stroke-linejoin: miter; stroke-linecap: square"/>
   </g>
   <g id="text_15">
    <!-- 7 -->
    <g transform="translate(200.831156 44.111996) scale(0.1 -0.1)">
     <use xlink:href="#DejaVuSans-37"/>
    </g>
   </g>
   <g id="text_16">
    <!-- 18 -->
    <g transform="translate(307.918656 44.111996) scale(0.1 -0.1)">
     <use xlink:href="#DejaVuSans-31"/>
     <use xlink:href="#DejaVuSans-38" transform="translate(63.623047 0)"/>
    </g>
   </g>
   <g id="text_17">
    <!-- 13 -->
    <g transform="translate(171.185406 107.240686) scale(0.1 -0.1)">
     <defs>
      <path id="DejaVuSans-33" d="M 2597 2516 
Q 3050 2419 3304 2112 
Q 3559 1806 3559 1356 
Q 3559 666 3084 287 
Q 2609 -91 1734 -91 
Q 1441 -91 1130 -33 
Q 819 25 488 141 
L 488 750 
Q 750 597 1062 519 
Q 1375 441 1716 441 
Q 2309 441 2620 675 
Q 2931 909 2931 1356 
Q 2931 1769 2642 2001 
Q 2353 2234 1838 2234 
L 1294 2234 
L 1294 2753 
L 1863 2753 
Q 2328 2753 2575 2939 
Q 2822 3125 2822 3475 
Q 2822 3834 2567 4026 
Q 2313 4219 1838 4219 
Q 1578 4219 1281 4162 
Q 984 4106 628 3988 
L 628 4550 
Q 988 4650 1302 4700 
Q 1616 4750 1894 4750 
Q 2613 4750 3031 4423 
Q 3450 4097 3450 3541 
Q 3450 3153 3228 2886 
Q 3006 2619 2597 2516 
z
" transform="scale(0.015625)"/>
     </defs>
     <use xlink:href="#DejaVuSans-31"/>
     <use xlink:href="#DejaVuSans-33" transform="translate(63.623047 0)"/>
    </g>
   </g>
   <g id="text_18">
    <!-- 12 -->
    <g transform="translate(281.454156 107.240686) scale(0.1 -0.1)">
     <use xlink:href="#DejaVuSans-31"/>
     <use xlink:href="#DejaVuSans-32" transform="translate(63.623047 0)"/>
    </g>
   </g>
   <g id="text_19">
    <!-- 8 -->
    <g transform="translate(196.420406 170.369375) scale(0.1 -0.1)">
     <use xlink:href="#DejaVuSans-38"/>
    </g>
   </g>
   <g id="text_20">
    <!-- 17 -->
    <g transform="translate(303.507906 170.369375) scale(0.1 -0.1)">
     <use xlink:href="#DejaVuSans-31"/>
     <use xlink:href="#DejaVuSans-37" transform="translate(63.623047 0)"/>
    </g>
   </g>
   <g id="text_21">
    <!-- 10 -->
    <g transform="translate(184.417656 233.498064) scale(0.1 -0.1)">
     <use xlink:href="#DejaVuSans-31"/>
     <use xlink:href="#DejaVuSans-30" transform="translate(63.623047 0)"/>
    </g>
   </g>
   <g id="text_22">
    <!-- 15 -->
    <g transform="translate(294.686406 233.498064) scale(0.1 -0.1)">
     <use xlink:href="#DejaVuSans-31"/>
     <use xlink:href="#DejaVuSans-35" transform="translate(63.623047 0)"/>
    </g>
   </g>
   <g id="text_23">
    <!-- 14 -->
    <g transform="translate(166.774656 296.626754) scale(0.1 -0.1)">
     <defs>
      <path id="DejaVuSans-34" d="M 2419 4116 
L 825 1625 
L 2419 1625 
L 2419 4116 
z
M 2253 4666 
L 3047 4666 
L 3047 1625 
L 3713 1625 
L 3713 1100 
L 3047 1100 
L 3047 0 
L 2419 0 
L 2419 1100 
L 313 1100 
L 313 1709 
L 2253 4666 
z
" transform="scale(0.015625)"/>
     </defs>
     <use xlink:href="#DejaVuSans-31"/>
     <use xlink:href="#DejaVuSans-34" transform="translate(63.623047 0)"/>
    </g>
   </g>
   <g id="text_24">
    <!-- 11 -->
    <g transform="translate(277.043406 296.626754) scale(0.1 -0.1)">
     <use xlink:href="#DejaVuSans-31"/>
     <use xlink:href="#DejaVuSans-31" transform="translate(63.623047 0)"/>
    </g>
   </g>
  </g>
 </g>
 <defs>
  <clipPath id="p7320268c4e">
   <rect x="58.457656" y="7.2" width="352.86" height="320.82"/>
  </clipPath>
 </defs>
</svg>
