<?xml version="1.0" encoding="utf-8" standalone="no"?>
<!DOCTYPE svg PUBLIC "-//W3C//DTD SVG 1.1//EN"
  "http://www.w3.org/Graphics/SVG/1.1/DTD/svg11.dtd">
<svg xmlns:xlink="http://www.w3.org/1999/xlink" width="712.959375pt" height="279.45375pt" viewBox="0 0 712.959375 279.45375" xmlns="http://www.w3.org/2000/svg" version="1.1">
 <metadata>
  <rdf:RDF xmlns:dc="http://purl.org/dc/elements/1.1/" xmlns:cc="http://creativecommons.org/ns#" xmlns:rdf="http://www.w3.org/1999/02/22-rdf-syntax-ns#">
   <cc:Work>
    <dc:type rdf:resource="http://purl.org/dc/dcmitype/StillImage"/>
    <dc:date>2026-05-13T15:37:45.879462</dc:date>
    <dc:format>image/svg+xml</dc:format>
    <dc:creator>
     <cc:Agent>
      <dc:title>Matplotlib v3.10.5, https://matplotlib.org/</dc:title>
     </cc:Agent>
    </dc:creator>
   </cc:Work>
  </rdf:RDF>
 </metadata>
 <defs>
  <style type="text/css">*{stroke-linejoin: round; stroke-linecap: butt}</style>
 </defs>
 <g id="figure_1">
  <g id="patch_1">
   <path d="M 0 279.45375 
L 712.959375 279.45375 
L 712.959375 0 
L 0 0 
z
" style="fill: #ffffff"/>
  </g>
  <g id="axes_1">
   <g id="patch_2">
    <path d="M 44.839375 265.199063 
L 705.759375 265.199063 
L 705.759375 11.759062 
L 44.839375 11.759062 
z
" style="fill: #ffffff"/>
   </g>
   <g id="line2d_1">
    <path d="M 265.146042 265.199063 
L 265.146042 11.759062 
" clip-path="url(#p4c55b6730f)" style="fill: none; stroke-dasharray: 3.7,1.6; stroke-dashoffset: 0; stroke: #808080; stroke-opacity: 0.6"/>
   </g>
   <g id="line2d_2">
    <path d="M 485.452708 265.199063 
L 485.452708 11.759062 
" clip-path="url(#p4c55b6730f)" style="fill: none; stroke-dasharray: 3.7,1.6; stroke-dashoffset: 0; stroke: #808080; stroke-opacity: 0.6"/>
   </g>
   <g id="matplotlib.axis_1">
    <g id="xtick_1">
     <g id="line2d_3">
      <defs>
       <path id="m94b4ec4bc7" d="M 0 0 
L 0 5 
" style="stroke: #262626; stroke-width: 0.8"/>
      </defs>
      <g>
       <use xlink:href="#m94b4ec4bc7" x="154.992708" y="265.199063" style="fill: #262626; stroke: #262626; stroke-width: 0.8"/>
      </g>
     </g>
    </g>
    <g id="xtick_2">
     <g id="line2d_4">
      <g>
       <use xlink:href="#m94b4ec4bc7" x="375.299375" y="265.199063" style="fill: #262626; stroke: #262626; stroke-width: 0.8"/>
      </g>
     </g>
    </g>
    <g id="xtick_3">
     <g id="line2d_5">
      <g>
       <use xlink:href="#m94b4ec4bc7" x="595.606042" y="265.199063" style="fill: #262626; stroke: #262626; stroke-width: 0.8"/>
      </g>
     </g>
    </g>
   </g>
   <g id="matplotlib.axis_2">
    <g id="ytick_1">
     <g id="line2d_6">
      <defs>
       <path id="ma27fad3c4a" d="M 0 0 
L -5 0 
" style="stroke: #262626; stroke-width: 0.8"/>
      </defs>
      <g>
       <use xlink:href="#ma27fad3c4a" x="44.839375" y="265.199063" style="fill: #262626; stroke: #262626; stroke-width: 0.8"/>
      </g>
     </g>
     <g id="text_1">
      <!-- −1.0 -->
      <g style="fill: #262626" transform="translate(7.2 269.758125) scale(0.12 -0.12)">
       <defs>
        <path id="DejaVuSans-2212" d="M 678 2272 
L 4684 2272 
L 4684 1741 
L 678 1741 
L 678 2272 
z
" transform="scale(0.015625)"/>
        <path id="DejaVuSans-31" d="M 794 531 
L 1825 531 
L 1825 4091 
L 703 3866 
L 703 4441 
L 1819 4666 
L 2450 4666 
L 2450 531 
L 3481 531 
L 3481 0 
L 794 0 
L 794 531 
z
" transform="scale(0.015625)"/>
        <path id="DejaVuSans-2e" d="M 684 794 
L 1344 794 
L 1344 0 
L 684 0 
L 684 794 
z
" transform="scale(0.015625)"/>
        <path id="DejaVuSans-30" d="M 2034 4250 
Q 1547 4250 1301 3770 
Q 1056 3291 1056 2328 
Q 1056 1369 1301 889 
Q 1547 409 2034 409 
Q 2525 409 2770 889 
Q 3016 1369 3016 2328 
Q 3016 3291 2770 3770 
Q 2525 4250 2034 4250 
z
M 2034 4750 
Q 2819 4750 3233 4129 
Q 3647 3509 3647 2328 
Q 3647 1150 3233 529 
Q 2819 -91 2034 -91 
Q 1250 -91 836 529 
Q 422 1150 422 2328 
Q 422 3509 836 4129 
Q 1250 4750 2034 4750 
z
" transform="scale(0.015625)"/>
       </defs>
       <use xlink:href="#DejaVuSans-2212"/>
       <use xlink:href="#DejaVuSans-31" transform="translate(83.789062 0)"/>
       <use xlink:href="#DejaVuSans-2e" transform="translate(147.412109 0)"/>
       <use xlink:href="#DejaVuSans-30" transform="translate(179.199219 0)"/>
      </g>
     </g>
    </g>
    <g id="ytick_2">
     <g id="line2d_7">
      <g>
       <use xlink:href="#ma27fad3c4a" x="44.839375" y="201.839063" style="fill: #262626; stroke: #262626; stroke-width: 0.8"/>
      </g>
     </g>
     <g id="text_2">
      <!-- −0.5 -->
      <g style="fill: #262626" transform="translate(7.2 206.398125) scale(0.12 -0.12)">
       <defs>
        <path id="DejaVuSans-35" d="M 691 4666 
L 3169 4666 
L 3169 4134 
L 1269 4134 
L 1269 2991 
Q 1406 3038 1543 3061 
Q 1681 3084 1819 3084 
Q 2600 3084 3056 2656 
Q 3513 2228 3513 1497 
Q 3513 744 3044 326 
Q 2575 -91 1722 -91 
Q 1428 -91 1123 -41 
Q 819 9 494 109 
L 494 744 
Q 775 591 1075 516 
Q 1375 441 1709 441 
Q 2250 441 2565 725 
Q 2881 1009 2881 1497 
Q 2881 1984 2565 2268 
Q 2250 2553 1709 2553 
Q 1456 2553 1204 2497 
Q 953 2441 691 2322 
L 691 4666 
z
" transform="scale(0.015625)"/>
       </defs>
       <use xlink:href="#DejaVuSans-2212"/>
       <use xlink:href="#DejaVuSans-30" transform="translate(83.789062 0)"/>
       <use xlink:href="#DejaVuSans-2e" transform="translate(147.412109 0)"/>
       <use xlink:href="#DejaVuSans-35" transform="translate(179.199219 0)"/>
      </g>
     </g>
    </g>
    <g id="ytick_3">
     <g id="line2d_8">
      <g>
       <use xlink:href="#ma27fad3c4a" x="44.839375" y="138.479062" style="fill: #262626; stroke: #262626; stroke-width: 0.8"/>
      </g>
     </g>
     <g id="text_3">
      <!-- 0.0 -->
      <g style="fill: #262626" transform="translate(17.255625 143.038125) scale(0.12 -0.12)">
       <use xlink:href="#DejaVuSans-30"/>
       <use xlink:href="#DejaVuSans-2e" transform="translate(63.623047 0)"/>
       <use xlink:href="#DejaVuSans-30" transform="translate(95.410156 0)"/>
      </g>
     </g>
    </g>
    <g id="ytick_4">
     <g id="line2d_9">
      <g>
       <use xlink:href="#ma27fad3c4a" x="44.839375" y="75.119062" style="fill: #262626; stroke: #262626; stroke-width: 0.8"/>
      </g>
     </g>
     <g id="text_4">
      <!-- 0.5 -->
      <g style="fill: #262626" transform="translate(17.255625 79.678125) scale(0.12 -0.12)">
       <use xlink:href="#DejaVuSans-30"/>
       <use xlink:href="#DejaVuSans-2e" transform="translate(63.623047 0)"/>
       <use xlink:href="#DejaVuSans-35" transform="translate(95.410156 0)"/>
      </g>
     </g>
    </g>
    <g id="ytick_5">
     <g id="line2d_10">
      <g>
       <use xlink:href="#ma27fad3c4a" x="44.839375" y="11.759062" style="fill: #262626; stroke: #262626; stroke-width: 0.8"/>
      </g>
     </g>
     <g id="text_5">
      <!-- 1.0 -->
      <g style="fill: #262626" transform="translate(17.255625 16.318125) scale(0.12 -0.12)">
       <use xlink:href="#DejaVuSans-31"/>
       <use xlink:href="#DejaVuSans-2e" transform="translate(63.623047 0)"/>
       <use xlink:href="#DejaVuSans-30" transform="translate(95.410156 0)"/>
      </g>
     </g>
    </g>
   </g>
   <g id="patch_3">
    <path d="M 66.870042 138.479062 
L 96.244264 138.479062 
L 96.244264 96.773684 
L 66.870042 96.773684 
z
" clip-path="url(#p4c55b6730f)" style="fill: #2c4f2c; stroke: #000000; stroke-width: 1.2; stroke-linejoin: miter"/>
   </g>
   <g id="patch_4">
    <path d="M 287.176708 138.479062 
L 316.550931 138.479062 
L 316.550931 139.917813 
L 287.176708 139.917813 
z
" clip-path="url(#p4c55b6730f)" style="fill: #2c4f2c; stroke: #000000; stroke-width: 1.2; stroke-linejoin: miter"/>
   </g>
   <g id="patch_5">
    <path d="M 507.483375 138.479062 
L 536.857597 138.479062 
L 536.857597 96.271393 
L 507.483375 96.271393 
z
" clip-path="url(#p4c55b6730f)" style="fill: #2c4f2c; stroke: #000000; stroke-width: 1.2; stroke-linejoin: miter"/>
   </g>
   <g id="patch_6">
    <path d="M 96.244264 138.479062 
L 125.618486 138.479062 
L 125.618486 143.911245 
L 96.244264 143.911245 
z
" clip-path="url(#p4c55b6730f)" style="fill: #e16f66; stroke: #000000; stroke-width: 1.2; stroke-linejoin: miter"/>
   </g>
   <g id="patch_7">
    <path d="M 316.550931 138.479062 
L 345.925153 138.479062 
L 345.925153 102.201869 
L 316.550931 102.201869 
z
" clip-path="url(#p4c55b6730f)" style="fill: #e16f66; stroke: #000000; stroke-width: 1.2; stroke-linejoin: miter"/>
   </g>
   <g id="patch_8">
    <path d="M 536.857597 138.479062 
L 566.231819 138.479062 
L 566.231819 73.8296 
L 536.857597 73.8296 
z
" clip-path="url(#p4c55b6730f)" style="fill: #e16f66; stroke: #000000; stroke-width: 1.2; stroke-linejoin: miter"/>
   </g>
   <g id="patch_9">
    <path d="M 125.618486 138.479062 
L 154.992708 138.479062 
L 154.992708 149.053557 
L 125.618486 149.053557 
z
" clip-path="url(#p4c55b6730f)" style="fill: #618461; stroke: #000000; stroke-width: 1.2; stroke-linejoin: miter"/>
   </g>
   <g id="patch_10">
    <path d="M 345.925153 138.479062 
L 375.299375 138.479062 
L 375.299375 158.26854 
L 345.925153 158.26854 
z
" clip-path="url(#p4c55b6730f)" style="fill: #618461; stroke: #000000; stroke-width: 1.2; stroke-linejoin: miter"/>
   </g>
   <g id="patch_11">
    <path d="M 566.231819 138.479062 
L 595.606042 138.479062 
L 595.606042 54.418743 
L 566.231819 54.418743 
z
" clip-path="url(#p4c55b6730f)" style="fill: #618461; stroke: #000000; stroke-width: 1.2; stroke-linejoin: miter"/>
   </g>
   <g id="patch_12">
    <path d="M 154.992708 138.479062 
L 184.366931 138.479062 
L 184.366931 111.766404 
L 154.992708 111.766404 
z
" clip-path="url(#p4c55b6730f)" style="fill: #ea9993; stroke: #000000; stroke-width: 1.2; stroke-linejoin: miter"/>
   </g>
   <g id="patch_13">
    <path d="M 375.299375 138.479062 
L 404.673597 138.479062 
L 404.673597 104.925059 
L 375.299375 104.925059 
z
" clip-path="url(#p4c55b6730f)" style="fill: #ea9993; stroke: #000000; stroke-width: 1.2; stroke-linejoin: miter"/>
   </g>
   <g id="patch_14">
    <path d="M 595.606042 138.479062 
L 624.980264 138.479062 
L 624.980264 159.66745 
L 595.606042 159.66745 
z
" clip-path="url(#p4c55b6730f)" style="fill: #ea9993; stroke: #000000; stroke-width: 1.2; stroke-linejoin: miter"/>
   </g>
   <g id="patch_15">
    <path d="M 184.366931 138.479062 
L 213.741153 138.479062 
L 213.741153 113.168489 
L 184.366931 113.168489 
z
" clip-path="url(#p4c55b6730f)" style="fill: #a1b689; stroke: #000000; stroke-width: 1.2; stroke-linejoin: miter"/>
   </g>
   <g id="patch_16">
    <path d="M 404.673597 138.479062 
L 434.047819 138.479062 
L 434.047819 91.163891 
L 404.673597 91.163891 
z
" clip-path="url(#p4c55b6730f)" style="fill: #a1b689; stroke: #000000; stroke-width: 1.2; stroke-linejoin: miter"/>
   </g>
   <g id="patch_17">
    <path d="M 624.980264 138.479062 
L 654.354486 138.479062 
L 654.354486 77.040311 
L 624.980264 77.040311 
z
" clip-path="url(#p4c55b6730f)" style="fill: #a1b689; stroke: #000000; stroke-width: 1.2; stroke-linejoin: miter"/>
   </g>
   <g id="patch_18">
    <path d="M 213.741153 138.479062 
L 243.115375 138.479062 
L 243.115375 121.598844 
L 213.741153 121.598844 
z
" clip-path="url(#p4c55b6730f)" style="fill: #f4cbc8; stroke: #000000; stroke-width: 1.2; stroke-linejoin: miter"/>
   </g>
   <g id="patch_19">
    <path d="M 434.047819 138.479062 
L 463.422042 138.479062 
L 463.422042 100.106965 
L 434.047819 100.106965 
z
" clip-path="url(#p4c55b6730f)" style="fill: #f4cbc8; stroke: #000000; stroke-width: 1.2; stroke-linejoin: miter"/>
   </g>
   <g id="patch_20">
    <path d="M 654.354486 138.479062 
L 683.728708 138.479062 
L 683.728708 92.662478 
L 654.354486 92.662478 
z
" clip-path="url(#p4c55b6730f)" style="fill: #f4cbc8; stroke: #000000; stroke-width: 1.2; stroke-linejoin: miter"/>
   </g>
   <g id="patch_21">
    <path d="M 154.992708 138.479062 
L 154.992708 138.479062 
L 154.992708 138.479062 
L 154.992708 138.479062 
z
" clip-path="url(#p4c55b6730f)" style="fill: #2c4f2c; stroke: #000000; stroke-width: 1.2; stroke-linejoin: miter"/>
   </g>
   <g id="patch_22">
    <path d="M 154.992708 138.479062 
L 154.992708 138.479062 
L 154.992708 138.479062 
L 154.992708 138.479062 
z
" clip-path="url(#p4c55b6730f)" style="fill: #e16f66; stroke: #000000; stroke-width: 1.2; stroke-linejoin: miter"/>
   </g>
   <g id="patch_23">
    <path d="M 154.992708 138.479062 
L 154.992708 138.479062 
L 154.992708 138.479062 
L 154.992708 138.479062 
z
" clip-path="url(#p4c55b6730f)" style="fill: #618461; stroke: #000000; stroke-width: 1.2; stroke-linejoin: miter"/>
   </g>
   <g id="patch_24">
    <path d="M 154.992708 138.479062 
L 154.992708 138.479062 
L 154.992708 138.479062 
L 154.992708 138.479062 
z
" clip-path="url(#p4c55b6730f)" style="fill: #ea9993; stroke: #000000; stroke-width: 1.2; stroke-linejoin: miter"/>
   </g>
   <g id="patch_25">
    <path d="M 154.992708 138.479062 
L 154.992708 138.479062 
L 154.992708 138.479062 
L 154.992708 138.479062 
z
" clip-path="url(#p4c55b6730f)" style="fill: #a1b689; stroke: #000000; stroke-width: 1.2; stroke-linejoin: miter"/>
   </g>
   <g id="patch_26">
    <path d="M 154.992708 138.479062 
L 154.992708 138.479062 
L 154.992708 138.479062 
L 154.992708 138.479062 
z
" clip-path="url(#p4c55b6730f)" style="fill: #f4cbc8; stroke: #000000; stroke-width: 1.2; stroke-linejoin: miter"/>
   </g>
   <g id="patch_27">
    <path d="M 44.839375 265.199063 
L 44.839375 11.759062 
" style="fill: none; stroke: #000000; stroke-linejoin: miter; stroke-linecap: square"/>
   </g>
   <g id="patch_28">
    <path d="M 705.759375 265.199063 
L 705.759375 11.759062 
" style="fill: none; stroke: #000000; stroke-linejoin: miter; stroke-linecap: square"/>
   </g>
   <g id="patch_29">
    <path d="M 44.839375 265.199063 
L 705.759375 265.199063 
" style="fill: none; stroke: #000000; stroke-linejoin: miter; stroke-linecap: square"/>
   </g>
   <g id="patch_30">
    <path d="M 44.839375 11.759062 
L 705.759375 11.759062 
" style="fill: none; stroke: #000000; stroke-linejoin: miter; stroke-linecap: square"/>
   </g>
   <g id="PathCollection_1">
    <defs>
     <path id="C0_0_cc081e0743" d="M 0 2.5 
C 0.663008 2.5 1.29895 2.236584 1.767767 1.767767 
C 2.236584 1.29895 2.5 0.663008 2.5 -0 
C 2.5 -0.663008 2.236584 -1.29895 1.767767 -1.767767 
C 1.29895 -2.236584 0.663008 -2.5 0 -2.5 
C -0.663008 -2.5 -1.29895 -2.236584 -1.767767 -1.767767 
C -2.236584 -1.29895 -2.5 -0.663008 -2.5 0 
C -2.5 0.663008 -2.236584 1.29895 -1.767767 1.767767 
C -1.29895 2.236584 -0.663008 2.5 0 2.5 
z
"/>
    </defs>
    <g clip-path="url(#p4c55b6730f)">
     <use xlink:href="#C0_0_cc081e0743" x="83.774901" y="116.893672" style="fill: #265526; stroke: #000000; stroke-width: 0.5"/>
    </g>
    <g clip-path="url(#p4c55b6730f)">
     <use xlink:href="#C0_0_cc081e0743" x="82.738672" y="78.250525" style="fill: #265526; stroke: #000000; stroke-width: 0.5"/>
    </g>
    <g clip-path="url(#p4c55b6730f)">
     <use xlink:href="#C0_0_cc081e0743" x="80.568116" y="95.176854" style="fill: #265526; stroke: #000000; stroke-width: 0.5"/>
    </g>
   </g>
   <g id="PathCollection_2">
    <defs>
     <path id="C1_0_bdcd87b534" d="M 0 2.5 
C 0.663008 2.5 1.29895 2.236584 1.767767 1.767767 
C 2.236584 1.29895 2.5 0.663008 2.5 -0 
C 2.5 -0.663008 2.236584 -1.29895 1.767767 -1.767767 
C 1.29895 -2.236584 0.663008 -2.5 0 -2.5 
C -0.663008 -2.5 -1.29895 -2.236584 -1.767767 -1.767767 
C -2.236584 -1.29895 -2.5 -0.663008 -2.5 0 
C -2.5 0.663008 -2.236584 1.29895 -1.767767 1.767767 
C -1.29895 2.236584 -0.663008 2.5 0 2.5 
z
"/>
    </defs>
    <g clip-path="url(#p4c55b6730f)">
     <use xlink:href="#C1_0_bdcd87b534" x="113.655165" y="131.90744" style="fill: #f65e51; stroke: #000000; stroke-width: 0.5"/>
    </g>
    <g clip-path="url(#p4c55b6730f)">
     <use xlink:href="#C1_0_bdcd87b534" x="112.07753" y="142.300931" style="fill: #f65e51; stroke: #000000; stroke-width: 0.5"/>
    </g>
    <g clip-path="url(#p4c55b6730f)">
     <use xlink:href="#C1_0_bdcd87b534" x="112.378574" y="157.525365" style="fill: #f65e51; stroke: #000000; stroke-width: 0.5"/>
    </g>
   </g>
   <g id="PathCollection_3">
    <defs>
     <path id="C2_0_4bb6237937" d="M 0 2.5 
C 0.663008 2.5 1.29895 2.236584 1.767767 1.767767 
C 2.236584 1.29895 2.5 0.663008 2.5 -0 
C 2.5 -0.663008 2.236584 -1.29895 1.767767 -1.767767 
C 1.29895 -2.236584 0.663008 -2.5 0 -2.5 
C -0.663008 -2.5 -1.29895 -2.236584 -1.767767 -1.767767 
C -2.236584 -1.29895 -2.5 -0.663008 -2.5 0 
C -2.5 0.663008 -2.236584 1.29895 -1.767767 1.767767 
C -1.29895 2.236584 -0.663008 2.5 0 2.5 
z
"/>
    </defs>
    <g clip-path="url(#p4c55b6730f)">
     <use xlink:href="#C2_0_4bb6237937" x="137.555184" y="142.537899" style="fill: #5b8a5b; stroke: #000000; stroke-width: 0.5"/>
    </g>
    <g clip-path="url(#p4c55b6730f)">
     <use xlink:href="#C2_0_4bb6237937" x="141.929799" y="152.386929" style="fill: #5b8a5b; stroke: #000000; stroke-width: 0.5"/>
    </g>
    <g clip-path="url(#p4c55b6730f)">
     <use xlink:href="#C2_0_4bb6237937" x="141.101454" y="152.235843" style="fill: #5b8a5b; stroke: #000000; stroke-width: 0.5"/>
    </g>
   </g>
   <g id="PathCollection_4">
    <defs>
     <path id="C3_0_77aa40df0c" d="M 0 2.5 
C 0.663008 2.5 1.29895 2.236584 1.767767 1.767767 
C 2.236584 1.29895 2.5 0.663008 2.5 -0 
C 2.5 -0.663008 2.236584 -1.29895 1.767767 -1.767767 
C 1.29895 -2.236584 0.663008 -2.5 0 -2.5 
C -0.663008 -2.5 -1.29895 -2.236584 -1.767767 -1.767767 
C -2.236584 -1.29895 -2.5 -0.663008 -2.5 0 
C -2.5 0.663008 -2.236584 1.29895 -1.767767 1.767767 
C -1.29895 2.236584 -0.663008 2.5 0 2.5 
z
"/>
    </defs>
    <g clip-path="url(#p4c55b6730f)">
     <use xlink:href="#C3_0_77aa40df0c" x="170.926315" y="121.242696" style="fill: #f98c84; stroke: #000000; stroke-width: 0.5"/>
    </g>
    <g clip-path="url(#p4c55b6730f)">
     <use xlink:href="#C3_0_77aa40df0c" x="167.509144" y="142.657551" style="fill: #f98c84; stroke: #000000; stroke-width: 0.5"/>
    </g>
    <g clip-path="url(#p4c55b6730f)">
     <use xlink:href="#C3_0_77aa40df0c" x="166.13815" y="71.398964" style="fill: #f98c84; stroke: #000000; stroke-width: 0.5"/>
    </g>
   </g>
   <g id="PathCollection_5">
    <defs>
     <path id="C4_0_46bc44d0ad" d="M 0 2.5 
C 0.663008 2.5 1.29895 2.236584 1.767767 1.767767 
C 2.236584 1.29895 2.5 0.663008 2.5 -0 
C 2.5 -0.663008 2.236584 -1.29895 1.767767 -1.767767 
C 1.29895 -2.236584 0.663008 -2.5 0 -2.5 
C -0.663008 -2.5 -1.29895 -2.236584 -1.767767 -1.767767 
C -2.236584 -1.29895 -2.5 -0.663008 -2.5 0 
C -2.5 0.663008 -2.236584 1.29895 -1.767767 1.767767 
C -1.29895 2.236584 -0.663008 2.5 0 2.5 
z
"/>
    </defs>
    <g clip-path="url(#p4c55b6730f)">
     <use xlink:href="#C4_0_46bc44d0ad" x="200.743633" y="155.616153" style="fill: #a1bd82; stroke: #000000; stroke-width: 0.5"/>
    </g>
    <g clip-path="url(#p4c55b6730f)">
     <use xlink:href="#C4_0_46bc44d0ad" x="196.993762" y="103.591657" style="fill: #a1bd82; stroke: #000000; stroke-width: 0.5"/>
    </g>
    <g clip-path="url(#p4c55b6730f)">
     <use xlink:href="#C4_0_46bc44d0ad" x="196.293689" y="80.297657" style="fill: #a1bd82; stroke: #000000; stroke-width: 0.5"/>
    </g>
   </g>
   <g id="PathCollection_6">
    <defs>
     <path id="C5_0_9877f37379" d="M 0 2.5 
C 0.663008 2.5 1.29895 2.236584 1.767767 1.767767 
C 2.236584 1.29895 2.5 0.663008 2.5 -0 
C 2.5 -0.663008 2.236584 -1.29895 1.767767 -1.767767 
C 1.29895 -2.236584 0.663008 -2.5 0 -2.5 
C -0.663008 -2.5 -1.29895 -2.236584 -1.767767 -1.767767 
C -2.236584 -1.29895 -2.5 -0.663008 -2.5 0 
C -2.5 0.663008 -2.236584 1.29895 -1.767767 1.767767 
C -1.29895 2.236584 -0.663008 2.5 0 2.5 
z
"/>
    </defs>
    <g clip-path="url(#p4c55b6730f)">
     <use xlink:href="#C5_0_9877f37379" x="228.588535" y="135.5156" style="fill: #fcc5c0; stroke: #000000; stroke-width: 0.5"/>
    </g>
    <g clip-path="url(#p4c55b6730f)">
     <use xlink:href="#C5_0_9877f37379" x="230.329271" y="103.289764" style="fill: #fcc5c0; stroke: #000000; stroke-width: 0.5"/>
    </g>
    <g clip-path="url(#p4c55b6730f)">
     <use xlink:href="#C5_0_9877f37379" x="225.401222" y="125.991169" style="fill: #fcc5c0; stroke: #000000; stroke-width: 0.5"/>
    </g>
   </g>
   <g id="PathCollection_7">
    <defs>
     <path id="C6_0_a2c7f8956d" d="M 0 2.5 
C 0.663008 2.5 1.29895 2.236584 1.767767 1.767767 
C 2.236584 1.29895 2.5 0.663008 2.5 -0 
C 2.5 -0.663008 2.236584 -1.29895 1.767767 -1.767767 
C 1.29895 -2.236584 0.663008 -2.5 0 -2.5 
C -0.663008 -2.5 -1.29895 -2.236584 -1.767767 -1.767767 
C -2.236584 -1.29895 -2.5 -0.663008 -2.5 0 
C -2.5 0.663008 -2.236584 1.29895 -1.767767 1.767767 
C -1.29895 2.236584 -0.663008 2.5 0 2.5 
z
"/>
    </defs>
    <g clip-path="url(#p4c55b6730f)">
     <use xlink:href="#C6_0_a2c7f8956d" x="305.043915" y="145.103698" style="fill: #265526; stroke: #000000; stroke-width: 0.5"/>
    </g>
    <g clip-path="url(#p4c55b6730f)">
     <use xlink:href="#C6_0_a2c7f8956d" x="301.512777" y="107.429076" style="fill: #265526; stroke: #000000; stroke-width: 0.5"/>
    </g>
    <g clip-path="url(#p4c55b6730f)">
     <use xlink:href="#C6_0_a2c7f8956d" x="299.099403" y="167.220665" style="fill: #265526; stroke: #000000; stroke-width: 0.5"/>
    </g>
   </g>
   <g id="PathCollection_8">
    <defs>
     <path id="C7_0_5481026cdf" d="M 0 2.5 
C 0.663008 2.5 1.29895 2.236584 1.767767 1.767767 
C 2.236584 1.29895 2.5 0.663008 2.5 -0 
C 2.5 -0.663008 2.236584 -1.29895 1.767767 -1.767767 
C 1.29895 -2.236584 0.663008 -2.5 0 -2.5 
C -0.663008 -2.5 -1.29895 -2.236584 -1.767767 -1.767767 
C -2.236584 -1.29895 -2.5 -0.663008 -2.5 0 
C -2.5 0.663008 -2.236584 1.29895 -1.767767 1.767767 
C -1.29895 2.236584 -0.663008 2.5 0 2.5 
z
"/>
    </defs>
    <g clip-path="url(#p4c55b6730f)">
     <use xlink:href="#C7_0_5481026cdf" x="330.372779" y="89.505189" style="fill: #f65e51; stroke: #000000; stroke-width: 0.5"/>
    </g>
    <g clip-path="url(#p4c55b6730f)">
     <use xlink:href="#C7_0_5481026cdf" x="331.038929" y="102.806664" style="fill: #f65e51; stroke: #000000; stroke-width: 0.5"/>
    </g>
    <g clip-path="url(#p4c55b6730f)">
     <use xlink:href="#C7_0_5481026cdf" x="331.325395" y="114.293755" style="fill: #f65e51; stroke: #000000; stroke-width: 0.5"/>
    </g>
   </g>
   <g id="PathCollection_9">
    <defs>
     <path id="C8_0_cfee4acef8" d="M 0 2.5 
C 0.663008 2.5 1.29895 2.236584 1.767767 1.767767 
C 2.236584 1.29895 2.5 0.663008 2.5 -0 
C 2.5 -0.663008 2.236584 -1.29895 1.767767 -1.767767 
C 1.29895 -2.236584 0.663008 -2.5 0 -2.5 
C -0.663008 -2.5 -1.29895 -2.236584 -1.767767 -1.767767 
C -2.236584 -1.29895 -2.5 -0.663008 -2.5 0 
C -2.5 0.663008 -2.236584 1.29895 -1.767767 1.767767 
C -1.29895 2.236584 -0.663008 2.5 0 2.5 
z
"/>
    </defs>
    <g clip-path="url(#p4c55b6730f)">
     <use xlink:href="#C8_0_cfee4acef8" x="358.601755" y="175.953879" style="fill: #5b8a5b; stroke: #000000; stroke-width: 0.5"/>
    </g>
    <g clip-path="url(#p4c55b6730f)">
     <use xlink:href="#C8_0_cfee4acef8" x="357.175683" y="138.767234" style="fill: #5b8a5b; stroke: #000000; stroke-width: 0.5"/>
    </g>
    <g clip-path="url(#p4c55b6730f)">
     <use xlink:href="#C8_0_cfee4acef8" x="360.324861" y="160.084506" style="fill: #5b8a5b; stroke: #000000; stroke-width: 0.5"/>
    </g>
   </g>
   <g id="PathCollection_10">
    <defs>
     <path id="C9_0_905b073a3e" d="M 0 2.5 
C 0.663008 2.5 1.29895 2.236584 1.767767 1.767767 
C 2.236584 1.29895 2.5 0.663008 2.5 -0 
C 2.5 -0.663008 2.236584 -1.29895 1.767767 -1.767767 
C 1.29895 -2.236584 0.663008 -2.5 0 -2.5 
C -0.663008 -2.5 -1.29895 -2.236584 -1.767767 -1.767767 
C -2.236584 -1.29895 -2.5 -0.663008 -2.5 0 
C -2.5 0.663008 -2.236584 1.29895 -1.767767 1.767767 
C -1.29895 2.236584 -0.663008 2.5 0 2.5 
z
"/>
    </defs>
    <g clip-path="url(#p4c55b6730f)">
     <use xlink:href="#C9_0_905b073a3e" x="386.598329" y="92.344211" style="fill: #f98c84; stroke: #000000; stroke-width: 0.5"/>
    </g>
    <g clip-path="url(#p4c55b6730f)">
     <use xlink:href="#C9_0_905b073a3e" x="388.279341" y="127.134266" style="fill: #f98c84; stroke: #000000; stroke-width: 0.5"/>
    </g>
    <g clip-path="url(#p4c55b6730f)">
     <use xlink:href="#C9_0_905b073a3e" x="387.922698" y="95.296701" style="fill: #f98c84; stroke: #000000; stroke-width: 0.5"/>
    </g>
   </g>
   <g id="PathCollection_11">
    <defs>
     <path id="Ca_0_edd178ee8a" d="M 0 2.5 
C 0.663008 2.5 1.29895 2.236584 1.767767 1.767767 
C 2.236584 1.29895 2.5 0.663008 2.5 -0 
C 2.5 -0.663008 2.236584 -1.29895 1.767767 -1.767767 
C 1.29895 -2.236584 0.663008 -2.5 0 -2.5 
C -0.663008 -2.5 -1.29895 -2.236584 -1.767767 -1.767767 
C -2.236584 -1.29895 -2.5 -0.663008 -2.5 0 
C -2.5 0.663008 -2.236584 1.29895 -1.767767 1.767767 
C -1.29895 2.236584 -0.663008 2.5 0 2.5 
z
"/>
    </defs>
    <g clip-path="url(#p4c55b6730f)">
     <use xlink:href="#Ca_0_edd178ee8a" x="418.935875" y="82.033824" style="fill: #a1bd82; stroke: #000000; stroke-width: 0.5"/>
    </g>
    <g clip-path="url(#p4c55b6730f)">
     <use xlink:href="#Ca_0_edd178ee8a" x="419.721506" y="78.089675" style="fill: #a1bd82; stroke: #000000; stroke-width: 0.5"/>
    </g>
    <g clip-path="url(#p4c55b6730f)">
     <use xlink:href="#Ca_0_edd178ee8a" x="420.979239" y="113.368174" style="fill: #a1bd82; stroke: #000000; stroke-width: 0.5"/>
    </g>
   </g>
   <g id="PathCollection_12">
    <defs>
     <path id="Cb_0_492c873e06" d="M 0 2.5 
C 0.663008 2.5 1.29895 2.236584 1.767767 1.767767 
C 2.236584 1.29895 2.5 0.663008 2.5 -0 
C 2.5 -0.663008 2.236584 -1.29895 1.767767 -1.767767 
C 1.29895 -2.236584 0.663008 -2.5 0 -2.5 
C -0.663008 -2.5 -1.29895 -2.236584 -1.767767 -1.767767 
C -2.236584 -1.29895 -2.5 -0.663008 -2.5 0 
C -2.5 0.663008 -2.236584 1.29895 -1.767767 1.767767 
C -1.29895 2.236584 -0.663008 2.5 0 2.5 
z
"/>
    </defs>
    <g clip-path="url(#p4c55b6730f)">
     <use xlink:href="#Cb_0_492c873e06" x="447.881933" y="109.634879" style="fill: #fcc5c0; stroke: #000000; stroke-width: 0.5"/>
    </g>
    <g clip-path="url(#p4c55b6730f)">
     <use xlink:href="#Cb_0_492c873e06" x="452.169159" y="92.676619" style="fill: #fcc5c0; stroke: #000000; stroke-width: 0.5"/>
    </g>
    <g clip-path="url(#p4c55b6730f)">
     <use xlink:href="#Cb_0_492c873e06" x="449.229359" y="98.009396" style="fill: #fcc5c0; stroke: #000000; stroke-width: 0.5"/>
    </g>
   </g>
   <g id="PathCollection_13">
    <defs>
     <path id="Cc_0_25c692cdc6" d="M 0 2.5 
C 0.663008 2.5 1.29895 2.236584 1.767767 1.767767 
C 2.236584 1.29895 2.5 0.663008 2.5 -0 
C 2.5 -0.663008 2.236584 -1.29895 1.767767 -1.767767 
C 1.29895 -2.236584 0.663008 -2.5 0 -2.5 
C -0.663008 -2.5 -1.29895 -2.236584 -1.767767 -1.767767 
C -2.236584 -1.29895 -2.5 -0.663008 -2.5 0 
C -2.5 0.663008 -2.236584 1.29895 -1.767767 1.767767 
C -1.29895 2.236584 -0.663008 2.5 0 2.5 
z
"/>
    </defs>
    <g clip-path="url(#p4c55b6730f)">
     <use xlink:href="#Cc_0_25c692cdc6" x="525.561147" y="120.272068" style="fill: #265526; stroke: #000000; stroke-width: 0.5"/>
    </g>
    <g clip-path="url(#p4c55b6730f)">
     <use xlink:href="#Cc_0_25c692cdc6" x="522.505466" y="71.299227" style="fill: #265526; stroke: #000000; stroke-width: 0.5"/>
    </g>
    <g clip-path="url(#p4c55b6730f)">
     <use xlink:href="#Cc_0_25c692cdc6" x="519.812438" y="97.242883" style="fill: #265526; stroke: #000000; stroke-width: 0.5"/>
    </g>
   </g>
   <g id="PathCollection_14">
    <defs>
     <path id="Cd_0_5fc1da0d0e" d="M 0 2.5 
C 0.663008 2.5 1.29895 2.236584 1.767767 1.767767 
C 2.236584 1.29895 2.5 0.663008 2.5 -0 
C 2.5 -0.663008 2.236584 -1.29895 1.767767 -1.767767 
C 1.29895 -2.236584 0.663008 -2.5 0 -2.5 
C -0.663008 -2.5 -1.29895 -2.236584 -1.767767 -1.767767 
C -2.236584 -1.29895 -2.5 -0.663008 -2.5 0 
C -2.5 0.663008 -2.236584 1.29895 -1.767767 1.767767 
C -1.29895 2.236584 -0.663008 2.5 0 2.5 
z
"/>
    </defs>
    <g clip-path="url(#p4c55b6730f)">
     <use xlink:href="#Cd_0_5fc1da0d0e" x="553.050074" y="72.151109" style="fill: #f65e51; stroke: #000000; stroke-width: 0.5"/>
    </g>
    <g clip-path="url(#p4c55b6730f)">
     <use xlink:href="#Cd_0_5fc1da0d0e" x="548.334909" y="82.353853" style="fill: #f65e51; stroke: #000000; stroke-width: 0.5"/>
    </g>
    <g clip-path="url(#p4c55b6730f)">
     <use xlink:href="#Cd_0_5fc1da0d0e" x="554.475857" y="66.983837" style="fill: #f65e51; stroke: #000000; stroke-width: 0.5"/>
    </g>
   </g>
   <g id="PathCollection_15">
    <defs>
     <path id="Ce_0_8245ac6cb7" d="M 0 2.5 
C 0.663008 2.5 1.29895 2.236584 1.767767 1.767767 
C 2.236584 1.29895 2.5 0.663008 2.5 -0 
C 2.5 -0.663008 2.236584 -1.29895 1.767767 -1.767767 
C 1.29895 -2.236584 0.663008 -2.5 0 -2.5 
C -0.663008 -2.5 -1.29895 -2.236584 -1.767767 -1.767767 
C -2.236584 -1.29895 -2.5 -0.663008 -2.5 0 
C -2.5 0.663008 -2.236584 1.29895 -1.767767 1.767767 
C -1.29895 2.236584 -0.663008 2.5 0 2.5 
z
"/>
    </defs>
    <g clip-path="url(#p4c55b6730f)">
     <use xlink:href="#Ce_0_8245ac6cb7" x="583.4149" y="53.603489" style="fill: #5b8a5b; stroke: #000000; stroke-width: 0.5"/>
    </g>
    <g clip-path="url(#p4c55b6730f)">
     <use xlink:href="#Ce_0_8245ac6cb7" x="584.328984" y="52.902735" style="fill: #5b8a5b; stroke: #000000; stroke-width: 0.5"/>
    </g>
    <g clip-path="url(#p4c55b6730f)">
     <use xlink:href="#Ce_0_8245ac6cb7" x="582.842943" y="56.750005" style="fill: #5b8a5b; stroke: #000000; stroke-width: 0.5"/>
    </g>
   </g>
   <g id="PathCollection_16">
    <defs>
     <path id="Cf_0_f4758f3612" d="M 0 2.5 
C 0.663008 2.5 1.29895 2.236584 1.767767 1.767767 
C 2.236584 1.29895 2.5 0.663008 2.5 -0 
C 2.5 -0.663008 2.236584 -1.29895 1.767767 -1.767767 
C 1.29895 -2.236584 0.663008 -2.5 0 -2.5 
C -0.663008 -2.5 -1.29895 -2.236584 -1.767767 -1.767767 
C -2.236584 -1.29895 -2.5 -0.663008 -2.5 0 
C -2.5 0.663008 -2.236584 1.29895 -1.767767 1.767767 
C -1.29895 2.236584 -0.663008 2.5 0 2.5 
z
"/>
    </defs>
    <g clip-path="url(#p4c55b6730f)">
     <use xlink:href="#Cf_0_f4758f3612" x="610.191844" y="143.575528" style="fill: #f98c84; stroke: #000000; stroke-width: 0.5"/>
    </g>
    <g clip-path="url(#p4c55b6730f)">
     <use xlink:href="#Cf_0_f4758f3612" x="609.876644" y="180.032831" style="fill: #f98c84; stroke: #000000; stroke-width: 0.5"/>
    </g>
    <g clip-path="url(#p4c55b6730f)">
     <use xlink:href="#Cf_0_f4758f3612" x="606.655131" y="155.39399" style="fill: #f98c84; stroke: #000000; stroke-width: 0.5"/>
    </g>
   </g>
   <g id="PathCollection_17">
    <defs>
     <path id="C10_0_22f2ccd5cf" d="M 0 2.5 
C 0.663008 2.5 1.29895 2.236584 1.767767 1.767767 
C 2.236584 1.29895 2.5 0.663008 2.5 -0 
C 2.5 -0.663008 2.236584 -1.29895 1.767767 -1.767767 
C 1.29895 -2.236584 0.663008 -2.5 0 -2.5 
C -0.663008 -2.5 -1.29895 -2.236584 -1.767767 -1.767767 
C -2.236584 -1.29895 -2.5 -0.663008 -2.5 0 
C -2.5 0.663008 -2.236584 1.29895 -1.767767 1.767767 
C -1.29895 2.236584 -0.663008 2.5 0 2.5 
z
"/>
    </defs>
    <g clip-path="url(#p4c55b6730f)">
     <use xlink:href="#C10_0_22f2ccd5cf" x="638.309661" y="70.4191" style="fill: #a1bd82; stroke: #000000; stroke-width: 0.5"/>
    </g>
    <g clip-path="url(#p4c55b6730f)">
     <use xlink:href="#C10_0_22f2ccd5cf" x="642.209248" y="88.549439" style="fill: #a1bd82; stroke: #000000; stroke-width: 0.5"/>
    </g>
    <g clip-path="url(#p4c55b6730f)">
     <use xlink:href="#C10_0_22f2ccd5cf" x="640.114408" y="72.152395" style="fill: #a1bd82; stroke: #000000; stroke-width: 0.5"/>
    </g>
   </g>
   <g id="PathCollection_18">
    <defs>
     <path id="C11_0_84d41672c9" d="M 0 2.5 
C 0.663008 2.5 1.29895 2.236584 1.767767 1.767767 
C 2.236584 1.29895 2.5 0.663008 2.5 -0 
C 2.5 -0.663008 2.236584 -1.29895 1.767767 -1.767767 
C 1.29895 -2.236584 0.663008 -2.5 0 -2.5 
C -0.663008 -2.5 -1.29895 -2.236584 -1.767767 -1.767767 
C -2.236584 -1.29895 -2.5 -0.663008 -2.5 0 
C -2.5 0.663008 -2.236584 1.29895 -1.767767 1.767767 
C -1.29895 2.236584 -0.663008 2.5 0 2.5 
z
"/>
    </defs>
    <g clip-path="url(#p4c55b6730f)">
     <use xlink:href="#C11_0_84d41672c9" x="665.912889" y="88.157477" style="fill: #fcc5c0; stroke: #000000; stroke-width: 0.5"/>
    </g>
    <g clip-path="url(#p4c55b6730f)">
     <use xlink:href="#C11_0_84d41672c9" x="668.722735" y="100.078955" style="fill: #fcc5c0; stroke: #000000; stroke-width: 0.5"/>
    </g>
    <g clip-path="url(#p4c55b6730f)">
     <use xlink:href="#C11_0_84d41672c9" x="671.208126" y="89.751003" style="fill: #fcc5c0; stroke: #000000; stroke-width: 0.5"/>
    </g>
   </g>
   <g id="line2d_11"/>
   <g id="line2d_12"/>
   <g id="line2d_13"/>
   <g id="line2d_14"/>
   <g id="line2d_15"/>
   <g id="line2d_16"/>
   <g id="legend_1">
    <g id="patch_31">
     <path d="M 150.746563 336.835688 
L 599.852188 336.835688 
Q 601.652188 336.835688 601.652188 335.035687 
L 601.652188 309.515062 
Q 601.652188 307.715062 599.852188 307.715062 
L 150.746563 307.715062 
Q 148.946563 307.715062 148.946563 309.515062 
L 148.946563 335.035687 
Q 148.946563 336.835688 150.746563 336.835688 
z
" style="fill: #ffffff; opacity: 0.8; stroke: #cccccc; stroke-linejoin: miter"/>
    </g>
    <g id="patch_32">
     <path d="M 152.546563 318.153656 
L 170.546563 318.153656 
L 170.546563 311.853656 
L 152.546563 311.853656 
z
" style="fill: #265526; stroke: #000000; stroke-linejoin: miter"/>
    </g>
    <g id="text_6">
     <!-- MultiVelo -->
     <g style="fill: #262626" transform="translate(177.746563 318.153656) scale(0.09 -0.09)">
      <defs>
       <path id="DejaVuSans-4d" d="M 628 4666 
L 1569 4666 
L 2759 1491 
L 3956 4666 
L 4897 4666 
L 4897 0 
L 4281 0 
L 4281 4097 
L 3078 897 
L 2444 897 
L 1241 4097 
L 1241 0 
L 628 0 
L 628 4666 
z
" transform="scale(0.015625)"/>
       <path id="DejaVuSans-75" d="M 544 1381 
L 544 3500 
L 1119 3500 
L 1119 1403 
Q 1119 906 1312 657 
Q 1506 409 1894 409 
Q 2359 409 2629 706 
Q 2900 1003 2900 1516 
L 2900 3500 
L 3475 3500 
L 3475 0 
L 2900 0 
L 2900 538 
Q 2691 219 2414 64 
Q 2138 -91 1772 -91 
Q 1169 -91 856 284 
Q 544 659 544 1381 
z
M 1991 3584 
L 1991 3584 
z
" transform="scale(0.015625)"/>
       <path id="DejaVuSans-6c" d="M 603 4863 
L 1178 4863 
L 1178 0 
L 603 0 
L 603 4863 
z
" transform="scale(0.015625)"/>
       <path id="DejaVuSans-74" d="M 1172 4494 
L 1172 3500 
L 2356 3500 
L 2356 3053 
L 1172 3053 
L 1172 1153 
Q 1172 725 1289 603 
Q 1406 481 1766 481 
L 2356 481 
L 2356 0 
L 1766 0 
Q 1100 0 847 248 
Q 594 497 594 1153 
L 594 3053 
L 172 3053 
L 172 3500 
L 594 3500 
L 594 4494 
L 1172 4494 
z
" transform="scale(0.015625)"/>
       <path id="DejaVuSans-69" d="M 603 3500 
L 1178 3500 
L 1178 0 
L 603 0 
L 603 3500 
z
M 603 4863 
L 1178 4863 
L 1178 4134 
L 603 4134 
L 603 4863 
z
" transform="scale(0.015625)"/>
       <path id="DejaVuSans-56" d="M 1831 0 
L 50 4666 
L 709 4666 
L 2188 738 
L 3669 4666 
L 4325 4666 
L 2547 0 
L 1831 0 
z
" transform="scale(0.015625)"/>
       <path id="DejaVuSans-65" d="M 3597 1894 
L 3597 1613 
L 953 1613 
Q 991 1019 1311 708 
Q 1631 397 2203 397 
Q 2534 397 2845 478 
Q 3156 559 3463 722 
L 3463 178 
Q 3153 47 2828 -22 
Q 2503 -91 2169 -91 
Q 1331 -91 842 396 
Q 353 884 353 1716 
Q 353 2575 817 3079 
Q 1281 3584 2069 3584 
Q 2775 3584 3186 3129 
Q 3597 2675 3597 1894 
z
M 3022 2063 
Q 3016 2534 2758 2815 
Q 2500 3097 2075 3097 
Q 1594 3097 1305 2825 
Q 1016 2553 972 2059 
L 3022 2063 
z
" transform="scale(0.015625)"/>
       <path id="DejaVuSans-6f" d="M 1959 3097 
Q 1497 3097 1228 2736 
Q 959 2375 959 1747 
Q 959 1119 1226 758 
Q 1494 397 1959 397 
Q 2419 397 2687 759 
Q 2956 1122 2956 1747 
Q 2956 2369 2687 2733 
Q 2419 3097 1959 3097 
z
M 1959 3584 
Q 2709 3584 3137 3096 
Q 3566 2609 3566 1747 
Q 3566 888 3137 398 
Q 2709 -91 1959 -91 
Q 1206 -91 779 398 
Q 353 888 353 1747 
Q 353 2609 779 3096 
Q 1206 3584 1959 3584 
z
" transform="scale(0.015625)"/>
      </defs>
      <use xlink:href="#DejaVuSans-4d"/>
      <use xlink:href="#DejaVuSans-75" transform="translate(86.279297 0)"/>
      <use xlink:href="#DejaVuSans-6c" transform="translate(149.658203 0)"/>
      <use xlink:href="#DejaVuSans-74" transform="translate(177.441406 0)"/>
      <use xlink:href="#DejaVuSans-69" transform="translate(216.650391 0)"/>
      <use xlink:href="#DejaVuSans-56" transform="translate(244.433594 0)"/>
      <use xlink:href="#DejaVuSans-65" transform="translate(305.091797 0)"/>
      <use xlink:href="#DejaVuSans-6c" transform="translate(366.615234 0)"/>
      <use xlink:href="#DejaVuSans-6f" transform="translate(394.398438 0)"/>
     </g>
    </g>
    <g id="patch_33">
     <path d="M 152.546563 331.363969 
L 170.546563 331.363969 
L 170.546563 325.063969 
L 152.546563 325.063969 
z
" style="fill: #f65e51; stroke: #000000; stroke-linejoin: miter"/>
    </g>
    <g id="text_7">
     <!-- scVelo (dyn) -->
     <g style="fill: #262626" transform="translate(177.746563 331.363969) scale(0.09 -0.09)">
      <defs>
       <path id="DejaVuSans-73" d="M 2834 3397 
L 2834 2853 
Q 2591 2978 2328 3040 
Q 2066 3103 1784 3103 
Q 1356 3103 1142 2972 
Q 928 2841 928 2578 
Q 928 2378 1081 2264 
Q 1234 2150 1697 2047 
L 1894 2003 
Q 2506 1872 2764 1633 
Q 3022 1394 3022 966 
Q 3022 478 2636 193 
Q 2250 -91 1575 -91 
Q 1294 -91 989 -36 
Q 684 19 347 128 
L 347 722 
Q 666 556 975 473 
Q 1284 391 1588 391 
Q 1994 391 2212 530 
Q 2431 669 2431 922 
Q 2431 1156 2273 1281 
Q 2116 1406 1581 1522 
L 1381 1569 
Q 847 1681 609 1914 
Q 372 2147 372 2553 
Q 372 3047 722 3315 
Q 1072 3584 1716 3584 
Q 2034 3584 2315 3537 
Q 2597 3491 2834 3397 
z
" transform="scale(0.015625)"/>
       <path id="DejaVuSans-63" d="M 3122 3366 
L 3122 2828 
Q 2878 2963 2633 3030 
Q 2388 3097 2138 3097 
Q 1578 3097 1268 2742 
Q 959 2388 959 1747 
Q 959 1106 1268 751 
Q 1578 397 2138 397 
Q 2388 397 2633 464 
Q 2878 531 3122 666 
L 3122 134 
Q 2881 22 2623 -34 
Q 2366 -91 2075 -91 
Q 1284 -91 818 406 
Q 353 903 353 1747 
Q 353 2603 823 3093 
Q 1294 3584 2113 3584 
Q 2378 3584 2631 3529 
Q 2884 3475 3122 3366 
z
" transform="scale(0.015625)"/>
       <path id="DejaVuSans-20" transform="scale(0.015625)"/>
       <path id="DejaVuSans-28" d="M 1984 4856 
Q 1566 4138 1362 3434 
Q 1159 2731 1159 2009 
Q 1159 1288 1364 580 
Q 1569 -128 1984 -844 
L 1484 -844 
Q 1016 -109 783 600 
Q 550 1309 550 2009 
Q 550 2706 781 3412 
Q 1013 4119 1484 4856 
L 1984 4856 
z
" transform="scale(0.015625)"/>
       <path id="DejaVuSans-64" d="M 2906 2969 
L 2906 4863 
L 3481 4863 
L 3481 0 
L 2906 0 
L 2906 525 
Q 2725 213 2448 61 
Q 2172 -91 1784 -91 
Q 1150 -91 751 415 
Q 353 922 353 1747 
Q 353 2572 751 3078 
Q 1150 3584 1784 3584 
Q 2172 3584 2448 3432 
Q 2725 3281 2906 2969 
z
M 947 1747 
Q 947 1113 1208 752 
Q 1469 391 1925 391 
Q 2381 391 2643 752 
Q 2906 1113 2906 1747 
Q 2906 2381 2643 2742 
Q 2381 3103 1925 3103 
Q 1469 3103 1208 2742 
Q 947 2381 947 1747 
z
" transform="scale(0.015625)"/>
       <path id="DejaVuSans-79" d="M 2059 -325 
Q 1816 -950 1584 -1140 
Q 1353 -1331 966 -1331 
L 506 -1331 
L 506 -850 
L 844 -850 
Q 1081 -850 1212 -737 
Q 1344 -625 1503 -206 
L 1606 56 
L 191 3500 
L 800 3500 
L 1894 763 
L 2988 3500 
L 3597 3500 
L 2059 -325 
z
" transform="scale(0.015625)"/>
       <path id="DejaVuSans-6e" d="M 3513 2113 
L 3513 0 
L 2938 0 
L 2938 2094 
Q 2938 2591 2744 2837 
Q 2550 3084 2163 3084 
Q 1697 3084 1428 2787 
Q 1159 2491 1159 1978 
L 1159 0 
L 581 0 
L 581 3500 
L 1159 3500 
L 1159 2956 
Q 1366 3272 1645 3428 
Q 1925 3584 2291 3584 
Q 2894 3584 3203 3211 
Q 3513 2838 3513 2113 
z
" transform="scale(0.015625)"/>
       <path id="DejaVuSans-29" d="M 513 4856 
L 1013 4856 
Q 1481 4119 1714 3412 
Q 1947 2706 1947 2009 
Q 1947 1309 1714 600 
Q 1481 -109 1013 -844 
L 513 -844 
Q 928 -128 1133 580 
Q 1338 1288 1338 2009 
Q 1338 2731 1133 3434 
Q 928 4138 513 4856 
z
" transform="scale(0.015625)"/>
      </defs>
      <use xlink:href="#DejaVuSans-73"/>
      <use xlink:href="#DejaVuSans-63" transform="translate(52.099609 0)"/>
      <use xlink:href="#DejaVuSans-56" transform="translate(107.080078 0)"/>
      <use xlink:href="#DejaVuSans-65" transform="translate(167.738281 0)"/>
      <use xlink:href="#DejaVuSans-6c" transform="translate(229.261719 0)"/>
      <use xlink:href="#DejaVuSans-6f" transform="translate(257.044922 0)"/>
      <use xlink:href="#DejaVuSans-20" transform="translate(318.226562 0)"/>
      <use xlink:href="#DejaVuSans-28" transform="translate(350.013672 0)"/>
      <use xlink:href="#DejaVuSans-64" transform="translate(389.027344 0)"/>
      <use xlink:href="#DejaVuSans-79" transform="translate(452.503906 0)"/>
      <use xlink:href="#DejaVuSans-6e" transform="translate(511.683594 0)"/>
      <use xlink:href="#DejaVuSans-29" transform="translate(575.0625 0)"/>
     </g>
    </g>
    <g id="patch_34">
     <path d="M 251.015 318.153656 
L 269.015 318.153656 
L 269.015 311.853656 
L 251.015 311.853656 
z
" style="fill: #5b8a5b; stroke: #000000; stroke-linejoin: miter"/>
    </g>
    <g id="text_8">
     <!-- LatentVelo (ATAC) -->
     <g style="fill: #262626" transform="translate(276.215 318.153656) scale(0.09 -0.09)">
      <defs>
       <path id="DejaVuSans-4c" d="M 628 4666 
L 1259 4666 
L 1259 531 
L 3531 531 
L 3531 0 
L 628 0 
L 628 4666 
z
" transform="scale(0.015625)"/>
       <path id="DejaVuSans-61" d="M 2194 1759 
Q 1497 1759 1228 1600 
Q 959 1441 959 1056 
Q 959 750 1161 570 
Q 1363 391 1709 391 
Q 2188 391 2477 730 
Q 2766 1069 2766 1631 
L 2766 1759 
L 2194 1759 
z
M 3341 1997 
L 3341 0 
L 2766 0 
L 2766 531 
Q 2569 213 2275 61 
Q 1981 -91 1556 -91 
Q 1019 -91 701 211 
Q 384 513 384 1019 
Q 384 1609 779 1909 
Q 1175 2209 1959 2209 
L 2766 2209 
L 2766 2266 
Q 2766 2663 2505 2880 
Q 2244 3097 1772 3097 
Q 1472 3097 1187 3025 
Q 903 2953 641 2809 
L 641 3341 
Q 956 3463 1253 3523 
Q 1550 3584 1831 3584 
Q 2591 3584 2966 3190 
Q 3341 2797 3341 1997 
z
" transform="scale(0.015625)"/>
       <path id="DejaVuSans-41" d="M 2188 4044 
L 1331 1722 
L 3047 1722 
L 2188 4044 
z
M 1831 4666 
L 2547 4666 
L 4325 0 
L 3669 0 
L 3244 1197 
L 1141 1197 
L 716 0 
L 50 0 
L 1831 4666 
z
" transform="scale(0.015625)"/>
       <path id="DejaVuSans-54" d="M -19 4666 
L 3928 4666 
L 3928 4134 
L 2272 4134 
L 2272 0 
L 1638 0 
L 1638 4134 
L -19 4134 
L -19 4666 
z
" transform="scale(0.015625)"/>
       <path id="DejaVuSans-43" d="M 4122 4306 
L 4122 3641 
Q 3803 3938 3442 4084 
Q 3081 4231 2675 4231 
Q 1875 4231 1450 3742 
Q 1025 3253 1025 2328 
Q 1025 1406 1450 917 
Q 1875 428 2675 428 
Q 3081 428 3442 575 
Q 3803 722 4122 1019 
L 4122 359 
Q 3791 134 3420 21 
Q 3050 -91 2638 -91 
Q 1578 -91 968 557 
Q 359 1206 359 2328 
Q 359 3453 968 4101 
Q 1578 4750 2638 4750 
Q 3056 4750 3426 4639 
Q 3797 4528 4122 4306 
z
" transform="scale(0.015625)"/>
      </defs>
      <use xlink:href="#DejaVuSans-4c"/>
      <use xlink:href="#DejaVuSans-61" transform="translate(55.712891 0)"/>
      <use xlink:href="#DejaVuSans-74" transform="translate(116.992188 0)"/>
      <use xlink:href="#DejaVuSans-65" transform="translate(156.201172 0)"/>
      <use xlink:href="#DejaVuSans-6e" transform="translate(217.724609 0)"/>
      <use xlink:href="#DejaVuSans-74" transform="translate(281.103516 0)"/>
      <use xlink:href="#DejaVuSans-56" transform="translate(320.3125 0)"/>
      <use xlink:href="#DejaVuSans-65" transform="translate(380.970703 0)"/>
      <use xlink:href="#DejaVuSans-6c" transform="translate(442.494141 0)"/>
      <use xlink:href="#DejaVuSans-6f" transform="translate(470.277344 0)"/>
      <use xlink:href="#DejaVuSans-20" transform="translate(531.458984 0)"/>
      <use xlink:href="#DejaVuSans-28" transform="translate(563.246094 0)"/>
      <use xlink:href="#DejaVuSans-41" transform="translate(602.259766 0)"/>
      <use xlink:href="#DejaVuSans-54" transform="translate(662.917969 0)"/>
      <use xlink:href="#DejaVuSans-41" transform="translate(716.251953 0)"/>
      <use xlink:href="#DejaVuSans-43" transform="translate(782.910156 0)"/>
      <use xlink:href="#DejaVuSans-29" transform="translate(852.734375 0)"/>
     </g>
    </g>
    <g id="patch_35">
     <path d="M 251.015 331.363969 
L 269.015 331.363969 
L 269.015 325.063969 
L 251.015 325.063969 
z
" style="fill: #f98c84; stroke: #000000; stroke-linejoin: miter"/>
    </g>
    <g id="text_9">
     <!-- LatentVelo (std)  -->
     <g style="fill: #262626" transform="translate(276.215 331.363969) scale(0.09 -0.09)">
      <use xlink:href="#DejaVuSans-4c"/>
      <use xlink:href="#DejaVuSans-61" transform="translate(55.712891 0)"/>
      <use xlink:href="#DejaVuSans-74" transform="translate(116.992188 0)"/>
      <use xlink:href="#DejaVuSans-65" transform="translate(156.201172 0)"/>
      <use xlink:href="#DejaVuSans-6e" transform="translate(217.724609 0)"/>
      <use xlink:href="#DejaVuSans-74" transform="translate(281.103516 0)"/>
      <use xlink:href="#DejaVuSans-56" transform="translate(320.3125 0)"/>
      <use xlink:href="#DejaVuSans-65" transform="translate(380.970703 0)"/>
      <use xlink:href="#DejaVuSans-6c" transform="translate(442.494141 0)"/>
      <use xlink:href="#DejaVuSans-6f" transform="translate(470.277344 0)"/>
      <use xlink:href="#DejaVuSans-20" transform="translate(531.458984 0)"/>
      <use xlink:href="#DejaVuSans-28" transform="translate(563.246094 0)"/>
      <use xlink:href="#DejaVuSans-73" transform="translate(602.259766 0)"/>
      <use xlink:href="#DejaVuSans-74" transform="translate(654.359375 0)"/>
      <use xlink:href="#DejaVuSans-64" transform="translate(693.568359 0)"/>
      <use xlink:href="#DejaVuSans-29" transform="translate(757.044922 0)"/>
      <use xlink:href="#DejaVuSans-20" transform="translate(796.058594 0)"/>
     </g>
    </g>
    <g id="patch_36">
     <path d="M 374.4725 318.153656 
L 392.4725 318.153656 
L 392.4725 311.853656 
L 374.4725 311.853656 
z
" style="fill: #a1bd82; stroke: #000000; stroke-linejoin: miter"/>
    </g>
    <g id="text_10">
     <!-- GraphVelo (ATAC)  -->
     <g style="fill: #262626" transform="translate(399.6725 318.153656) scale(0.09 -0.09)">
      <defs>
       <path id="DejaVuSans-47" d="M 3809 666 
L 3809 1919 
L 2778 1919 
L 2778 2438 
L 4434 2438 
L 4434 434 
Q 4069 175 3628 42 
Q 3188 -91 2688 -91 
Q 1594 -91 976 548 
Q 359 1188 359 2328 
Q 359 3472 976 4111 
Q 1594 4750 2688 4750 
Q 3144 4750 3555 4637 
Q 3966 4525 4313 4306 
L 4313 3634 
Q 3963 3931 3569 4081 
Q 3175 4231 2741 4231 
Q 1884 4231 1454 3753 
Q 1025 3275 1025 2328 
Q 1025 1384 1454 906 
Q 1884 428 2741 428 
Q 3075 428 3337 486 
Q 3600 544 3809 666 
z
" transform="scale(0.015625)"/>
       <path id="DejaVuSans-72" d="M 2631 2963 
Q 2534 3019 2420 3045 
Q 2306 3072 2169 3072 
Q 1681 3072 1420 2755 
Q 1159 2438 1159 1844 
L 1159 0 
L 581 0 
L 581 3500 
L 1159 3500 
L 1159 2956 
Q 1341 3275 1631 3429 
Q 1922 3584 2338 3584 
Q 2397 3584 2469 3576 
Q 2541 3569 2628 3553 
L 2631 2963 
z
" transform="scale(0.015625)"/>
       <path id="DejaVuSans-70" d="M 1159 525 
L 1159 -1331 
L 581 -1331 
L 581 3500 
L 1159 3500 
L 1159 2969 
Q 1341 3281 1617 3432 
Q 1894 3584 2278 3584 
Q 2916 3584 3314 3078 
Q 3713 2572 3713 1747 
Q 3713 922 3314 415 
Q 2916 -91 2278 -91 
Q 1894 -91 1617 61 
Q 1341 213 1159 525 
z
M 3116 1747 
Q 3116 2381 2855 2742 
Q 2594 3103 2138 3103 
Q 1681 3103 1420 2742 
Q 1159 2381 1159 1747 
Q 1159 1113 1420 752 
Q 1681 391 2138 391 
Q 2594 391 2855 752 
Q 3116 1113 3116 1747 
z
" transform="scale(0.015625)"/>
       <path id="DejaVuSans-68" d="M 3513 2113 
L 3513 0 
L 2938 0 
L 2938 2094 
Q 2938 2591 2744 2837 
Q 2550 3084 2163 3084 
Q 1697 3084 1428 2787 
Q 1159 2491 1159 1978 
L 1159 0 
L 581 0 
L 581 4863 
L 1159 4863 
L 1159 2956 
Q 1366 3272 1645 3428 
Q 1925 3584 2291 3584 
Q 2894 3584 3203 3211 
Q 3513 2838 3513 2113 
z
" transform="scale(0.015625)"/>
      </defs>
      <use xlink:href="#DejaVuSans-47"/>
      <use xlink:href="#DejaVuSans-72" transform="translate(77.490234 0)"/>
      <use xlink:href="#DejaVuSans-61" transform="translate(118.603516 0)"/>
      <use xlink:href="#DejaVuSans-70" transform="translate(179.882812 0)"/>
      <use xlink:href="#DejaVuSans-68" transform="translate(243.359375 0)"/>
      <use xlink:href="#DejaVuSans-56" transform="translate(306.738281 0)"/>
      <use xlink:href="#DejaVuSans-65" transform="translate(367.396484 0)"/>
      <use xlink:href="#DejaVuSans-6c" transform="translate(428.919922 0)"/>
      <use xlink:href="#DejaVuSans-6f" transform="translate(456.703125 0)"/>
      <use xlink:href="#DejaVuSans-20" transform="translate(517.884766 0)"/>
      <use xlink:href="#DejaVuSans-28" transform="translate(549.671875 0)"/>
      <use xlink:href="#DejaVuSans-41" transform="translate(588.685547 0)"/>
      <use xlink:href="#DejaVuSans-54" transform="translate(649.34375 0)"/>
      <use xlink:href="#DejaVuSans-41" transform="translate(702.677734 0)"/>
      <use xlink:href="#DejaVuSans-43" transform="translate(769.335938 0)"/>
      <use xlink:href="#DejaVuSans-29" transform="translate(839.160156 0)"/>
      <use xlink:href="#DejaVuSans-20" transform="translate(878.173828 0)"/>
     </g>
    </g>
    <g id="patch_37">
     <path d="M 499.568281 318.153656 
L 517.568281 318.153656 
L 517.568281 311.853656 
L 499.568281 311.853656 
z
" style="fill: #fcc5c0; stroke: #000000; stroke-linejoin: miter"/>
    </g>
    <g id="text_11">
     <!-- GraphVelo (std)  -->
     <g style="fill: #262626" transform="translate(524.768281 318.153656) scale(0.09 -0.09)">
      <use xlink:href="#DejaVuSans-47"/>
      <use xlink:href="#DejaVuSans-72" transform="translate(77.490234 0)"/>
      <use xlink:href="#DejaVuSans-61" transform="translate(118.603516 0)"/>
      <use xlink:href="#DejaVuSans-70" transform="translate(179.882812 0)"/>
      <use xlink:href="#DejaVuSans-68" transform="translate(243.359375 0)"/>
      <use xlink:href="#DejaVuSans-56" transform="translate(306.738281 0)"/>
      <use xlink:href="#DejaVuSans-65" transform="translate(367.396484 0)"/>
      <use xlink:href="#DejaVuSans-6c" transform="translate(428.919922 0)"/>
      <use xlink:href="#DejaVuSans-6f" transform="translate(456.703125 0)"/>
      <use xlink:href="#DejaVuSans-20" transform="translate(517.884766 0)"/>
      <use xlink:href="#DejaVuSans-28" transform="translate(549.671875 0)"/>
      <use xlink:href="#DejaVuSans-73" transform="translate(588.685547 0)"/>
      <use xlink:href="#DejaVuSans-74" transform="translate(640.785156 0)"/>
      <use xlink:href="#DejaVuSans-64" transform="translate(679.994141 0)"/>
      <use xlink:href="#DejaVuSans-29" transform="translate(743.470703 0)"/>
      <use xlink:href="#DejaVuSans-20" transform="translate(782.484375 0)"/>
     </g>
    </g>
   </g>
   <g id="legend_2">
    <g id="patch_38">
     <path d="M 150.746563 336.835688 
L 599.852188 336.835688 
Q 601.652188 336.835688 601.652188 335.035687 
L 601.652188 309.515062 
Q 601.652188 307.715062 599.852188 307.715062 
L 150.746563 307.715062 
Q 148.946563 307.715062 148.946563 309.515062 
L 148.946563 335.035687 
Q 148.946563 336.835688 150.746563 336.835688 
z
" style="fill: #ffffff; opacity: 0.8; stroke: #cccccc; stroke-linejoin: miter"/>
    </g>
    <g id="patch_39">
     <path d="M 152.546563 318.153656 
L 170.546563 318.153656 
L 170.546563 311.853656 
L 152.546563 311.853656 
z
" style="fill: #265526; stroke: #000000; stroke-linejoin: miter"/>
    </g>
    <g id="text_12">
     <!-- MultiVelo -->
     <g style="fill: #262626" transform="translate(177.746563 318.153656) scale(0.09 -0.09)">
      <use xlink:href="#DejaVuSans-4d"/>
      <use xlink:href="#DejaVuSans-75" transform="translate(86.279297 0)"/>
      <use xlink:href="#DejaVuSans-6c" transform="translate(149.658203 0)"/>
      <use xlink:href="#DejaVuSans-74" transform="translate(177.441406 0)"/>
      <use xlink:href="#DejaVuSans-69" transform="translate(216.650391 0)"/>
      <use xlink:href="#DejaVuSans-56" transform="translate(244.433594 0)"/>
      <use xlink:href="#DejaVuSans-65" transform="translate(305.091797 0)"/>
      <use xlink:href="#DejaVuSans-6c" transform="translate(366.615234 0)"/>
      <use xlink:href="#DejaVuSans-6f" transform="translate(394.398438 0)"/>
     </g>
    </g>
    <g id="patch_40">
     <path d="M 152.546563 331.363969 
L 170.546563 331.363969 
L 170.546563 325.063969 
L 152.546563 325.063969 
z
" style="fill: #f65e51; stroke: #000000; stroke-linejoin: miter"/>
    </g>
    <g id="text_13">
     <!-- scVelo (dyn) -->
     <g style="fill: #262626" transform="translate(177.746563 331.363969) scale(0.09 -0.09)">
      <use xlink:href="#DejaVuSans-73"/>
      <use xlink:href="#DejaVuSans-63" transform="translate(52.099609 0)"/>
      <use xlink:href="#DejaVuSans-56" transform="translate(107.080078 0)"/>
      <use xlink:href="#DejaVuSans-65" transform="translate(167.738281 0)"/>
      <use xlink:href="#DejaVuSans-6c" transform="translate(229.261719 0)"/>
      <use xlink:href="#DejaVuSans-6f" transform="translate(257.044922 0)"/>
      <use xlink:href="#DejaVuSans-20" transform="translate(318.226562 0)"/>
      <use xlink:href="#DejaVuSans-28" transform="translate(350.013672 0)"/>
      <use xlink:href="#DejaVuSans-64" transform="translate(389.027344 0)"/>
      <use xlink:href="#DejaVuSans-79" transform="translate(452.503906 0)"/>
      <use xlink:href="#DejaVuSans-6e" transform="translate(511.683594 0)"/>
      <use xlink:href="#DejaVuSans-29" transform="translate(575.0625 0)"/>
     </g>
    </g>
    <g id="patch_41">
     <path d="M 251.015 318.153656 
L 269.015 318.153656 
L 269.015 311.853656 
L 251.015 311.853656 
z
" style="fill: #5b8a5b; stroke: #000000; stroke-linejoin: miter"/>
    </g>
    <g id="text_14">
     <!-- LatentVelo (ATAC) -->
     <g style="fill: #262626" transform="translate(276.215 318.153656) scale(0.09 -0.09)">
      <use xlink:href="#DejaVuSans-4c"/>
      <use xlink:href="#DejaVuSans-61" transform="translate(55.712891 0)"/>
      <use xlink:href="#DejaVuSans-74" transform="translate(116.992188 0)"/>
      <use xlink:href="#DejaVuSans-65" transform="translate(156.201172 0)"/>
      <use xlink:href="#DejaVuSans-6e" transform="translate(217.724609 0)"/>
      <use xlink:href="#DejaVuSans-74" transform="translate(281.103516 0)"/>
      <use xlink:href="#DejaVuSans-56" transform="translate(320.3125 0)"/>
      <use xlink:href="#DejaVuSans-65" transform="translate(380.970703 0)"/>
      <use xlink:href="#DejaVuSans-6c" transform="translate(442.494141 0)"/>
      <use xlink:href="#DejaVuSans-6f" transform="translate(470.277344 0)"/>
      <use xlink:href="#DejaVuSans-20" transform="translate(531.458984 0)"/>
      <use xlink:href="#DejaVuSans-28" transform="translate(563.246094 0)"/>
      <use xlink:href="#DejaVuSans-41" transform="translate(602.259766 0)"/>
      <use xlink:href="#DejaVuSans-54" transform="translate(662.917969 0)"/>
      <use xlink:href="#DejaVuSans-41" transform="translate(716.251953 0)"/>
      <use xlink:href="#DejaVuSans-43" transform="translate(782.910156 0)"/>
      <use xlink:href="#DejaVuSans-29" transform="translate(852.734375 0)"/>
     </g>
    </g>
    <g id="patch_42">
     <path d="M 251.015 331.363969 
L 269.015 331.363969 
L 269.015 325.063969 
L 251.015 325.063969 
z
" style="fill: #f98c84; stroke: #000000; stroke-linejoin: miter"/>
    </g>
    <g id="text_15">
     <!-- LatentVelo (std)  -->
     <g style="fill: #262626" transform="translate(276.215 331.363969) scale(0.09 -0.09)">
      <use xlink:href="#DejaVuSans-4c"/>
      <use xlink:href="#DejaVuSans-61" transform="translate(55.712891 0)"/>
      <use xlink:href="#DejaVuSans-74" transform="translate(116.992188 0)"/>
      <use xlink:href="#DejaVuSans-65" transform="translate(156.201172 0)"/>
      <use xlink:href="#DejaVuSans-6e" transform="translate(217.724609 0)"/>
      <use xlink:href="#DejaVuSans-74" transform="translate(281.103516 0)"/>
      <use xlink:href="#DejaVuSans-56" transform="translate(320.3125 0)"/>
      <use xlink:href="#DejaVuSans-65" transform="translate(380.970703 0)"/>
      <use xlink:href="#DejaVuSans-6c" transform="translate(442.494141 0)"/>
      <use xlink:href="#DejaVuSans-6f" transform="translate(470.277344 0)"/>
      <use xlink:href="#DejaVuSans-20" transform="translate(531.458984 0)"/>
      <use xlink:href="#DejaVuSans-28" transform="translate(563.246094 0)"/>
      <use xlink:href="#DejaVuSans-73" transform="translate(602.259766 0)"/>
      <use xlink:href="#DejaVuSans-74" transform="translate(654.359375 0)"/>
      <use xlink:href="#DejaVuSans-64" transform="translate(693.568359 0)"/>
      <use xlink:href="#DejaVuSans-29" transform="translate(757.044922 0)"/>
      <use xlink:href="#DejaVuSans-20" transform="translate(796.058594 0)"/>
     </g>
    </g>
    <g id="patch_43">
     <path d="M 374.4725 318.153656 
L 392.4725 318.153656 
L 392.4725 311.853656 
L 374.4725 311.853656 
z
" style="fill: #a1bd82; stroke: #000000; stroke-linejoin: miter"/>
    </g>
    <g id="text_16">
     <!-- GraphVelo (ATAC)  -->
     <g style="fill: #262626" transform="translate(399.6725 318.153656) scale(0.09 -0.09)">
      <use xlink:href="#DejaVuSans-47"/>
      <use xlink:href="#DejaVuSans-72" transform="translate(77.490234 0)"/>
      <use xlink:href="#DejaVuSans-61" transform="translate(118.603516 0)"/>
      <use xlink:href="#DejaVuSans-70" transform="translate(179.882812 0)"/>
      <use xlink:href="#DejaVuSans-68" transform="translate(243.359375 0)"/>
      <use xlink:href="#DejaVuSans-56" transform="translate(306.738281 0)"/>
      <use xlink:href="#DejaVuSans-65" transform="translate(367.396484 0)"/>
      <use xlink:href="#DejaVuSans-6c" transform="translate(428.919922 0)"/>
      <use xlink:href="#DejaVuSans-6f" transform="translate(456.703125 0)"/>
      <use xlink:href="#DejaVuSans-20" transform="translate(517.884766 0)"/>
      <use xlink:href="#DejaVuSans-28" transform="translate(549.671875 0)"/>
      <use xlink:href="#DejaVuSans-41" transform="translate(588.685547 0)"/>
      <use xlink:href="#DejaVuSans-54" transform="translate(649.34375 0)"/>
      <use xlink:href="#DejaVuSans-41" transform="translate(702.677734 0)"/>
      <use xlink:href="#DejaVuSans-43" transform="translate(769.335938 0)"/>
      <use xlink:href="#DejaVuSans-29" transform="translate(839.160156 0)"/>
      <use xlink:href="#DejaVuSans-20" transform="translate(878.173828 0)"/>
     </g>
    </g>
    <g id="patch_44">
     <path d="M 499.568281 318.153656 
L 517.568281 318.153656 
L 517.568281 311.853656 
L 499.568281 311.853656 
z
" style="fill: #fcc5c0; stroke: #000000; stroke-linejoin: miter"/>
    </g>
    <g id="text_17">
     <!-- GraphVelo (std)  -->
     <g style="fill: #262626" transform="translate(524.768281 318.153656) scale(0.09 -0.09)">
      <use xlink:href="#DejaVuSans-47"/>
      <use xlink:href="#DejaVuSans-72" transform="translate(77.490234 0)"/>
      <use xlink:href="#DejaVuSans-61" transform="translate(118.603516 0)"/>
      <use xlink:href="#DejaVuSans-70" transform="translate(179.882812 0)"/>
      <use xlink:href="#DejaVuSans-68" transform="translate(243.359375 0)"/>
      <use xlink:href="#DejaVuSans-56" transform="translate(306.738281 0)"/>
      <use xlink:href="#DejaVuSans-65" transform="translate(367.396484 0)"/>
      <use xlink:href="#DejaVuSans-6c" transform="translate(428.919922 0)"/>
      <use xlink:href="#DejaVuSans-6f" transform="translate(456.703125 0)"/>
      <use xlink:href="#DejaVuSans-20" transform="translate(517.884766 0)"/>
      <use xlink:href="#DejaVuSans-28" transform="translate(549.671875 0)"/>
      <use xlink:href="#DejaVuSans-73" transform="translate(588.685547 0)"/>
      <use xlink:href="#DejaVuSans-74" transform="translate(640.785156 0)"/>
      <use xlink:href="#DejaVuSans-64" transform="translate(679.994141 0)"/>
      <use xlink:href="#DejaVuSans-29" transform="translate(743.470703 0)"/>
      <use xlink:href="#DejaVuSans-20" transform="translate(782.484375 0)"/>
     </g>
    </g>
   </g>
  </g>
 </g>
 <defs>
  <clipPath id="p4c55b6730f">
   <rect x="44.839375" y="11.759062" width="660.92" height="253.44"/>
  </clipPath>
 </defs>
</svg>
