<?xml version="1.0" encoding="utf-8" standalone="no"?>
<!DOCTYPE svg PUBLIC "-//W3C//DTD SVG 1.1//EN"
  "http://www.w3.org/Graphics/SVG/1.1/DTD/svg11.dtd">
<svg xmlns:xlink="http://www.w3.org/1999/xlink" width="712.96875pt" height="279.45375pt" viewBox="0 0 712.96875 279.45375" xmlns="http://www.w3.org/2000/svg" version="1.1">
 <metadata>
  <rdf:RDF xmlns:dc="http://purl.org/dc/elements/1.1/" xmlns:cc="http://creativecommons.org/ns#" xmlns:rdf="http://www.w3.org/1999/02/22-rdf-syntax-ns#">
   <cc:Work>
    <dc:type rdf:resource="http://purl.org/dc/dcmitype/StillImage"/>
    <dc:date>2026-05-13T15:37:46.119928</dc:date>
    <dc:format>image/svg+xml</dc:format>
    <dc:creator>
     <cc:Agent>
      <dc:title>Matplotlib v3.10.5, https://matplotlib.org/</dc:title>
     </cc:Agent>
    </dc:creator>
   </cc:Work>
  </rdf:RDF>
 </metadata>
 <defs>
  <style type="text/css">*{stroke-linejoin: round; stroke-linecap: butt}</style>
 </defs>
 <g id="figure_1">
  <g id="patch_1">
   <path d="M -0 279.45375 
L 712.96875 279.45375 
L 712.96875 0 
L -0 0 
z
" style="fill: #ffffff"/>
  </g>
  <g id="axes_1">
   <g id="patch_2">
    <path d="M 42.41875 265.199063 
L 705.76875 265.199063 
L 705.76875 11.759062 
L 42.41875 11.759062 
z
" style="fill: #ffffff"/>
   </g>
   <g id="line2d_1">
    <path d="M 263.535417 265.199063 
L 263.535417 11.759062 
" clip-path="url(#pbfd80c4dd9)" style="fill: none; stroke-dasharray: 3.7,1.6; stroke-dashoffset: 0; stroke: #808080; stroke-opacity: 0.6"/>
   </g>
   <g id="line2d_2">
    <path d="M 484.652083 265.199063 
L 484.652083 11.759062 
" clip-path="url(#pbfd80c4dd9)" style="fill: none; stroke-dasharray: 3.7,1.6; stroke-dashoffset: 0; stroke: #808080; stroke-opacity: 0.6"/>
   </g>
   <g id="matplotlib.axis_1">
    <g id="xtick_1">
     <g id="line2d_3">
      <defs>
       <path id="m5c1e7864fb" d="M 0 0 
L 0 5 
" style="stroke: #262626; stroke-width: 0.8"/>
      </defs>
      <g>
       <use xlink:href="#m5c1e7864fb" x="152.977083" y="265.199063" style="fill: #262626; stroke: #262626; stroke-width: 0.8"/>
      </g>
     </g>
    </g>
    <g id="xtick_2">
     <g id="line2d_4">
      <g>
       <use xlink:href="#m5c1e7864fb" x="374.09375" y="265.199063" style="fill: #262626; stroke: #262626; stroke-width: 0.8"/>
      </g>
     </g>
    </g>
    <g id="xtick_3">
     <g id="line2d_5">
      <g>
       <use xlink:href="#m5c1e7864fb" x="595.210417" y="265.199063" style="fill: #262626; stroke: #262626; stroke-width: 0.8"/>
      </g>
     </g>
    </g>
   </g>
   <g id="matplotlib.axis_2">
    <g id="ytick_1">
     <g id="line2d_6">
      <defs>
       <path id="m98bdaa02a3" d="M 0 0 
L -5 0 
" style="stroke: #262626; stroke-width: 0.8"/>
      </defs>
      <g>
       <use xlink:href="#m98bdaa02a3" x="42.41875" y="265.199063" style="fill: #262626; stroke: #262626; stroke-width: 0.8"/>
      </g>
     </g>
     <g id="text_1">
      <!-- 0.00 -->
      <g style="fill: #262626" transform="translate(7.2 269.758125) scale(0.12 -0.12)">
       <defs>
        <path id="DejaVuSans-30" d="M 2034 4250 
Q 1547 4250 1301 3770 
Q 1056 3291 1056 2328 
Q 1056 1369 1301 889 
Q 1547 409 2034 409 
Q 2525 409 2770 889 
Q 3016 1369 3016 2328 
Q 3016 3291 2770 3770 
Q 2525 4250 2034 4250 
z
M 2034 4750 
Q 2819 4750 3233 4129 
Q 3647 3509 3647 2328 
Q 3647 1150 3233 529 
Q 2819 -91 2034 -91 
Q 1250 -91 836 529 
Q 422 1150 422 2328 
Q 422 3509 836 4129 
Q 1250 4750 2034 4750 
z
" transform="scale(0.015625)"/>
        <path id="DejaVuSans-2e" d="M 684 794 
L 1344 794 
L 1344 0 
L 684 0 
L 684 794 
z
" transform="scale(0.015625)"/>
       </defs>
       <use xlink:href="#DejaVuSans-30"/>
       <use xlink:href="#DejaVuSans-2e" transform="translate(63.623047 0)"/>
       <use xlink:href="#DejaVuSans-30" transform="translate(95.410156 0)"/>
       <use xlink:href="#DejaVuSans-30" transform="translate(159.033203 0)"/>
      </g>
     </g>
    </g>
    <g id="ytick_2">
     <g id="line2d_7">
      <g>
       <use xlink:href="#m98bdaa02a3" x="42.41875" y="201.839063" style="fill: #262626; stroke: #262626; stroke-width: 0.8"/>
      </g>
     </g>
     <g id="text_2">
      <!-- 0.25 -->
      <g style="fill: #262626" transform="translate(7.2 206.398125) scale(0.12 -0.12)">
       <defs>
        <path id="DejaVuSans-32" d="M 1228 531 
L 3431 531 
L 3431 0 
L 469 0 
L 469 531 
Q 828 903 1448 1529 
Q 2069 2156 2228 2338 
Q 2531 2678 2651 2914 
Q 2772 3150 2772 3378 
Q 2772 3750 2511 3984 
Q 2250 4219 1831 4219 
Q 1534 4219 1204 4116 
Q 875 4013 500 3803 
L 500 4441 
Q 881 4594 1212 4672 
Q 1544 4750 1819 4750 
Q 2544 4750 2975 4387 
Q 3406 4025 3406 3419 
Q 3406 3131 3298 2873 
Q 3191 2616 2906 2266 
Q 2828 2175 2409 1742 
Q 1991 1309 1228 531 
z
" transform="scale(0.015625)"/>
        <path id="DejaVuSans-35" d="M 691 4666 
L 3169 4666 
L 3169 4134 
L 1269 4134 
L 1269 2991 
Q 1406 3038 1543 3061 
Q 1681 3084 1819 3084 
Q 2600 3084 3056 2656 
Q 3513 2228 3513 1497 
Q 3513 744 3044 326 
Q 2575 -91 1722 -91 
Q 1428 -91 1123 -41 
Q 819 9 494 109 
L 494 744 
Q 775 591 1075 516 
Q 1375 441 1709 441 
Q 2250 441 2565 725 
Q 2881 1009 2881 1497 
Q 2881 1984 2565 2268 
Q 2250 2553 1709 2553 
Q 1456 2553 1204 2497 
Q 953 2441 691 2322 
L 691 4666 
z
" transform="scale(0.015625)"/>
       </defs>
       <use xlink:href="#DejaVuSans-30"/>
       <use xlink:href="#DejaVuSans-2e" transform="translate(63.623047 0)"/>
       <use xlink:href="#DejaVuSans-32" transform="translate(95.410156 0)"/>
       <use xlink:href="#DejaVuSans-35" transform="translate(159.033203 0)"/>
      </g>
     </g>
    </g>
    <g id="ytick_3">
     <g id="line2d_8">
      <g>
       <use xlink:href="#m98bdaa02a3" x="42.41875" y="138.479062" style="fill: #262626; stroke: #262626; stroke-width: 0.8"/>
      </g>
     </g>
     <g id="text_3">
      <!-- 0.50 -->
      <g style="fill: #262626" transform="translate(7.2 143.038125) scale(0.12 -0.12)">
       <use xlink:href="#DejaVuSans-30"/>
       <use xlink:href="#DejaVuSans-2e" transform="translate(63.623047 0)"/>
       <use xlink:href="#DejaVuSans-35" transform="translate(95.410156 0)"/>
       <use xlink:href="#DejaVuSans-30" transform="translate(159.033203 0)"/>
      </g>
     </g>
    </g>
    <g id="ytick_4">
     <g id="line2d_9">
      <g>
       <use xlink:href="#m98bdaa02a3" x="42.41875" y="75.119062" style="fill: #262626; stroke: #262626; stroke-width: 0.8"/>
      </g>
     </g>
     <g id="text_4">
      <!-- 0.75 -->
      <g style="fill: #262626" transform="translate(7.2 79.678125) scale(0.12 -0.12)">
       <defs>
        <path id="DejaVuSans-37" d="M 525 4666 
L 3525 4666 
L 3525 4397 
L 1831 0 
L 1172 0 
L 2766 4134 
L 525 4134 
L 525 4666 
z
" transform="scale(0.015625)"/>
       </defs>
       <use xlink:href="#DejaVuSans-30"/>
       <use xlink:href="#DejaVuSans-2e" transform="translate(63.623047 0)"/>
       <use xlink:href="#DejaVuSans-37" transform="translate(95.410156 0)"/>
       <use xlink:href="#DejaVuSans-35" transform="translate(159.033203 0)"/>
      </g>
     </g>
    </g>
    <g id="ytick_5">
     <g id="line2d_10">
      <g>
       <use xlink:href="#m98bdaa02a3" x="42.41875" y="11.759062" style="fill: #262626; stroke: #262626; stroke-width: 0.8"/>
      </g>
     </g>
     <g id="text_5">
      <!-- 1.00 -->
      <g style="fill: #262626" transform="translate(7.2 16.318125) scale(0.12 -0.12)">
       <defs>
        <path id="DejaVuSans-31" d="M 794 531 
L 1825 531 
L 1825 4091 
L 703 3866 
L 703 4441 
L 1819 4666 
L 2450 4666 
L 2450 531 
L 3481 531 
L 3481 0 
L 794 0 
L 794 531 
z
" transform="scale(0.015625)"/>
       </defs>
       <use xlink:href="#DejaVuSans-31"/>
       <use xlink:href="#DejaVuSans-2e" transform="translate(63.623047 0)"/>
       <use xlink:href="#DejaVuSans-30" transform="translate(95.410156 0)"/>
       <use xlink:href="#DejaVuSans-30" transform="translate(159.033203 0)"/>
      </g>
     </g>
    </g>
   </g>
   <g id="patch_3">
    <path d="M 64.530417 265.199063 
L 94.012639 265.199063 
L 94.012639 58.020577 
L 64.530417 58.020577 
z
" clip-path="url(#pbfd80c4dd9)" style="fill: #2c4f2c; stroke: #000000; stroke-width: 1.2; stroke-linejoin: miter"/>
   </g>
   <g id="patch_4">
    <path d="M 285.647083 265.199063 
L 315.129306 265.199063 
L 315.129306 89.475484 
L 285.647083 89.475484 
z
" clip-path="url(#pbfd80c4dd9)" style="fill: #2c4f2c; stroke: #000000; stroke-width: 1.2; stroke-linejoin: miter"/>
   </g>
   <g id="patch_5">
    <path d="M 506.76375 265.199063 
L 536.245972 265.199063 
L 536.245972 85.896208 
L 506.76375 85.896208 
z
" clip-path="url(#pbfd80c4dd9)" style="fill: #2c4f2c; stroke: #000000; stroke-width: 1.2; stroke-linejoin: miter"/>
   </g>
   <g id="patch_6">
    <path d="M 94.012639 265.199063 
L 123.494861 265.199063 
L 123.494861 70.364649 
L 94.012639 70.364649 
z
" clip-path="url(#pbfd80c4dd9)" style="fill: #e16f66; stroke: #000000; stroke-width: 1.2; stroke-linejoin: miter"/>
   </g>
   <g id="patch_7">
    <path d="M 315.129306 265.199063 
L 344.611528 265.199063 
L 344.611528 93.204435 
L 315.129306 93.204435 
z
" clip-path="url(#pbfd80c4dd9)" style="fill: #e16f66; stroke: #000000; stroke-width: 1.2; stroke-linejoin: miter"/>
   </g>
   <g id="patch_8">
    <path d="M 536.245972 265.199063 
L 565.728194 265.199063 
L 565.728194 79.992236 
L 536.245972 79.992236 
z
" clip-path="url(#pbfd80c4dd9)" style="fill: #e16f66; stroke: #000000; stroke-width: 1.2; stroke-linejoin: miter"/>
   </g>
   <g id="patch_9">
    <path d="M 123.494861 265.199063 
L 152.977083 265.199063 
L 152.977083 39.741304 
L 123.494861 39.741304 
z
" clip-path="url(#pbfd80c4dd9)" style="fill: #618461; stroke: #000000; stroke-width: 1.2; stroke-linejoin: miter"/>
   </g>
   <g id="patch_10">
    <path d="M 344.611528 265.199063 
L 374.09375 265.199063 
L 374.09375 153.02353 
L 344.611528 153.02353 
z
" clip-path="url(#pbfd80c4dd9)" style="fill: #618461; stroke: #000000; stroke-width: 1.2; stroke-linejoin: miter"/>
   </g>
   <g id="patch_11">
    <path d="M 565.728194 265.199063 
L 595.210417 265.199063 
L 595.210417 36.419259 
L 565.728194 36.419259 
z
" clip-path="url(#pbfd80c4dd9)" style="fill: #618461; stroke: #000000; stroke-width: 1.2; stroke-linejoin: miter"/>
   </g>
   <g id="patch_12">
    <path d="M 152.977083 265.199063 
L 182.459306 265.199063 
L 182.459306 46.490338 
L 152.977083 46.490338 
z
" clip-path="url(#pbfd80c4dd9)" style="fill: #ea9993; stroke: #000000; stroke-width: 1.2; stroke-linejoin: miter"/>
   </g>
   <g id="patch_13">
    <path d="M 374.09375 265.199063 
L 403.575972 265.199063 
L 403.575972 45.029476 
L 374.09375 45.029476 
z
" clip-path="url(#pbfd80c4dd9)" style="fill: #ea9993; stroke: #000000; stroke-width: 1.2; stroke-linejoin: miter"/>
   </g>
   <g id="patch_14">
    <path d="M 595.210417 265.199063 
L 624.692639 265.199063 
L 624.692639 32.305292 
L 595.210417 32.305292 
z
" clip-path="url(#pbfd80c4dd9)" style="fill: #ea9993; stroke: #000000; stroke-width: 1.2; stroke-linejoin: miter"/>
   </g>
   <g id="patch_15">
    <path d="M 182.459306 265.199063 
L 211.941528 265.199063 
L 211.941528 90.445268 
L 182.459306 90.445268 
z
" clip-path="url(#pbfd80c4dd9)" style="fill: #a1b689; stroke: #000000; stroke-width: 1.2; stroke-linejoin: miter"/>
   </g>
   <g id="patch_16">
    <path d="M 403.575972 265.199063 
L 433.058194 265.199063 
L 433.058194 97.800534 
L 403.575972 97.800534 
z
" clip-path="url(#pbfd80c4dd9)" style="fill: #a1b689; stroke: #000000; stroke-width: 1.2; stroke-linejoin: miter"/>
   </g>
   <g id="patch_17">
    <path d="M 624.692639 265.199063 
L 654.174861 265.199063 
L 654.174861 83.56951 
L 624.692639 83.56951 
z
" clip-path="url(#pbfd80c4dd9)" style="fill: #a1b689; stroke: #000000; stroke-width: 1.2; stroke-linejoin: miter"/>
   </g>
   <g id="patch_18">
    <path d="M 211.941528 265.199063 
L 241.42375 265.199063 
L 241.42375 91.735195 
L 211.941528 91.735195 
z
" clip-path="url(#pbfd80c4dd9)" style="fill: #f4cbc8; stroke: #000000; stroke-width: 1.2; stroke-linejoin: miter"/>
   </g>
   <g id="patch_19">
    <path d="M 433.058194 265.199063 
L 462.540417 265.199063 
L 462.540417 128.170718 
L 433.058194 128.170718 
z
" clip-path="url(#pbfd80c4dd9)" style="fill: #f4cbc8; stroke: #000000; stroke-width: 1.2; stroke-linejoin: miter"/>
   </g>
   <g id="patch_20">
    <path d="M 654.174861 265.199063 
L 683.657083 265.199063 
L 683.657083 95.969756 
L 654.174861 95.969756 
z
" clip-path="url(#pbfd80c4dd9)" style="fill: #f4cbc8; stroke: #000000; stroke-width: 1.2; stroke-linejoin: miter"/>
   </g>
   <g id="patch_21">
    <path d="M 152.977083 265.199063 
L 152.977083 265.199063 
L 152.977083 265.199063 
L 152.977083 265.199063 
z
" clip-path="url(#pbfd80c4dd9)" style="fill: #2c4f2c; stroke: #000000; stroke-width: 1.2; stroke-linejoin: miter"/>
   </g>
   <g id="patch_22">
    <path d="M 152.977083 265.199063 
L 152.977083 265.199063 
L 152.977083 265.199063 
L 152.977083 265.199063 
z
" clip-path="url(#pbfd80c4dd9)" style="fill: #e16f66; stroke: #000000; stroke-width: 1.2; stroke-linejoin: miter"/>
   </g>
   <g id="patch_23">
    <path d="M 152.977083 265.199063 
L 152.977083 265.199063 
L 152.977083 265.199063 
L 152.977083 265.199063 
z
" clip-path="url(#pbfd80c4dd9)" style="fill: #618461; stroke: #000000; stroke-width: 1.2; stroke-linejoin: miter"/>
   </g>
   <g id="patch_24">
    <path d="M 152.977083 265.199063 
L 152.977083 265.199063 
L 152.977083 265.199063 
L 152.977083 265.199063 
z
" clip-path="url(#pbfd80c4dd9)" style="fill: #ea9993; stroke: #000000; stroke-width: 1.2; stroke-linejoin: miter"/>
   </g>
   <g id="patch_25">
    <path d="M 152.977083 265.199063 
L 152.977083 265.199063 
L 152.977083 265.199063 
L 152.977083 265.199063 
z
" clip-path="url(#pbfd80c4dd9)" style="fill: #a1b689; stroke: #000000; stroke-width: 1.2; stroke-linejoin: miter"/>
   </g>
   <g id="patch_26">
    <path d="M 152.977083 265.199063 
L 152.977083 265.199063 
L 152.977083 265.199063 
L 152.977083 265.199063 
z
" clip-path="url(#pbfd80c4dd9)" style="fill: #f4cbc8; stroke: #000000; stroke-width: 1.2; stroke-linejoin: miter"/>
   </g>
   <g id="patch_27">
    <path d="M 42.41875 265.199063 
L 42.41875 11.759062 
" style="fill: none; stroke: #000000; stroke-linejoin: miter; stroke-linecap: square"/>
   </g>
   <g id="patch_28">
    <path d="M 705.76875 265.199063 
L 705.76875 11.759062 
" style="fill: none; stroke: #000000; stroke-linejoin: miter; stroke-linecap: square"/>
   </g>
   <g id="patch_29">
    <path d="M 42.41875 265.199063 
L 705.76875 265.199063 
" style="fill: none; stroke: #000000; stroke-linejoin: miter; stroke-linecap: square"/>
   </g>
   <g id="patch_30">
    <path d="M 42.41875 11.759062 
L 705.76875 11.759062 
" style="fill: none; stroke: #000000; stroke-linejoin: miter; stroke-linecap: square"/>
   </g>
   <g id="PathCollection_1">
    <defs>
     <path id="C0_0_0ed1315e40" d="M 0 2.5 
C 0.663008 2.5 1.29895 2.236584 1.767767 1.767767 
C 2.236584 1.29895 2.5 0.663008 2.5 -0 
C 2.5 -0.663008 2.236584 -1.29895 1.767767 -1.767767 
C 1.29895 -2.236584 0.663008 -2.5 0 -2.5 
C -0.663008 -2.5 -1.29895 -2.236584 -1.767767 -1.767767 
C -2.236584 -1.29895 -2.5 -0.663008 -2.5 0 
C -2.5 0.663008 -2.236584 1.29895 -1.767767 1.767767 
C -1.29895 2.236584 -0.663008 2.5 0 2.5 
z
"/>
    </defs>
    <g clip-path="url(#pbfd80c4dd9)">
     <use xlink:href="#C0_0_0ed1315e40" x="78.96601" y="81.434155" style="fill: #265526; stroke: #000000; stroke-width: 0.5"/>
    </g>
    <g clip-path="url(#pbfd80c4dd9)">
     <use xlink:href="#C0_0_0ed1315e40" x="80.366454" y="50.09246" style="fill: #265526; stroke: #000000; stroke-width: 0.5"/>
    </g>
    <g clip-path="url(#pbfd80c4dd9)">
     <use xlink:href="#C0_0_0ed1315e40" x="79.091469" y="42.535117" style="fill: #265526; stroke: #000000; stroke-width: 0.5"/>
    </g>
   </g>
   <g id="PathCollection_2">
    <defs>
     <path id="C1_0_bd37fc6574" d="M 0 2.5 
C 0.663008 2.5 1.29895 2.236584 1.767767 1.767767 
C 2.236584 1.29895 2.5 0.663008 2.5 -0 
C 2.5 -0.663008 2.236584 -1.29895 1.767767 -1.767767 
C 1.29895 -2.236584 0.663008 -2.5 0 -2.5 
C -0.663008 -2.5 -1.29895 -2.236584 -1.767767 -1.767767 
C -2.236584 -1.29895 -2.5 -0.663008 -2.5 0 
C -2.5 0.663008 -2.236584 1.29895 -1.767767 1.767767 
C -1.29895 2.236584 -0.663008 2.5 0 2.5 
z
"/>
    </defs>
    <g clip-path="url(#pbfd80c4dd9)">
     <use xlink:href="#C1_0_bd37fc6574" x="111.238411" y="84.101868" style="fill: #f65e51; stroke: #000000; stroke-width: 0.5"/>
    </g>
    <g clip-path="url(#pbfd80c4dd9)">
     <use xlink:href="#C1_0_bd37fc6574" x="110.561378" y="74.609346" style="fill: #f65e51; stroke: #000000; stroke-width: 0.5"/>
    </g>
    <g clip-path="url(#pbfd80c4dd9)">
     <use xlink:href="#C1_0_bd37fc6574" x="105.578203" y="52.382732" style="fill: #f65e51; stroke: #000000; stroke-width: 0.5"/>
    </g>
   </g>
   <g id="PathCollection_3">
    <defs>
     <path id="C2_0_0eae8caeb5" d="M 0 2.5 
C 0.663008 2.5 1.29895 2.236584 1.767767 1.767767 
C 2.236584 1.29895 2.5 0.663008 2.5 -0 
C 2.5 -0.663008 2.236584 -1.29895 1.767767 -1.767767 
C 1.29895 -2.236584 0.663008 -2.5 0 -2.5 
C -0.663008 -2.5 -1.29895 -2.236584 -1.767767 -1.767767 
C -2.236584 -1.29895 -2.5 -0.663008 -2.5 0 
C -2.5 0.663008 -2.236584 1.29895 -1.767767 1.767767 
C -1.29895 2.236584 -0.663008 2.5 0 2.5 
z
"/>
    </defs>
    <g clip-path="url(#pbfd80c4dd9)">
     <use xlink:href="#C2_0_0eae8caeb5" x="136.00639" y="40.095552" style="fill: #5b8a5b; stroke: #000000; stroke-width: 0.5"/>
    </g>
    <g clip-path="url(#pbfd80c4dd9)">
     <use xlink:href="#C2_0_0eae8caeb5" x="137.653348" y="37.581292" style="fill: #5b8a5b; stroke: #000000; stroke-width: 0.5"/>
    </g>
    <g clip-path="url(#pbfd80c4dd9)">
     <use xlink:href="#C2_0_0eae8caeb5" x="137.106281" y="41.547069" style="fill: #5b8a5b; stroke: #000000; stroke-width: 0.5"/>
    </g>
   </g>
   <g id="PathCollection_4">
    <defs>
     <path id="C3_0_5140462e45" d="M 0 2.5 
C 0.663008 2.5 1.29895 2.236584 1.767767 1.767767 
C 2.236584 1.29895 2.5 0.663008 2.5 -0 
C 2.5 -0.663008 2.236584 -1.29895 1.767767 -1.767767 
C 1.29895 -2.236584 0.663008 -2.5 0 -2.5 
C -0.663008 -2.5 -1.29895 -2.236584 -1.767767 -1.767767 
C -2.236584 -1.29895 -2.5 -0.663008 -2.5 0 
C -2.5 0.663008 -2.236584 1.29895 -1.767767 1.767767 
C -1.29895 2.236584 -0.663008 2.5 0 2.5 
z
"/>
    </defs>
    <g clip-path="url(#pbfd80c4dd9)">
     <use xlink:href="#C3_0_5140462e45" x="169.165532" y="31.333157" style="fill: #f98c84; stroke: #000000; stroke-width: 0.5"/>
    </g>
    <g clip-path="url(#pbfd80c4dd9)">
     <use xlink:href="#C3_0_5140462e45" x="166.129465" y="66.842589" style="fill: #f98c84; stroke: #000000; stroke-width: 0.5"/>
    </g>
    <g clip-path="url(#pbfd80c4dd9)">
     <use xlink:href="#C3_0_5140462e45" x="166.932321" y="41.295267" style="fill: #f98c84; stroke: #000000; stroke-width: 0.5"/>
    </g>
   </g>
   <g id="PathCollection_5">
    <defs>
     <path id="C4_0_2dc95e0000" d="M 0 2.5 
C 0.663008 2.5 1.29895 2.236584 1.767767 1.767767 
C 2.236584 1.29895 2.5 0.663008 2.5 -0 
C 2.5 -0.663008 2.236584 -1.29895 1.767767 -1.767767 
C 1.29895 -2.236584 0.663008 -2.5 0 -2.5 
C -0.663008 -2.5 -1.29895 -2.236584 -1.767767 -1.767767 
C -2.236584 -1.29895 -2.5 -0.663008 -2.5 0 
C -2.5 0.663008 -2.236584 1.29895 -1.767767 1.767767 
C -1.29895 2.236584 -0.663008 2.5 0 2.5 
z
"/>
    </defs>
    <g clip-path="url(#pbfd80c4dd9)">
     <use xlink:href="#C4_0_2dc95e0000" x="196.185409" y="120.482767" style="fill: #a1bd82; stroke: #000000; stroke-width: 0.5"/>
    </g>
    <g clip-path="url(#pbfd80c4dd9)">
     <use xlink:href="#C4_0_2dc95e0000" x="197.7986" y="69.567796" style="fill: #a1bd82; stroke: #000000; stroke-width: 0.5"/>
    </g>
    <g clip-path="url(#pbfd80c4dd9)">
     <use xlink:href="#C4_0_2dc95e0000" x="196.239854" y="81.285243" style="fill: #a1bd82; stroke: #000000; stroke-width: 0.5"/>
    </g>
   </g>
   <g id="PathCollection_6">
    <defs>
     <path id="C5_0_b318061ac2" d="M 0 2.5 
C 0.663008 2.5 1.29895 2.236584 1.767767 1.767767 
C 2.236584 1.29895 2.5 0.663008 2.5 -0 
C 2.5 -0.663008 2.236584 -1.29895 1.767767 -1.767767 
C 1.29895 -2.236584 0.663008 -2.5 0 -2.5 
C -0.663008 -2.5 -1.29895 -2.236584 -1.767767 -1.767767 
C -2.236584 -1.29895 -2.5 -0.663008 -2.5 0 
C -2.5 0.663008 -2.236584 1.29895 -1.767767 1.767767 
C -1.29895 2.236584 -0.663008 2.5 0 2.5 
z
"/>
    </defs>
    <g clip-path="url(#pbfd80c4dd9)">
     <use xlink:href="#C5_0_b318061ac2" x="227.060655" y="108.266135" style="fill: #fcc5c0; stroke: #000000; stroke-width: 0.5"/>
    </g>
    <g clip-path="url(#pbfd80c4dd9)">
     <use xlink:href="#C5_0_b318061ac2" x="224.663194" y="77.106458" style="fill: #fcc5c0; stroke: #000000; stroke-width: 0.5"/>
    </g>
    <g clip-path="url(#pbfd80c4dd9)">
     <use xlink:href="#C5_0_b318061ac2" x="224.566847" y="89.832991" style="fill: #fcc5c0; stroke: #000000; stroke-width: 0.5"/>
    </g>
   </g>
   <g id="PathCollection_7">
    <defs>
     <path id="C6_0_a98d088e3f" d="M 0 2.5 
C 0.663008 2.5 1.29895 2.236584 1.767767 1.767767 
C 2.236584 1.29895 2.5 0.663008 2.5 -0 
C 2.5 -0.663008 2.236584 -1.29895 1.767767 -1.767767 
C 1.29895 -2.236584 0.663008 -2.5 0 -2.5 
C -0.663008 -2.5 -1.29895 -2.236584 -1.767767 -1.767767 
C -2.236584 -1.29895 -2.5 -0.663008 -2.5 0 
C -2.5 0.663008 -2.236584 1.29895 -1.767767 1.767767 
C -1.29895 2.236584 -0.663008 2.5 0 2.5 
z
"/>
    </defs>
    <g clip-path="url(#pbfd80c4dd9)">
     <use xlink:href="#C6_0_a98d088e3f" x="300.732977" y="65.414894" style="fill: #265526; stroke: #000000; stroke-width: 0.5"/>
    </g>
    <g clip-path="url(#pbfd80c4dd9)">
     <use xlink:href="#C6_0_a98d088e3f" x="297.640301" y="110.044932" style="fill: #265526; stroke: #000000; stroke-width: 0.5"/>
    </g>
    <g clip-path="url(#pbfd80c4dd9)">
     <use xlink:href="#C6_0_a98d088e3f" x="302.15135" y="92.966624" style="fill: #265526; stroke: #000000; stroke-width: 0.5"/>
    </g>
   </g>
   <g id="PathCollection_8">
    <defs>
     <path id="C7_0_213941704d" d="M 0 2.5 
C 0.663008 2.5 1.29895 2.236584 1.767767 1.767767 
C 2.236584 1.29895 2.5 0.663008 2.5 -0 
C 2.5 -0.663008 2.236584 -1.29895 1.767767 -1.767767 
C 1.29895 -2.236584 0.663008 -2.5 0 -2.5 
C -0.663008 -2.5 -1.29895 -2.236584 -1.767767 -1.767767 
C -2.236584 -1.29895 -2.5 -0.663008 -2.5 0 
C -2.5 0.663008 -2.236584 1.29895 -1.767767 1.767767 
C -1.29895 2.236584 -0.663008 2.5 0 2.5 
z
"/>
    </defs>
    <g clip-path="url(#pbfd80c4dd9)">
     <use xlink:href="#C7_0_213941704d" x="329.906784" y="87.531852" style="fill: #f65e51; stroke: #000000; stroke-width: 0.5"/>
    </g>
    <g clip-path="url(#pbfd80c4dd9)">
     <use xlink:href="#C7_0_213941704d" x="326.394955" y="99.306525" style="fill: #f65e51; stroke: #000000; stroke-width: 0.5"/>
    </g>
    <g clip-path="url(#pbfd80c4dd9)">
     <use xlink:href="#C7_0_213941704d" x="333.107614" y="92.774928" style="fill: #f65e51; stroke: #000000; stroke-width: 0.5"/>
    </g>
   </g>
   <g id="PathCollection_9">
    <defs>
     <path id="C8_0_ac805d2f84" d="M 0 2.5 
C 0.663008 2.5 1.29895 2.236584 1.767767 1.767767 
C 2.236584 1.29895 2.5 0.663008 2.5 -0 
C 2.5 -0.663008 2.236584 -1.29895 1.767767 -1.767767 
C 1.29895 -2.236584 0.663008 -2.5 0 -2.5 
C -0.663008 -2.5 -1.29895 -2.236584 -1.767767 -1.767767 
C -2.236584 -1.29895 -2.5 -0.663008 -2.5 0 
C -2.5 0.663008 -2.236584 1.29895 -1.767767 1.767767 
C -1.29895 2.236584 -0.663008 2.5 0 2.5 
z
"/>
    </defs>
    <g clip-path="url(#pbfd80c4dd9)">
     <use xlink:href="#C8_0_ac805d2f84" x="360.964065" y="122.680281" style="fill: #5b8a5b; stroke: #000000; stroke-width: 0.5"/>
    </g>
    <g clip-path="url(#pbfd80c4dd9)">
     <use xlink:href="#C8_0_ac805d2f84" x="359.500469" y="177.718512" style="fill: #5b8a5b; stroke: #000000; stroke-width: 0.5"/>
    </g>
    <g clip-path="url(#pbfd80c4dd9)">
     <use xlink:href="#C8_0_ac805d2f84" x="362.76255" y="158.671799" style="fill: #5b8a5b; stroke: #000000; stroke-width: 0.5"/>
    </g>
   </g>
   <g id="PathCollection_10">
    <defs>
     <path id="C9_0_03bb3dc8c6" d="M 0 2.5 
C 0.663008 2.5 1.29895 2.236584 1.767767 1.767767 
C 2.236584 1.29895 2.5 0.663008 2.5 -0 
C 2.5 -0.663008 2.236584 -1.29895 1.767767 -1.767767 
C 1.29895 -2.236584 0.663008 -2.5 0 -2.5 
C -0.663008 -2.5 -1.29895 -2.236584 -1.767767 -1.767767 
C -2.236584 -1.29895 -2.5 -0.663008 -2.5 0 
C -2.5 0.663008 -2.236584 1.29895 -1.767767 1.767767 
C -1.29895 2.236584 -0.663008 2.5 0 2.5 
z
"/>
    </defs>
    <g clip-path="url(#pbfd80c4dd9)">
     <use xlink:href="#C9_0_03bb3dc8c6" x="391.190128" y="41.708609" style="fill: #f98c84; stroke: #000000; stroke-width: 0.5"/>
    </g>
    <g clip-path="url(#pbfd80c4dd9)">
     <use xlink:href="#C9_0_03bb3dc8c6" x="390.296274" y="47.187609" style="fill: #f98c84; stroke: #000000; stroke-width: 0.5"/>
    </g>
    <g clip-path="url(#pbfd80c4dd9)">
     <use xlink:href="#C9_0_03bb3dc8c6" x="385.381259" y="46.192208" style="fill: #f98c84; stroke: #000000; stroke-width: 0.5"/>
    </g>
   </g>
   <g id="PathCollection_11">
    <defs>
     <path id="Ca_0_484a7507f4" d="M 0 2.5 
C 0.663008 2.5 1.29895 2.236584 1.767767 1.767767 
C 2.236584 1.29895 2.5 0.663008 2.5 -0 
C 2.5 -0.663008 2.236584 -1.29895 1.767767 -1.767767 
C 1.29895 -2.236584 0.663008 -2.5 0 -2.5 
C -0.663008 -2.5 -1.29895 -2.236584 -1.767767 -1.767767 
C -2.236584 -1.29895 -2.5 -0.663008 -2.5 0 
C -2.5 0.663008 -2.236584 1.29895 -1.767767 1.767767 
C -1.29895 2.236584 -0.663008 2.5 0 2.5 
z
"/>
    </defs>
    <g clip-path="url(#pbfd80c4dd9)">
     <use xlink:href="#Ca_0_484a7507f4" x="420.896927" y="90.547408" style="fill: #a1bd82; stroke: #000000; stroke-width: 0.5"/>
    </g>
    <g clip-path="url(#pbfd80c4dd9)">
     <use xlink:href="#Ca_0_484a7507f4" x="416.959451" y="85.505363" style="fill: #a1bd82; stroke: #000000; stroke-width: 0.5"/>
    </g>
    <g clip-path="url(#pbfd80c4dd9)">
     <use xlink:href="#Ca_0_484a7507f4" x="418.587305" y="117.34883" style="fill: #a1bd82; stroke: #000000; stroke-width: 0.5"/>
    </g>
   </g>
   <g id="PathCollection_12">
    <defs>
     <path id="Cb_0_b564b8c39b" d="M 0 2.5 
C 0.663008 2.5 1.29895 2.236584 1.767767 1.767767 
C 2.236584 1.29895 2.5 0.663008 2.5 -0 
C 2.5 -0.663008 2.236584 -1.29895 1.767767 -1.767767 
C 1.29895 -2.236584 0.663008 -2.5 0 -2.5 
C -0.663008 -2.5 -1.29895 -2.236584 -1.767767 -1.767767 
C -2.236584 -1.29895 -2.5 -0.663008 -2.5 0 
C -2.5 0.663008 -2.236584 1.29895 -1.767767 1.767767 
C -1.29895 2.236584 -0.663008 2.5 0 2.5 
z
"/>
    </defs>
    <g clip-path="url(#pbfd80c4dd9)">
     <use xlink:href="#Cb_0_b564b8c39b" x="446.224018" y="150.655326" style="fill: #fcc5c0; stroke: #000000; stroke-width: 0.5"/>
    </g>
    <g clip-path="url(#pbfd80c4dd9)">
     <use xlink:href="#Cb_0_b564b8c39b" x="445.77298" y="118.518461" style="fill: #fcc5c0; stroke: #000000; stroke-width: 0.5"/>
    </g>
    <g clip-path="url(#pbfd80c4dd9)">
     <use xlink:href="#Cb_0_b564b8c39b" x="450.349255" y="115.338366" style="fill: #fcc5c0; stroke: #000000; stroke-width: 0.5"/>
    </g>
   </g>
   <g id="PathCollection_13">
    <defs>
     <path id="Cc_0_aea00d7e71" d="M 0 2.5 
C 0.663008 2.5 1.29895 2.236584 1.767767 1.767767 
C 2.236584 1.29895 2.5 0.663008 2.5 -0 
C 2.5 -0.663008 2.236584 -1.29895 1.767767 -1.767767 
C 1.29895 -2.236584 0.663008 -2.5 0 -2.5 
C -0.663008 -2.5 -1.29895 -2.236584 -1.767767 -1.767767 
C -2.236584 -1.29895 -2.5 -0.663008 -2.5 0 
C -2.5 0.663008 -2.236584 1.29895 -1.767767 1.767767 
C -1.29895 2.236584 -0.663008 2.5 0 2.5 
z
"/>
    </defs>
    <g clip-path="url(#pbfd80c4dd9)">
     <use xlink:href="#Cc_0_aea00d7e71" x="518.410811" y="82.505391" style="fill: #265526; stroke: #000000; stroke-width: 0.5"/>
    </g>
    <g clip-path="url(#pbfd80c4dd9)">
     <use xlink:href="#Cc_0_aea00d7e71" x="519.167141" y="78.935186" style="fill: #265526; stroke: #000000; stroke-width: 0.5"/>
    </g>
    <g clip-path="url(#pbfd80c4dd9)">
     <use xlink:href="#Cc_0_aea00d7e71" x="525.143328" y="96.248048" style="fill: #265526; stroke: #000000; stroke-width: 0.5"/>
    </g>
   </g>
   <g id="PathCollection_14">
    <defs>
     <path id="Cd_0_b1f0b415fd" d="M 0 2.5 
C 0.663008 2.5 1.29895 2.236584 1.767767 1.767767 
C 2.236584 1.29895 2.5 0.663008 2.5 -0 
C 2.5 -0.663008 2.236584 -1.29895 1.767767 -1.767767 
C 1.29895 -2.236584 0.663008 -2.5 0 -2.5 
C -0.663008 -2.5 -1.29895 -2.236584 -1.767767 -1.767767 
C -2.236584 -1.29895 -2.5 -0.663008 -2.5 0 
C -2.5 0.663008 -2.236584 1.29895 -1.767767 1.767767 
C -1.29895 2.236584 -0.663008 2.5 0 2.5 
z
"/>
    </defs>
    <g clip-path="url(#pbfd80c4dd9)">
     <use xlink:href="#Cd_0_b1f0b415fd" x="550.07456" y="93.985441" style="fill: #f65e51; stroke: #000000; stroke-width: 0.5"/>
    </g>
    <g clip-path="url(#pbfd80c4dd9)">
     <use xlink:href="#Cd_0_b1f0b415fd" x="553.022385" y="75.077757" style="fill: #f65e51; stroke: #000000; stroke-width: 0.5"/>
    </g>
    <g clip-path="url(#pbfd80c4dd9)">
     <use xlink:href="#Cd_0_b1f0b415fd" x="550.695967" y="70.91351" style="fill: #f65e51; stroke: #000000; stroke-width: 0.5"/>
    </g>
   </g>
   <g id="PathCollection_15">
    <defs>
     <path id="Ce_0_89510b918f" d="M 0 2.5 
C 0.663008 2.5 1.29895 2.236584 1.767767 1.767767 
C 2.236584 1.29895 2.5 0.663008 2.5 -0 
C 2.5 -0.663008 2.236584 -1.29895 1.767767 -1.767767 
C 1.29895 -2.236584 0.663008 -2.5 0 -2.5 
C -0.663008 -2.5 -1.29895 -2.236584 -1.767767 -1.767767 
C -2.236584 -1.29895 -2.5 -0.663008 -2.5 0 
C -2.5 0.663008 -2.236584 1.29895 -1.767767 1.767767 
C -1.29895 2.236584 -0.663008 2.5 0 2.5 
z
"/>
    </defs>
    <g clip-path="url(#pbfd80c4dd9)">
     <use xlink:href="#Ce_0_89510b918f" x="577.982748" y="34.077077" style="fill: #5b8a5b; stroke: #000000; stroke-width: 0.5"/>
    </g>
    <g clip-path="url(#pbfd80c4dd9)">
     <use xlink:href="#Ce_0_89510b918f" x="577.139264" y="39.274586" style="fill: #5b8a5b; stroke: #000000; stroke-width: 0.5"/>
    </g>
    <g clip-path="url(#pbfd80c4dd9)">
     <use xlink:href="#Ce_0_89510b918f" x="580.461219" y="35.906114" style="fill: #5b8a5b; stroke: #000000; stroke-width: 0.5"/>
    </g>
   </g>
   <g id="PathCollection_16">
    <defs>
     <path id="Cf_0_1109bb6967" d="M 0 2.5 
C 0.663008 2.5 1.29895 2.236584 1.767767 1.767767 
C 2.236584 1.29895 2.5 0.663008 2.5 -0 
C 2.5 -0.663008 2.236584 -1.29895 1.767767 -1.767767 
C 1.29895 -2.236584 0.663008 -2.5 0 -2.5 
C -0.663008 -2.5 -1.29895 -2.236584 -1.767767 -1.767767 
C -2.236584 -1.29895 -2.5 -0.663008 -2.5 0 
C -2.5 0.663008 -2.236584 1.29895 -1.767767 1.767767 
C -1.29895 2.236584 -0.663008 2.5 0 2.5 
z
"/>
    </defs>
    <g clip-path="url(#pbfd80c4dd9)">
     <use xlink:href="#Cf_0_1109bb6967" x="607.075409" y="33.476394" style="fill: #f98c84; stroke: #000000; stroke-width: 0.5"/>
    </g>
    <g clip-path="url(#pbfd80c4dd9)">
     <use xlink:href="#Cf_0_1109bb6967" x="612.771534" y="33.0584" style="fill: #f98c84; stroke: #000000; stroke-width: 0.5"/>
    </g>
    <g clip-path="url(#pbfd80c4dd9)">
     <use xlink:href="#Cf_0_1109bb6967" x="613.359814" y="30.381083" style="fill: #f98c84; stroke: #000000; stroke-width: 0.5"/>
    </g>
   </g>
   <g id="PathCollection_17">
    <defs>
     <path id="C10_0_baee7bff62" d="M 0 2.5 
C 0.663008 2.5 1.29895 2.236584 1.767767 1.767767 
C 2.236584 1.29895 2.5 0.663008 2.5 -0 
C 2.5 -0.663008 2.236584 -1.29895 1.767767 -1.767767 
C 1.29895 -2.236584 0.663008 -2.5 0 -2.5 
C -0.663008 -2.5 -1.29895 -2.236584 -1.767767 -1.767767 
C -2.236584 -1.29895 -2.5 -0.663008 -2.5 0 
C -2.5 0.663008 -2.236584 1.29895 -1.767767 1.767767 
C -1.29895 2.236584 -0.663008 2.5 0 2.5 
z
"/>
    </defs>
    <g clip-path="url(#pbfd80c4dd9)">
     <use xlink:href="#C10_0_baee7bff62" x="637.388613" y="68.095281" style="fill: #a1bd82; stroke: #000000; stroke-width: 0.5"/>
    </g>
    <g clip-path="url(#pbfd80c4dd9)">
     <use xlink:href="#C10_0_baee7bff62" x="636.786266" y="114.011598" style="fill: #a1bd82; stroke: #000000; stroke-width: 0.5"/>
    </g>
    <g clip-path="url(#pbfd80c4dd9)">
     <use xlink:href="#C10_0_baee7bff62" x="642.920375" y="68.60165" style="fill: #a1bd82; stroke: #000000; stroke-width: 0.5"/>
    </g>
   </g>
   <g id="PathCollection_18">
    <defs>
     <path id="C11_0_e24901cc58" d="M 0 2.5 
C 0.663008 2.5 1.29895 2.236584 1.767767 1.767767 
C 2.236584 1.29895 2.5 0.663008 2.5 -0 
C 2.5 -0.663008 2.236584 -1.29895 1.767767 -1.767767 
C 1.29895 -2.236584 0.663008 -2.5 0 -2.5 
C -0.663008 -2.5 -1.29895 -2.236584 -1.767767 -1.767767 
C -2.236584 -1.29895 -2.5 -0.663008 -2.5 0 
C -2.5 0.663008 -2.236584 1.29895 -1.767767 1.767767 
C -1.29895 2.236584 -0.663008 2.5 0 2.5 
z
"/>
    </defs>
    <g clip-path="url(#pbfd80c4dd9)">
     <use xlink:href="#C11_0_e24901cc58" x="667.364582" y="95.498798" style="fill: #fcc5c0; stroke: #000000; stroke-width: 0.5"/>
    </g>
    <g clip-path="url(#pbfd80c4dd9)">
     <use xlink:href="#C11_0_e24901cc58" x="672.007977" y="102.818824" style="fill: #fcc5c0; stroke: #000000; stroke-width: 0.5"/>
    </g>
    <g clip-path="url(#pbfd80c4dd9)">
     <use xlink:href="#C11_0_e24901cc58" x="665.244771" y="89.591647" style="fill: #fcc5c0; stroke: #000000; stroke-width: 0.5"/>
    </g>
   </g>
   <g id="line2d_11"/>
   <g id="line2d_12"/>
   <g id="line2d_13"/>
   <g id="line2d_14"/>
   <g id="line2d_15"/>
   <g id="line2d_16"/>
   <g id="legend_1">
    <g id="patch_31">
     <path d="M 149.540937 336.835688 
L 598.646563 336.835688 
Q 600.446563 336.835688 600.446563 335.035687 
L 600.446563 309.515062 
Q 600.446563 307.715062 598.646563 307.715062 
L 149.540937 307.715062 
Q 147.740937 307.715062 147.740937 309.515062 
L 147.740937 335.035687 
Q 147.740937 336.835688 149.540937 336.835688 
z
" style="fill: #ffffff; opacity: 0.8; stroke: #cccccc; stroke-linejoin: miter"/>
    </g>
    <g id="patch_32">
     <path d="M 151.340937 318.153656 
L 169.340937 318.153656 
L 169.340937 311.853656 
L 151.340937 311.853656 
z
" style="fill: #265526; stroke: #000000; stroke-linejoin: miter"/>
    </g>
    <g id="text_6">
     <!-- MultiVelo -->
     <g style="fill: #262626" transform="translate(176.540937 318.153656) scale(0.09 -0.09)">
      <defs>
       <path id="DejaVuSans-4d" d="M 628 4666 
L 1569 4666 
L 2759 1491 
L 3956 4666 
L 4897 4666 
L 4897 0 
L 4281 0 
L 4281 4097 
L 3078 897 
L 2444 897 
L 1241 4097 
L 1241 0 
L 628 0 
L 628 4666 
z
" transform="scale(0.015625)"/>
       <path id="DejaVuSans-75" d="M 544 1381 
L 544 3500 
L 1119 3500 
L 1119 1403 
Q 1119 906 1312 657 
Q 1506 409 1894 409 
Q 2359 409 2629 706 
Q 2900 1003 2900 1516 
L 2900 3500 
L 3475 3500 
L 3475 0 
L 2900 0 
L 2900 538 
Q 2691 219 2414 64 
Q 2138 -91 1772 -91 
Q 1169 -91 856 284 
Q 544 659 544 1381 
z
M 1991 3584 
L 1991 3584 
z
" transform="scale(0.015625)"/>
       <path id="DejaVuSans-6c" d="M 603 4863 
L 1178 4863 
L 1178 0 
L 603 0 
L 603 4863 
z
" transform="scale(0.015625)"/>
       <path id="DejaVuSans-74" d="M 1172 4494 
L 1172 3500 
L 2356 3500 
L 2356 3053 
L 1172 3053 
L 1172 1153 
Q 1172 725 1289 603 
Q 1406 481 1766 481 
L 2356 481 
L 2356 0 
L 1766 0 
Q 1100 0 847 248 
Q 594 497 594 1153 
L 594 3053 
L 172 3053 
L 172 3500 
L 594 3500 
L 594 4494 
L 1172 4494 
z
" transform="scale(0.015625)"/>
       <path id="DejaVuSans-69" d="M 603 3500 
L 1178 3500 
L 1178 0 
L 603 0 
L 603 3500 
z
M 603 4863 
L 1178 4863 
L 1178 4134 
L 603 4134 
L 603 4863 
z
" transform="scale(0.015625)"/>
       <path id="DejaVuSans-56" d="M 1831 0 
L 50 4666 
L 709 4666 
L 2188 738 
L 3669 4666 
L 4325 4666 
L 2547 0 
L 1831 0 
z
" transform="scale(0.015625)"/>
       <path id="DejaVuSans-65" d="M 3597 1894 
L 3597 1613 
L 953 1613 
Q 991 1019 1311 708 
Q 1631 397 2203 397 
Q 2534 397 2845 478 
Q 3156 559 3463 722 
L 3463 178 
Q 3153 47 2828 -22 
Q 2503 -91 2169 -91 
Q 1331 -91 842 396 
Q 353 884 353 1716 
Q 353 2575 817 3079 
Q 1281 3584 2069 3584 
Q 2775 3584 3186 3129 
Q 3597 2675 3597 1894 
z
M 3022 2063 
Q 3016 2534 2758 2815 
Q 2500 3097 2075 3097 
Q 1594 3097 1305 2825 
Q 1016 2553 972 2059 
L 3022 2063 
z
" transform="scale(0.015625)"/>
       <path id="DejaVuSans-6f" d="M 1959 3097 
Q 1497 3097 1228 2736 
Q 959 2375 959 1747 
Q 959 1119 1226 758 
Q 1494 397 1959 397 
Q 2419 397 2687 759 
Q 2956 1122 2956 1747 
Q 2956 2369 2687 2733 
Q 2419 3097 1959 3097 
z
M 1959 3584 
Q 2709 3584 3137 3096 
Q 3566 2609 3566 1747 
Q 3566 888 3137 398 
Q 2709 -91 1959 -91 
Q 1206 -91 779 398 
Q 353 888 353 1747 
Q 353 2609 779 3096 
Q 1206 3584 1959 3584 
z
" transform="scale(0.015625)"/>
      </defs>
      <use xlink:href="#DejaVuSans-4d"/>
      <use xlink:href="#DejaVuSans-75" transform="translate(86.279297 0)"/>
      <use xlink:href="#DejaVuSans-6c" transform="translate(149.658203 0)"/>
      <use xlink:href="#DejaVuSans-74" transform="translate(177.441406 0)"/>
      <use xlink:href="#DejaVuSans-69" transform="translate(216.650391 0)"/>
      <use xlink:href="#DejaVuSans-56" transform="translate(244.433594 0)"/>
      <use xlink:href="#DejaVuSans-65" transform="translate(305.091797 0)"/>
      <use xlink:href="#DejaVuSans-6c" transform="translate(366.615234 0)"/>
      <use xlink:href="#DejaVuSans-6f" transform="translate(394.398438 0)"/>
     </g>
    </g>
    <g id="patch_33">
     <path d="M 151.340937 331.363969 
L 169.340937 331.363969 
L 169.340937 325.063969 
L 151.340937 325.063969 
z
" style="fill: #f65e51; stroke: #000000; stroke-linejoin: miter"/>
    </g>
    <g id="text_7">
     <!-- scVelo (dyn) -->
     <g style="fill: #262626" transform="translate(176.540937 331.363969) scale(0.09 -0.09)">
      <defs>
       <path id="DejaVuSans-73" d="M 2834 3397 
L 2834 2853 
Q 2591 2978 2328 3040 
Q 2066 3103 1784 3103 
Q 1356 3103 1142 2972 
Q 928 2841 928 2578 
Q 928 2378 1081 2264 
Q 1234 2150 1697 2047 
L 1894 2003 
Q 2506 1872 2764 1633 
Q 3022 1394 3022 966 
Q 3022 478 2636 193 
Q 2250 -91 1575 -91 
Q 1294 -91 989 -36 
Q 684 19 347 128 
L 347 722 
Q 666 556 975 473 
Q 1284 391 1588 391 
Q 1994 391 2212 530 
Q 2431 669 2431 922 
Q 2431 1156 2273 1281 
Q 2116 1406 1581 1522 
L 1381 1569 
Q 847 1681 609 1914 
Q 372 2147 372 2553 
Q 372 3047 722 3315 
Q 1072 3584 1716 3584 
Q 2034 3584 2315 3537 
Q 2597 3491 2834 3397 
z
" transform="scale(0.015625)"/>
       <path id="DejaVuSans-63" d="M 3122 3366 
L 3122 2828 
Q 2878 2963 2633 3030 
Q 2388 3097 2138 3097 
Q 1578 3097 1268 2742 
Q 959 2388 959 1747 
Q 959 1106 1268 751 
Q 1578 397 2138 397 
Q 2388 397 2633 464 
Q 2878 531 3122 666 
L 3122 134 
Q 2881 22 2623 -34 
Q 2366 -91 2075 -91 
Q 1284 -91 818 406 
Q 353 903 353 1747 
Q 353 2603 823 3093 
Q 1294 3584 2113 3584 
Q 2378 3584 2631 3529 
Q 2884 3475 3122 3366 
z
" transform="scale(0.015625)"/>
       <path id="DejaVuSans-20" transform="scale(0.015625)"/>
       <path id="DejaVuSans-28" d="M 1984 4856 
Q 1566 4138 1362 3434 
Q 1159 2731 1159 2009 
Q 1159 1288 1364 580 
Q 1569 -128 1984 -844 
L 1484 -844 
Q 1016 -109 783 600 
Q 550 1309 550 2009 
Q 550 2706 781 3412 
Q 1013 4119 1484 4856 
L 1984 4856 
z
" transform="scale(0.015625)"/>
       <path id="DejaVuSans-64" d="M 2906 2969 
L 2906 4863 
L 3481 4863 
L 3481 0 
L 2906 0 
L 2906 525 
Q 2725 213 2448 61 
Q 2172 -91 1784 -91 
Q 1150 -91 751 415 
Q 353 922 353 1747 
Q 353 2572 751 3078 
Q 1150 3584 1784 3584 
Q 2172 3584 2448 3432 
Q 2725 3281 2906 2969 
z
M 947 1747 
Q 947 1113 1208 752 
Q 1469 391 1925 391 
Q 2381 391 2643 752 
Q 2906 1113 2906 1747 
Q 2906 2381 2643 2742 
Q 2381 3103 1925 3103 
Q 1469 3103 1208 2742 
Q 947 2381 947 1747 
z
" transform="scale(0.015625)"/>
       <path id="DejaVuSans-79" d="M 2059 -325 
Q 1816 -950 1584 -1140 
Q 1353 -1331 966 -1331 
L 506 -1331 
L 506 -850 
L 844 -850 
Q 1081 -850 1212 -737 
Q 1344 -625 1503 -206 
L 1606 56 
L 191 3500 
L 800 3500 
L 1894 763 
L 2988 3500 
L 3597 3500 
L 2059 -325 
z
" transform="scale(0.015625)"/>
       <path id="DejaVuSans-6e" d="M 3513 2113 
L 3513 0 
L 2938 0 
L 2938 2094 
Q 2938 2591 2744 2837 
Q 2550 3084 2163 3084 
Q 1697 3084 1428 2787 
Q 1159 2491 1159 1978 
L 1159 0 
L 581 0 
L 581 3500 
L 1159 3500 
L 1159 2956 
Q 1366 3272 1645 3428 
Q 1925 3584 2291 3584 
Q 2894 3584 3203 3211 
Q 3513 2838 3513 2113 
z
" transform="scale(0.015625)"/>
       <path id="DejaVuSans-29" d="M 513 4856 
L 1013 4856 
Q 1481 4119 1714 3412 
Q 1947 2706 1947 2009 
Q 1947 1309 1714 600 
Q 1481 -109 1013 -844 
L 513 -844 
Q 928 -128 1133 580 
Q 1338 1288 1338 2009 
Q 1338 2731 1133 3434 
Q 928 4138 513 4856 
z
" transform="scale(0.015625)"/>
      </defs>
      <use xlink:href="#DejaVuSans-73"/>
      <use xlink:href="#DejaVuSans-63" transform="translate(52.099609 0)"/>
      <use xlink:href="#DejaVuSans-56" transform="translate(107.080078 0)"/>
      <use xlink:href="#DejaVuSans-65" transform="translate(167.738281 0)"/>
      <use xlink:href="#DejaVuSans-6c" transform="translate(229.261719 0)"/>
      <use xlink:href="#DejaVuSans-6f" transform="translate(257.044922 0)"/>
      <use xlink:href="#DejaVuSans-20" transform="translate(318.226562 0)"/>
      <use xlink:href="#DejaVuSans-28" transform="translate(350.013672 0)"/>
      <use xlink:href="#DejaVuSans-64" transform="translate(389.027344 0)"/>
      <use xlink:href="#DejaVuSans-79" transform="translate(452.503906 0)"/>
      <use xlink:href="#DejaVuSans-6e" transform="translate(511.683594 0)"/>
      <use xlink:href="#DejaVuSans-29" transform="translate(575.0625 0)"/>
     </g>
    </g>
    <g id="patch_34">
     <path d="M 249.809375 318.153656 
L 267.809375 318.153656 
L 267.809375 311.853656 
L 249.809375 311.853656 
z
" style="fill: #5b8a5b; stroke: #000000; stroke-linejoin: miter"/>
    </g>
    <g id="text_8">
     <!-- LatentVelo (ATAC) -->
     <g style="fill: #262626" transform="translate(275.009375 318.153656) scale(0.09 -0.09)">
      <defs>
       <path id="DejaVuSans-4c" d="M 628 4666 
L 1259 4666 
L 1259 531 
L 3531 531 
L 3531 0 
L 628 0 
L 628 4666 
z
" transform="scale(0.015625)"/>
       <path id="DejaVuSans-61" d="M 2194 1759 
Q 1497 1759 1228 1600 
Q 959 1441 959 1056 
Q 959 750 1161 570 
Q 1363 391 1709 391 
Q 2188 391 2477 730 
Q 2766 1069 2766 1631 
L 2766 1759 
L 2194 1759 
z
M 3341 1997 
L 3341 0 
L 2766 0 
L 2766 531 
Q 2569 213 2275 61 
Q 1981 -91 1556 -91 
Q 1019 -91 701 211 
Q 384 513 384 1019 
Q 384 1609 779 1909 
Q 1175 2209 1959 2209 
L 2766 2209 
L 2766 2266 
Q 2766 2663 2505 2880 
Q 2244 3097 1772 3097 
Q 1472 3097 1187 3025 
Q 903 2953 641 2809 
L 641 3341 
Q 956 3463 1253 3523 
Q 1550 3584 1831 3584 
Q 2591 3584 2966 3190 
Q 3341 2797 3341 1997 
z
" transform="scale(0.015625)"/>
       <path id="DejaVuSans-41" d="M 2188 4044 
L 1331 1722 
L 3047 1722 
L 2188 4044 
z
M 1831 4666 
L 2547 4666 
L 4325 0 
L 3669 0 
L 3244 1197 
L 1141 1197 
L 716 0 
L 50 0 
L 1831 4666 
z
" transform="scale(0.015625)"/>
       <path id="DejaVuSans-54" d="M -19 4666 
L 3928 4666 
L 3928 4134 
L 2272 4134 
L 2272 0 
L 1638 0 
L 1638 4134 
L -19 4134 
L -19 4666 
z
" transform="scale(0.015625)"/>
       <path id="DejaVuSans-43" d="M 4122 4306 
L 4122 3641 
Q 3803 3938 3442 4084 
Q 3081 4231 2675 4231 
Q 1875 4231 1450 3742 
Q 1025 3253 1025 2328 
Q 1025 1406 1450 917 
Q 1875 428 2675 428 
Q 3081 428 3442 575 
Q 3803 722 4122 1019 
L 4122 359 
Q 3791 134 3420 21 
Q 3050 -91 2638 -91 
Q 1578 -91 968 557 
Q 359 1206 359 2328 
Q 359 3453 968 4101 
Q 1578 4750 2638 4750 
Q 3056 4750 3426 4639 
Q 3797 4528 4122 4306 
z
" transform="scale(0.015625)"/>
      </defs>
      <use xlink:href="#DejaVuSans-4c"/>
      <use xlink:href="#DejaVuSans-61" transform="translate(55.712891 0)"/>
      <use xlink:href="#DejaVuSans-74" transform="translate(116.992188 0)"/>
      <use xlink:href="#DejaVuSans-65" transform="translate(156.201172 0)"/>
      <use xlink:href="#DejaVuSans-6e" transform="translate(217.724609 0)"/>
      <use xlink:href="#DejaVuSans-74" transform="translate(281.103516 0)"/>
      <use xlink:href="#DejaVuSans-56" transform="translate(320.3125 0)"/>
      <use xlink:href="#DejaVuSans-65" transform="translate(380.970703 0)"/>
      <use xlink:href="#DejaVuSans-6c" transform="translate(442.494141 0)"/>
      <use xlink:href="#DejaVuSans-6f" transform="translate(470.277344 0)"/>
      <use xlink:href="#DejaVuSans-20" transform="translate(531.458984 0)"/>
      <use xlink:href="#DejaVuSans-28" transform="translate(563.246094 0)"/>
      <use xlink:href="#DejaVuSans-41" transform="translate(602.259766 0)"/>
      <use xlink:href="#DejaVuSans-54" transform="translate(662.917969 0)"/>
      <use xlink:href="#DejaVuSans-41" transform="translate(716.251953 0)"/>
      <use xlink:href="#DejaVuSans-43" transform="translate(782.910156 0)"/>
      <use xlink:href="#DejaVuSans-29" transform="translate(852.734375 0)"/>
     </g>
    </g>
    <g id="patch_35">
     <path d="M 249.809375 331.363969 
L 267.809375 331.363969 
L 267.809375 325.063969 
L 249.809375 325.063969 
z
" style="fill: #f98c84; stroke: #000000; stroke-linejoin: miter"/>
    </g>
    <g id="text_9">
     <!-- LatentVelo (std)  -->
     <g style="fill: #262626" transform="translate(275.009375 331.363969) scale(0.09 -0.09)">
      <use xlink:href="#DejaVuSans-4c"/>
      <use xlink:href="#DejaVuSans-61" transform="translate(55.712891 0)"/>
      <use xlink:href="#DejaVuSans-74" transform="translate(116.992188 0)"/>
      <use xlink:href="#DejaVuSans-65" transform="translate(156.201172 0)"/>
      <use xlink:href="#DejaVuSans-6e" transform="translate(217.724609 0)"/>
      <use xlink:href="#DejaVuSans-74" transform="translate(281.103516 0)"/>
      <use xlink:href="#DejaVuSans-56" transform="translate(320.3125 0)"/>
      <use xlink:href="#DejaVuSans-65" transform="translate(380.970703 0)"/>
      <use xlink:href="#DejaVuSans-6c" transform="translate(442.494141 0)"/>
      <use xlink:href="#DejaVuSans-6f" transform="translate(470.277344 0)"/>
      <use xlink:href="#DejaVuSans-20" transform="translate(531.458984 0)"/>
      <use xlink:href="#DejaVuSans-28" transform="translate(563.246094 0)"/>
      <use xlink:href="#DejaVuSans-73" transform="translate(602.259766 0)"/>
      <use xlink:href="#DejaVuSans-74" transform="translate(654.359375 0)"/>
      <use xlink:href="#DejaVuSans-64" transform="translate(693.568359 0)"/>
      <use xlink:href="#DejaVuSans-29" transform="translate(757.044922 0)"/>
      <use xlink:href="#DejaVuSans-20" transform="translate(796.058594 0)"/>
     </g>
    </g>
    <g id="patch_36">
     <path d="M 373.266875 318.153656 
L 391.266875 318.153656 
L 391.266875 311.853656 
L 373.266875 311.853656 
z
" style="fill: #a1bd82; stroke: #000000; stroke-linejoin: miter"/>
    </g>
    <g id="text_10">
     <!-- GraphVelo (ATAC)  -->
     <g style="fill: #262626" transform="translate(398.466875 318.153656) scale(0.09 -0.09)">
      <defs>
       <path id="DejaVuSans-47" d="M 3809 666 
L 3809 1919 
L 2778 1919 
L 2778 2438 
L 4434 2438 
L 4434 434 
Q 4069 175 3628 42 
Q 3188 -91 2688 -91 
Q 1594 -91 976 548 
Q 359 1188 359 2328 
Q 359 3472 976 4111 
Q 1594 4750 2688 4750 
Q 3144 4750 3555 4637 
Q 3966 4525 4313 4306 
L 4313 3634 
Q 3963 3931 3569 4081 
Q 3175 4231 2741 4231 
Q 1884 4231 1454 3753 
Q 1025 3275 1025 2328 
Q 1025 1384 1454 906 
Q 1884 428 2741 428 
Q 3075 428 3337 486 
Q 3600 544 3809 666 
z
" transform="scale(0.015625)"/>
       <path id="DejaVuSans-72" d="M 2631 2963 
Q 2534 3019 2420 3045 
Q 2306 3072 2169 3072 
Q 1681 3072 1420 2755 
Q 1159 2438 1159 1844 
L 1159 0 
L 581 0 
L 581 3500 
L 1159 3500 
L 1159 2956 
Q 1341 3275 1631 3429 
Q 1922 3584 2338 3584 
Q 2397 3584 2469 3576 
Q 2541 3569 2628 3553 
L 2631 2963 
z
" transform="scale(0.015625)"/>
       <path id="DejaVuSans-70" d="M 1159 525 
L 1159 -1331 
L 581 -1331 
L 581 3500 
L 1159 3500 
L 1159 2969 
Q 1341 3281 1617 3432 
Q 1894 3584 2278 3584 
Q 2916 3584 3314 3078 
Q 3713 2572 3713 1747 
Q 3713 922 3314 415 
Q 2916 -91 2278 -91 
Q 1894 -91 1617 61 
Q 1341 213 1159 525 
z
M 3116 1747 
Q 3116 2381 2855 2742 
Q 2594 3103 2138 3103 
Q 1681 3103 1420 2742 
Q 1159 2381 1159 1747 
Q 1159 1113 1420 752 
Q 1681 391 2138 391 
Q 2594 391 2855 752 
Q 3116 1113 3116 1747 
z
" transform="scale(0.015625)"/>
       <path id="DejaVuSans-68" d="M 3513 2113 
L 3513 0 
L 2938 0 
L 2938 2094 
Q 2938 2591 2744 2837 
Q 2550 3084 2163 3084 
Q 1697 3084 1428 2787 
Q 1159 2491 1159 1978 
L 1159 0 
L 581 0 
L 581 4863 
L 1159 4863 
L 1159 2956 
Q 1366 3272 1645 3428 
Q 1925 3584 2291 3584 
Q 2894 3584 3203 3211 
Q 3513 2838 3513 2113 
z
" transform="scale(0.015625)"/>
      </defs>
      <use xlink:href="#DejaVuSans-47"/>
      <use xlink:href="#DejaVuSans-72" transform="translate(77.490234 0)"/>
      <use xlink:href="#DejaVuSans-61" transform="translate(118.603516 0)"/>
      <use xlink:href="#DejaVuSans-70" transform="translate(179.882812 0)"/>
      <use xlink:href="#DejaVuSans-68" transform="translate(243.359375 0)"/>
      <use xlink:href="#DejaVuSans-56" transform="translate(306.738281 0)"/>
      <use xlink:href="#DejaVuSans-65" transform="translate(367.396484 0)"/>
      <use xlink:href="#DejaVuSans-6c" transform="translate(428.919922 0)"/>
      <use xlink:href="#DejaVuSans-6f" transform="translate(456.703125 0)"/>
      <use xlink:href="#DejaVuSans-20" transform="translate(517.884766 0)"/>
      <use xlink:href="#DejaVuSans-28" transform="translate(549.671875 0)"/>
      <use xlink:href="#DejaVuSans-41" transform="translate(588.685547 0)"/>
      <use xlink:href="#DejaVuSans-54" transform="translate(649.34375 0)"/>
      <use xlink:href="#DejaVuSans-41" transform="translate(702.677734 0)"/>
      <use xlink:href="#DejaVuSans-43" transform="translate(769.335938 0)"/>
      <use xlink:href="#DejaVuSans-29" transform="translate(839.160156 0)"/>
      <use xlink:href="#DejaVuSans-20" transform="translate(878.173828 0)"/>
     </g>
    </g>
    <g id="patch_37">
     <path d="M 498.362656 318.153656 
L 516.362656 318.153656 
L 516.362656 311.853656 
L 498.362656 311.853656 
z
" style="fill: #fcc5c0; stroke: #000000; stroke-linejoin: miter"/>
    </g>
    <g id="text_11">
     <!-- GraphVelo (std)  -->
     <g style="fill: #262626" transform="translate(523.562656 318.153656) scale(0.09 -0.09)">
      <use xlink:href="#DejaVuSans-47"/>
      <use xlink:href="#DejaVuSans-72" transform="translate(77.490234 0)"/>
      <use xlink:href="#DejaVuSans-61" transform="translate(118.603516 0)"/>
      <use xlink:href="#DejaVuSans-70" transform="translate(179.882812 0)"/>
      <use xlink:href="#DejaVuSans-68" transform="translate(243.359375 0)"/>
      <use xlink:href="#DejaVuSans-56" transform="translate(306.738281 0)"/>
      <use xlink:href="#DejaVuSans-65" transform="translate(367.396484 0)"/>
      <use xlink:href="#DejaVuSans-6c" transform="translate(428.919922 0)"/>
      <use xlink:href="#DejaVuSans-6f" transform="translate(456.703125 0)"/>
      <use xlink:href="#DejaVuSans-20" transform="translate(517.884766 0)"/>
      <use xlink:href="#DejaVuSans-28" transform="translate(549.671875 0)"/>
      <use xlink:href="#DejaVuSans-73" transform="translate(588.685547 0)"/>
      <use xlink:href="#DejaVuSans-74" transform="translate(640.785156 0)"/>
      <use xlink:href="#DejaVuSans-64" transform="translate(679.994141 0)"/>
      <use xlink:href="#DejaVuSans-29" transform="translate(743.470703 0)"/>
      <use xlink:href="#DejaVuSans-20" transform="translate(782.484375 0)"/>
     </g>
    </g>
   </g>
   <g id="legend_2">
    <g id="patch_38">
     <path d="M 149.540937 336.835688 
L 598.646563 336.835688 
Q 600.446563 336.835688 600.446563 335.035687 
L 600.446563 309.515062 
Q 600.446563 307.715062 598.646563 307.715062 
L 149.540937 307.715062 
Q 147.740937 307.715062 147.740937 309.515062 
L 147.740937 335.035687 
Q 147.740937 336.835688 149.540937 336.835688 
z
" style="fill: #ffffff; opacity: 0.8; stroke: #cccccc; stroke-linejoin: miter"/>
    </g>
    <g id="patch_39">
     <path d="M 151.340937 318.153656 
L 169.340937 318.153656 
L 169.340937 311.853656 
L 151.340937 311.853656 
z
" style="fill: #265526; stroke: #000000; stroke-linejoin: miter"/>
    </g>
    <g id="text_12">
     <!-- MultiVelo -->
     <g style="fill: #262626" transform="translate(176.540937 318.153656) scale(0.09 -0.09)">
      <use xlink:href="#DejaVuSans-4d"/>
      <use xlink:href="#DejaVuSans-75" transform="translate(86.279297 0)"/>
      <use xlink:href="#DejaVuSans-6c" transform="translate(149.658203 0)"/>
      <use xlink:href="#DejaVuSans-74" transform="translate(177.441406 0)"/>
      <use xlink:href="#DejaVuSans-69" transform="translate(216.650391 0)"/>
      <use xlink:href="#DejaVuSans-56" transform="translate(244.433594 0)"/>
      <use xlink:href="#DejaVuSans-65" transform="translate(305.091797 0)"/>
      <use xlink:href="#DejaVuSans-6c" transform="translate(366.615234 0)"/>
      <use xlink:href="#DejaVuSans-6f" transform="translate(394.398438 0)"/>
     </g>
    </g>
    <g id="patch_40">
     <path d="M 151.340937 331.363969 
L 169.340937 331.363969 
L 169.340937 325.063969 
L 151.340937 325.063969 
z
" style="fill: #f65e51; stroke: #000000; stroke-linejoin: miter"/>
    </g>
    <g id="text_13">
     <!-- scVelo (dyn) -->
     <g style="fill: #262626" transform="translate(176.540937 331.363969) scale(0.09 -0.09)">
      <use xlink:href="#DejaVuSans-73"/>
      <use xlink:href="#DejaVuSans-63" transform="translate(52.099609 0)"/>
      <use xlink:href="#DejaVuSans-56" transform="translate(107.080078 0)"/>
      <use xlink:href="#DejaVuSans-65" transform="translate(167.738281 0)"/>
      <use xlink:href="#DejaVuSans-6c" transform="translate(229.261719 0)"/>
      <use xlink:href="#DejaVuSans-6f" transform="translate(257.044922 0)"/>
      <use xlink:href="#DejaVuSans-20" transform="translate(318.226562 0)"/>
      <use xlink:href="#DejaVuSans-28" transform="translate(350.013672 0)"/>
      <use xlink:href="#DejaVuSans-64" transform="translate(389.027344 0)"/>
      <use xlink:href="#DejaVuSans-79" transform="translate(452.503906 0)"/>
      <use xlink:href="#DejaVuSans-6e" transform="translate(511.683594 0)"/>
      <use xlink:href="#DejaVuSans-29" transform="translate(575.0625 0)"/>
     </g>
    </g>
    <g id="patch_41">
     <path d="M 249.809375 318.153656 
L 267.809375 318.153656 
L 267.809375 311.853656 
L 249.809375 311.853656 
z
" style="fill: #5b8a5b; stroke: #000000; stroke-linejoin: miter"/>
    </g>
    <g id="text_14">
     <!-- LatentVelo (ATAC) -->
     <g style="fill: #262626" transform="translate(275.009375 318.153656) scale(0.09 -0.09)">
      <use xlink:href="#DejaVuSans-4c"/>
      <use xlink:href="#DejaVuSans-61" transform="translate(55.712891 0)"/>
      <use xlink:href="#DejaVuSans-74" transform="translate(116.992188 0)"/>
      <use xlink:href="#DejaVuSans-65" transform="translate(156.201172 0)"/>
      <use xlink:href="#DejaVuSans-6e" transform="translate(217.724609 0)"/>
      <use xlink:href="#DejaVuSans-74" transform="translate(281.103516 0)"/>
      <use xlink:href="#DejaVuSans-56" transform="translate(320.3125 0)"/>
      <use xlink:href="#DejaVuSans-65" transform="translate(380.970703 0)"/>
      <use xlink:href="#DejaVuSans-6c" transform="translate(442.494141 0)"/>
      <use xlink:href="#DejaVuSans-6f" transform="translate(470.277344 0)"/>
      <use xlink:href="#DejaVuSans-20" transform="translate(531.458984 0)"/>
      <use xlink:href="#DejaVuSans-28" transform="translate(563.246094 0)"/>
      <use xlink:href="#DejaVuSans-41" transform="translate(602.259766 0)"/>
      <use xlink:href="#DejaVuSans-54" transform="translate(662.917969 0)"/>
      <use xlink:href="#DejaVuSans-41" transform="translate(716.251953 0)"/>
      <use xlink:href="#DejaVuSans-43" transform="translate(782.910156 0)"/>
      <use xlink:href="#DejaVuSans-29" transform="translate(852.734375 0)"/>
     </g>
    </g>
    <g id="patch_42">
     <path d="M 249.809375 331.363969 
L 267.809375 331.363969 
L 267.809375 325.063969 
L 249.809375 325.063969 
z
" style="fill: #f98c84; stroke: #000000; stroke-linejoin: miter"/>
    </g>
    <g id="text_15">
     <!-- LatentVelo (std)  -->
     <g style="fill: #262626" transform="translate(275.009375 331.363969) scale(0.09 -0.09)">
      <use xlink:href="#DejaVuSans-4c"/>
      <use xlink:href="#DejaVuSans-61" transform="translate(55.712891 0)"/>
      <use xlink:href="#DejaVuSans-74" transform="translate(116.992188 0)"/>
      <use xlink:href="#DejaVuSans-65" transform="translate(156.201172 0)"/>
      <use xlink:href="#DejaVuSans-6e" transform="translate(217.724609 0)"/>
      <use xlink:href="#DejaVuSans-74" transform="translate(281.103516 0)"/>
      <use xlink:href="#DejaVuSans-56" transform="translate(320.3125 0)"/>
      <use xlink:href="#DejaVuSans-65" transform="translate(380.970703 0)"/>
      <use xlink:href="#DejaVuSans-6c" transform="translate(442.494141 0)"/>
      <use xlink:href="#DejaVuSans-6f" transform="translate(470.277344 0)"/>
      <use xlink:href="#DejaVuSans-20" transform="translate(531.458984 0)"/>
      <use xlink:href="#DejaVuSans-28" transform="translate(563.246094 0)"/>
      <use xlink:href="#DejaVuSans-73" transform="translate(602.259766 0)"/>
      <use xlink:href="#DejaVuSans-74" transform="translate(654.359375 0)"/>
      <use xlink:href="#DejaVuSans-64" transform="translate(693.568359 0)"/>
      <use xlink:href="#DejaVuSans-29" transform="translate(757.044922 0)"/>
      <use xlink:href="#DejaVuSans-20" transform="translate(796.058594 0)"/>
     </g>
    </g>
    <g id="patch_43">
     <path d="M 373.266875 318.153656 
L 391.266875 318.153656 
L 391.266875 311.853656 
L 373.266875 311.853656 
z
" style="fill: #a1bd82; stroke: #000000; stroke-linejoin: miter"/>
    </g>
    <g id="text_16">
     <!-- GraphVelo (ATAC)  -->
     <g style="fill: #262626" transform="translate(398.466875 318.153656) scale(0.09 -0.09)">
      <use xlink:href="#DejaVuSans-47"/>
      <use xlink:href="#DejaVuSans-72" transform="translate(77.490234 0)"/>
      <use xlink:href="#DejaVuSans-61" transform="translate(118.603516 0)"/>
      <use xlink:href="#DejaVuSans-70" transform="translate(179.882812 0)"/>
      <use xlink:href="#DejaVuSans-68" transform="translate(243.359375 0)"/>
      <use xlink:href="#DejaVuSans-56" transform="translate(306.738281 0)"/>
      <use xlink:href="#DejaVuSans-65" transform="translate(367.396484 0)"/>
      <use xlink:href="#DejaVuSans-6c" transform="translate(428.919922 0)"/>
      <use xlink:href="#DejaVuSans-6f" transform="translate(456.703125 0)"/>
      <use xlink:href="#DejaVuSans-20" transform="translate(517.884766 0)"/>
      <use xlink:href="#DejaVuSans-28" transform="translate(549.671875 0)"/>
      <use xlink:href="#DejaVuSans-41" transform="translate(588.685547 0)"/>
      <use xlink:href="#DejaVuSans-54" transform="translate(649.34375 0)"/>
      <use xlink:href="#DejaVuSans-41" transform="translate(702.677734 0)"/>
      <use xlink:href="#DejaVuSans-43" transform="translate(769.335938 0)"/>
      <use xlink:href="#DejaVuSans-29" transform="translate(839.160156 0)"/>
      <use xlink:href="#DejaVuSans-20" transform="translate(878.173828 0)"/>
     </g>
    </g>
    <g id="patch_44">
     <path d="M 498.362656 318.153656 
L 516.362656 318.153656 
L 516.362656 311.853656 
L 498.362656 311.853656 
z
" style="fill: #fcc5c0; stroke: #000000; stroke-linejoin: miter"/>
    </g>
    <g id="text_17">
     <!-- GraphVelo (std)  -->
     <g style="fill: #262626" transform="translate(523.562656 318.153656) scale(0.09 -0.09)">
      <use xlink:href="#DejaVuSans-47"/>
      <use xlink:href="#DejaVuSans-72" transform="translate(77.490234 0)"/>
      <use xlink:href="#DejaVuSans-61" transform="translate(118.603516 0)"/>
      <use xlink:href="#DejaVuSans-70" transform="translate(179.882812 0)"/>
      <use xlink:href="#DejaVuSans-68" transform="translate(243.359375 0)"/>
      <use xlink:href="#DejaVuSans-56" transform="translate(306.738281 0)"/>
      <use xlink:href="#DejaVuSans-65" transform="translate(367.396484 0)"/>
      <use xlink:href="#DejaVuSans-6c" transform="translate(428.919922 0)"/>
      <use xlink:href="#DejaVuSans-6f" transform="translate(456.703125 0)"/>
      <use xlink:href="#DejaVuSans-20" transform="translate(517.884766 0)"/>
      <use xlink:href="#DejaVuSans-28" transform="translate(549.671875 0)"/>
      <use xlink:href="#DejaVuSans-73" transform="translate(588.685547 0)"/>
      <use xlink:href="#DejaVuSans-74" transform="translate(640.785156 0)"/>
      <use xlink:href="#DejaVuSans-64" transform="translate(679.994141 0)"/>
      <use xlink:href="#DejaVuSans-29" transform="translate(743.470703 0)"/>
      <use xlink:href="#DejaVuSans-20" transform="translate(782.484375 0)"/>
     </g>
    </g>
   </g>
  </g>
 </g>
 <defs>
  <clipPath id="pbfd80c4dd9">
   <rect x="42.41875" y="11.759062" width="663.35" height="253.44"/>
  </clipPath>
 </defs>
</svg>
