<?xml version="1.0" encoding="utf-8" standalone="no"?>
<!DOCTYPE svg PUBLIC "-//W3C//DTD SVG 1.1//EN"
  "http://www.w3.org/Graphics/SVG/1.1/DTD/svg11.dtd">
<svg xmlns:xlink="http://www.w3.org/1999/xlink" width="352.86pt" height="351.45375pt" viewBox="0 0 352.86 351.45375" xmlns="http://www.w3.org/2000/svg" version="1.1">
 <metadata>
  <rdf:RDF xmlns:dc="http://purl.org/dc/elements/1.1/" xmlns:cc="http://creativecommons.org/ns#" xmlns:rdf="http://www.w3.org/1999/02/22-rdf-syntax-ns#">
   <cc:Work>
    <dc:type rdf:resource="http://purl.org/dc/dcmitype/StillImage"/>
    <dc:date>2026-05-11T23:04:29.153606</dc:date>
    <dc:format>image/svg+xml</dc:format>
    <dc:creator>
     <cc:Agent>
      <dc:title>Matplotlib v3.10.5, https://matplotlib.org/</dc:title>
     </cc:Agent>
    </dc:creator>
   </cc:Work>
  </rdf:RDF>
 </metadata>
 <defs>
  <style type="text/css">*{stroke-linejoin: round; stroke-linecap: butt}</style>
 </defs>
 <g id="figure_1">
  <g id="patch_1">
   <path d="M 0 351.45375 
L 352.86 351.45375 
L 352.86 0 
L 0 0 
z
" style="fill: #ffffff"/>
  </g>
  <g id="axes_1">
   <g id="patch_2">
    <path d="M 30.97 324.14 
L 345.66 324.14 
L 345.66 7.2 
L 30.97 7.2 
z
" style="fill: #ffffff"/>
   </g>
   <g id="matplotlib.axis_1">
    <g id="xtick_1">
     <g id="line2d_1">
      <defs>
       <path id="m9038cd8d4e" d="M 0 0 
L 0 5 
" style="stroke: #000000; stroke-width: 0.8"/>
      </defs>
      <g>
       <use xlink:href="#m9038cd8d4e" x="100.901111" y="324.14" style="stroke: #000000; stroke-width: 0.8"/>
      </g>
     </g>
     <g id="text_1">
      <!-- GD -->
      <g style="fill: #262626" transform="translate(91.632049 341.758125) scale(0.12 -0.12)">
       <defs>
        <path id="DejaVuSans-47" d="M 3809 666 
L 3809 1919 
L 2778 1919 
L 2778 2438 
L 4434 2438 
L 4434 434 
Q 4069 175 3628 42 
Q 3188 -91 2688 -91 
Q 1594 -91 976 548 
Q 359 1188 359 2328 
Q 359 3472 976 4111 
Q 1594 4750 2688 4750 
Q 3144 4750 3555 4637 
Q 3966 4525 4313 4306 
L 4313 3634 
Q 3963 3931 3569 4081 
Q 3175 4231 2741 4231 
Q 1884 4231 1454 3753 
Q 1025 3275 1025 2328 
Q 1025 1384 1454 906 
Q 1884 428 2741 428 
Q 3075 428 3337 486 
Q 3600 544 3809 666 
z
" transform="scale(0.015625)"/>
        <path id="DejaVuSans-44" d="M 1259 4147 
L 1259 519 
L 2022 519 
Q 2988 519 3436 956 
Q 3884 1394 3884 2338 
Q 3884 3275 3436 3711 
Q 2988 4147 2022 4147 
L 1259 4147 
z
M 628 4666 
L 1925 4666 
Q 3281 4666 3915 4102 
Q 4550 3538 4550 2338 
Q 4550 1131 3912 565 
Q 3275 0 1925 0 
L 628 0 
L 628 4666 
z
" transform="scale(0.015625)"/>
       </defs>
       <use xlink:href="#DejaVuSans-47"/>
       <use xlink:href="#DejaVuSans-44" transform="translate(77.490234 0)"/>
      </g>
     </g>
    </g>
    <g id="xtick_2">
     <g id="line2d_2">
      <g>
       <use xlink:href="#m9038cd8d4e" x="275.728889" y="324.14" style="stroke: #000000; stroke-width: 0.8"/>
      </g>
     </g>
     <g id="text_2">
      <!-- w/o GD -->
      <g style="fill: #262626" transform="translate(253.953576 341.758125) scale(0.12 -0.12)">
       <defs>
        <path id="DejaVuSans-77" d="M 269 3500 
L 844 3500 
L 1563 769 
L 2278 3500 
L 2956 3500 
L 3675 769 
L 4391 3500 
L 4966 3500 
L 4050 0 
L 3372 0 
L 2619 2869 
L 1863 0 
L 1184 0 
L 269 3500 
z
" transform="scale(0.015625)"/>
        <path id="DejaVuSans-2f" d="M 1625 4666 
L 2156 4666 
L 531 -594 
L 0 -594 
L 1625 4666 
z
" transform="scale(0.015625)"/>
        <path id="DejaVuSans-6f" d="M 1959 3097 
Q 1497 3097 1228 2736 
Q 959 2375 959 1747 
Q 959 1119 1226 758 
Q 1494 397 1959 397 
Q 2419 397 2687 759 
Q 2956 1122 2956 1747 
Q 2956 2369 2687 2733 
Q 2419 3097 1959 3097 
z
M 1959 3584 
Q 2709 3584 3137 3096 
Q 3566 2609 3566 1747 
Q 3566 888 3137 398 
Q 2709 -91 1959 -91 
Q 1206 -91 779 398 
Q 353 888 353 1747 
Q 353 2609 779 3096 
Q 1206 3584 1959 3584 
z
" transform="scale(0.015625)"/>
        <path id="DejaVuSans-20" transform="scale(0.015625)"/>
       </defs>
       <use xlink:href="#DejaVuSans-77"/>
       <use xlink:href="#DejaVuSans-2f" transform="translate(81.787109 0)"/>
       <use xlink:href="#DejaVuSans-6f" transform="translate(115.478516 0)"/>
       <use xlink:href="#DejaVuSans-20" transform="translate(176.660156 0)"/>
       <use xlink:href="#DejaVuSans-47" transform="translate(208.447266 0)"/>
       <use xlink:href="#DejaVuSans-44" transform="translate(285.9375 0)"/>
      </g>
     </g>
    </g>
   </g>
   <g id="matplotlib.axis_2">
    <g id="ytick_1">
     <g id="line2d_3">
      <defs>
       <path id="m098f438fb2" d="M 0 0 
L -5 0 
" style="stroke: #000000; stroke-width: 0.8"/>
      </defs>
      <g>
       <use xlink:href="#m098f438fb2" x="30.97" y="324.14" style="stroke: #000000; stroke-width: 0.8"/>
      </g>
     </g>
     <g id="text_3">
      <!-- 0 -->
      <g style="fill: #262626" transform="translate(14.835 328.699062) scale(0.12 -0.12)">
       <defs>
        <path id="DejaVuSans-30" d="M 2034 4250 
Q 1547 4250 1301 3770 
Q 1056 3291 1056 2328 
Q 1056 1369 1301 889 
Q 1547 409 2034 409 
Q 2525 409 2770 889 
Q 3016 1369 3016 2328 
Q 3016 3291 2770 3770 
Q 2525 4250 2034 4250 
z
M 2034 4750 
Q 2819 4750 3233 4129 
Q 3647 3509 3647 2328 
Q 3647 1150 3233 529 
Q 2819 -91 2034 -91 
Q 1250 -91 836 529 
Q 422 1150 422 2328 
Q 422 3509 836 4129 
Q 1250 4750 2034 4750 
z
" transform="scale(0.015625)"/>
       </defs>
       <use xlink:href="#DejaVuSans-30"/>
      </g>
     </g>
    </g>
    <g id="ytick_2">
     <g id="line2d_4">
      <g>
       <use xlink:href="#m098f438fb2" x="30.97" y="266.514545" style="stroke: #000000; stroke-width: 0.8"/>
      </g>
     </g>
     <g id="text_4">
      <!-- 5 -->
      <g style="fill: #262626" transform="translate(14.835 271.073608) scale(0.12 -0.12)">
       <defs>
        <path id="DejaVuSans-35" d="M 691 4666 
L 3169 4666 
L 3169 4134 
L 1269 4134 
L 1269 2991 
Q 1406 3038 1543 3061 
Q 1681 3084 1819 3084 
Q 2600 3084 3056 2656 
Q 3513 2228 3513 1497 
Q 3513 744 3044 326 
Q 2575 -91 1722 -91 
Q 1428 -91 1123 -41 
Q 819 9 494 109 
L 494 744 
Q 775 591 1075 516 
Q 1375 441 1709 441 
Q 2250 441 2565 725 
Q 2881 1009 2881 1497 
Q 2881 1984 2565 2268 
Q 2250 2553 1709 2553 
Q 1456 2553 1204 2497 
Q 953 2441 691 2322 
L 691 4666 
z
" transform="scale(0.015625)"/>
       </defs>
       <use xlink:href="#DejaVuSans-35"/>
      </g>
     </g>
    </g>
    <g id="ytick_3">
     <g id="line2d_5">
      <g>
       <use xlink:href="#m098f438fb2" x="30.97" y="208.889091" style="stroke: #000000; stroke-width: 0.8"/>
      </g>
     </g>
     <g id="text_5">
      <!-- 10 -->
      <g style="fill: #262626" transform="translate(7.2 213.448153) scale(0.12 -0.12)">
       <defs>
        <path id="DejaVuSans-31" d="M 794 531 
L 1825 531 
L 1825 4091 
L 703 3866 
L 703 4441 
L 1819 4666 
L 2450 4666 
L 2450 531 
L 3481 531 
L 3481 0 
L 794 0 
L 794 531 
z
" transform="scale(0.015625)"/>
       </defs>
       <use xlink:href="#DejaVuSans-31"/>
       <use xlink:href="#DejaVuSans-30" transform="translate(63.623047 0)"/>
      </g>
     </g>
    </g>
    <g id="ytick_4">
     <g id="line2d_6">
      <g>
       <use xlink:href="#m098f438fb2" x="30.97" y="151.263636" style="stroke: #000000; stroke-width: 0.8"/>
      </g>
     </g>
     <g id="text_6">
      <!-- 15 -->
      <g style="fill: #262626" transform="translate(7.2 155.822699) scale(0.12 -0.12)">
       <use xlink:href="#DejaVuSans-31"/>
       <use xlink:href="#DejaVuSans-35" transform="translate(63.623047 0)"/>
      </g>
     </g>
    </g>
    <g id="ytick_5">
     <g id="line2d_7">
      <g>
       <use xlink:href="#m098f438fb2" x="30.97" y="93.638182" style="stroke: #000000; stroke-width: 0.8"/>
      </g>
     </g>
     <g id="text_7">
      <!-- 20 -->
      <g style="fill: #262626" transform="translate(7.2 98.197244) scale(0.12 -0.12)">
       <defs>
        <path id="DejaVuSans-32" d="M 1228 531 
L 3431 531 
L 3431 0 
L 469 0 
L 469 531 
Q 828 903 1448 1529 
Q 2069 2156 2228 2338 
Q 2531 2678 2651 2914 
Q 2772 3150 2772 3378 
Q 2772 3750 2511 3984 
Q 2250 4219 1831 4219 
Q 1534 4219 1204 4116 
Q 875 4013 500 3803 
L 500 4441 
Q 881 4594 1212 4672 
Q 1544 4750 1819 4750 
Q 2544 4750 2975 4387 
Q 3406 4025 3406 3419 
Q 3406 3131 3298 2873 
Q 3191 2616 2906 2266 
Q 2828 2175 2409 1742 
Q 1991 1309 1228 531 
z
" transform="scale(0.015625)"/>
       </defs>
       <use xlink:href="#DejaVuSans-32"/>
       <use xlink:href="#DejaVuSans-30" transform="translate(63.623047 0)"/>
      </g>
     </g>
    </g>
    <g id="ytick_6">
     <g id="line2d_8">
      <g>
       <use xlink:href="#m098f438fb2" x="30.97" y="36.012727" style="stroke: #000000; stroke-width: 0.8"/>
      </g>
     </g>
     <g id="text_8">
      <!-- 25 -->
      <g style="fill: #262626" transform="translate(7.2 40.57179) scale(0.12 -0.12)">
       <use xlink:href="#DejaVuSans-32"/>
       <use xlink:href="#DejaVuSans-35" transform="translate(63.623047 0)"/>
      </g>
     </g>
    </g>
   </g>
   <g id="patch_3">
    <path d="M 61.564861 226.176727 
L 140.237361 226.176727 
L 140.237361 105.163273 
L 61.564861 105.163273 
L 61.564861 226.176727 
z
" clip-path="url(#p2b33b4dbda)" style="fill: #b28c6e; stroke: #000000; stroke-linejoin: miter"/>
   </g>
   <g id="line2d_9">
    <path d="M 100.901111 226.176727 
L 100.901111 301.089818 
" clip-path="url(#p2b33b4dbda)" style="fill: none; stroke: #000000"/>
   </g>
   <g id="line2d_10">
    <path d="M 100.901111 105.163273 
L 100.901111 36.012727 
" clip-path="url(#p2b33b4dbda)" style="fill: none; stroke: #000000"/>
   </g>
   <g id="line2d_11">
    <path d="M 81.232986 301.089818 
L 120.569236 301.089818 
" clip-path="url(#p2b33b4dbda)" style="fill: none; stroke: #000000; stroke-linecap: round"/>
   </g>
   <g id="line2d_12">
    <path d="M 81.232986 36.012727 
L 120.569236 36.012727 
" clip-path="url(#p2b33b4dbda)" style="fill: none; stroke: #000000; stroke-linecap: round"/>
   </g>
   <g id="patch_4">
    <path d="M 236.392639 240.583091 
L 315.065139 240.583091 
L 315.065139 119.569636 
L 236.392639 119.569636 
L 236.392639 240.583091 
z
" clip-path="url(#p2b33b4dbda)" style="fill: #f4dbb2; stroke: #000000; stroke-linejoin: miter"/>
   </g>
   <g id="line2d_13">
    <path d="M 275.728889 240.583091 
L 275.728889 312.614909 
" clip-path="url(#p2b33b4dbda)" style="fill: none; stroke: #000000"/>
   </g>
   <g id="line2d_14">
    <path d="M 275.728889 119.569636 
L 275.728889 70.588 
" clip-path="url(#p2b33b4dbda)" style="fill: none; stroke: #000000"/>
   </g>
   <g id="line2d_15">
    <path d="M 256.060764 312.614909 
L 295.397014 312.614909 
" clip-path="url(#p2b33b4dbda)" style="fill: none; stroke: #000000; stroke-linecap: round"/>
   </g>
   <g id="line2d_16">
    <path d="M 256.060764 70.588 
L 295.397014 70.588 
" clip-path="url(#p2b33b4dbda)" style="fill: none; stroke: #000000; stroke-linecap: round"/>
   </g>
   <g id="line2d_17">
    <path d="M 100.901111 30.826436 
L 100.901111 27.368909 
L 275.728889 27.368909 
L 275.728889 30.826436 
" clip-path="url(#p2b33b4dbda)" style="fill: none; stroke: #000000; stroke-width: 1.4; stroke-linecap: round"/>
   </g>
   <g id="line2d_18">
    <path d="M 61.564861 151.263636 
L 140.237361 151.263636 
" clip-path="url(#p2b33b4dbda)" style="fill: none; stroke: #000000"/>
   </g>
   <g id="line2d_19">
    <path d="M 236.392639 214.651636 
L 315.065139 214.651636 
" clip-path="url(#p2b33b4dbda)" style="fill: none; stroke: #000000"/>
   </g>
   <g id="patch_5">
    <path d="M 30.97 324.14 
L 30.97 7.2 
" style="fill: none; stroke: #000000; stroke-linejoin: miter; stroke-linecap: square"/>
   </g>
   <g id="patch_6">
    <path d="M 345.66 324.14 
L 345.66 7.2 
" style="fill: none; stroke: #000000; stroke-linejoin: miter; stroke-linecap: square"/>
   </g>
   <g id="patch_7">
    <path d="M 30.97 324.14 
L 345.66 324.14 
" style="fill: none; stroke: #000000; stroke-linejoin: miter; stroke-linecap: square"/>
   </g>
   <g id="patch_8">
    <path d="M 30.97 7.2 
L 345.66 7.2 
" style="fill: none; stroke: #000000; stroke-linejoin: miter; stroke-linecap: square"/>
   </g>
   <g id="PathCollection_1">
    <defs>
     <path id="m08a8e600d3" d="M 0 2 
C 0.530406 2 1.03916 1.789267 1.414214 1.414214 
C 1.789267 1.03916 2 0.530406 2 0 
C 2 -0.530406 1.789267 -1.03916 1.414214 -1.414214 
C 1.03916 -1.789267 0.530406 -2 0 -2 
C -0.530406 -2 -1.03916 -1.789267 -1.414214 -1.414214 
C -1.789267 -1.03916 -2 -0.530406 -2 0 
C -2 0.530406 -1.789267 1.03916 -1.414214 1.414214 
C -1.03916 1.789267 -0.530406 2 0 2 
z
"/>
    </defs>
    <g clip-path="url(#p2b33b4dbda)">
     <use xlink:href="#m08a8e600d3" x="116.627561" y="301.089818" style="fill-opacity: 0.65"/>
     <use xlink:href="#m08a8e600d3" x="108.712002" y="289.564727" style="fill-opacity: 0.65"/>
     <use xlink:href="#m08a8e600d3" x="116.112205" y="278.039636" style="fill-opacity: 0.65"/>
     <use xlink:href="#m08a8e600d3" x="107.002961" y="254.989455" style="fill-opacity: 0.65"/>
     <use xlink:href="#m08a8e600d3" x="81.963021" y="197.364" style="fill-opacity: 0.65"/>
     <use xlink:href="#m08a8e600d3" x="90.122298" y="185.838909" style="fill-opacity: 0.65"/>
     <use xlink:href="#m08a8e600d3" x="94.7678" y="174.313818" style="fill-opacity: 0.65"/>
     <use xlink:href="#m08a8e600d3" x="90.305621" y="151.263636" style="fill-opacity: 0.65"/>
     <use xlink:href="#m08a8e600d3" x="118.529212" y="139.738545" style="fill-opacity: 0.65"/>
     <use xlink:href="#m08a8e600d3" x="108.451689" y="128.213455" style="fill-opacity: 0.65"/>
     <use xlink:href="#m08a8e600d3" x="87.93817" y="116.688364" style="fill-opacity: 0.65"/>
     <use xlink:href="#m08a8e600d3" x="109.091079" y="93.638182" style="fill-opacity: 0.65"/>
     <use xlink:href="#m08a8e600d3" x="115.817942" y="59.062909" style="fill-opacity: 0.65"/>
     <use xlink:href="#m08a8e600d3" x="86.388503" y="47.537818" style="fill-opacity: 0.65"/>
     <use xlink:href="#m08a8e600d3" x="81.739439" y="36.012727" style="fill-opacity: 0.65"/>
    </g>
   </g>
   <g id="PathCollection_2">
    <g clip-path="url(#p2b33b4dbda)">
     <use xlink:href="#m08a8e600d3" x="264.233023" y="312.614909" style="fill-opacity: 0.65"/>
     <use xlink:href="#m08a8e600d3" x="278.536856" y="266.514545" style="fill-opacity: 0.65"/>
     <use xlink:href="#m08a8e600d3" x="265.380795" y="243.464364" style="fill-opacity: 0.65"/>
     <use xlink:href="#m08a8e600d3" x="287.949015" y="231.939273" style="fill-opacity: 0.65"/>
     <use xlink:href="#m08a8e600d3" x="278.193123" y="220.414182" style="fill-opacity: 0.65"/>
     <use xlink:href="#m08a8e600d3" x="280.641514" y="208.889091" style="fill-opacity: 0.65"/>
     <use xlink:href="#m08a8e600d3" x="269.379126" y="162.788727" style="fill-opacity: 0.65"/>
     <use xlink:href="#m08a8e600d3" x="294.556377" y="105.163273" style="fill-opacity: 0.65"/>
     <use xlink:href="#m08a8e600d3" x="261.456818" y="82.113091" style="fill-opacity: 0.65"/>
     <use xlink:href="#m08a8e600d3" x="291.450784" y="70.588" style="fill-opacity: 0.65"/>
    </g>
   </g>
   <g id="text_9">
    <!-- n.s. -->
    <g style="fill: #262626" transform="translate(177.573125 21.606364) scale(0.12 -0.12)">
     <defs>
      <path id="DejaVuSans-6e" d="M 3513 2113 
L 3513 0 
L 2938 0 
L 2938 2094 
Q 2938 2591 2744 2837 
Q 2550 3084 2163 3084 
Q 1697 3084 1428 2787 
Q 1159 2491 1159 1978 
L 1159 0 
L 581 0 
L 581 3500 
L 1159 3500 
L 1159 2956 
Q 1366 3272 1645 3428 
Q 1925 3584 2291 3584 
Q 2894 3584 3203 3211 
Q 3513 2838 3513 2113 
z
" transform="scale(0.015625)"/>
      <path id="DejaVuSans-2e" d="M 684 794 
L 1344 794 
L 1344 0 
L 684 0 
L 684 794 
z
" transform="scale(0.015625)"/>
      <path id="DejaVuSans-73" d="M 2834 3397 
L 2834 2853 
Q 2591 2978 2328 3040 
Q 2066 3103 1784 3103 
Q 1356 3103 1142 2972 
Q 928 2841 928 2578 
Q 928 2378 1081 2264 
Q 1234 2150 1697 2047 
L 1894 2003 
Q 2506 1872 2764 1633 
Q 3022 1394 3022 966 
Q 3022 478 2636 193 
Q 2250 -91 1575 -91 
Q 1294 -91 989 -36 
Q 684 19 347 128 
L 347 722 
Q 666 556 975 473 
Q 1284 391 1588 391 
Q 1994 391 2212 530 
Q 2431 669 2431 922 
Q 2431 1156 2273 1281 
Q 2116 1406 1581 1522 
L 1381 1569 
Q 847 1681 609 1914 
Q 372 2147 372 2553 
Q 372 3047 722 3315 
Q 1072 3584 1716 3584 
Q 2034 3584 2315 3537 
Q 2597 3491 2834 3397 
z
" transform="scale(0.015625)"/>
     </defs>
     <use xlink:href="#DejaVuSans-6e"/>
     <use xlink:href="#DejaVuSans-2e" transform="translate(63.378906 0)"/>
     <use xlink:href="#DejaVuSans-73" transform="translate(95.166016 0)"/>
     <use xlink:href="#DejaVuSans-2e" transform="translate(147.265625 0)"/>
    </g>
   </g>
  </g>
 </g>
 <defs>
  <clipPath id="p2b33b4dbda">
   <rect x="30.97" y="7.2" width="314.69" height="316.94"/>
  </clipPath>
 </defs>
</svg>
