<?xml version="1.0" encoding="utf-8" standalone="no"?>
<!DOCTYPE svg PUBLIC "-//W3C//DTD SVG 1.1//EN"
  "http://www.w3.org/Graphics/SVG/1.1/DTD/svg11.dtd">
<svg xmlns:xlink="http://www.w3.org/1999/xlink" width="352.86pt" height="351.45375pt" viewBox="0 0 352.86 351.45375" xmlns="http://www.w3.org/2000/svg" version="1.1">
 <metadata>
  <rdf:RDF xmlns:dc="http://purl.org/dc/elements/1.1/" xmlns:cc="http://creativecommons.org/ns#" xmlns:rdf="http://www.w3.org/1999/02/22-rdf-syntax-ns#">
   <cc:Work>
    <dc:type rdf:resource="http://purl.org/dc/dcmitype/StillImage"/>
    <dc:date>2026-05-11T23:04:29.385517</dc:date>
    <dc:format>image/svg+xml</dc:format>
    <dc:creator>
     <cc:Agent>
      <dc:title>Matplotlib v3.10.5, https://matplotlib.org/</dc:title>
     </cc:Agent>
    </dc:creator>
   </cc:Work>
  </rdf:RDF>
 </metadata>
 <defs>
  <style type="text/css">*{stroke-linejoin: round; stroke-linecap: butt}</style>
 </defs>
 <g id="figure_1">
  <g id="patch_1">
   <path d="M 0 351.45375 
L 352.86 351.45375 
L 352.86 0 
L 0 0 
z
" style="fill: #ffffff"/>
  </g>
  <g id="axes_1">
   <g id="patch_2">
    <path d="M 30.97 324.14 
L 345.66 324.14 
L 345.66 7.2 
L 30.97 7.2 
z
" style="fill: #ffffff"/>
   </g>
   <g id="matplotlib.axis_1">
    <g id="xtick_1">
     <g id="line2d_1">
      <defs>
       <path id="m7bdded316c" d="M 0 0 
L 0 5 
" style="stroke: #000000; stroke-width: 0.8"/>
      </defs>
      <g>
       <use xlink:href="#m7bdded316c" x="100.901111" y="324.14" style="stroke: #000000; stroke-width: 0.8"/>
      </g>
     </g>
     <g id="text_1">
      <!-- GD -->
      <g style="fill: #262626" transform="translate(91.632049 341.758125) scale(0.12 -0.12)">
       <defs>
        <path id="DejaVuSans-47" d="M 3809 666 
L 3809 1919 
L 2778 1919 
L 2778 2438 
L 4434 2438 
L 4434 434 
Q 4069 175 3628 42 
Q 3188 -91 2688 -91 
Q 1594 -91 976 548 
Q 359 1188 359 2328 
Q 359 3472 976 4111 
Q 1594 4750 2688 4750 
Q 3144 4750 3555 4637 
Q 3966 4525 4313 4306 
L 4313 3634 
Q 3963 3931 3569 4081 
Q 3175 4231 2741 4231 
Q 1884 4231 1454 3753 
Q 1025 3275 1025 2328 
Q 1025 1384 1454 906 
Q 1884 428 2741 428 
Q 3075 428 3337 486 
Q 3600 544 3809 666 
z
" transform="scale(0.015625)"/>
        <path id="DejaVuSans-44" d="M 1259 4147 
L 1259 519 
L 2022 519 
Q 2988 519 3436 956 
Q 3884 1394 3884 2338 
Q 3884 3275 3436 3711 
Q 2988 4147 2022 4147 
L 1259 4147 
z
M 628 4666 
L 1925 4666 
Q 3281 4666 3915 4102 
Q 4550 3538 4550 2338 
Q 4550 1131 3912 565 
Q 3275 0 1925 0 
L 628 0 
L 628 4666 
z
" transform="scale(0.015625)"/>
       </defs>
       <use xlink:href="#DejaVuSans-47"/>
       <use xlink:href="#DejaVuSans-44" transform="translate(77.490234 0)"/>
      </g>
     </g>
    </g>
    <g id="xtick_2">
     <g id="line2d_2">
      <g>
       <use xlink:href="#m7bdded316c" x="275.728889" y="324.14" style="stroke: #000000; stroke-width: 0.8"/>
      </g>
     </g>
     <g id="text_2">
      <!-- w/o GD -->
      <g style="fill: #262626" transform="translate(253.953576 341.758125) scale(0.12 -0.12)">
       <defs>
        <path id="DejaVuSans-77" d="M 269 3500 
L 844 3500 
L 1563 769 
L 2278 3500 
L 2956 3500 
L 3675 769 
L 4391 3500 
L 4966 3500 
L 4050 0 
L 3372 0 
L 2619 2869 
L 1863 0 
L 1184 0 
L 269 3500 
z
" transform="scale(0.015625)"/>
        <path id="DejaVuSans-2f" d="M 1625 4666 
L 2156 4666 
L 531 -594 
L 0 -594 
L 1625 4666 
z
" transform="scale(0.015625)"/>
        <path id="DejaVuSans-6f" d="M 1959 3097 
Q 1497 3097 1228 2736 
Q 959 2375 959 1747 
Q 959 1119 1226 758 
Q 1494 397 1959 397 
Q 2419 397 2687 759 
Q 2956 1122 2956 1747 
Q 2956 2369 2687 2733 
Q 2419 3097 1959 3097 
z
M 1959 3584 
Q 2709 3584 3137 3096 
Q 3566 2609 3566 1747 
Q 3566 888 3137 398 
Q 2709 -91 1959 -91 
Q 1206 -91 779 398 
Q 353 888 353 1747 
Q 353 2609 779 3096 
Q 1206 3584 1959 3584 
z
" transform="scale(0.015625)"/>
        <path id="DejaVuSans-20" transform="scale(0.015625)"/>
       </defs>
       <use xlink:href="#DejaVuSans-77"/>
       <use xlink:href="#DejaVuSans-2f" transform="translate(81.787109 0)"/>
       <use xlink:href="#DejaVuSans-6f" transform="translate(115.478516 0)"/>
       <use xlink:href="#DejaVuSans-20" transform="translate(176.660156 0)"/>
       <use xlink:href="#DejaVuSans-47" transform="translate(208.447266 0)"/>
       <use xlink:href="#DejaVuSans-44" transform="translate(285.9375 0)"/>
      </g>
     </g>
    </g>
   </g>
   <g id="matplotlib.axis_2">
    <g id="ytick_1">
     <g id="line2d_3">
      <defs>
       <path id="m20e318540f" d="M 0 0 
L -5 0 
" style="stroke: #000000; stroke-width: 0.8"/>
      </defs>
      <g>
       <use xlink:href="#m20e318540f" x="30.97" y="324.14" style="stroke: #000000; stroke-width: 0.8"/>
      </g>
     </g>
     <g id="text_3">
      <!-- 0 -->
      <g style="fill: #262626" transform="translate(14.835 328.699062) scale(0.12 -0.12)">
       <defs>
        <path id="DejaVuSans-30" d="M 2034 4250 
Q 1547 4250 1301 3770 
Q 1056 3291 1056 2328 
Q 1056 1369 1301 889 
Q 1547 409 2034 409 
Q 2525 409 2770 889 
Q 3016 1369 3016 2328 
Q 3016 3291 2770 3770 
Q 2525 4250 2034 4250 
z
M 2034 4750 
Q 2819 4750 3233 4129 
Q 3647 3509 3647 2328 
Q 3647 1150 3233 529 
Q 2819 -91 2034 -91 
Q 1250 -91 836 529 
Q 422 1150 422 2328 
Q 422 3509 836 4129 
Q 1250 4750 2034 4750 
z
" transform="scale(0.015625)"/>
       </defs>
       <use xlink:href="#DejaVuSans-30"/>
      </g>
     </g>
    </g>
    <g id="ytick_2">
     <g id="line2d_4">
      <g>
       <use xlink:href="#m20e318540f" x="30.97" y="266.514545" style="stroke: #000000; stroke-width: 0.8"/>
      </g>
     </g>
     <g id="text_4">
      <!-- 5 -->
      <g style="fill: #262626" transform="translate(14.835 271.073608) scale(0.12 -0.12)">
       <defs>
        <path id="DejaVuSans-35" d="M 691 4666 
L 3169 4666 
L 3169 4134 
L 1269 4134 
L 1269 2991 
Q 1406 3038 1543 3061 
Q 1681 3084 1819 3084 
Q 2600 3084 3056 2656 
Q 3513 2228 3513 1497 
Q 3513 744 3044 326 
Q 2575 -91 1722 -91 
Q 1428 -91 1123 -41 
Q 819 9 494 109 
L 494 744 
Q 775 591 1075 516 
Q 1375 441 1709 441 
Q 2250 441 2565 725 
Q 2881 1009 2881 1497 
Q 2881 1984 2565 2268 
Q 2250 2553 1709 2553 
Q 1456 2553 1204 2497 
Q 953 2441 691 2322 
L 691 4666 
z
" transform="scale(0.015625)"/>
       </defs>
       <use xlink:href="#DejaVuSans-35"/>
      </g>
     </g>
    </g>
    <g id="ytick_3">
     <g id="line2d_5">
      <g>
       <use xlink:href="#m20e318540f" x="30.97" y="208.889091" style="stroke: #000000; stroke-width: 0.8"/>
      </g>
     </g>
     <g id="text_5">
      <!-- 10 -->
      <g style="fill: #262626" transform="translate(7.2 213.448153) scale(0.12 -0.12)">
       <defs>
        <path id="DejaVuSans-31" d="M 794 531 
L 1825 531 
L 1825 4091 
L 703 3866 
L 703 4441 
L 1819 4666 
L 2450 4666 
L 2450 531 
L 3481 531 
L 3481 0 
L 794 0 
L 794 531 
z
" transform="scale(0.015625)"/>
       </defs>
       <use xlink:href="#DejaVuSans-31"/>
       <use xlink:href="#DejaVuSans-30" transform="translate(63.623047 0)"/>
      </g>
     </g>
    </g>
    <g id="ytick_4">
     <g id="line2d_6">
      <g>
       <use xlink:href="#m20e318540f" x="30.97" y="151.263636" style="stroke: #000000; stroke-width: 0.8"/>
      </g>
     </g>
     <g id="text_6">
      <!-- 15 -->
      <g style="fill: #262626" transform="translate(7.2 155.822699) scale(0.12 -0.12)">
       <use xlink:href="#DejaVuSans-31"/>
       <use xlink:href="#DejaVuSans-35" transform="translate(63.623047 0)"/>
      </g>
     </g>
    </g>
    <g id="ytick_5">
     <g id="line2d_7">
      <g>
       <use xlink:href="#m20e318540f" x="30.97" y="93.638182" style="stroke: #000000; stroke-width: 0.8"/>
      </g>
     </g>
     <g id="text_7">
      <!-- 20 -->
      <g style="fill: #262626" transform="translate(7.2 98.197244) scale(0.12 -0.12)">
       <defs>
        <path id="DejaVuSans-32" d="M 1228 531 
L 3431 531 
L 3431 0 
L 469 0 
L 469 531 
Q 828 903 1448 1529 
Q 2069 2156 2228 2338 
Q 2531 2678 2651 2914 
Q 2772 3150 2772 3378 
Q 2772 3750 2511 3984 
Q 2250 4219 1831 4219 
Q 1534 4219 1204 4116 
Q 875 4013 500 3803 
L 500 4441 
Q 881 4594 1212 4672 
Q 1544 4750 1819 4750 
Q 2544 4750 2975 4387 
Q 3406 4025 3406 3419 
Q 3406 3131 3298 2873 
Q 3191 2616 2906 2266 
Q 2828 2175 2409 1742 
Q 1991 1309 1228 531 
z
" transform="scale(0.015625)"/>
       </defs>
       <use xlink:href="#DejaVuSans-32"/>
       <use xlink:href="#DejaVuSans-30" transform="translate(63.623047 0)"/>
      </g>
     </g>
    </g>
    <g id="ytick_6">
     <g id="line2d_8">
      <g>
       <use xlink:href="#m20e318540f" x="30.97" y="36.012727" style="stroke: #000000; stroke-width: 0.8"/>
      </g>
     </g>
     <g id="text_8">
      <!-- 25 -->
      <g style="fill: #262626" transform="translate(7.2 40.57179) scale(0.12 -0.12)">
       <use xlink:href="#DejaVuSans-32"/>
       <use xlink:href="#DejaVuSans-35" transform="translate(63.623047 0)"/>
      </g>
     </g>
    </g>
   </g>
   <g id="patch_3">
    <path d="M 61.564861 272.277091 
L 140.237361 272.277091 
L 140.237361 180.076364 
L 61.564861 180.076364 
L 61.564861 272.277091 
z
" clip-path="url(#p4d453c4b8c)" style="fill: #b28c6e; stroke: #000000; stroke-linejoin: miter"/>
   </g>
   <g id="line2d_9">
    <path d="M 100.901111 272.277091 
L 100.901111 312.614909 
" clip-path="url(#p4d453c4b8c)" style="fill: none; stroke: #000000"/>
   </g>
   <g id="line2d_10">
    <path d="M 100.901111 180.076364 
L 100.901111 116.688364 
" clip-path="url(#p4d453c4b8c)" style="fill: none; stroke: #000000"/>
   </g>
   <g id="line2d_11">
    <path d="M 81.232986 312.614909 
L 120.569236 312.614909 
" clip-path="url(#p4d453c4b8c)" style="fill: none; stroke: #000000; stroke-linecap: round"/>
   </g>
   <g id="line2d_12">
    <path d="M 81.232986 116.688364 
L 120.569236 116.688364 
" clip-path="url(#p4d453c4b8c)" style="fill: none; stroke: #000000; stroke-linecap: round"/>
   </g>
   <g id="patch_4">
    <path d="M 236.392639 139.738545 
L 315.065139 139.738545 
L 315.065139 61.944182 
L 236.392639 61.944182 
L 236.392639 139.738545 
z
" clip-path="url(#p4d453c4b8c)" style="fill: #f4dbb2; stroke: #000000; stroke-linejoin: miter"/>
   </g>
   <g id="line2d_13">
    <path d="M 275.728889 139.738545 
L 275.728889 208.889091 
" clip-path="url(#p4d453c4b8c)" style="fill: none; stroke: #000000"/>
   </g>
   <g id="line2d_14">
    <path d="M 275.728889 61.944182 
L 275.728889 36.012727 
" clip-path="url(#p4d453c4b8c)" style="fill: none; stroke: #000000"/>
   </g>
   <g id="line2d_15">
    <path d="M 256.060764 208.889091 
L 295.397014 208.889091 
" clip-path="url(#p4d453c4b8c)" style="fill: none; stroke: #000000; stroke-linecap: round"/>
   </g>
   <g id="line2d_16">
    <path d="M 256.060764 36.012727 
L 295.397014 36.012727 
" clip-path="url(#p4d453c4b8c)" style="fill: none; stroke: #000000; stroke-linecap: round"/>
   </g>
   <g id="line2d_17">
    <path d="M 100.901111 30.826436 
L 100.901111 27.368909 
L 275.728889 27.368909 
L 275.728889 30.826436 
" clip-path="url(#p4d453c4b8c)" style="fill: none; stroke: #000000; stroke-width: 1.4; stroke-linecap: round"/>
   </g>
   <g id="line2d_18">
    <path d="M 61.564861 231.939273 
L 140.237361 231.939273 
" clip-path="url(#p4d453c4b8c)" style="fill: none; stroke: #000000"/>
   </g>
   <g id="line2d_19">
    <path d="M 236.392639 87.875636 
L 315.065139 87.875636 
" clip-path="url(#p4d453c4b8c)" style="fill: none; stroke: #000000"/>
   </g>
   <g id="patch_5">
    <path d="M 30.97 324.14 
L 30.97 7.2 
" style="fill: none; stroke: #000000; stroke-linejoin: miter; stroke-linecap: square"/>
   </g>
   <g id="patch_6">
    <path d="M 345.66 324.14 
L 345.66 7.2 
" style="fill: none; stroke: #000000; stroke-linejoin: miter; stroke-linecap: square"/>
   </g>
   <g id="patch_7">
    <path d="M 30.97 324.14 
L 345.66 324.14 
" style="fill: none; stroke: #000000; stroke-linejoin: miter; stroke-linecap: square"/>
   </g>
   <g id="patch_8">
    <path d="M 30.97 7.2 
L 345.66 7.2 
" style="fill: none; stroke: #000000; stroke-linejoin: miter; stroke-linecap: square"/>
   </g>
   <g id="PathCollection_1">
    <defs>
     <path id="m5122d4cfc4" d="M 0 2 
C 0.530406 2 1.03916 1.789267 1.414214 1.414214 
C 1.789267 1.03916 2 0.530406 2 0 
C 2 -0.530406 1.789267 -1.03916 1.414214 -1.414214 
C 1.03916 -1.789267 0.530406 -2 0 -2 
C -0.530406 -2 -1.03916 -1.789267 -1.414214 -1.414214 
C -1.789267 -1.03916 -2 -0.530406 -2 0 
C -2 0.530406 -1.789267 1.03916 -1.414214 1.414214 
C -1.03916 1.789267 -0.530406 2 0 2 
z
"/>
    </defs>
    <g clip-path="url(#p4d453c4b8c)">
     <use xlink:href="#m5122d4cfc4" x="115.131291" y="312.614909" style="fill-opacity: 0.65"/>
     <use xlink:href="#m5122d4cfc4" x="112.3388" y="301.089818" style="fill-opacity: 0.65"/>
     <use xlink:href="#m5122d4cfc4" x="108.269181" y="289.564727" style="fill-opacity: 0.65"/>
     <use xlink:href="#m5122d4cfc4" x="82.259922" y="278.039636" style="fill-opacity: 0.65"/>
     <use xlink:href="#m5122d4cfc4" x="110.700042" y="266.514545" style="fill-opacity: 0.65"/>
     <use xlink:href="#m5122d4cfc4" x="83.416312" y="254.989455" style="fill-opacity: 0.65"/>
     <use xlink:href="#m5122d4cfc4" x="104.092493" y="243.464364" style="fill-opacity: 0.65"/>
     <use xlink:href="#m5122d4cfc4" x="99.476161" y="231.939273" style="fill-opacity: 0.65"/>
     <use xlink:href="#m5122d4cfc4" x="100.569319" y="220.414182" style="fill-opacity: 0.65"/>
     <use xlink:href="#m5122d4cfc4" x="115.896897" y="197.364" style="fill-opacity: 0.65"/>
     <use xlink:href="#m5122d4cfc4" x="105.666808" y="185.838909" style="fill-opacity: 0.65"/>
     <use xlink:href="#m5122d4cfc4" x="105.199531" y="174.313818" style="fill-opacity: 0.65"/>
     <use xlink:href="#m5122d4cfc4" x="98.711291" y="139.738545" style="fill-opacity: 0.65"/>
     <use xlink:href="#m5122d4cfc4" x="105.04927" y="128.213455" style="fill-opacity: 0.65"/>
     <use xlink:href="#m5122d4cfc4" x="84.529428" y="116.688364" style="fill-opacity: 0.65"/>
    </g>
   </g>
   <g id="PathCollection_2">
    <g clip-path="url(#p4d453c4b8c)">
     <use xlink:href="#m5122d4cfc4" x="275.595541" y="208.889091" style="fill-opacity: 0.65"/>
     <use xlink:href="#m5122d4cfc4" x="288.307078" y="162.788727" style="fill-opacity: 0.65"/>
     <use xlink:href="#m5122d4cfc4" x="276.955289" y="151.263636" style="fill-opacity: 0.65"/>
     <use xlink:href="#m5122d4cfc4" x="296.289152" y="105.163273" style="fill-opacity: 0.65"/>
     <use xlink:href="#m5122d4cfc4" x="266.151197" y="93.638182" style="fill-opacity: 0.65"/>
     <use xlink:href="#m5122d4cfc4" x="263.647085" y="82.113091" style="fill-opacity: 0.65"/>
     <use xlink:href="#m5122d4cfc4" x="285.531068" y="70.588" style="fill-opacity: 0.65"/>
     <use xlink:href="#m5122d4cfc4" x="269.702846" y="59.062909" style="fill-opacity: 0.65"/>
     <use xlink:href="#m5122d4cfc4" x="259.145755" y="47.537818" style="fill-opacity: 0.65"/>
     <use xlink:href="#m5122d4cfc4" x="268.130511" y="36.012727" style="fill-opacity: 0.65"/>
    </g>
   </g>
   <g id="text_9">
    <!-- *** -->
    <g style="fill: #262626" transform="translate(179.315 24.487636) scale(0.12 -0.12)">
     <defs>
      <path id="DejaVuSans-2a" d="M 3009 3897 
L 1888 3291 
L 3009 2681 
L 2828 2375 
L 1778 3009 
L 1778 1831 
L 1422 1831 
L 1422 3009 
L 372 2375 
L 191 2681 
L 1313 3291 
L 191 3897 
L 372 4206 
L 1422 3572 
L 1422 4750 
L 1778 4750 
L 1778 3572 
L 2828 4206 
L 3009 3897 
z
" transform="scale(0.015625)"/>
     </defs>
     <use xlink:href="#DejaVuSans-2a"/>
     <use xlink:href="#DejaVuSans-2a" transform="translate(50 0)"/>
     <use xlink:href="#DejaVuSans-2a" transform="translate(100 0)"/>
    </g>
   </g>
  </g>
 </g>
 <defs>
  <clipPath id="p4d453c4b8c">
   <rect x="30.97" y="7.2" width="314.69" height="316.94"/>
  </clipPath>
 </defs>
</svg>
