<?xml version="1.0" encoding="utf-8" standalone="no"?>
<!DOCTYPE svg PUBLIC "-//W3C//DTD SVG 1.1//EN"
  "http://www.w3.org/Graphics/SVG/1.1/DTD/svg11.dtd">
<svg xmlns:xlink="http://www.w3.org/1999/xlink" width="352.86pt" height="351.45375pt" viewBox="0 0 352.86 351.45375" xmlns="http://www.w3.org/2000/svg" version="1.1">
 <metadata>
  <rdf:RDF xmlns:dc="http://purl.org/dc/elements/1.1/" xmlns:cc="http://creativecommons.org/ns#" xmlns:rdf="http://www.w3.org/1999/02/22-rdf-syntax-ns#">
   <cc:Work>
    <dc:type rdf:resource="http://purl.org/dc/dcmitype/StillImage"/>
    <dc:date>2025-12-22T17:41:39.123407</dc:date>
    <dc:format>image/svg+xml</dc:format>
    <dc:creator>
     <cc:Agent>
      <dc:title>Matplotlib v3.10.5, https://matplotlib.org/</dc:title>
     </cc:Agent>
    </dc:creator>
   </cc:Work>
  </rdf:RDF>
 </metadata>
 <defs>
  <style type="text/css">*{stroke-linejoin: round; stroke-linecap: butt}</style>
 </defs>
 <g id="figure_1">
  <g id="patch_1">
   <path d="M 0 351.45375 
L 352.86 351.45375 
L 352.86 0 
L 0 0 
z
" style="fill: #ffffff"/>
  </g>
  <g id="axes_1">
   <g id="patch_2">
    <path d="M 30.97 324.14 
L 345.66 324.14 
L 345.66 7.2 
L 30.97 7.2 
z
" style="fill: #ffffff"/>
   </g>
   <g id="matplotlib.axis_1">
    <g id="xtick_1">
     <g id="line2d_1">
      <defs>
       <path id="maf7d0f94e1" d="M 0 0 
L 0 5 
" style="stroke: #000000; stroke-width: 0.8"/>
      </defs>
      <g>
       <use xlink:href="#maf7d0f94e1" x="30.97" y="324.14" style="stroke: #000000; stroke-width: 0.8"/>
      </g>
     </g>
     <g id="text_1">
      <!-- 0 -->
      <g style="fill: #262626" transform="translate(27.1525 341.758125) scale(0.12 -0.12)">
       <defs>
        <path id="DejaVuSans-30" d="M 2034 4250 
Q 1547 4250 1301 3770 
Q 1056 3291 1056 2328 
Q 1056 1369 1301 889 
Q 1547 409 2034 409 
Q 2525 409 2770 889 
Q 3016 1369 3016 2328 
Q 3016 3291 2770 3770 
Q 2525 4250 2034 4250 
z
M 2034 4750 
Q 2819 4750 3233 4129 
Q 3647 3509 3647 2328 
Q 3647 1150 3233 529 
Q 2819 -91 2034 -91 
Q 1250 -91 836 529 
Q 422 1150 422 2328 
Q 422 3509 836 4129 
Q 1250 4750 2034 4750 
z
" transform="scale(0.015625)"/>
       </defs>
       <use xlink:href="#DejaVuSans-30"/>
      </g>
     </g>
    </g>
    <g id="xtick_2">
     <g id="line2d_2">
      <g>
       <use xlink:href="#maf7d0f94e1" x="91.487308" y="324.14" style="stroke: #000000; stroke-width: 0.8"/>
      </g>
     </g>
     <g id="text_2">
      <!-- 5 -->
      <g style="fill: #262626" transform="translate(87.669808 341.758125) scale(0.12 -0.12)">
       <defs>
        <path id="DejaVuSans-35" d="M 691 4666 
L 3169 4666 
L 3169 4134 
L 1269 4134 
L 1269 2991 
Q 1406 3038 1543 3061 
Q 1681 3084 1819 3084 
Q 2600 3084 3056 2656 
Q 3513 2228 3513 1497 
Q 3513 744 3044 326 
Q 2575 -91 1722 -91 
Q 1428 -91 1123 -41 
Q 819 9 494 109 
L 494 744 
Q 775 591 1075 516 
Q 1375 441 1709 441 
Q 2250 441 2565 725 
Q 2881 1009 2881 1497 
Q 2881 1984 2565 2268 
Q 2250 2553 1709 2553 
Q 1456 2553 1204 2497 
Q 953 2441 691 2322 
L 691 4666 
z
" transform="scale(0.015625)"/>
       </defs>
       <use xlink:href="#DejaVuSans-35"/>
      </g>
     </g>
    </g>
    <g id="xtick_3">
     <g id="line2d_3">
      <g>
       <use xlink:href="#maf7d0f94e1" x="152.004615" y="324.14" style="stroke: #000000; stroke-width: 0.8"/>
      </g>
     </g>
     <g id="text_3">
      <!-- 10 -->
      <g style="fill: #262626" transform="translate(144.369615 341.758125) scale(0.12 -0.12)">
       <defs>
        <path id="DejaVuSans-31" d="M 794 531 
L 1825 531 
L 1825 4091 
L 703 3866 
L 703 4441 
L 1819 4666 
L 2450 4666 
L 2450 531 
L 3481 531 
L 3481 0 
L 794 0 
L 794 531 
z
" transform="scale(0.015625)"/>
       </defs>
       <use xlink:href="#DejaVuSans-31"/>
       <use xlink:href="#DejaVuSans-30" transform="translate(63.623047 0)"/>
      </g>
     </g>
    </g>
    <g id="xtick_4">
     <g id="line2d_4">
      <g>
       <use xlink:href="#maf7d0f94e1" x="212.521923" y="324.14" style="stroke: #000000; stroke-width: 0.8"/>
      </g>
     </g>
     <g id="text_4">
      <!-- 15 -->
      <g style="fill: #262626" transform="translate(204.886923 341.758125) scale(0.12 -0.12)">
       <use xlink:href="#DejaVuSans-31"/>
       <use xlink:href="#DejaVuSans-35" transform="translate(63.623047 0)"/>
      </g>
     </g>
    </g>
    <g id="xtick_5">
     <g id="line2d_5">
      <g>
       <use xlink:href="#maf7d0f94e1" x="273.039231" y="324.14" style="stroke: #000000; stroke-width: 0.8"/>
      </g>
     </g>
     <g id="text_5">
      <!-- 20 -->
      <g style="fill: #262626" transform="translate(265.404231 341.758125) scale(0.12 -0.12)">
       <defs>
        <path id="DejaVuSans-32" d="M 1228 531 
L 3431 531 
L 3431 0 
L 469 0 
L 469 531 
Q 828 903 1448 1529 
Q 2069 2156 2228 2338 
Q 2531 2678 2651 2914 
Q 2772 3150 2772 3378 
Q 2772 3750 2511 3984 
Q 2250 4219 1831 4219 
Q 1534 4219 1204 4116 
Q 875 4013 500 3803 
L 500 4441 
Q 881 4594 1212 4672 
Q 1544 4750 1819 4750 
Q 2544 4750 2975 4387 
Q 3406 4025 3406 3419 
Q 3406 3131 3298 2873 
Q 3191 2616 2906 2266 
Q 2828 2175 2409 1742 
Q 1991 1309 1228 531 
z
" transform="scale(0.015625)"/>
       </defs>
       <use xlink:href="#DejaVuSans-32"/>
       <use xlink:href="#DejaVuSans-30" transform="translate(63.623047 0)"/>
      </g>
     </g>
    </g>
    <g id="xtick_6">
     <g id="line2d_6">
      <g>
       <use xlink:href="#maf7d0f94e1" x="333.556538" y="324.14" style="stroke: #000000; stroke-width: 0.8"/>
      </g>
     </g>
     <g id="text_6">
      <!-- 25 -->
      <g style="fill: #262626" transform="translate(325.921538 341.758125) scale(0.12 -0.12)">
       <use xlink:href="#DejaVuSans-32"/>
       <use xlink:href="#DejaVuSans-35" transform="translate(63.623047 0)"/>
      </g>
     </g>
    </g>
   </g>
   <g id="matplotlib.axis_2">
    <g id="ytick_1">
     <g id="line2d_7">
      <defs>
       <path id="mda9143f2c8" d="M 0 0 
L -5 0 
" style="stroke: #000000; stroke-width: 0.8"/>
      </defs>
      <g>
       <use xlink:href="#mda9143f2c8" x="30.97" y="324.14" style="stroke: #000000; stroke-width: 0.8"/>
      </g>
     </g>
     <g id="text_7">
      <!-- 0 -->
      <g style="fill: #262626" transform="translate(14.835 328.699063) scale(0.12 -0.12)">
       <use xlink:href="#DejaVuSans-30"/>
      </g>
     </g>
    </g>
    <g id="ytick_2">
     <g id="line2d_8">
      <g>
       <use xlink:href="#mda9143f2c8" x="30.97" y="263.19" style="stroke: #000000; stroke-width: 0.8"/>
      </g>
     </g>
     <g id="text_8">
      <!-- 5 -->
      <g style="fill: #262626" transform="translate(14.835 267.749062) scale(0.12 -0.12)">
       <use xlink:href="#DejaVuSans-35"/>
      </g>
     </g>
    </g>
    <g id="ytick_3">
     <g id="line2d_9">
      <g>
       <use xlink:href="#mda9143f2c8" x="30.97" y="202.24" style="stroke: #000000; stroke-width: 0.8"/>
      </g>
     </g>
     <g id="text_9">
      <!-- 10 -->
      <g style="fill: #262626" transform="translate(7.2 206.799062) scale(0.12 -0.12)">
       <use xlink:href="#DejaVuSans-31"/>
       <use xlink:href="#DejaVuSans-30" transform="translate(63.623047 0)"/>
      </g>
     </g>
    </g>
    <g id="ytick_4">
     <g id="line2d_10">
      <g>
       <use xlink:href="#mda9143f2c8" x="30.97" y="141.29" style="stroke: #000000; stroke-width: 0.8"/>
      </g>
     </g>
     <g id="text_10">
      <!-- 15 -->
      <g style="fill: #262626" transform="translate(7.2 145.849062) scale(0.12 -0.12)">
       <use xlink:href="#DejaVuSans-31"/>
       <use xlink:href="#DejaVuSans-35" transform="translate(63.623047 0)"/>
      </g>
     </g>
    </g>
    <g id="ytick_5">
     <g id="line2d_11">
      <g>
       <use xlink:href="#mda9143f2c8" x="30.97" y="80.34" style="stroke: #000000; stroke-width: 0.8"/>
      </g>
     </g>
     <g id="text_11">
      <!-- 20 -->
      <g style="fill: #262626" transform="translate(7.2 84.899062) scale(0.12 -0.12)">
       <use xlink:href="#DejaVuSans-32"/>
       <use xlink:href="#DejaVuSans-30" transform="translate(63.623047 0)"/>
      </g>
     </g>
    </g>
    <g id="ytick_6">
     <g id="line2d_12">
      <g>
       <use xlink:href="#mda9143f2c8" x="30.97" y="19.39" style="stroke: #000000; stroke-width: 0.8"/>
      </g>
     </g>
     <g id="text_12">
      <!-- 25 -->
      <g style="fill: #262626" transform="translate(7.2 23.949062) scale(0.12 -0.12)">
       <use xlink:href="#DejaVuSans-32"/>
       <use xlink:href="#DejaVuSans-35" transform="translate(63.623047 0)"/>
      </g>
     </g>
    </g>
   </g>
   <g id="PathCollection_1">
    <defs>
     <path id="C0_0_3edf9484a8" d="M 0 4.472136 
C 1.186024 4.472136 2.323632 4.000923 3.162278 3.162278 
C 4.000923 2.323632 4.472136 1.186024 4.472136 -0 
C 4.472136 -1.186024 4.000923 -2.323632 3.162278 -3.162278 
C 2.323632 -4.000923 1.186024 -4.472136 0 -4.472136 
C -1.186024 -4.472136 -2.323632 -4.000923 -3.162278 -3.162278 
C -4.000923 -2.323632 -4.472136 -1.186024 -4.472136 0 
C -4.472136 1.186024 -4.000923 2.323632 -3.162278 3.162278 
C -2.323632 4.000923 -1.186024 4.472136 0 4.472136 
z
"/>
    </defs>
    <g clip-path="url(#pbbaa29e81e)">
     <use xlink:href="#C0_0_3edf9484a8" x="248.832308" y="165.67" style="fill: #c05046; stroke: #c05046; stroke-width: 0.5"/>
    </g>
    <g clip-path="url(#pbbaa29e81e)">
     <use xlink:href="#C0_0_3edf9484a8" x="43.073462" y="299.76" style="fill: #e8b86c; stroke: #e8b86c; stroke-width: 0.5"/>
    </g>
    <g clip-path="url(#pbbaa29e81e)">
     <use xlink:href="#C0_0_3edf9484a8" x="79.383846" y="287.57" style="fill: #e8b86c; stroke: #e8b86c; stroke-width: 0.5"/>
    </g>
    <g clip-path="url(#pbbaa29e81e)">
     <use xlink:href="#C0_0_3edf9484a8" x="260.935769" y="31.58" style="fill: #e8b86c; stroke: #e8b86c; stroke-width: 0.5"/>
    </g>
    <g clip-path="url(#pbbaa29e81e)">
     <use xlink:href="#C0_0_3edf9484a8" x="176.211538" y="104.72" style="fill: #c05046; stroke: #c05046; stroke-width: 0.5"/>
    </g>
    <g clip-path="url(#pbbaa29e81e)">
     <use xlink:href="#C0_0_3edf9484a8" x="273.039231" y="80.34" style="fill: #c05046; stroke: #c05046; stroke-width: 0.5"/>
    </g>
    <g clip-path="url(#pbbaa29e81e)">
     <use xlink:href="#C0_0_3edf9484a8" x="127.797692" y="202.24" style="fill: #c05046; stroke: #c05046; stroke-width: 0.5"/>
    </g>
    <g clip-path="url(#pbbaa29e81e)">
     <use xlink:href="#C0_0_3edf9484a8" x="333.556538" y="92.53" style="fill: #c05046; stroke: #c05046; stroke-width: 0.5"/>
    </g>
    <g clip-path="url(#pbbaa29e81e)">
     <use xlink:href="#C0_0_3edf9484a8" x="139.901154" y="226.62" style="fill: #c05046; stroke: #c05046; stroke-width: 0.5"/>
    </g>
    <g clip-path="url(#pbbaa29e81e)">
     <use xlink:href="#C0_0_3edf9484a8" x="91.487308" y="238.81" style="fill: #c05046; stroke: #c05046; stroke-width: 0.5"/>
    </g>
    <g clip-path="url(#pbbaa29e81e)">
     <use xlink:href="#C0_0_3edf9484a8" x="297.246154" y="68.15" style="fill: #3c779f; stroke: #3c779f; stroke-width: 0.5"/>
    </g>
    <g clip-path="url(#pbbaa29e81e)">
     <use xlink:href="#C0_0_3edf9484a8" x="188.315" y="190.05" style="fill: #e8b86c; stroke: #e8b86c; stroke-width: 0.5"/>
    </g>
    <g clip-path="url(#pbbaa29e81e)">
     <use xlink:href="#C0_0_3edf9484a8" x="67.280385" y="311.95" style="fill: #799540; stroke: #799540; stroke-width: 0.5"/>
    </g>
    <g clip-path="url(#pbbaa29e81e)">
     <use xlink:href="#C0_0_3edf9484a8" x="152.004615" y="263.19" style="fill: #e8b86c; stroke: #e8b86c; stroke-width: 0.5"/>
    </g>
    <g clip-path="url(#pbbaa29e81e)">
     <use xlink:href="#C0_0_3edf9484a8" x="115.694231" y="177.86" style="fill: #e8b86c; stroke: #e8b86c; stroke-width: 0.5"/>
    </g>
    <g clip-path="url(#pbbaa29e81e)">
     <use xlink:href="#C0_0_3edf9484a8" x="103.590769" y="214.43" style="fill: #e8b86c; stroke: #e8b86c; stroke-width: 0.5"/>
    </g>
    <g clip-path="url(#pbbaa29e81e)">
     <use xlink:href="#C0_0_3edf9484a8" x="200.418462" y="153.48" style="fill: #3c779f; stroke: #3c779f; stroke-width: 0.5"/>
    </g>
    <g clip-path="url(#pbbaa29e81e)">
     <use xlink:href="#C0_0_3edf9484a8" x="55.176923" y="275.38" style="fill: #c05046; stroke: #c05046; stroke-width: 0.5"/>
    </g>
    <g clip-path="url(#pbbaa29e81e)">
     <use xlink:href="#C0_0_3edf9484a8" x="309.349615" y="55.96" style="fill: #e8b86c; stroke: #e8b86c; stroke-width: 0.5"/>
    </g>
    <g clip-path="url(#pbbaa29e81e)">
     <use xlink:href="#C0_0_3edf9484a8" x="212.521923" y="129.1" style="fill: #e8b86c; stroke: #e8b86c; stroke-width: 0.5"/>
    </g>
    <g clip-path="url(#pbbaa29e81e)">
     <use xlink:href="#C0_0_3edf9484a8" x="285.142692" y="43.77" style="fill: #e8b86c; stroke: #e8b86c; stroke-width: 0.5"/>
    </g>
    <g clip-path="url(#pbbaa29e81e)">
     <use xlink:href="#C0_0_3edf9484a8" x="321.453077" y="19.39" style="fill: #e8b86c; stroke: #e8b86c; stroke-width: 0.5"/>
    </g>
    <g clip-path="url(#pbbaa29e81e)">
     <use xlink:href="#C0_0_3edf9484a8" x="236.728846" y="141.29" style="fill: #3c779f; stroke: #3c779f; stroke-width: 0.5"/>
    </g>
   </g>
   <g id="patch_3">
    <path d="M 30.97 324.14 
L 30.97 7.2 
" style="fill: none; stroke: #000000; stroke-linejoin: miter; stroke-linecap: square"/>
   </g>
   <g id="patch_4">
    <path d="M 345.66 324.14 
L 345.66 7.2 
" style="fill: none; stroke: #000000; stroke-linejoin: miter; stroke-linecap: square"/>
   </g>
   <g id="patch_5">
    <path d="M 30.97 324.14 
L 345.66 324.14 
" style="fill: none; stroke: #000000; stroke-linejoin: miter; stroke-linecap: square"/>
   </g>
   <g id="patch_6">
    <path d="M 30.97 7.2 
L 345.66 7.2 
" style="fill: none; stroke: #000000; stroke-linejoin: miter; stroke-linecap: square"/>
   </g>
  </g>
 </g>
 <defs>
  <clipPath id="pbbaa29e81e">
   <rect x="30.97" y="7.2" width="314.69" height="316.94"/>
  </clipPath>
 </defs>
</svg>
