<?xml version="1.0" encoding="utf-8" standalone="no"?>
<!DOCTYPE svg PUBLIC "-//W3C//DTD SVG 1.1//EN"
  "http://www.w3.org/Graphics/SVG/1.1/DTD/svg11.dtd">
<svg xmlns:xlink="http://www.w3.org/1999/xlink" width="348.54pt" height="347.13375pt" viewBox="0 0 348.54 347.13375" xmlns="http://www.w3.org/2000/svg" version="1.1">
 <metadata>
  <rdf:RDF xmlns:dc="http://purl.org/dc/elements/1.1/" xmlns:cc="http://creativecommons.org/ns#" xmlns:rdf="http://www.w3.org/1999/02/22-rdf-syntax-ns#">
   <cc:Work>
    <dc:type rdf:resource="http://purl.org/dc/dcmitype/StillImage"/>
    <dc:date>2026-05-11T23:29:43.612760</dc:date>
    <dc:format>image/svg+xml</dc:format>
    <dc:creator>
     <cc:Agent>
      <dc:title>Matplotlib v3.10.5, https://matplotlib.org/</dc:title>
     </cc:Agent>
    </dc:creator>
   </cc:Work>
  </rdf:RDF>
 </metadata>
 <defs>
  <style type="text/css">*{stroke-linejoin: round; stroke-linecap: butt}</style>
 </defs>
 <g id="figure_1">
  <g id="patch_1">
   <path d="M 0 347.13375 
L 348.54 347.13375 
L 348.54 0 
L 0 0 
z
" style="fill: #ffffff"/>
  </g>
  <g id="axes_1">
   <g id="patch_2">
    <path d="M 30.97 319.82 
L 341.34 319.82 
L 341.34 7.2 
L 30.97 7.2 
z
" style="fill: #ffffff"/>
   </g>
   <g id="matplotlib.axis_1">
    <g id="xtick_1">
     <g id="line2d_1">
      <defs>
       <path id="ma5fbd7f54b" d="M 0 0 
L 0 5 
" style="stroke: #000000; stroke-width: 1.25"/>
      </defs>
      <g>
       <use xlink:href="#ma5fbd7f54b" x="99.941111" y="319.82" style="stroke: #000000; stroke-width: 1.25"/>
      </g>
     </g>
     <g id="text_1">
      <!-- DL -->
      <g style="fill: #262626" transform="translate(91.977986 337.438125) scale(0.12 -0.12)">
       <defs>
        <path id="DejaVuSans-44" d="M 1259 4147 
L 1259 519 
L 2022 519 
Q 2988 519 3436 956 
Q 3884 1394 3884 2338 
Q 3884 3275 3436 3711 
Q 2988 4147 2022 4147 
L 1259 4147 
z
M 628 4666 
L 1925 4666 
Q 3281 4666 3915 4102 
Q 4550 3538 4550 2338 
Q 4550 1131 3912 565 
Q 3275 0 1925 0 
L 628 0 
L 628 4666 
z
" transform="scale(0.015625)"/>
        <path id="DejaVuSans-4c" d="M 628 4666 
L 1259 4666 
L 1259 531 
L 3531 531 
L 3531 0 
L 628 0 
L 628 4666 
z
" transform="scale(0.015625)"/>
       </defs>
       <use xlink:href="#DejaVuSans-44"/>
       <use xlink:href="#DejaVuSans-4c" transform="translate(77.001953 0)"/>
      </g>
     </g>
    </g>
    <g id="xtick_2">
     <g id="line2d_2">
      <g>
       <use xlink:href="#ma5fbd7f54b" x="272.368889" y="319.82" style="stroke: #000000; stroke-width: 1.25"/>
      </g>
     </g>
     <g id="text_2">
      <!-- Non-DL -->
      <g style="fill: #262626" transform="translate(250.278576 337.438125) scale(0.12 -0.12)">
       <defs>
        <path id="DejaVuSans-4e" d="M 628 4666 
L 1478 4666 
L 3547 763 
L 3547 4666 
L 4159 4666 
L 4159 0 
L 3309 0 
L 1241 3903 
L 1241 0 
L 628 0 
L 628 4666 
z
" transform="scale(0.015625)"/>
        <path id="DejaVuSans-6f" d="M 1959 3097 
Q 1497 3097 1228 2736 
Q 959 2375 959 1747 
Q 959 1119 1226 758 
Q 1494 397 1959 397 
Q 2419 397 2687 759 
Q 2956 1122 2956 1747 
Q 2956 2369 2687 2733 
Q 2419 3097 1959 3097 
z
M 1959 3584 
Q 2709 3584 3137 3096 
Q 3566 2609 3566 1747 
Q 3566 888 3137 398 
Q 2709 -91 1959 -91 
Q 1206 -91 779 398 
Q 353 888 353 1747 
Q 353 2609 779 3096 
Q 1206 3584 1959 3584 
z
" transform="scale(0.015625)"/>
        <path id="DejaVuSans-6e" d="M 3513 2113 
L 3513 0 
L 2938 0 
L 2938 2094 
Q 2938 2591 2744 2837 
Q 2550 3084 2163 3084 
Q 1697 3084 1428 2787 
Q 1159 2491 1159 1978 
L 1159 0 
L 581 0 
L 581 3500 
L 1159 3500 
L 1159 2956 
Q 1366 3272 1645 3428 
Q 1925 3584 2291 3584 
Q 2894 3584 3203 3211 
Q 3513 2838 3513 2113 
z
" transform="scale(0.015625)"/>
        <path id="DejaVuSans-2d" d="M 313 2009 
L 1997 2009 
L 1997 1497 
L 313 1497 
L 313 2009 
z
" transform="scale(0.015625)"/>
       </defs>
       <use xlink:href="#DejaVuSans-4e"/>
       <use xlink:href="#DejaVuSans-6f" transform="translate(74.804688 0)"/>
       <use xlink:href="#DejaVuSans-6e" transform="translate(135.986328 0)"/>
       <use xlink:href="#DejaVuSans-2d" transform="translate(199.365234 0)"/>
       <use xlink:href="#DejaVuSans-44" transform="translate(235.449219 0)"/>
       <use xlink:href="#DejaVuSans-4c" transform="translate(312.451172 0)"/>
      </g>
     </g>
    </g>
   </g>
   <g id="matplotlib.axis_2">
    <g id="ytick_1">
     <g id="line2d_3">
      <defs>
       <path id="m47240bede7" d="M 0 0 
L -5 0 
" style="stroke: #000000; stroke-width: 1.25"/>
      </defs>
      <g>
       <use xlink:href="#m47240bede7" x="30.97" y="319.82" style="stroke: #000000; stroke-width: 1.25"/>
      </g>
     </g>
     <g id="text_3">
      <!-- 0 -->
      <g style="fill: #262626" transform="translate(14.835 324.379062) scale(0.12 -0.12)">
       <defs>
        <path id="DejaVuSans-30" d="M 2034 4250 
Q 1547 4250 1301 3770 
Q 1056 3291 1056 2328 
Q 1056 1369 1301 889 
Q 1547 409 2034 409 
Q 2525 409 2770 889 
Q 3016 1369 3016 2328 
Q 3016 3291 2770 3770 
Q 2525 4250 2034 4250 
z
M 2034 4750 
Q 2819 4750 3233 4129 
Q 3647 3509 3647 2328 
Q 3647 1150 3233 529 
Q 2819 -91 2034 -91 
Q 1250 -91 836 529 
Q 422 1150 422 2328 
Q 422 3509 836 4129 
Q 1250 4750 2034 4750 
z
" transform="scale(0.015625)"/>
       </defs>
       <use xlink:href="#DejaVuSans-30"/>
      </g>
     </g>
    </g>
    <g id="ytick_2">
     <g id="line2d_4">
      <g>
       <use xlink:href="#m47240bede7" x="30.97" y="263.995" style="stroke: #000000; stroke-width: 1.25"/>
      </g>
     </g>
     <g id="text_4">
      <!-- 5 -->
      <g style="fill: #262626" transform="translate(14.835 268.554062) scale(0.12 -0.12)">
       <defs>
        <path id="DejaVuSans-35" d="M 691 4666 
L 3169 4666 
L 3169 4134 
L 1269 4134 
L 1269 2991 
Q 1406 3038 1543 3061 
Q 1681 3084 1819 3084 
Q 2600 3084 3056 2656 
Q 3513 2228 3513 1497 
Q 3513 744 3044 326 
Q 2575 -91 1722 -91 
Q 1428 -91 1123 -41 
Q 819 9 494 109 
L 494 744 
Q 775 591 1075 516 
Q 1375 441 1709 441 
Q 2250 441 2565 725 
Q 2881 1009 2881 1497 
Q 2881 1984 2565 2268 
Q 2250 2553 1709 2553 
Q 1456 2553 1204 2497 
Q 953 2441 691 2322 
L 691 4666 
z
" transform="scale(0.015625)"/>
       </defs>
       <use xlink:href="#DejaVuSans-35"/>
      </g>
     </g>
    </g>
    <g id="ytick_3">
     <g id="line2d_5">
      <g>
       <use xlink:href="#m47240bede7" x="30.97" y="208.17" style="stroke: #000000; stroke-width: 1.25"/>
      </g>
     </g>
     <g id="text_5">
      <!-- 10 -->
      <g style="fill: #262626" transform="translate(7.2 212.729062) scale(0.12 -0.12)">
       <defs>
        <path id="DejaVuSans-31" d="M 794 531 
L 1825 531 
L 1825 4091 
L 703 3866 
L 703 4441 
L 1819 4666 
L 2450 4666 
L 2450 531 
L 3481 531 
L 3481 0 
L 794 0 
L 794 531 
z
" transform="scale(0.015625)"/>
       </defs>
       <use xlink:href="#DejaVuSans-31"/>
       <use xlink:href="#DejaVuSans-30" transform="translate(63.623047 0)"/>
      </g>
     </g>
    </g>
    <g id="ytick_4">
     <g id="line2d_6">
      <g>
       <use xlink:href="#m47240bede7" x="30.97" y="152.345" style="stroke: #000000; stroke-width: 1.25"/>
      </g>
     </g>
     <g id="text_6">
      <!-- 15 -->
      <g style="fill: #262626" transform="translate(7.2 156.904062) scale(0.12 -0.12)">
       <use xlink:href="#DejaVuSans-31"/>
       <use xlink:href="#DejaVuSans-35" transform="translate(63.623047 0)"/>
      </g>
     </g>
    </g>
    <g id="ytick_5">
     <g id="line2d_7">
      <g>
       <use xlink:href="#m47240bede7" x="30.97" y="96.52" style="stroke: #000000; stroke-width: 1.25"/>
      </g>
     </g>
     <g id="text_7">
      <!-- 20 -->
      <g style="fill: #262626" transform="translate(7.2 101.079062) scale(0.12 -0.12)">
       <defs>
        <path id="DejaVuSans-32" d="M 1228 531 
L 3431 531 
L 3431 0 
L 469 0 
L 469 531 
Q 828 903 1448 1529 
Q 2069 2156 2228 2338 
Q 2531 2678 2651 2914 
Q 2772 3150 2772 3378 
Q 2772 3750 2511 3984 
Q 2250 4219 1831 4219 
Q 1534 4219 1204 4116 
Q 875 4013 500 3803 
L 500 4441 
Q 881 4594 1212 4672 
Q 1544 4750 1819 4750 
Q 2544 4750 2975 4387 
Q 3406 4025 3406 3419 
Q 3406 3131 3298 2873 
Q 3191 2616 2906 2266 
Q 2828 2175 2409 1742 
Q 1991 1309 1228 531 
z
" transform="scale(0.015625)"/>
       </defs>
       <use xlink:href="#DejaVuSans-32"/>
       <use xlink:href="#DejaVuSans-30" transform="translate(63.623047 0)"/>
      </g>
     </g>
    </g>
    <g id="ytick_6">
     <g id="line2d_8">
      <g>
       <use xlink:href="#m47240bede7" x="30.97" y="40.695" style="stroke: #000000; stroke-width: 1.25"/>
      </g>
     </g>
     <g id="text_8">
      <!-- 25 -->
      <g style="fill: #262626" transform="translate(7.2 45.254062) scale(0.12 -0.12)">
       <use xlink:href="#DejaVuSans-32"/>
       <use xlink:href="#DejaVuSans-35" transform="translate(63.623047 0)"/>
      </g>
     </g>
    </g>
   </g>
   <g id="patch_3">
    <path d="M 61.144861 163.51 
L 138.737361 163.51 
L 138.737361 68.6075 
L 61.144861 68.6075 
L 61.144861 163.51 
z
" clip-path="url(#pb1a65e3938)" style="fill: #426579; opacity: 0.85; stroke: #000000; stroke-linejoin: miter"/>
   </g>
   <g id="line2d_9">
    <path d="M 99.941111 163.51 
L 99.941111 219.335 
" clip-path="url(#pb1a65e3938)" style="fill: none; stroke: #000000"/>
   </g>
   <g id="line2d_10">
    <path d="M 99.941111 68.6075 
L 99.941111 51.86 
" clip-path="url(#pb1a65e3938)" style="fill: none; stroke: #000000"/>
   </g>
   <g id="line2d_11">
    <path d="M 80.542986 219.335 
L 119.339236 219.335 
" clip-path="url(#pb1a65e3938)" style="fill: none; stroke: #000000; stroke-linecap: round"/>
   </g>
   <g id="line2d_12">
    <path d="M 80.542986 51.86 
L 119.339236 51.86 
" clip-path="url(#pb1a65e3938)" style="fill: none; stroke: #000000; stroke-linecap: round"/>
   </g>
   <g id="patch_4">
    <path d="M 233.572639 272.36875 
L 311.165139 272.36875 
L 311.165139 166.30125 
L 233.572639 166.30125 
L 233.572639 272.36875 
z
" clip-path="url(#pb1a65e3938)" style="fill: #b4c3cb; opacity: 0.85; stroke: #000000; stroke-linejoin: miter"/>
   </g>
   <g id="line2d_13">
    <path d="M 272.368889 272.36875 
L 272.368889 308.655 
" clip-path="url(#pb1a65e3938)" style="fill: none; stroke: #000000"/>
   </g>
   <g id="line2d_14">
    <path d="M 272.368889 166.30125 
L 272.368889 118.85 
" clip-path="url(#pb1a65e3938)" style="fill: none; stroke: #000000"/>
   </g>
   <g id="line2d_15">
    <path d="M 252.970764 308.655 
L 291.767014 308.655 
" clip-path="url(#pb1a65e3938)" style="fill: none; stroke: #000000; stroke-linecap: round"/>
   </g>
   <g id="line2d_16">
    <path d="M 252.970764 118.85 
L 291.767014 118.85 
" clip-path="url(#pb1a65e3938)" style="fill: none; stroke: #000000; stroke-linecap: round"/>
   </g>
   <g id="line2d_17">
    <path d="M 99.941111 41.8115 
L 99.941111 38.462 
L 272.368889 38.462 
L 272.368889 41.8115 
" clip-path="url(#pb1a65e3938)" style="fill: none; stroke: #000000; stroke-width: 1.4; stroke-linecap: round"/>
   </g>
   <g id="line2d_18">
    <path d="M 61.144861 107.685 
L 138.737361 107.685 
" clip-path="url(#pb1a65e3938)" style="fill: none; stroke: #000000"/>
   </g>
   <g id="line2d_19">
    <path d="M 233.572639 241.665 
L 311.165139 241.665 
" clip-path="url(#pb1a65e3938)" style="fill: none; stroke: #000000"/>
   </g>
   <g id="patch_5">
    <path d="M 30.97 319.82 
L 30.97 7.2 
" style="fill: none; stroke: #000000; stroke-linejoin: miter; stroke-linecap: square"/>
   </g>
   <g id="patch_6">
    <path d="M 341.34 319.82 
L 341.34 7.2 
" style="fill: none; stroke: #000000; stroke-linejoin: miter; stroke-linecap: square"/>
   </g>
   <g id="patch_7">
    <path d="M 30.97 319.82 
L 341.34 319.82 
" style="fill: none; stroke: #000000; stroke-linejoin: miter; stroke-linecap: square"/>
   </g>
   <g id="patch_8">
    <path d="M 30.97 7.2 
L 341.34 7.2 
" style="fill: none; stroke: #000000; stroke-linejoin: miter; stroke-linecap: square"/>
   </g>
   <g id="PathCollection_1">
    <defs>
     <path id="m532fdf2909" d="M 0 2 
C 0.530406 2 1.03916 1.789267 1.414214 1.414214 
C 1.789267 1.03916 2 0.530406 2 0 
C 2 -0.530406 1.789267 -1.03916 1.414214 -1.414214 
C 1.03916 -1.789267 0.530406 -2 0 -2 
C -0.530406 -2 -1.03916 -1.789267 -1.414214 -1.414214 
C -1.789267 -1.03916 -2 -0.530406 -2 0 
C -2 0.530406 -1.789267 1.03916 -1.414214 1.414214 
C -1.03916 1.789267 -0.530406 2 0 2 
z
"/>
    </defs>
    <g clip-path="url(#pb1a65e3938)">
     <use xlink:href="#m532fdf2909" x="83.624051" y="51.86" style="fill-opacity: 0.65"/>
     <use xlink:href="#m532fdf2909" x="106.397016" y="219.335" style="fill-opacity: 0.65"/>
     <use xlink:href="#m532fdf2909" x="111.204088" y="107.685" style="fill-opacity: 0.65"/>
     <use xlink:href="#m532fdf2909" x="112.45738" y="51.86" style="fill-opacity: 0.65"/>
     <use xlink:href="#m532fdf2909" x="87.695164" y="85.355" style="fill-opacity: 0.65"/>
     <use xlink:href="#m532fdf2909" x="117.389326" y="107.685" style="fill-opacity: 0.65"/>
     <use xlink:href="#m532fdf2909" x="90.56663" y="141.18" style="fill-opacity: 0.65"/>
     <use xlink:href="#m532fdf2909" x="98.266226" y="197.005" style="fill-opacity: 0.65"/>
     <use xlink:href="#m532fdf2909" x="82.093191" y="74.19" style="fill-opacity: 0.65"/>
     <use xlink:href="#m532fdf2909" x="112.299938" y="63.025" style="fill-opacity: 0.65"/>
     <use xlink:href="#m532fdf2909" x="112.202588" y="185.84" style="fill-opacity: 0.65"/>
    </g>
   </g>
   <g id="PathCollection_2">
    <g clip-path="url(#pb1a65e3938)">
     <use xlink:href="#m532fdf2909" x="273.24522" y="152.345" style="fill-opacity: 0.65"/>
     <use xlink:href="#m532fdf2909" x="257.035012" y="252.83" style="fill-opacity: 0.65"/>
     <use xlink:href="#m532fdf2909" x="281.62981" y="252.83" style="fill-opacity: 0.65"/>
     <use xlink:href="#m532fdf2909" x="258.514798" y="275.16" style="fill-opacity: 0.65"/>
     <use xlink:href="#m532fdf2909" x="253.330519" y="141.18" style="fill-opacity: 0.65"/>
     <use xlink:href="#m532fdf2909" x="265.495787" y="208.17" style="fill-opacity: 0.65"/>
     <use xlink:href="#m532fdf2909" x="289.9445" y="297.49" style="fill-opacity: 0.65"/>
     <use xlink:href="#m532fdf2909" x="281.996389" y="263.995" style="fill-opacity: 0.65"/>
     <use xlink:href="#m532fdf2909" x="263.754932" y="308.655" style="fill-opacity: 0.65"/>
     <use xlink:href="#m532fdf2909" x="257.386669" y="118.85" style="fill-opacity: 0.65"/>
     <use xlink:href="#m532fdf2909" x="254.843716" y="163.51" style="fill-opacity: 0.65"/>
     <use xlink:href="#m532fdf2909" x="254.988526" y="174.675" style="fill-opacity: 0.65"/>
     <use xlink:href="#m532fdf2909" x="281.22064" y="230.5" style="fill-opacity: 0.65"/>
     <use xlink:href="#m532fdf2909" x="277.283682" y="286.325" style="fill-opacity: 0.65"/>
    </g>
   </g>
   <g id="text_9">
    <!-- ** -->
    <g style="fill: #262626" transform="translate(180.155 35.7824) scale(0.12 -0.12)">
     <defs>
      <path id="DejaVuSans-2a" d="M 3009 3897 
L 1888 3291 
L 3009 2681 
L 2828 2375 
L 1778 3009 
L 1778 1831 
L 1422 1831 
L 1422 3009 
L 372 2375 
L 191 2681 
L 1313 3291 
L 191 3897 
L 372 4206 
L 1422 3572 
L 1422 4750 
L 1778 4750 
L 1778 3572 
L 2828 4206 
L 3009 3897 
z
" transform="scale(0.015625)"/>
     </defs>
     <use xlink:href="#DejaVuSans-2a"/>
     <use xlink:href="#DejaVuSans-2a" transform="translate(50 0)"/>
    </g>
   </g>
  </g>
 </g>
 <defs>
  <clipPath id="pb1a65e3938">
   <rect x="30.97" y="7.2" width="310.37" height="312.62"/>
  </clipPath>
 </defs>
</svg>
