<?xml version="1.0" encoding="utf-8" standalone="no"?>
<!DOCTYPE svg PUBLIC "-//W3C//DTD SVG 1.1//EN"
  "http://www.w3.org/Graphics/SVG/1.1/DTD/svg11.dtd">
<svg xmlns:xlink="http://www.w3.org/1999/xlink" width="348.515pt" height="348.426562pt" viewBox="0 0 348.515 348.426562" xmlns="http://www.w3.org/2000/svg" version="1.1">
 <metadata>
  <rdf:RDF xmlns:dc="http://purl.org/dc/elements/1.1/" xmlns:cc="http://creativecommons.org/ns#" xmlns:rdf="http://www.w3.org/1999/02/22-rdf-syntax-ns#">
   <cc:Work>
    <dc:type rdf:resource="http://purl.org/dc/dcmitype/StillImage"/>
    <dc:date>2026-05-11T23:29:43.978258</dc:date>
    <dc:format>image/svg+xml</dc:format>
    <dc:creator>
     <cc:Agent>
      <dc:title>Matplotlib v3.10.5, https://matplotlib.org/</dc:title>
     </cc:Agent>
    </dc:creator>
   </cc:Work>
  </rdf:RDF>
 </metadata>
 <defs>
  <style type="text/css">*{stroke-linejoin: round; stroke-linecap: butt}</style>
 </defs>
 <g id="figure_1">
  <g id="patch_1">
   <path d="M 0 348.426562 
L 348.515 348.426562 
L 348.515 0 
L 0 0 
z
" style="fill: #ffffff"/>
  </g>
  <g id="axes_1">
   <g id="patch_2">
    <path d="M 28.425 241.25 
L 341.315 241.25 
L 341.315 7.2 
L 28.425 7.2 
z
" style="fill: #ffffff"/>
   </g>
   <g id="matplotlib.axis_1">
    <g id="xtick_1">
     <g id="line2d_1">
      <defs>
       <path id="mee26c24baa" d="M 0 0 
L 0 5 
" style="stroke: #000000; stroke-width: 1.25"/>
      </defs>
      <g>
       <use xlink:href="#mee26c24baa" x="42.647273" y="241.25" style="stroke: #000000; stroke-width: 1.25"/>
      </g>
     </g>
     <g id="text_1">
      <!-- scVelo (dyn) -->
      <g style="fill: #262626" transform="translate(45.406648 311.159375) rotate(-90) scale(0.1 -0.1)">
       <defs>
        <path id="DejaVuSans-73" d="M 2834 3397 
L 2834 2853 
Q 2591 2978 2328 3040 
Q 2066 3103 1784 3103 
Q 1356 3103 1142 2972 
Q 928 2841 928 2578 
Q 928 2378 1081 2264 
Q 1234 2150 1697 2047 
L 1894 2003 
Q 2506 1872 2764 1633 
Q 3022 1394 3022 966 
Q 3022 478 2636 193 
Q 2250 -91 1575 -91 
Q 1294 -91 989 -36 
Q 684 19 347 128 
L 347 722 
Q 666 556 975 473 
Q 1284 391 1588 391 
Q 1994 391 2212 530 
Q 2431 669 2431 922 
Q 2431 1156 2273 1281 
Q 2116 1406 1581 1522 
L 1381 1569 
Q 847 1681 609 1914 
Q 372 2147 372 2553 
Q 372 3047 722 3315 
Q 1072 3584 1716 3584 
Q 2034 3584 2315 3537 
Q 2597 3491 2834 3397 
z
" transform="scale(0.015625)"/>
        <path id="DejaVuSans-63" d="M 3122 3366 
L 3122 2828 
Q 2878 2963 2633 3030 
Q 2388 3097 2138 3097 
Q 1578 3097 1268 2742 
Q 959 2388 959 1747 
Q 959 1106 1268 751 
Q 1578 397 2138 397 
Q 2388 397 2633 464 
Q 2878 531 3122 666 
L 3122 134 
Q 2881 22 2623 -34 
Q 2366 -91 2075 -91 
Q 1284 -91 818 406 
Q 353 903 353 1747 
Q 353 2603 823 3093 
Q 1294 3584 2113 3584 
Q 2378 3584 2631 3529 
Q 2884 3475 3122 3366 
z
" transform="scale(0.015625)"/>
        <path id="DejaVuSans-56" d="M 1831 0 
L 50 4666 
L 709 4666 
L 2188 738 
L 3669 4666 
L 4325 4666 
L 2547 0 
L 1831 0 
z
" transform="scale(0.015625)"/>
        <path id="DejaVuSans-65" d="M 3597 1894 
L 3597 1613 
L 953 1613 
Q 991 1019 1311 708 
Q 1631 397 2203 397 
Q 2534 397 2845 478 
Q 3156 559 3463 722 
L 3463 178 
Q 3153 47 2828 -22 
Q 2503 -91 2169 -91 
Q 1331 -91 842 396 
Q 353 884 353 1716 
Q 353 2575 817 3079 
Q 1281 3584 2069 3584 
Q 2775 3584 3186 3129 
Q 3597 2675 3597 1894 
z
M 3022 2063 
Q 3016 2534 2758 2815 
Q 2500 3097 2075 3097 
Q 1594 3097 1305 2825 
Q 1016 2553 972 2059 
L 3022 2063 
z
" transform="scale(0.015625)"/>
        <path id="DejaVuSans-6c" d="M 603 4863 
L 1178 4863 
L 1178 0 
L 603 0 
L 603 4863 
z
" transform="scale(0.015625)"/>
        <path id="DejaVuSans-6f" d="M 1959 3097 
Q 1497 3097 1228 2736 
Q 959 2375 959 1747 
Q 959 1119 1226 758 
Q 1494 397 1959 397 
Q 2419 397 2687 759 
Q 2956 1122 2956 1747 
Q 2956 2369 2687 2733 
Q 2419 3097 1959 3097 
z
M 1959 3584 
Q 2709 3584 3137 3096 
Q 3566 2609 3566 1747 
Q 3566 888 3137 398 
Q 2709 -91 1959 -91 
Q 1206 -91 779 398 
Q 353 888 353 1747 
Q 353 2609 779 3096 
Q 1206 3584 1959 3584 
z
" transform="scale(0.015625)"/>
        <path id="DejaVuSans-20" transform="scale(0.015625)"/>
        <path id="DejaVuSans-28" d="M 1984 4856 
Q 1566 4138 1362 3434 
Q 1159 2731 1159 2009 
Q 1159 1288 1364 580 
Q 1569 -128 1984 -844 
L 1484 -844 
Q 1016 -109 783 600 
Q 550 1309 550 2009 
Q 550 2706 781 3412 
Q 1013 4119 1484 4856 
L 1984 4856 
z
" transform="scale(0.015625)"/>
        <path id="DejaVuSans-64" d="M 2906 2969 
L 2906 4863 
L 3481 4863 
L 3481 0 
L 2906 0 
L 2906 525 
Q 2725 213 2448 61 
Q 2172 -91 1784 -91 
Q 1150 -91 751 415 
Q 353 922 353 1747 
Q 353 2572 751 3078 
Q 1150 3584 1784 3584 
Q 2172 3584 2448 3432 
Q 2725 3281 2906 2969 
z
M 947 1747 
Q 947 1113 1208 752 
Q 1469 391 1925 391 
Q 2381 391 2643 752 
Q 2906 1113 2906 1747 
Q 2906 2381 2643 2742 
Q 2381 3103 1925 3103 
Q 1469 3103 1208 2742 
Q 947 2381 947 1747 
z
" transform="scale(0.015625)"/>
        <path id="DejaVuSans-79" d="M 2059 -325 
Q 1816 -950 1584 -1140 
Q 1353 -1331 966 -1331 
L 506 -1331 
L 506 -850 
L 844 -850 
Q 1081 -850 1212 -737 
Q 1344 -625 1503 -206 
L 1606 56 
L 191 3500 
L 800 3500 
L 1894 763 
L 2988 3500 
L 3597 3500 
L 2059 -325 
z
" transform="scale(0.015625)"/>
        <path id="DejaVuSans-6e" d="M 3513 2113 
L 3513 0 
L 2938 0 
L 2938 2094 
Q 2938 2591 2744 2837 
Q 2550 3084 2163 3084 
Q 1697 3084 1428 2787 
Q 1159 2491 1159 1978 
L 1159 0 
L 581 0 
L 581 3500 
L 1159 3500 
L 1159 2956 
Q 1366 3272 1645 3428 
Q 1925 3584 2291 3584 
Q 2894 3584 3203 3211 
Q 3513 2838 3513 2113 
z
" transform="scale(0.015625)"/>
        <path id="DejaVuSans-29" d="M 513 4856 
L 1013 4856 
Q 1481 4119 1714 3412 
Q 1947 2706 1947 2009 
Q 1947 1309 1714 600 
Q 1481 -109 1013 -844 
L 513 -844 
Q 928 -128 1133 580 
Q 1338 1288 1338 2009 
Q 1338 2731 1133 3434 
Q 928 4138 513 4856 
z
" transform="scale(0.015625)"/>
       </defs>
       <use xlink:href="#DejaVuSans-73"/>
       <use xlink:href="#DejaVuSans-63" transform="translate(52.099609 0)"/>
       <use xlink:href="#DejaVuSans-56" transform="translate(107.080078 0)"/>
       <use xlink:href="#DejaVuSans-65" transform="translate(167.738281 0)"/>
       <use xlink:href="#DejaVuSans-6c" transform="translate(229.261719 0)"/>
       <use xlink:href="#DejaVuSans-6f" transform="translate(257.044922 0)"/>
       <use xlink:href="#DejaVuSans-20" transform="translate(318.226562 0)"/>
       <use xlink:href="#DejaVuSans-28" transform="translate(350.013672 0)"/>
       <use xlink:href="#DejaVuSans-64" transform="translate(389.027344 0)"/>
       <use xlink:href="#DejaVuSans-79" transform="translate(452.503906 0)"/>
       <use xlink:href="#DejaVuSans-6e" transform="translate(511.683594 0)"/>
       <use xlink:href="#DejaVuSans-29" transform="translate(575.0625 0)"/>
      </g>
     </g>
    </g>
    <g id="xtick_2">
     <g id="line2d_2">
      <g>
       <use xlink:href="#mee26c24baa" x="54.499167" y="241.25" style="stroke: #000000; stroke-width: 1.25"/>
      </g>
     </g>
     <g id="text_2">
      <!-- GraphVelo (std) -->
      <g style="fill: #262626" transform="translate(57.258542 327.998437) rotate(-90) scale(0.1 -0.1)">
       <defs>
        <path id="DejaVuSans-47" d="M 3809 666 
L 3809 1919 
L 2778 1919 
L 2778 2438 
L 4434 2438 
L 4434 434 
Q 4069 175 3628 42 
Q 3188 -91 2688 -91 
Q 1594 -91 976 548 
Q 359 1188 359 2328 
Q 359 3472 976 4111 
Q 1594 4750 2688 4750 
Q 3144 4750 3555 4637 
Q 3966 4525 4313 4306 
L 4313 3634 
Q 3963 3931 3569 4081 
Q 3175 4231 2741 4231 
Q 1884 4231 1454 3753 
Q 1025 3275 1025 2328 
Q 1025 1384 1454 906 
Q 1884 428 2741 428 
Q 3075 428 3337 486 
Q 3600 544 3809 666 
z
" transform="scale(0.015625)"/>
        <path id="DejaVuSans-72" d="M 2631 2963 
Q 2534 3019 2420 3045 
Q 2306 3072 2169 3072 
Q 1681 3072 1420 2755 
Q 1159 2438 1159 1844 
L 1159 0 
L 581 0 
L 581 3500 
L 1159 3500 
L 1159 2956 
Q 1341 3275 1631 3429 
Q 1922 3584 2338 3584 
Q 2397 3584 2469 3576 
Q 2541 3569 2628 3553 
L 2631 2963 
z
" transform="scale(0.015625)"/>
        <path id="DejaVuSans-61" d="M 2194 1759 
Q 1497 1759 1228 1600 
Q 959 1441 959 1056 
Q 959 750 1161 570 
Q 1363 391 1709 391 
Q 2188 391 2477 730 
Q 2766 1069 2766 1631 
L 2766 1759 
L 2194 1759 
z
M 3341 1997 
L 3341 0 
L 2766 0 
L 2766 531 
Q 2569 213 2275 61 
Q 1981 -91 1556 -91 
Q 1019 -91 701 211 
Q 384 513 384 1019 
Q 384 1609 779 1909 
Q 1175 2209 1959 2209 
L 2766 2209 
L 2766 2266 
Q 2766 2663 2505 2880 
Q 2244 3097 1772 3097 
Q 1472 3097 1187 3025 
Q 903 2953 641 2809 
L 641 3341 
Q 956 3463 1253 3523 
Q 1550 3584 1831 3584 
Q 2591 3584 2966 3190 
Q 3341 2797 3341 1997 
z
" transform="scale(0.015625)"/>
        <path id="DejaVuSans-70" d="M 1159 525 
L 1159 -1331 
L 581 -1331 
L 581 3500 
L 1159 3500 
L 1159 2969 
Q 1341 3281 1617 3432 
Q 1894 3584 2278 3584 
Q 2916 3584 3314 3078 
Q 3713 2572 3713 1747 
Q 3713 922 3314 415 
Q 2916 -91 2278 -91 
Q 1894 -91 1617 61 
Q 1341 213 1159 525 
z
M 3116 1747 
Q 3116 2381 2855 2742 
Q 2594 3103 2138 3103 
Q 1681 3103 1420 2742 
Q 1159 2381 1159 1747 
Q 1159 1113 1420 752 
Q 1681 391 2138 391 
Q 2594 391 2855 752 
Q 3116 1113 3116 1747 
z
" transform="scale(0.015625)"/>
        <path id="DejaVuSans-68" d="M 3513 2113 
L 3513 0 
L 2938 0 
L 2938 2094 
Q 2938 2591 2744 2837 
Q 2550 3084 2163 3084 
Q 1697 3084 1428 2787 
Q 1159 2491 1159 1978 
L 1159 0 
L 581 0 
L 581 4863 
L 1159 4863 
L 1159 2956 
Q 1366 3272 1645 3428 
Q 1925 3584 2291 3584 
Q 2894 3584 3203 3211 
Q 3513 2838 3513 2113 
z
" transform="scale(0.015625)"/>
        <path id="DejaVuSans-74" d="M 1172 4494 
L 1172 3500 
L 2356 3500 
L 2356 3053 
L 1172 3053 
L 1172 1153 
Q 1172 725 1289 603 
Q 1406 481 1766 481 
L 2356 481 
L 2356 0 
L 1766 0 
Q 1100 0 847 248 
Q 594 497 594 1153 
L 594 3053 
L 172 3053 
L 172 3500 
L 594 3500 
L 594 4494 
L 1172 4494 
z
" transform="scale(0.015625)"/>
       </defs>
       <use xlink:href="#DejaVuSans-47"/>
       <use xlink:href="#DejaVuSans-72" transform="translate(77.490234 0)"/>
       <use xlink:href="#DejaVuSans-61" transform="translate(118.603516 0)"/>
       <use xlink:href="#DejaVuSans-70" transform="translate(179.882812 0)"/>
       <use xlink:href="#DejaVuSans-68" transform="translate(243.359375 0)"/>
       <use xlink:href="#DejaVuSans-56" transform="translate(306.738281 0)"/>
       <use xlink:href="#DejaVuSans-65" transform="translate(367.396484 0)"/>
       <use xlink:href="#DejaVuSans-6c" transform="translate(428.919922 0)"/>
       <use xlink:href="#DejaVuSans-6f" transform="translate(456.703125 0)"/>
       <use xlink:href="#DejaVuSans-20" transform="translate(517.884766 0)"/>
       <use xlink:href="#DejaVuSans-28" transform="translate(549.671875 0)"/>
       <use xlink:href="#DejaVuSans-73" transform="translate(588.685547 0)"/>
       <use xlink:href="#DejaVuSans-74" transform="translate(640.785156 0)"/>
       <use xlink:href="#DejaVuSans-64" transform="translate(679.994141 0)"/>
       <use xlink:href="#DejaVuSans-29" transform="translate(743.470703 0)"/>
      </g>
     </g>
    </g>
    <g id="xtick_3">
     <g id="line2d_3">
      <g>
       <use xlink:href="#mee26c24baa" x="66.351061" y="241.25" style="stroke: #000000; stroke-width: 1.25"/>
      </g>
     </g>
     <g id="text_3">
      <!-- cellDancer -->
      <g style="fill: #262626" transform="translate(69.110436 302.885937) rotate(-90) scale(0.1 -0.1)">
       <defs>
        <path id="DejaVuSans-44" d="M 1259 4147 
L 1259 519 
L 2022 519 
Q 2988 519 3436 956 
Q 3884 1394 3884 2338 
Q 3884 3275 3436 3711 
Q 2988 4147 2022 4147 
L 1259 4147 
z
M 628 4666 
L 1925 4666 
Q 3281 4666 3915 4102 
Q 4550 3538 4550 2338 
Q 4550 1131 3912 565 
Q 3275 0 1925 0 
L 628 0 
L 628 4666 
z
" transform="scale(0.015625)"/>
       </defs>
       <use xlink:href="#DejaVuSans-63"/>
       <use xlink:href="#DejaVuSans-65" transform="translate(54.980469 0)"/>
       <use xlink:href="#DejaVuSans-6c" transform="translate(116.503906 0)"/>
       <use xlink:href="#DejaVuSans-6c" transform="translate(144.287109 0)"/>
       <use xlink:href="#DejaVuSans-44" transform="translate(172.070312 0)"/>
       <use xlink:href="#DejaVuSans-61" transform="translate(249.072266 0)"/>
       <use xlink:href="#DejaVuSans-6e" transform="translate(310.351562 0)"/>
       <use xlink:href="#DejaVuSans-63" transform="translate(373.730469 0)"/>
       <use xlink:href="#DejaVuSans-65" transform="translate(428.710938 0)"/>
       <use xlink:href="#DejaVuSans-72" transform="translate(490.234375 0)"/>
      </g>
     </g>
    </g>
    <g id="xtick_4">
     <g id="line2d_4">
      <g>
       <use xlink:href="#mee26c24baa" x="78.202955" y="241.25" style="stroke: #000000; stroke-width: 1.25"/>
      </g>
     </g>
     <g id="text_4">
      <!--   -velo -->
      <g style="fill: #262626" transform="translate(80.96233 280.420312) rotate(-90) scale(0.1 -0.1)">
       <defs>
        <path id="DejaVuSans-2d" d="M 313 2009 
L 1997 2009 
L 1997 1497 
L 313 1497 
L 313 2009 
z
" transform="scale(0.015625)"/>
        <path id="DejaVuSans-76" d="M 191 3500 
L 800 3500 
L 1894 563 
L 2988 3500 
L 3597 3500 
L 2284 0 
L 1503 0 
L 191 3500 
z
" transform="scale(0.015625)"/>
       </defs>
       <use xlink:href="#DejaVuSans-20"/>
       <use xlink:href="#DejaVuSans-20" transform="translate(31.787109 0)"/>
       <use xlink:href="#DejaVuSans-2d" transform="translate(63.574219 0)"/>
       <use xlink:href="#DejaVuSans-76" transform="translate(97.033203 0)"/>
       <use xlink:href="#DejaVuSans-65" transform="translate(156.212891 0)"/>
       <use xlink:href="#DejaVuSans-6c" transform="translate(217.736328 0)"/>
       <use xlink:href="#DejaVuSans-6f" transform="translate(245.519531 0)"/>
      </g>
     </g>
    </g>
    <g id="xtick_5">
     <g id="line2d_5">
      <g>
       <use xlink:href="#mee26c24baa" x="90.054848" y="241.25" style="stroke: #000000; stroke-width: 1.25"/>
      </g>
     </g>
     <g id="text_5">
      <!-- Dynamo (m1) -->
      <g style="fill: #262626" transform="translate(92.814223 318.778125) rotate(-90) scale(0.1 -0.1)">
       <defs>
        <path id="DejaVuSans-6d" d="M 3328 2828 
Q 3544 3216 3844 3400 
Q 4144 3584 4550 3584 
Q 5097 3584 5394 3201 
Q 5691 2819 5691 2113 
L 5691 0 
L 5113 0 
L 5113 2094 
Q 5113 2597 4934 2840 
Q 4756 3084 4391 3084 
Q 3944 3084 3684 2787 
Q 3425 2491 3425 1978 
L 3425 0 
L 2847 0 
L 2847 2094 
Q 2847 2600 2669 2842 
Q 2491 3084 2119 3084 
Q 1678 3084 1418 2786 
Q 1159 2488 1159 1978 
L 1159 0 
L 581 0 
L 581 3500 
L 1159 3500 
L 1159 2956 
Q 1356 3278 1631 3431 
Q 1906 3584 2284 3584 
Q 2666 3584 2933 3390 
Q 3200 3197 3328 2828 
z
" transform="scale(0.015625)"/>
        <path id="DejaVuSans-31" d="M 794 531 
L 1825 531 
L 1825 4091 
L 703 3866 
L 703 4441 
L 1819 4666 
L 2450 4666 
L 2450 531 
L 3481 531 
L 3481 0 
L 794 0 
L 794 531 
z
" transform="scale(0.015625)"/>
       </defs>
       <use xlink:href="#DejaVuSans-44"/>
       <use xlink:href="#DejaVuSans-79" transform="translate(77.001953 0)"/>
       <use xlink:href="#DejaVuSans-6e" transform="translate(136.181641 0)"/>
       <use xlink:href="#DejaVuSans-61" transform="translate(199.560547 0)"/>
       <use xlink:href="#DejaVuSans-6d" transform="translate(260.839844 0)"/>
       <use xlink:href="#DejaVuSans-6f" transform="translate(358.251953 0)"/>
       <use xlink:href="#DejaVuSans-20" transform="translate(419.433594 0)"/>
       <use xlink:href="#DejaVuSans-28" transform="translate(451.220703 0)"/>
       <use xlink:href="#DejaVuSans-6d" transform="translate(490.234375 0)"/>
       <use xlink:href="#DejaVuSans-31" transform="translate(587.646484 0)"/>
       <use xlink:href="#DejaVuSans-29" transform="translate(651.269531 0)"/>
      </g>
     </g>
    </g>
    <g id="xtick_6">
     <g id="line2d_6">
      <g>
       <use xlink:href="#mee26c24baa" x="101.906742" y="241.25" style="stroke: #000000; stroke-width: 1.25"/>
      </g>
     </g>
     <g id="text_6">
      <!-- UniTVelo (uni) -->
      <g style="fill: #262626" transform="translate(104.666117 319.842187) rotate(-90) scale(0.1 -0.1)">
       <defs>
        <path id="DejaVuSans-55" d="M 556 4666 
L 1191 4666 
L 1191 1831 
Q 1191 1081 1462 751 
Q 1734 422 2344 422 
Q 2950 422 3222 751 
Q 3494 1081 3494 1831 
L 3494 4666 
L 4128 4666 
L 4128 1753 
Q 4128 841 3676 375 
Q 3225 -91 2344 -91 
Q 1459 -91 1007 375 
Q 556 841 556 1753 
L 556 4666 
z
" transform="scale(0.015625)"/>
        <path id="DejaVuSans-69" d="M 603 3500 
L 1178 3500 
L 1178 0 
L 603 0 
L 603 3500 
z
M 603 4863 
L 1178 4863 
L 1178 4134 
L 603 4134 
L 603 4863 
z
" transform="scale(0.015625)"/>
        <path id="DejaVuSans-54" d="M -19 4666 
L 3928 4666 
L 3928 4134 
L 2272 4134 
L 2272 0 
L 1638 0 
L 1638 4134 
L -19 4134 
L -19 4666 
z
" transform="scale(0.015625)"/>
        <path id="DejaVuSans-75" d="M 544 1381 
L 544 3500 
L 1119 3500 
L 1119 1403 
Q 1119 906 1312 657 
Q 1506 409 1894 409 
Q 2359 409 2629 706 
Q 2900 1003 2900 1516 
L 2900 3500 
L 3475 3500 
L 3475 0 
L 2900 0 
L 2900 538 
Q 2691 219 2414 64 
Q 2138 -91 1772 -91 
Q 1169 -91 856 284 
Q 544 659 544 1381 
z
M 1991 3584 
L 1991 3584 
z
" transform="scale(0.015625)"/>
       </defs>
       <use xlink:href="#DejaVuSans-55"/>
       <use xlink:href="#DejaVuSans-6e" transform="translate(73.193359 0)"/>
       <use xlink:href="#DejaVuSans-69" transform="translate(136.572266 0)"/>
       <use xlink:href="#DejaVuSans-54" transform="translate(164.355469 0)"/>
       <use xlink:href="#DejaVuSans-56" transform="translate(225.439453 0)"/>
       <use xlink:href="#DejaVuSans-65" transform="translate(286.097656 0)"/>
       <use xlink:href="#DejaVuSans-6c" transform="translate(347.621094 0)"/>
       <use xlink:href="#DejaVuSans-6f" transform="translate(375.404297 0)"/>
       <use xlink:href="#DejaVuSans-20" transform="translate(436.585938 0)"/>
       <use xlink:href="#DejaVuSans-28" transform="translate(468.373047 0)"/>
       <use xlink:href="#DejaVuSans-75" transform="translate(507.386719 0)"/>
       <use xlink:href="#DejaVuSans-6e" transform="translate(570.765625 0)"/>
       <use xlink:href="#DejaVuSans-69" transform="translate(634.144531 0)"/>
       <use xlink:href="#DejaVuSans-29" transform="translate(661.927734 0)"/>
      </g>
     </g>
    </g>
    <g id="xtick_7">
     <g id="line2d_7">
      <g>
       <use xlink:href="#mee26c24baa" x="113.758636" y="241.25" style="stroke: #000000; stroke-width: 1.25"/>
      </g>
     </g>
     <g id="text_7">
      <!-- VeloVAE (Full VB) -->
      <g style="fill: #262626" transform="translate(116.518011 335.184375) rotate(-90) scale(0.1 -0.1)">
       <defs>
        <path id="DejaVuSans-41" d="M 2188 4044 
L 1331 1722 
L 3047 1722 
L 2188 4044 
z
M 1831 4666 
L 2547 4666 
L 4325 0 
L 3669 0 
L 3244 1197 
L 1141 1197 
L 716 0 
L 50 0 
L 1831 4666 
z
" transform="scale(0.015625)"/>
        <path id="DejaVuSans-45" d="M 628 4666 
L 3578 4666 
L 3578 4134 
L 1259 4134 
L 1259 2753 
L 3481 2753 
L 3481 2222 
L 1259 2222 
L 1259 531 
L 3634 531 
L 3634 0 
L 628 0 
L 628 4666 
z
" transform="scale(0.015625)"/>
        <path id="DejaVuSans-46" d="M 628 4666 
L 3309 4666 
L 3309 4134 
L 1259 4134 
L 1259 2759 
L 3109 2759 
L 3109 2228 
L 1259 2228 
L 1259 0 
L 628 0 
L 628 4666 
z
" transform="scale(0.015625)"/>
        <path id="DejaVuSans-42" d="M 1259 2228 
L 1259 519 
L 2272 519 
Q 2781 519 3026 730 
Q 3272 941 3272 1375 
Q 3272 1813 3026 2020 
Q 2781 2228 2272 2228 
L 1259 2228 
z
M 1259 4147 
L 1259 2741 
L 2194 2741 
Q 2656 2741 2882 2914 
Q 3109 3088 3109 3444 
Q 3109 3797 2882 3972 
Q 2656 4147 2194 4147 
L 1259 4147 
z
M 628 4666 
L 2241 4666 
Q 2963 4666 3353 4366 
Q 3744 4066 3744 3513 
Q 3744 3084 3544 2831 
Q 3344 2578 2956 2516 
Q 3422 2416 3680 2098 
Q 3938 1781 3938 1306 
Q 3938 681 3513 340 
Q 3088 0 2303 0 
L 628 0 
L 628 4666 
z
" transform="scale(0.015625)"/>
       </defs>
       <use xlink:href="#DejaVuSans-56"/>
       <use xlink:href="#DejaVuSans-65" transform="translate(60.658203 0)"/>
       <use xlink:href="#DejaVuSans-6c" transform="translate(122.181641 0)"/>
       <use xlink:href="#DejaVuSans-6f" transform="translate(149.964844 0)"/>
       <use xlink:href="#DejaVuSans-56" transform="translate(211.146484 0)"/>
       <use xlink:href="#DejaVuSans-41" transform="translate(273.179688 0)"/>
       <use xlink:href="#DejaVuSans-45" transform="translate(341.587891 0)"/>
       <use xlink:href="#DejaVuSans-20" transform="translate(404.771484 0)"/>
       <use xlink:href="#DejaVuSans-28" transform="translate(436.558594 0)"/>
       <use xlink:href="#DejaVuSans-46" transform="translate(475.572266 0)"/>
       <use xlink:href="#DejaVuSans-75" transform="translate(527.591797 0)"/>
       <use xlink:href="#DejaVuSans-6c" transform="translate(590.970703 0)"/>
       <use xlink:href="#DejaVuSans-6c" transform="translate(618.753906 0)"/>
       <use xlink:href="#DejaVuSans-20" transform="translate(646.537109 0)"/>
       <use xlink:href="#DejaVuSans-56" transform="translate(678.324219 0)"/>
       <use xlink:href="#DejaVuSans-42" transform="translate(746.732422 0)"/>
       <use xlink:href="#DejaVuSans-29" transform="translate(815.335938 0)"/>
      </g>
     </g>
    </g>
    <g id="xtick_8">
     <g id="line2d_8">
      <g>
       <use xlink:href="#mee26c24baa" x="125.61053" y="241.25" style="stroke: #000000; stroke-width: 1.25"/>
      </g>
     </g>
     <g id="text_8">
      <!-- veloVI -->
      <g style="fill: #262626" transform="translate(128.369905 280.509375) rotate(-90) scale(0.1 -0.1)">
       <defs>
        <path id="DejaVuSans-49" d="M 628 4666 
L 1259 4666 
L 1259 0 
L 628 0 
L 628 4666 
z
" transform="scale(0.015625)"/>
       </defs>
       <use xlink:href="#DejaVuSans-76"/>
       <use xlink:href="#DejaVuSans-65" transform="translate(59.179688 0)"/>
       <use xlink:href="#DejaVuSans-6c" transform="translate(120.703125 0)"/>
       <use xlink:href="#DejaVuSans-6f" transform="translate(148.486328 0)"/>
       <use xlink:href="#DejaVuSans-56" transform="translate(209.667969 0)"/>
       <use xlink:href="#DejaVuSans-49" transform="translate(278.076172 0)"/>
      </g>
     </g>
    </g>
    <g id="xtick_9">
     <g id="line2d_9">
      <g>
       <use xlink:href="#mee26c24baa" x="137.462424" y="241.25" style="stroke: #000000; stroke-width: 1.25"/>
      </g>
     </g>
     <g id="text_9">
      <!-- Pyro-Velocity (m1) -->
      <g style="fill: #262626" transform="translate(140.221799 341.226562) rotate(-90) scale(0.1 -0.1)">
       <defs>
        <path id="DejaVuSans-50" d="M 1259 4147 
L 1259 2394 
L 2053 2394 
Q 2494 2394 2734 2622 
Q 2975 2850 2975 3272 
Q 2975 3691 2734 3919 
Q 2494 4147 2053 4147 
L 1259 4147 
z
M 628 4666 
L 2053 4666 
Q 2838 4666 3239 4311 
Q 3641 3956 3641 3272 
Q 3641 2581 3239 2228 
Q 2838 1875 2053 1875 
L 1259 1875 
L 1259 0 
L 628 0 
L 628 4666 
z
" transform="scale(0.015625)"/>
       </defs>
       <use xlink:href="#DejaVuSans-50"/>
       <use xlink:href="#DejaVuSans-79" transform="translate(60.302734 0)"/>
       <use xlink:href="#DejaVuSans-72" transform="translate(119.482422 0)"/>
       <use xlink:href="#DejaVuSans-6f" transform="translate(158.345703 0)"/>
       <use xlink:href="#DejaVuSans-2d" transform="translate(221.402344 0)"/>
       <use xlink:href="#DejaVuSans-56" transform="translate(251.611328 0)"/>
       <use xlink:href="#DejaVuSans-65" transform="translate(312.269531 0)"/>
       <use xlink:href="#DejaVuSans-6c" transform="translate(373.792969 0)"/>
       <use xlink:href="#DejaVuSans-6f" transform="translate(401.576172 0)"/>
       <use xlink:href="#DejaVuSans-63" transform="translate(462.757812 0)"/>
       <use xlink:href="#DejaVuSans-69" transform="translate(517.738281 0)"/>
       <use xlink:href="#DejaVuSans-74" transform="translate(545.521484 0)"/>
       <use xlink:href="#DejaVuSans-79" transform="translate(584.730469 0)"/>
       <use xlink:href="#DejaVuSans-20" transform="translate(643.910156 0)"/>
       <use xlink:href="#DejaVuSans-28" transform="translate(675.697266 0)"/>
       <use xlink:href="#DejaVuSans-6d" transform="translate(714.710938 0)"/>
       <use xlink:href="#DejaVuSans-31" transform="translate(812.123047 0)"/>
       <use xlink:href="#DejaVuSans-29" transform="translate(875.746094 0)"/>
      </g>
     </g>
    </g>
    <g id="xtick_10">
     <g id="line2d_10">
      <g>
       <use xlink:href="#mee26c24baa" x="149.314318" y="241.25" style="stroke: #000000; stroke-width: 1.25"/>
      </g>
     </g>
     <g id="text_10">
      <!-- VeloVAE (std) -->
      <g style="fill: #262626" transform="translate(152.073693 316.6875) rotate(-90) scale(0.1 -0.1)">
       <use xlink:href="#DejaVuSans-56"/>
       <use xlink:href="#DejaVuSans-65" transform="translate(60.658203 0)"/>
       <use xlink:href="#DejaVuSans-6c" transform="translate(122.181641 0)"/>
       <use xlink:href="#DejaVuSans-6f" transform="translate(149.964844 0)"/>
       <use xlink:href="#DejaVuSans-56" transform="translate(211.146484 0)"/>
       <use xlink:href="#DejaVuSans-41" transform="translate(273.179688 0)"/>
       <use xlink:href="#DejaVuSans-45" transform="translate(341.587891 0)"/>
       <use xlink:href="#DejaVuSans-20" transform="translate(404.771484 0)"/>
       <use xlink:href="#DejaVuSans-28" transform="translate(436.558594 0)"/>
       <use xlink:href="#DejaVuSans-73" transform="translate(475.572266 0)"/>
       <use xlink:href="#DejaVuSans-74" transform="translate(527.671875 0)"/>
       <use xlink:href="#DejaVuSans-64" transform="translate(566.880859 0)"/>
       <use xlink:href="#DejaVuSans-29" transform="translate(630.357422 0)"/>
      </g>
     </g>
    </g>
    <g id="xtick_11">
     <g id="line2d_11">
      <g>
       <use xlink:href="#mee26c24baa" x="161.166212" y="241.25" style="stroke: #000000; stroke-width: 1.25"/>
      </g>
     </g>
     <g id="text_11">
      <!-- UniTVelo (ind) -->
      <g style="fill: #262626" transform="translate(163.925587 319.853125) rotate(-90) scale(0.1 -0.1)">
       <use xlink:href="#DejaVuSans-55"/>
       <use xlink:href="#DejaVuSans-6e" transform="translate(73.193359 0)"/>
       <use xlink:href="#DejaVuSans-69" transform="translate(136.572266 0)"/>
       <use xlink:href="#DejaVuSans-54" transform="translate(164.355469 0)"/>
       <use xlink:href="#DejaVuSans-56" transform="translate(225.439453 0)"/>
       <use xlink:href="#DejaVuSans-65" transform="translate(286.097656 0)"/>
       <use xlink:href="#DejaVuSans-6c" transform="translate(347.621094 0)"/>
       <use xlink:href="#DejaVuSans-6f" transform="translate(375.404297 0)"/>
       <use xlink:href="#DejaVuSans-20" transform="translate(436.585938 0)"/>
       <use xlink:href="#DejaVuSans-28" transform="translate(468.373047 0)"/>
       <use xlink:href="#DejaVuSans-69" transform="translate(507.386719 0)"/>
       <use xlink:href="#DejaVuSans-6e" transform="translate(535.169922 0)"/>
       <use xlink:href="#DejaVuSans-64" transform="translate(598.548828 0)"/>
       <use xlink:href="#DejaVuSans-29" transform="translate(662.025391 0)"/>
      </g>
     </g>
    </g>
    <g id="xtick_12">
     <g id="line2d_12">
      <g>
       <use xlink:href="#mee26c24baa" x="173.018106" y="241.25" style="stroke: #000000; stroke-width: 1.25"/>
      </g>
     </g>
     <g id="text_12">
      <!-- SvelvetVAE -->
      <g style="fill: #262626" transform="translate(175.777481 306.303125) rotate(-90) scale(0.1 -0.1)">
       <defs>
        <path id="DejaVuSans-53" d="M 3425 4513 
L 3425 3897 
Q 3066 4069 2747 4153 
Q 2428 4238 2131 4238 
Q 1616 4238 1336 4038 
Q 1056 3838 1056 3469 
Q 1056 3159 1242 3001 
Q 1428 2844 1947 2747 
L 2328 2669 
Q 3034 2534 3370 2195 
Q 3706 1856 3706 1288 
Q 3706 609 3251 259 
Q 2797 -91 1919 -91 
Q 1588 -91 1214 -16 
Q 841 59 441 206 
L 441 856 
Q 825 641 1194 531 
Q 1563 422 1919 422 
Q 2459 422 2753 634 
Q 3047 847 3047 1241 
Q 3047 1584 2836 1778 
Q 2625 1972 2144 2069 
L 1759 2144 
Q 1053 2284 737 2584 
Q 422 2884 422 3419 
Q 422 4038 858 4394 
Q 1294 4750 2059 4750 
Q 2388 4750 2728 4690 
Q 3069 4631 3425 4513 
z
" transform="scale(0.015625)"/>
       </defs>
       <use xlink:href="#DejaVuSans-53"/>
       <use xlink:href="#DejaVuSans-76" transform="translate(63.476562 0)"/>
       <use xlink:href="#DejaVuSans-65" transform="translate(122.65625 0)"/>
       <use xlink:href="#DejaVuSans-6c" transform="translate(184.179688 0)"/>
       <use xlink:href="#DejaVuSans-76" transform="translate(211.962891 0)"/>
       <use xlink:href="#DejaVuSans-65" transform="translate(271.142578 0)"/>
       <use xlink:href="#DejaVuSans-74" transform="translate(332.666016 0)"/>
       <use xlink:href="#DejaVuSans-56" transform="translate(371.875 0)"/>
       <use xlink:href="#DejaVuSans-41" transform="translate(433.908203 0)"/>
       <use xlink:href="#DejaVuSans-45" transform="translate(502.316406 0)"/>
      </g>
     </g>
    </g>
    <g id="xtick_13">
     <g id="line2d_13">
      <g>
       <use xlink:href="#mee26c24baa" x="184.87" y="241.25" style="stroke: #000000; stroke-width: 1.25"/>
      </g>
     </g>
     <g id="text_13">
      <!-- DeepVelo -->
      <g style="fill: #262626" transform="translate(187.629375 297.220312) rotate(-90) scale(0.1 -0.1)">
       <use xlink:href="#DejaVuSans-44"/>
       <use xlink:href="#DejaVuSans-65" transform="translate(77.001953 0)"/>
       <use xlink:href="#DejaVuSans-65" transform="translate(138.525391 0)"/>
       <use xlink:href="#DejaVuSans-70" transform="translate(200.048828 0)"/>
       <use xlink:href="#DejaVuSans-56" transform="translate(263.525391 0)"/>
       <use xlink:href="#DejaVuSans-65" transform="translate(324.183594 0)"/>
       <use xlink:href="#DejaVuSans-6c" transform="translate(385.707031 0)"/>
       <use xlink:href="#DejaVuSans-6f" transform="translate(413.490234 0)"/>
      </g>
     </g>
    </g>
    <g id="xtick_14">
     <g id="line2d_14">
      <g>
       <use xlink:href="#mee26c24baa" x="196.721894" y="241.25" style="stroke: #000000; stroke-width: 1.25"/>
      </g>
     </g>
     <g id="text_14">
      <!-- TIVelo (std) -->
      <g style="fill: #262626" transform="translate(199.481269 306.382812) rotate(-90) scale(0.1 -0.1)">
       <use xlink:href="#DejaVuSans-54"/>
       <use xlink:href="#DejaVuSans-49" transform="translate(61.083984 0)"/>
       <use xlink:href="#DejaVuSans-56" transform="translate(90.576172 0)"/>
       <use xlink:href="#DejaVuSans-65" transform="translate(151.234375 0)"/>
       <use xlink:href="#DejaVuSans-6c" transform="translate(212.757812 0)"/>
       <use xlink:href="#DejaVuSans-6f" transform="translate(240.541016 0)"/>
       <use xlink:href="#DejaVuSans-20" transform="translate(301.722656 0)"/>
       <use xlink:href="#DejaVuSans-28" transform="translate(333.509766 0)"/>
       <use xlink:href="#DejaVuSans-73" transform="translate(372.523438 0)"/>
       <use xlink:href="#DejaVuSans-74" transform="translate(424.623047 0)"/>
       <use xlink:href="#DejaVuSans-64" transform="translate(463.832031 0)"/>
       <use xlink:href="#DejaVuSans-29" transform="translate(527.308594 0)"/>
      </g>
     </g>
    </g>
    <g id="xtick_15">
     <g id="line2d_15">
      <g>
       <use xlink:href="#mee26c24baa" x="208.573788" y="241.25" style="stroke: #000000; stroke-width: 1.25"/>
      </g>
     </g>
     <g id="text_15">
      <!-- scTour (ZINB) -->
      <g style="fill: #262626" transform="translate(211.333163 316.55625) rotate(-90) scale(0.1 -0.1)">
       <defs>
        <path id="DejaVuSans-5a" d="M 359 4666 
L 4025 4666 
L 4025 4184 
L 1075 531 
L 4097 531 
L 4097 0 
L 288 0 
L 288 481 
L 3238 4134 
L 359 4134 
L 359 4666 
z
" transform="scale(0.015625)"/>
        <path id="DejaVuSans-4e" d="M 628 4666 
L 1478 4666 
L 3547 763 
L 3547 4666 
L 4159 4666 
L 4159 0 
L 3309 0 
L 1241 3903 
L 1241 0 
L 628 0 
L 628 4666 
z
" transform="scale(0.015625)"/>
       </defs>
       <use xlink:href="#DejaVuSans-73"/>
       <use xlink:href="#DejaVuSans-63" transform="translate(52.099609 0)"/>
       <use xlink:href="#DejaVuSans-54" transform="translate(107.080078 0)"/>
       <use xlink:href="#DejaVuSans-6f" transform="translate(151.164062 0)"/>
       <use xlink:href="#DejaVuSans-75" transform="translate(212.345703 0)"/>
       <use xlink:href="#DejaVuSans-72" transform="translate(275.724609 0)"/>
       <use xlink:href="#DejaVuSans-20" transform="translate(316.837891 0)"/>
       <use xlink:href="#DejaVuSans-28" transform="translate(348.625 0)"/>
       <use xlink:href="#DejaVuSans-5a" transform="translate(387.638672 0)"/>
       <use xlink:href="#DejaVuSans-49" transform="translate(456.144531 0)"/>
       <use xlink:href="#DejaVuSans-4e" transform="translate(485.636719 0)"/>
       <use xlink:href="#DejaVuSans-42" transform="translate(560.441406 0)"/>
       <use xlink:href="#DejaVuSans-29" transform="translate(629.044922 0)"/>
      </g>
     </g>
    </g>
    <g id="xtick_16">
     <g id="line2d_16">
      <g>
       <use xlink:href="#mee26c24baa" x="220.425682" y="241.25" style="stroke: #000000; stroke-width: 1.25"/>
      </g>
     </g>
     <g id="text_16">
      <!-- TIVelo (simple) -->
      <g style="fill: #262626" transform="translate(223.185057 323.9125) rotate(-90) scale(0.1 -0.1)">
       <use xlink:href="#DejaVuSans-54"/>
       <use xlink:href="#DejaVuSans-49" transform="translate(61.083984 0)"/>
       <use xlink:href="#DejaVuSans-56" transform="translate(90.576172 0)"/>
       <use xlink:href="#DejaVuSans-65" transform="translate(151.234375 0)"/>
       <use xlink:href="#DejaVuSans-6c" transform="translate(212.757812 0)"/>
       <use xlink:href="#DejaVuSans-6f" transform="translate(240.541016 0)"/>
       <use xlink:href="#DejaVuSans-20" transform="translate(301.722656 0)"/>
       <use xlink:href="#DejaVuSans-28" transform="translate(333.509766 0)"/>
       <use xlink:href="#DejaVuSans-73" transform="translate(372.523438 0)"/>
       <use xlink:href="#DejaVuSans-69" transform="translate(424.623047 0)"/>
       <use xlink:href="#DejaVuSans-6d" transform="translate(452.40625 0)"/>
       <use xlink:href="#DejaVuSans-70" transform="translate(549.818359 0)"/>
       <use xlink:href="#DejaVuSans-6c" transform="translate(613.294922 0)"/>
       <use xlink:href="#DejaVuSans-65" transform="translate(641.078125 0)"/>
       <use xlink:href="#DejaVuSans-29" transform="translate(702.601562 0)"/>
      </g>
     </g>
    </g>
    <g id="xtick_17">
     <g id="line2d_17">
      <g>
       <use xlink:href="#mee26c24baa" x="232.277576" y="241.25" style="stroke: #000000; stroke-width: 1.25"/>
      </g>
     </g>
     <g id="text_17">
      <!-- Pyro-Velocity (m2) -->
      <g style="fill: #262626" transform="translate(235.036951 341.226562) rotate(-90) scale(0.1 -0.1)">
       <defs>
        <path id="DejaVuSans-32" d="M 1228 531 
L 3431 531 
L 3431 0 
L 469 0 
L 469 531 
Q 828 903 1448 1529 
Q 2069 2156 2228 2338 
Q 2531 2678 2651 2914 
Q 2772 3150 2772 3378 
Q 2772 3750 2511 3984 
Q 2250 4219 1831 4219 
Q 1534 4219 1204 4116 
Q 875 4013 500 3803 
L 500 4441 
Q 881 4594 1212 4672 
Q 1544 4750 1819 4750 
Q 2544 4750 2975 4387 
Q 3406 4025 3406 3419 
Q 3406 3131 3298 2873 
Q 3191 2616 2906 2266 
Q 2828 2175 2409 1742 
Q 1991 1309 1228 531 
z
" transform="scale(0.015625)"/>
       </defs>
       <use xlink:href="#DejaVuSans-50"/>
       <use xlink:href="#DejaVuSans-79" transform="translate(60.302734 0)"/>
       <use xlink:href="#DejaVuSans-72" transform="translate(119.482422 0)"/>
       <use xlink:href="#DejaVuSans-6f" transform="translate(158.345703 0)"/>
       <use xlink:href="#DejaVuSans-2d" transform="translate(221.402344 0)"/>
       <use xlink:href="#DejaVuSans-56" transform="translate(251.611328 0)"/>
       <use xlink:href="#DejaVuSans-65" transform="translate(312.269531 0)"/>
       <use xlink:href="#DejaVuSans-6c" transform="translate(373.792969 0)"/>
       <use xlink:href="#DejaVuSans-6f" transform="translate(401.576172 0)"/>
       <use xlink:href="#DejaVuSans-63" transform="translate(462.757812 0)"/>
       <use xlink:href="#DejaVuSans-69" transform="translate(517.738281 0)"/>
       <use xlink:href="#DejaVuSans-74" transform="translate(545.521484 0)"/>
       <use xlink:href="#DejaVuSans-79" transform="translate(584.730469 0)"/>
       <use xlink:href="#DejaVuSans-20" transform="translate(643.910156 0)"/>
       <use xlink:href="#DejaVuSans-28" transform="translate(675.697266 0)"/>
       <use xlink:href="#DejaVuSans-6d" transform="translate(714.710938 0)"/>
       <use xlink:href="#DejaVuSans-32" transform="translate(812.123047 0)"/>
       <use xlink:href="#DejaVuSans-29" transform="translate(875.746094 0)"/>
      </g>
     </g>
    </g>
    <g id="xtick_18">
     <g id="line2d_18">
      <g>
       <use xlink:href="#mee26c24baa" x="244.12947" y="241.25" style="stroke: #000000; stroke-width: 1.25"/>
      </g>
     </g>
     <g id="text_18">
      <!-- LatentVelo (std) -->
      <g style="fill: #262626" transform="translate(246.888845 329.35625) rotate(-90) scale(0.1 -0.1)">
       <defs>
        <path id="DejaVuSans-4c" d="M 628 4666 
L 1259 4666 
L 1259 531 
L 3531 531 
L 3531 0 
L 628 0 
L 628 4666 
z
" transform="scale(0.015625)"/>
       </defs>
       <use xlink:href="#DejaVuSans-4c"/>
       <use xlink:href="#DejaVuSans-61" transform="translate(55.712891 0)"/>
       <use xlink:href="#DejaVuSans-74" transform="translate(116.992188 0)"/>
       <use xlink:href="#DejaVuSans-65" transform="translate(156.201172 0)"/>
       <use xlink:href="#DejaVuSans-6e" transform="translate(217.724609 0)"/>
       <use xlink:href="#DejaVuSans-74" transform="translate(281.103516 0)"/>
       <use xlink:href="#DejaVuSans-56" transform="translate(320.3125 0)"/>
       <use xlink:href="#DejaVuSans-65" transform="translate(380.970703 0)"/>
       <use xlink:href="#DejaVuSans-6c" transform="translate(442.494141 0)"/>
       <use xlink:href="#DejaVuSans-6f" transform="translate(470.277344 0)"/>
       <use xlink:href="#DejaVuSans-20" transform="translate(531.458984 0)"/>
       <use xlink:href="#DejaVuSans-28" transform="translate(563.246094 0)"/>
       <use xlink:href="#DejaVuSans-73" transform="translate(602.259766 0)"/>
       <use xlink:href="#DejaVuSans-74" transform="translate(654.359375 0)"/>
       <use xlink:href="#DejaVuSans-64" transform="translate(693.568359 0)"/>
       <use xlink:href="#DejaVuSans-29" transform="translate(757.044922 0)"/>
      </g>
     </g>
    </g>
    <g id="xtick_19">
     <g id="line2d_19">
      <g>
       <use xlink:href="#mee26c24baa" x="255.981364" y="241.25" style="stroke: #000000; stroke-width: 1.25"/>
      </g>
     </g>
     <g id="text_19">
      <!-- cell2fate -->
      <g style="fill: #262626" transform="translate(258.740739 293.042187) rotate(-90) scale(0.1 -0.1)">
       <defs>
        <path id="DejaVuSans-66" d="M 2375 4863 
L 2375 4384 
L 1825 4384 
Q 1516 4384 1395 4259 
Q 1275 4134 1275 3809 
L 1275 3500 
L 2222 3500 
L 2222 3053 
L 1275 3053 
L 1275 0 
L 697 0 
L 697 3053 
L 147 3053 
L 147 3500 
L 697 3500 
L 697 3744 
Q 697 4328 969 4595 
Q 1241 4863 1831 4863 
L 2375 4863 
z
" transform="scale(0.015625)"/>
       </defs>
       <use xlink:href="#DejaVuSans-63"/>
       <use xlink:href="#DejaVuSans-65" transform="translate(54.980469 0)"/>
       <use xlink:href="#DejaVuSans-6c" transform="translate(116.503906 0)"/>
       <use xlink:href="#DejaVuSans-6c" transform="translate(144.287109 0)"/>
       <use xlink:href="#DejaVuSans-32" transform="translate(172.070312 0)"/>
       <use xlink:href="#DejaVuSans-66" transform="translate(235.693359 0)"/>
       <use xlink:href="#DejaVuSans-61" transform="translate(270.898438 0)"/>
       <use xlink:href="#DejaVuSans-74" transform="translate(332.177734 0)"/>
       <use xlink:href="#DejaVuSans-65" transform="translate(371.386719 0)"/>
      </g>
     </g>
    </g>
    <g id="xtick_20">
     <g id="line2d_20">
      <g>
       <use xlink:href="#mee26c24baa" x="267.833258" y="241.25" style="stroke: #000000; stroke-width: 1.25"/>
      </g>
     </g>
     <g id="text_20">
      <!-- scTour (NB) -->
      <g style="fill: #262626" transform="translate(270.592633 306.75625) rotate(-90) scale(0.1 -0.1)">
       <use xlink:href="#DejaVuSans-73"/>
       <use xlink:href="#DejaVuSans-63" transform="translate(52.099609 0)"/>
       <use xlink:href="#DejaVuSans-54" transform="translate(107.080078 0)"/>
       <use xlink:href="#DejaVuSans-6f" transform="translate(151.164062 0)"/>
       <use xlink:href="#DejaVuSans-75" transform="translate(212.345703 0)"/>
       <use xlink:href="#DejaVuSans-72" transform="translate(275.724609 0)"/>
       <use xlink:href="#DejaVuSans-20" transform="translate(316.837891 0)"/>
       <use xlink:href="#DejaVuSans-28" transform="translate(348.625 0)"/>
       <use xlink:href="#DejaVuSans-4e" transform="translate(387.638672 0)"/>
       <use xlink:href="#DejaVuSans-42" transform="translate(462.443359 0)"/>
       <use xlink:href="#DejaVuSans-29" transform="translate(531.046875 0)"/>
      </g>
     </g>
    </g>
    <g id="xtick_21">
     <g id="line2d_21">
      <g>
       <use xlink:href="#mee26c24baa" x="279.685152" y="241.25" style="stroke: #000000; stroke-width: 1.25"/>
      </g>
     </g>
     <g id="text_21">
      <!-- scTour (MSE) -->
      <g style="fill: #262626" transform="translate(282.444527 313.709375) rotate(-90) scale(0.1 -0.1)">
       <defs>
        <path id="DejaVuSans-4d" d="M 628 4666 
L 1569 4666 
L 2759 1491 
L 3956 4666 
L 4897 4666 
L 4897 0 
L 4281 0 
L 4281 4097 
L 3078 897 
L 2444 897 
L 1241 4097 
L 1241 0 
L 628 0 
L 628 4666 
z
" transform="scale(0.015625)"/>
       </defs>
       <use xlink:href="#DejaVuSans-73"/>
       <use xlink:href="#DejaVuSans-63" transform="translate(52.099609 0)"/>
       <use xlink:href="#DejaVuSans-54" transform="translate(107.080078 0)"/>
       <use xlink:href="#DejaVuSans-6f" transform="translate(151.164062 0)"/>
       <use xlink:href="#DejaVuSans-75" transform="translate(212.345703 0)"/>
       <use xlink:href="#DejaVuSans-72" transform="translate(275.724609 0)"/>
       <use xlink:href="#DejaVuSans-20" transform="translate(316.837891 0)"/>
       <use xlink:href="#DejaVuSans-28" transform="translate(348.625 0)"/>
       <use xlink:href="#DejaVuSans-4d" transform="translate(387.638672 0)"/>
       <use xlink:href="#DejaVuSans-53" transform="translate(473.917969 0)"/>
       <use xlink:href="#DejaVuSans-45" transform="translate(537.394531 0)"/>
       <use xlink:href="#DejaVuSans-29" transform="translate(600.578125 0)"/>
      </g>
     </g>
    </g>
    <g id="xtick_22">
     <g id="line2d_22">
      <g>
       <use xlink:href="#mee26c24baa" x="291.537045" y="241.25" style="stroke: #000000; stroke-width: 1.25"/>
      </g>
     </g>
     <g id="text_22">
      <!-- scVelo (stc) -->
      <g style="fill: #262626" transform="translate(294.29642 307.182812) rotate(-90) scale(0.1 -0.1)">
       <use xlink:href="#DejaVuSans-73"/>
       <use xlink:href="#DejaVuSans-63" transform="translate(52.099609 0)"/>
       <use xlink:href="#DejaVuSans-56" transform="translate(107.080078 0)"/>
       <use xlink:href="#DejaVuSans-65" transform="translate(167.738281 0)"/>
       <use xlink:href="#DejaVuSans-6c" transform="translate(229.261719 0)"/>
       <use xlink:href="#DejaVuSans-6f" transform="translate(257.044922 0)"/>
       <use xlink:href="#DejaVuSans-20" transform="translate(318.226562 0)"/>
       <use xlink:href="#DejaVuSans-28" transform="translate(350.013672 0)"/>
       <use xlink:href="#DejaVuSans-73" transform="translate(389.027344 0)"/>
       <use xlink:href="#DejaVuSans-74" transform="translate(441.126953 0)"/>
       <use xlink:href="#DejaVuSans-63" transform="translate(480.335938 0)"/>
       <use xlink:href="#DejaVuSans-29" transform="translate(535.316406 0)"/>
      </g>
     </g>
    </g>
    <g id="xtick_23">
     <g id="line2d_23">
      <g>
       <use xlink:href="#mee26c24baa" x="303.388939" y="241.25" style="stroke: #000000; stroke-width: 1.25"/>
      </g>
     </g>
     <g id="text_23">
      <!-- SDEvelo -->
      <g style="fill: #262626" transform="translate(306.148314 291.085937) rotate(-90) scale(0.1 -0.1)">
       <use xlink:href="#DejaVuSans-53"/>
       <use xlink:href="#DejaVuSans-44" transform="translate(63.476562 0)"/>
       <use xlink:href="#DejaVuSans-45" transform="translate(140.478516 0)"/>
       <use xlink:href="#DejaVuSans-76" transform="translate(203.662109 0)"/>
       <use xlink:href="#DejaVuSans-65" transform="translate(262.841797 0)"/>
       <use xlink:href="#DejaVuSans-6c" transform="translate(324.365234 0)"/>
       <use xlink:href="#DejaVuSans-6f" transform="translate(352.148438 0)"/>
      </g>
     </g>
    </g>
    <g id="xtick_24">
     <g id="line2d_24">
      <g>
       <use xlink:href="#mee26c24baa" x="315.240833" y="241.25" style="stroke: #000000; stroke-width: 1.25"/>
      </g>
     </g>
     <g id="text_24">
      <!-- VeloAE -->
      <g style="fill: #262626" transform="translate(318.000208 284.025) rotate(-90) scale(0.1 -0.1)">
       <use xlink:href="#DejaVuSans-56"/>
       <use xlink:href="#DejaVuSans-65" transform="translate(60.658203 0)"/>
       <use xlink:href="#DejaVuSans-6c" transform="translate(122.181641 0)"/>
       <use xlink:href="#DejaVuSans-6f" transform="translate(149.964844 0)"/>
       <use xlink:href="#DejaVuSans-41" transform="translate(211.146484 0)"/>
       <use xlink:href="#DejaVuSans-45" transform="translate(279.554688 0)"/>
      </g>
     </g>
    </g>
    <g id="xtick_25">
     <g id="line2d_25">
      <g>
       <use xlink:href="#mee26c24baa" x="327.092727" y="241.25" style="stroke: #000000; stroke-width: 1.25"/>
      </g>
     </g>
     <g id="text_25">
      <!-- Velocyto -->
      <g style="fill: #262626" transform="translate(329.852102 292.321875) rotate(-90) scale(0.1 -0.1)">
       <use xlink:href="#DejaVuSans-56"/>
       <use xlink:href="#DejaVuSans-65" transform="translate(60.658203 0)"/>
       <use xlink:href="#DejaVuSans-6c" transform="translate(122.181641 0)"/>
       <use xlink:href="#DejaVuSans-6f" transform="translate(149.964844 0)"/>
       <use xlink:href="#DejaVuSans-63" transform="translate(211.146484 0)"/>
       <use xlink:href="#DejaVuSans-79" transform="translate(266.126953 0)"/>
       <use xlink:href="#DejaVuSans-74" transform="translate(325.306641 0)"/>
       <use xlink:href="#DejaVuSans-6f" transform="translate(364.515625 0)"/>
      </g>
     </g>
    </g>
   </g>
   <g id="matplotlib.axis_2">
    <g id="ytick_1">
     <g id="line2d_26">
      <defs>
       <path id="mccc13c4fb8" d="M 0 0 
L -5 0 
" style="stroke: #000000; stroke-width: 1.25"/>
      </defs>
      <g>
       <use xlink:href="#mccc13c4fb8" x="28.425" y="236.749038" style="stroke: #000000; stroke-width: 1.25"/>
      </g>
     </g>
     <g id="text_26">
      <!-- 0 -->
      <g style="fill: #262626" transform="translate(13.5625 240.548257) scale(0.1 -0.1)">
       <defs>
        <path id="DejaVuSans-30" d="M 2034 4250 
Q 1547 4250 1301 3770 
Q 1056 3291 1056 2328 
Q 1056 1369 1301 889 
Q 1547 409 2034 409 
Q 2525 409 2770 889 
Q 3016 1369 3016 2328 
Q 3016 3291 2770 3770 
Q 2525 4250 2034 4250 
z
M 2034 4750 
Q 2819 4750 3233 4129 
Q 3647 3509 3647 2328 
Q 3647 1150 3233 529 
Q 2819 -91 2034 -91 
Q 1250 -91 836 529 
Q 422 1150 422 2328 
Q 422 3509 836 4129 
Q 1250 4750 2034 4750 
z
" transform="scale(0.015625)"/>
       </defs>
       <use xlink:href="#DejaVuSans-30"/>
      </g>
     </g>
    </g>
    <g id="ytick_2">
     <g id="line2d_27">
      <g>
       <use xlink:href="#mccc13c4fb8" x="28.425" y="191.739423" style="stroke: #000000; stroke-width: 1.25"/>
      </g>
     </g>
     <g id="text_27">
      <!-- 5 -->
      <g style="fill: #262626" transform="translate(13.5625 195.538642) scale(0.1 -0.1)">
       <defs>
        <path id="DejaVuSans-35" d="M 691 4666 
L 3169 4666 
L 3169 4134 
L 1269 4134 
L 1269 2991 
Q 1406 3038 1543 3061 
Q 1681 3084 1819 3084 
Q 2600 3084 3056 2656 
Q 3513 2228 3513 1497 
Q 3513 744 3044 326 
Q 2575 -91 1722 -91 
Q 1428 -91 1123 -41 
Q 819 9 494 109 
L 494 744 
Q 775 591 1075 516 
Q 1375 441 1709 441 
Q 2250 441 2565 725 
Q 2881 1009 2881 1497 
Q 2881 1984 2565 2268 
Q 2250 2553 1709 2553 
Q 1456 2553 1204 2497 
Q 953 2441 691 2322 
L 691 4666 
z
" transform="scale(0.015625)"/>
       </defs>
       <use xlink:href="#DejaVuSans-35"/>
      </g>
     </g>
    </g>
    <g id="ytick_3">
     <g id="line2d_28">
      <g>
       <use xlink:href="#mccc13c4fb8" x="28.425" y="146.729808" style="stroke: #000000; stroke-width: 1.25"/>
      </g>
     </g>
     <g id="text_28">
      <!-- 10 -->
      <g style="fill: #262626" transform="translate(7.2 150.529026) scale(0.1 -0.1)">
       <use xlink:href="#DejaVuSans-31"/>
       <use xlink:href="#DejaVuSans-30" transform="translate(63.623047 0)"/>
      </g>
     </g>
    </g>
    <g id="ytick_4">
     <g id="line2d_29">
      <g>
       <use xlink:href="#mccc13c4fb8" x="28.425" y="101.720192" style="stroke: #000000; stroke-width: 1.25"/>
      </g>
     </g>
     <g id="text_29">
      <!-- 15 -->
      <g style="fill: #262626" transform="translate(7.2 105.519411) scale(0.1 -0.1)">
       <use xlink:href="#DejaVuSans-31"/>
       <use xlink:href="#DejaVuSans-35" transform="translate(63.623047 0)"/>
      </g>
     </g>
    </g>
    <g id="ytick_5">
     <g id="line2d_30">
      <g>
       <use xlink:href="#mccc13c4fb8" x="28.425" y="56.710577" style="stroke: #000000; stroke-width: 1.25"/>
      </g>
     </g>
     <g id="text_30">
      <!-- 20 -->
      <g style="fill: #262626" transform="translate(7.2 60.509796) scale(0.1 -0.1)">
       <use xlink:href="#DejaVuSans-32"/>
       <use xlink:href="#DejaVuSans-30" transform="translate(63.623047 0)"/>
      </g>
     </g>
    </g>
    <g id="ytick_6">
     <g id="line2d_31">
      <g>
       <use xlink:href="#mccc13c4fb8" x="28.425" y="11.700962" style="stroke: #000000; stroke-width: 1.25"/>
      </g>
     </g>
     <g id="text_31">
      <!-- 25 -->
      <g style="fill: #262626" transform="translate(7.2 15.50018) scale(0.1 -0.1)">
       <use xlink:href="#DejaVuSans-32"/>
       <use xlink:href="#DejaVuSans-35" transform="translate(63.623047 0)"/>
      </g>
     </g>
    </g>
   </g>
   <g id="PathCollection_1">
    <defs>
     <path id="C0_0_3d2d8e2dee" d="M 0 3.535534 
C 0.937635 3.535534 1.836992 3.163008 2.5 2.5 
C 3.163008 1.836992 3.535534 0.937635 3.535534 -0 
C 3.535534 -0.937635 3.163008 -1.836992 2.5 -2.5 
C 1.836992 -3.163008 0.937635 -3.535534 0 -3.535534 
C -0.937635 -3.535534 -1.836992 -3.163008 -2.5 -2.5 
C -3.163008 -1.836992 -3.535534 -0.937635 -3.535534 0 
C -3.535534 0.937635 -3.163008 1.836992 -2.5 2.5 
C -1.836992 3.163008 -0.937635 3.535534 0 3.535534 
z
"/>
    </defs>
    <g clip-path="url(#pc87a54bbc4)">
     <use xlink:href="#C0_0_3d2d8e2dee" x="42.647273" y="47.708654" style="fill: #76b7b2; stroke: #76b7b2"/>
    </g>
    <g clip-path="url(#pc87a54bbc4)">
     <use xlink:href="#C0_0_3d2d8e2dee" x="54.499167" y="74.714423" style="fill: #8d6262; stroke: #8d6262"/>
    </g>
    <g clip-path="url(#pc87a54bbc4)">
     <use xlink:href="#C0_0_3d2d8e2dee" x="66.351061" y="74.714423" style="fill: #7abbef; stroke: #7abbef"/>
    </g>
    <g clip-path="url(#pc87a54bbc4)">
     <use xlink:href="#C0_0_3d2d8e2dee" x="78.202955" y="101.720192" style="fill: #faaea0; stroke: #faaea0"/>
    </g>
    <g clip-path="url(#pc87a54bbc4)">
     <use xlink:href="#C0_0_3d2d8e2dee" x="90.054848" y="173.735577" style="fill: #dc6f71; stroke: #dc6f71"/>
    </g>
    <g clip-path="url(#pc87a54bbc4)">
     <use xlink:href="#C0_0_3d2d8e2dee" x="101.906742" y="173.735577" style="fill: #aa4c8f; stroke: #aa4c8f"/>
    </g>
    <g clip-path="url(#pc87a54bbc4)">
     <use xlink:href="#C0_0_3d2d8e2dee" x="113.758636" y="191.739423" style="fill: #fbebb2; stroke: #fbebb2"/>
    </g>
    <g clip-path="url(#pc87a54bbc4)">
     <use xlink:href="#C0_0_3d2d8e2dee" x="125.61053" y="191.739423" style="fill: #a4ab47; stroke: #a4ab47"/>
    </g>
    <g clip-path="url(#pc87a54bbc4)">
     <use xlink:href="#C0_0_3d2d8e2dee" x="137.462424" y="191.739423" style="fill: #006e54; stroke: #006e54"/>
    </g>
    <g clip-path="url(#pc87a54bbc4)">
     <use xlink:href="#C0_0_3d2d8e2dee" x="149.314318" y="200.741346" style="fill: #c6a11b; stroke: #c6a11b"/>
    </g>
    <g clip-path="url(#pc87a54bbc4)">
     <use xlink:href="#C0_0_3d2d8e2dee" x="161.166212" y="200.741346" style="fill: #e9b6da; stroke: #e9b6da"/>
    </g>
    <g clip-path="url(#pc87a54bbc4)">
     <use xlink:href="#C0_0_3d2d8e2dee" x="173.018106" y="200.741346" style="fill: #f6d55c; stroke: #f6d55c"/>
    </g>
    <g clip-path="url(#pc87a54bbc4)">
     <use xlink:href="#C0_0_3d2d8e2dee" x="184.87" y="200.741346" style="fill: #d2660d; stroke: #d2660d"/>
    </g>
    <g clip-path="url(#pc87a54bbc4)">
     <use xlink:href="#C0_0_3d2d8e2dee" x="196.721894" y="200.741346" style="fill: #333631; stroke: #333631"/>
    </g>
    <g clip-path="url(#pc87a54bbc4)">
     <use xlink:href="#C0_0_3d2d8e2dee" x="208.573788" y="200.741346" style="fill: #bbc8e6; stroke: #bbc8e6"/>
    </g>
    <g clip-path="url(#pc87a54bbc4)">
     <use xlink:href="#C0_0_3d2d8e2dee" x="220.425682" y="200.741346" style="fill: #afb39f; stroke: #afb39f"/>
    </g>
    <g clip-path="url(#pc87a54bbc4)">
     <use xlink:href="#C0_0_3d2d8e2dee" x="232.277576" y="209.743269" style="fill: #a7e6d7; stroke: #a7e6d7"/>
    </g>
    <g clip-path="url(#pc87a54bbc4)">
     <use xlink:href="#C0_0_3d2d8e2dee" x="244.12947" y="218.745192" style="fill: #c4d6a0; stroke: #c4d6a0"/>
    </g>
    <g clip-path="url(#pc87a54bbc4)">
     <use xlink:href="#C0_0_3d2d8e2dee" x="255.981364" y="227.747115" style="fill: #ad2513; stroke: #ad2513"/>
    </g>
    <g clip-path="url(#pc87a54bbc4)">
     <use xlink:href="#C0_0_3d2d8e2dee" x="267.833258" y="227.747115" style="fill: #8491c3; stroke: #8491c3"/>
    </g>
    <g clip-path="url(#pc87a54bbc4)">
     <use xlink:href="#C0_0_3d2d8e2dee" x="279.685152" y="227.747115" style="fill: #4d5aaf; stroke: #4d5aaf"/>
    </g>
    <g clip-path="url(#pc87a54bbc4)">
     <use xlink:href="#C0_0_3d2d8e2dee" x="291.537045" y="227.747115" style="fill: #92cb8a; stroke: #92cb8a"/>
    </g>
    <g clip-path="url(#pc87a54bbc4)">
     <use xlink:href="#C0_0_3d2d8e2dee" x="303.388939" y="227.747115" style="fill: #22808b; stroke: #22808b"/>
    </g>
    <g clip-path="url(#pc87a54bbc4)">
     <use xlink:href="#C0_0_3d2d8e2dee" x="315.240833" y="236.749038" style="fill: #f6a24f; stroke: #f6a24f"/>
    </g>
    <g clip-path="url(#pc87a54bbc4)">
     <use xlink:href="#C0_0_3d2d8e2dee" x="327.092727" y="236.749038" style="fill: #6587ab; stroke: #6587ab"/>
    </g>
   </g>
   <g id="line2d_32">
    <path d="M 28.425 101.720192 
L 341.315 101.720192 
" clip-path="url(#pc87a54bbc4)" style="fill: none; stroke-dasharray: 5.55,2.4; stroke-dashoffset: 0; stroke: #ff0000; stroke-width: 1.5"/>
   </g>
   <g id="patch_3">
    <path d="M 28.425 241.25 
L 28.425 7.2 
" style="fill: none; stroke: #000000; stroke-linejoin: miter; stroke-linecap: square"/>
   </g>
   <g id="patch_4">
    <path d="M 341.315 241.25 
L 341.315 7.2 
" style="fill: none; stroke: #000000; stroke-linejoin: miter; stroke-linecap: square"/>
   </g>
   <g id="patch_5">
    <path d="M 28.425 241.25 
L 341.315 241.25 
" style="fill: none; stroke: #000000; stroke-linejoin: miter; stroke-linecap: square"/>
   </g>
   <g id="patch_6">
    <path d="M 28.425 7.2 
L 341.315 7.2 
" style="fill: none; stroke: #000000; stroke-linejoin: miter; stroke-linecap: square"/>
   </g>
  </g>
 </g>
 <defs>
  <clipPath id="pc87a54bbc4">
   <rect x="28.425" y="7.2" width="312.89" height="234.05"/>
  </clipPath>
 </defs>
</svg>
