<?xml version="1.0" encoding="utf-8" standalone="no"?>
<!DOCTYPE svg PUBLIC "-//W3C//DTD SVG 1.1//EN"
  "http://www.w3.org/Graphics/SVG/1.1/DTD/svg11.dtd">
<svg xmlns:xlink="http://www.w3.org/1999/xlink" width="348.54pt" height="347.13375pt" viewBox="0 0 348.54 347.13375" xmlns="http://www.w3.org/2000/svg" version="1.1">
 <metadata>
  <rdf:RDF xmlns:dc="http://purl.org/dc/elements/1.1/" xmlns:cc="http://creativecommons.org/ns#" xmlns:rdf="http://www.w3.org/1999/02/22-rdf-syntax-ns#">
   <cc:Work>
    <dc:type rdf:resource="http://purl.org/dc/dcmitype/StillImage"/>
    <dc:date>2026-05-11T23:29:44.094331</dc:date>
    <dc:format>image/svg+xml</dc:format>
    <dc:creator>
     <cc:Agent>
      <dc:title>Matplotlib v3.10.5, https://matplotlib.org/</dc:title>
     </cc:Agent>
    </dc:creator>
   </cc:Work>
  </rdf:RDF>
 </metadata>
 <defs>
  <style type="text/css">*{stroke-linejoin: round; stroke-linecap: butt}</style>
 </defs>
 <g id="figure_1">
  <g id="patch_1">
   <path d="M 0 347.13375 
L 348.54 347.13375 
L 348.54 0 
L 0 0 
z
" style="fill: #ffffff"/>
  </g>
  <g id="axes_1">
   <g id="patch_2">
    <path d="M 30.97 319.82 
L 341.34 319.82 
L 341.34 7.2 
L 30.97 7.2 
z
" style="fill: #ffffff"/>
   </g>
   <g id="matplotlib.axis_1">
    <g id="xtick_1">
     <g id="line2d_1">
      <defs>
       <path id="m1e3ed73efc" d="M 0 0 
L 0 5 
" style="stroke: #000000; stroke-width: 1.25"/>
      </defs>
      <g>
       <use xlink:href="#m1e3ed73efc" x="30.97" y="319.82" style="stroke: #000000; stroke-width: 1.25"/>
      </g>
     </g>
     <g id="text_1">
      <!-- 0 -->
      <g style="fill: #262626" transform="translate(27.1525 337.438125) scale(0.12 -0.12)">
       <defs>
        <path id="DejaVuSans-30" d="M 2034 4250 
Q 1547 4250 1301 3770 
Q 1056 3291 1056 2328 
Q 1056 1369 1301 889 
Q 1547 409 2034 409 
Q 2525 409 2770 889 
Q 3016 1369 3016 2328 
Q 3016 3291 2770 3770 
Q 2525 4250 2034 4250 
z
M 2034 4750 
Q 2819 4750 3233 4129 
Q 3647 3509 3647 2328 
Q 3647 1150 3233 529 
Q 2819 -91 2034 -91 
Q 1250 -91 836 529 
Q 422 1150 422 2328 
Q 422 3509 836 4129 
Q 1250 4750 2034 4750 
z
" transform="scale(0.015625)"/>
       </defs>
       <use xlink:href="#DejaVuSans-30"/>
      </g>
     </g>
    </g>
    <g id="xtick_2">
     <g id="line2d_2">
      <g>
       <use xlink:href="#m1e3ed73efc" x="90.656538" y="319.82" style="stroke: #000000; stroke-width: 1.25"/>
      </g>
     </g>
     <g id="text_2">
      <!-- 5 -->
      <g style="fill: #262626" transform="translate(86.839038 337.438125) scale(0.12 -0.12)">
       <defs>
        <path id="DejaVuSans-35" d="M 691 4666 
L 3169 4666 
L 3169 4134 
L 1269 4134 
L 1269 2991 
Q 1406 3038 1543 3061 
Q 1681 3084 1819 3084 
Q 2600 3084 3056 2656 
Q 3513 2228 3513 1497 
Q 3513 744 3044 326 
Q 2575 -91 1722 -91 
Q 1428 -91 1123 -41 
Q 819 9 494 109 
L 494 744 
Q 775 591 1075 516 
Q 1375 441 1709 441 
Q 2250 441 2565 725 
Q 2881 1009 2881 1497 
Q 2881 1984 2565 2268 
Q 2250 2553 1709 2553 
Q 1456 2553 1204 2497 
Q 953 2441 691 2322 
L 691 4666 
z
" transform="scale(0.015625)"/>
       </defs>
       <use xlink:href="#DejaVuSans-35"/>
      </g>
     </g>
    </g>
    <g id="xtick_3">
     <g id="line2d_3">
      <g>
       <use xlink:href="#m1e3ed73efc" x="150.343077" y="319.82" style="stroke: #000000; stroke-width: 1.25"/>
      </g>
     </g>
     <g id="text_3">
      <!-- 10 -->
      <g style="fill: #262626" transform="translate(142.708077 337.438125) scale(0.12 -0.12)">
       <defs>
        <path id="DejaVuSans-31" d="M 794 531 
L 1825 531 
L 1825 4091 
L 703 3866 
L 703 4441 
L 1819 4666 
L 2450 4666 
L 2450 531 
L 3481 531 
L 3481 0 
L 794 0 
L 794 531 
z
" transform="scale(0.015625)"/>
       </defs>
       <use xlink:href="#DejaVuSans-31"/>
       <use xlink:href="#DejaVuSans-30" transform="translate(63.623047 0)"/>
      </g>
     </g>
    </g>
    <g id="xtick_4">
     <g id="line2d_4">
      <g>
       <use xlink:href="#m1e3ed73efc" x="210.029615" y="319.82" style="stroke: #000000; stroke-width: 1.25"/>
      </g>
     </g>
     <g id="text_4">
      <!-- 15 -->
      <g style="fill: #262626" transform="translate(202.394615 337.438125) scale(0.12 -0.12)">
       <use xlink:href="#DejaVuSans-31"/>
       <use xlink:href="#DejaVuSans-35" transform="translate(63.623047 0)"/>
      </g>
     </g>
    </g>
    <g id="xtick_5">
     <g id="line2d_5">
      <g>
       <use xlink:href="#m1e3ed73efc" x="269.716154" y="319.82" style="stroke: #000000; stroke-width: 1.25"/>
      </g>
     </g>
     <g id="text_5">
      <!-- 20 -->
      <g style="fill: #262626" transform="translate(262.081154 337.438125) scale(0.12 -0.12)">
       <defs>
        <path id="DejaVuSans-32" d="M 1228 531 
L 3431 531 
L 3431 0 
L 469 0 
L 469 531 
Q 828 903 1448 1529 
Q 2069 2156 2228 2338 
Q 2531 2678 2651 2914 
Q 2772 3150 2772 3378 
Q 2772 3750 2511 3984 
Q 2250 4219 1831 4219 
Q 1534 4219 1204 4116 
Q 875 4013 500 3803 
L 500 4441 
Q 881 4594 1212 4672 
Q 1544 4750 1819 4750 
Q 2544 4750 2975 4387 
Q 3406 4025 3406 3419 
Q 3406 3131 3298 2873 
Q 3191 2616 2906 2266 
Q 2828 2175 2409 1742 
Q 1991 1309 1228 531 
z
" transform="scale(0.015625)"/>
       </defs>
       <use xlink:href="#DejaVuSans-32"/>
       <use xlink:href="#DejaVuSans-30" transform="translate(63.623047 0)"/>
      </g>
     </g>
    </g>
    <g id="xtick_6">
     <g id="line2d_6">
      <g>
       <use xlink:href="#m1e3ed73efc" x="329.402692" y="319.82" style="stroke: #000000; stroke-width: 1.25"/>
      </g>
     </g>
     <g id="text_6">
      <!-- 25 -->
      <g style="fill: #262626" transform="translate(321.767692 337.438125) scale(0.12 -0.12)">
       <use xlink:href="#DejaVuSans-32"/>
       <use xlink:href="#DejaVuSans-35" transform="translate(63.623047 0)"/>
      </g>
     </g>
    </g>
   </g>
   <g id="matplotlib.axis_2">
    <g id="ytick_1">
     <g id="line2d_7">
      <defs>
       <path id="mf42f46be11" d="M 0 0 
L -5 0 
" style="stroke: #000000; stroke-width: 1.25"/>
      </defs>
      <g>
       <use xlink:href="#mf42f46be11" x="30.97" y="319.82" style="stroke: #000000; stroke-width: 1.25"/>
      </g>
     </g>
     <g id="text_7">
      <!-- 0 -->
      <g style="fill: #262626" transform="translate(14.835 324.379062) scale(0.12 -0.12)">
       <use xlink:href="#DejaVuSans-30"/>
      </g>
     </g>
    </g>
    <g id="ytick_2">
     <g id="line2d_8">
      <g>
       <use xlink:href="#mf42f46be11" x="30.97" y="259.700769" style="stroke: #000000; stroke-width: 1.25"/>
      </g>
     </g>
     <g id="text_8">
      <!-- 5 -->
      <g style="fill: #262626" transform="translate(14.835 264.259832) scale(0.12 -0.12)">
       <use xlink:href="#DejaVuSans-35"/>
      </g>
     </g>
    </g>
    <g id="ytick_3">
     <g id="line2d_9">
      <g>
       <use xlink:href="#mf42f46be11" x="30.97" y="199.581538" style="stroke: #000000; stroke-width: 1.25"/>
      </g>
     </g>
     <g id="text_9">
      <!-- 10 -->
      <g style="fill: #262626" transform="translate(7.2 204.140601) scale(0.12 -0.12)">
       <use xlink:href="#DejaVuSans-31"/>
       <use xlink:href="#DejaVuSans-30" transform="translate(63.623047 0)"/>
      </g>
     </g>
    </g>
    <g id="ytick_4">
     <g id="line2d_10">
      <g>
       <use xlink:href="#mf42f46be11" x="30.97" y="139.462308" style="stroke: #000000; stroke-width: 1.25"/>
      </g>
     </g>
     <g id="text_10">
      <!-- 15 -->
      <g style="fill: #262626" transform="translate(7.2 144.02137) scale(0.12 -0.12)">
       <use xlink:href="#DejaVuSans-31"/>
       <use xlink:href="#DejaVuSans-35" transform="translate(63.623047 0)"/>
      </g>
     </g>
    </g>
    <g id="ytick_5">
     <g id="line2d_11">
      <g>
       <use xlink:href="#mf42f46be11" x="30.97" y="79.343077" style="stroke: #000000; stroke-width: 1.25"/>
      </g>
     </g>
     <g id="text_11">
      <!-- 20 -->
      <g style="fill: #262626" transform="translate(7.2 83.902139) scale(0.12 -0.12)">
       <use xlink:href="#DejaVuSans-32"/>
       <use xlink:href="#DejaVuSans-30" transform="translate(63.623047 0)"/>
      </g>
     </g>
    </g>
    <g id="ytick_6">
     <g id="line2d_12">
      <g>
       <use xlink:href="#mf42f46be11" x="30.97" y="19.223846" style="stroke: #000000; stroke-width: 1.25"/>
      </g>
     </g>
     <g id="text_12">
      <!-- 25 -->
      <g style="fill: #262626" transform="translate(7.2 23.782909) scale(0.12 -0.12)">
       <use xlink:href="#DejaVuSans-32"/>
       <use xlink:href="#DejaVuSans-35" transform="translate(63.623047 0)"/>
      </g>
     </g>
    </g>
   </g>
   <g id="PathCollection_1">
    <defs>
     <path id="C0_0_b2a50ec9be" d="M 0 4.472136 
C 1.186024 4.472136 2.323632 4.000923 3.162278 3.162278 
C 4.000923 2.323632 4.472136 1.186024 4.472136 -0 
C 4.472136 -1.186024 4.000923 -2.323632 3.162278 -3.162278 
C 2.323632 -4.000923 1.186024 -4.472136 0 -4.472136 
C -1.186024 -4.472136 -2.323632 -4.000923 -3.162278 -3.162278 
C -4.000923 -2.323632 -4.472136 -1.186024 -4.472136 0 
C -4.472136 1.186024 -4.000923 2.323632 -3.162278 3.162278 
C -2.323632 4.000923 -1.186024 4.472136 0 4.472136 
z
"/>
    </defs>
    <g clip-path="url(#p6808103522)">
     <use xlink:href="#C0_0_b2a50ec9be" x="210.029615" y="127.438462" style="fill: #ad2513; stroke: #ad2513"/>
    </g>
    <g clip-path="url(#p6808103522)">
     <use xlink:href="#C0_0_b2a50ec9be" x="138.405769" y="259.700769" style="fill: #d2660d; stroke: #d2660d"/>
    </g>
    <g clip-path="url(#p6808103522)">
     <use xlink:href="#C0_0_b2a50ec9be" x="102.593846" y="163.51" style="fill: #dc6f71; stroke: #dc6f71"/>
    </g>
    <g clip-path="url(#p6808103522)">
     <use xlink:href="#C0_0_b2a50ec9be" x="257.778846" y="115.414615" style="fill: #c4d6a0; stroke: #c4d6a0"/>
    </g>
    <g clip-path="url(#p6808103522)">
     <use xlink:href="#C0_0_b2a50ec9be" x="221.966923" y="67.319231" style="fill: #006e54; stroke: #006e54"/>
    </g>
    <g clip-path="url(#p6808103522)">
     <use xlink:href="#C0_0_b2a50ec9be" x="150.343077" y="235.653077" style="fill: #a7e6d7; stroke: #a7e6d7"/>
    </g>
    <g clip-path="url(#p6808103522)">
     <use xlink:href="#C0_0_b2a50ec9be" x="317.465385" y="19.223846" style="fill: #4d5aaf; stroke: #4d5aaf"/>
    </g>
    <g clip-path="url(#p6808103522)">
     <use xlink:href="#C0_0_b2a50ec9be" x="281.653462" y="55.295385" style="fill: #8491c3; stroke: #8491c3"/>
    </g>
    <g clip-path="url(#p6808103522)">
     <use xlink:href="#C0_0_b2a50ec9be" x="257.778846" y="139.462308" style="fill: #bbc8e6; stroke: #bbc8e6"/>
    </g>
    <g clip-path="url(#p6808103522)">
     <use xlink:href="#C0_0_b2a50ec9be" x="90.656538" y="271.724615" style="fill: #92cb8a; stroke: #92cb8a"/>
    </g>
    <g clip-path="url(#p6808103522)">
     <use xlink:href="#C0_0_b2a50ec9be" x="42.907308" y="295.772308" style="fill: #22808b; stroke: #22808b"/>
    </g>
    <g clip-path="url(#p6808103522)">
     <use xlink:href="#C0_0_b2a50ec9be" x="221.966923" y="175.533846" style="fill: #f6d55c; stroke: #f6d55c"/>
    </g>
    <g clip-path="url(#p6808103522)">
     <use xlink:href="#C0_0_b2a50ec9be" x="245.841538" y="151.486154" style="fill: #afb39f; stroke: #afb39f"/>
    </g>
    <g clip-path="url(#p6808103522)">
     <use xlink:href="#C0_0_b2a50ec9be" x="198.092308" y="199.581538" style="fill: #333631; stroke: #333631"/>
    </g>
    <g clip-path="url(#p6808103522)">
     <use xlink:href="#C0_0_b2a50ec9be" x="186.155" y="211.605385" style="fill: #e9b6da; stroke: #e9b6da"/>
    </g>
    <g clip-path="url(#p6808103522)">
     <use xlink:href="#C0_0_b2a50ec9be" x="126.468462" y="307.796154" style="fill: #aa4c8f; stroke: #aa4c8f"/>
    </g>
    <g clip-path="url(#p6808103522)">
     <use xlink:href="#C0_0_b2a50ec9be" x="162.280385" y="187.557692" style="fill: #f6a24f; stroke: #f6a24f"/>
    </g>
    <g clip-path="url(#p6808103522)">
     <use xlink:href="#C0_0_b2a50ec9be" x="66.781923" y="283.748462" style="fill: #6587ab; stroke: #6587ab"/>
    </g>
    <g clip-path="url(#p6808103522)">
     <use xlink:href="#C0_0_b2a50ec9be" x="293.590769" y="115.414615" style="fill: #fbebb2; stroke: #fbebb2"/>
    </g>
    <g clip-path="url(#p6808103522)">
     <use xlink:href="#C0_0_b2a50ec9be" x="305.528077" y="91.366923" style="fill: #c6a11b; stroke: #c6a11b"/>
    </g>
    <g clip-path="url(#p6808103522)">
     <use xlink:href="#C0_0_b2a50ec9be" x="174.217692" y="235.653077" style="fill: #a4ab47; stroke: #a4ab47"/>
    </g>
   </g>
   <g id="patch_3">
    <path d="M 30.97 319.82 
L 30.97 7.2 
" style="fill: none; stroke: #000000; stroke-linejoin: miter; stroke-linecap: square"/>
   </g>
   <g id="patch_4">
    <path d="M 341.34 319.82 
L 341.34 7.2 
" style="fill: none; stroke: #000000; stroke-linejoin: miter; stroke-linecap: square"/>
   </g>
   <g id="patch_5">
    <path d="M 30.97 319.82 
L 341.34 319.82 
" style="fill: none; stroke: #000000; stroke-linejoin: miter; stroke-linecap: square"/>
   </g>
   <g id="patch_6">
    <path d="M 30.97 7.2 
L 341.34 7.2 
" style="fill: none; stroke: #000000; stroke-linejoin: miter; stroke-linecap: square"/>
   </g>
  </g>
 </g>
 <defs>
  <clipPath id="p6808103522">
   <rect x="30.97" y="7.2" width="310.37" height="312.62"/>
  </clipPath>
 </defs>
</svg>
